<svg xmlns="http://www.w3.org/2000/svg" viewBox="0 0 195.78 108.42"><defs><style>.cls-1{fill:#181ca9;}.cls-2{fill:none;}</style></defs><g id="Layer_2" data-name="Layer 2"><g id="Layer_1-2" data-name="Layer 1"><path class="cls-1" d="M57.15,65.67a7.14,7.14,0,1,0,7.14,7.14A7.14,7.14,0,0,0,57.15,65.67Zm0,12.68a5.55,5.55,0,1,1,5.55-5.54A5.54,5.54,0,0,1,57.15,78.35Z"/><path class="cls-1" d="M137.78,65.67a7.14,7.14,0,1,0,7.14,7.14A7.14,7.14,0,0,0,137.78,65.67Zm0,12.68a5.55,5.55,0,1,1,5.54-5.54A5.54,5.54,0,0,1,137.78,78.35Z"/><path class="cls-1" d="M164.72,59.06a1,1,0,0,0-.14-.15V49.69a.8.8,0,0,0-.8-.8c-6.53,0-11.23-2.43-16.67-5.25A85.38,85.38,0,0,0,136.94,39c-11.68-4.32-31.37-4.6-44.72-3.05C78.1,37.56,64.43,46.57,62.83,47.65c-2,.4-19.15,3.92-24.89,5.7a8.74,8.74,0,0,0-6.38,7.72,4,4,0,0,0-2.44,3.71v8a4.06,4.06,0,0,0,4.05,4H46.39a11.46,11.46,0,0,0,21.52,0H127a11.47,11.47,0,0,0,21.54,0h1.15l12.91-2.27a4.06,4.06,0,0,0,4-4v-8A4,4,0,0,0,164.72,59.06Zm-131.14.3c1.86-2,5.85-1.63,8-1.21l-2.69,2.69H33.2A7.68,7.68,0,0,1,33.58,59.36Zm-2.86,9.52h5a1.12,1.12,0,1,1,0,2.23h-5Zm2.45,6.33a2.45,2.45,0,0,1-2.45-2.45v-.05H45.64s0,.06,0,.1a11.24,11.24,0,0,0,.26,2.4Zm24,7.52a9.93,9.93,0,1,1,9.92-9.92A9.93,9.93,0,0,1,57.15,82.73Zm11.26-7.52a11.92,11.92,0,0,0,.26-2.4s0-.06,0-.1h57.61s0,.06,0,.1a11.24,11.24,0,0,0,.26,2.4Zm69.37,7.52a9.93,9.93,0,1,1,9.92-9.92A9.93,9.93,0,0,1,137.78,82.73Zm24.69-9.79-12.91,2.27H149a11.24,11.24,0,0,0,.26-2.4s0-.06,0-.1h14.26A2.89,2.89,0,0,1,162.47,72.94Zm2.59-2.47a2.28,2.28,0,0,1-.13.64h-15.8a11.47,11.47,0,0,0-22.7,0H68.49a11.46,11.46,0,0,0-22.69,0H38.16A2.63,2.63,0,0,0,38.41,70a2.71,2.71,0,0,0-2.71-2.71h-5v-2.5a2.45,2.45,0,0,1,1.76-2.34h6.69a.76.76,0,0,0,.56-.24l3.94-3.93a.82.82,0,0,0,.22-.76.81.81,0,0,0-.55-.57,17.12,17.12,0,0,0-7.92-.4,7.88,7.88,0,0,1,3-1.66c5.89-1.83,24.7-5.65,24.89-5.69a.59.59,0,0,0,.29-.13c.15-.09,14.5-9.9,28.82-11.56,13.17-1.54,32.54-1.26,44,3a83.5,83.5,0,0,1,10,4.61c5.41,2.8,10.11,5.23,16.61,5.42v1.25a4.91,4.91,0,0,0-4.27,2.47c-1.35,2.35-1.7,3.94-1.09,5a2.61,2.61,0,0,0,2.46,1.12h3.57a2.45,2.45,0,0,1,1.41,2.17ZM163,53.32v5.4h-2.9c-.33,0-.91,0-1.07-.32s-.33-.95,1.09-3.4A3.34,3.34,0,0,1,163,53.32Z"/><path class="cls-1" d="M145.23,47.27a76.19,76.19,0,0,0-9.67-4.53c-6.16-2.21-16.9-3.66-28.07-3.66A107.85,107.85,0,0,0,92.71,40c-12,1.58-24.45,8.81-27.15,10.73a.77.77,0,0,0-.29.92.73.73,0,0,0,.72.53H66c.53,0,51.27-1.93,78.86-3.37a.83.83,0,0,0,.77-.63A.77.77,0,0,0,145.23,47.27ZM101.38,49c-12.95.53-27.35,1.23-32.45,1.42,4.77-2.84,14.56-7.7,24-8.9a74.52,74.52,0,0,1,8.48-.75Zm29.41-1.18-1.59.1c-9.48.43-16.65.6-26.23,1V40.69c2-.11,3-.08,5.4-.08a114.49,114.49,0,0,1,19,1.75A36.4,36.4,0,0,1,135,44.28a66.05,66.05,0,0,1,6.88,3C138.45,47.51,134.69,47.65,130.79,47.84Z"/><path class="cls-1" d="M102.18,52.67a.8.8,0,0,0-.8.8V68.23a.8.8,0,0,0,1.6,0V53.47A.8.8,0,0,0,102.18,52.67Z"/><path class="cls-1" d="M63.1,53.54A19.42,19.42,0,0,0,58.82,59a.8.8,0,0,0,.28,1.09.77.77,0,0,0,.41.11.78.78,0,0,0,.68-.39,19,19,0,0,1,3.87-5,.8.8,0,0,0-1-1.27Z"/><rect class="cls-2" width="195.78" height="108.42"/></g></g></svg>