<svg xmlns="http://www.w3.org/2000/svg" viewBox="0 0 195.78 108.42"><defs><style>.cls-1{fill:#181ca9;}.cls-2{fill:none;}</style></defs><g id="Layer_2" data-name="Layer 2"><g id="Layer_1-2" data-name="Layer 1"><path class="cls-1" d="M160.26,21.62H81.38a11.67,11.67,0,0,0-6.74,2.89L50.19,46.88c-1.42.94-13.95,9.22-15,10.19A8.48,8.48,0,0,0,32,63.32v9.24A3.48,3.48,0,0,0,35.51,76h9.13A9.21,9.21,0,0,0,63,76h67.82a9.21,9.21,0,0,0,18.33,0h11.14a3.48,3.48,0,0,0,3.48-3.48V25.1A3.48,3.48,0,0,0,160.26,21.62ZM33.63,63.29a7.91,7.91,0,0,1,.18-1.14h3.6a1.73,1.73,0,0,1,0,3.45H33.63ZM53.8,82.73a7.67,7.67,0,1,1,7.67-7.67A7.68,7.68,0,0,1,53.8,82.73Zm86.15,0a7.67,7.67,0,1,1,7.67-7.67A7.68,7.68,0,0,1,140,82.73Zm22.2-10.17a1.89,1.89,0,0,1-1.89,1.88h-11.1a9.22,9.22,0,0,0-18.41,0H63a9.22,9.22,0,0,0-18.41,0H35.51a1.88,1.88,0,0,1-1.88-1.88V67.2h3.78a3.33,3.33,0,0,0,3.32-3.33,3.22,3.22,0,0,0-.55-1.72h122Zm0-12H160V55.41l2.14-1.83Zm0-9.08-3.46,3a.82.82,0,0,0-.28.61v5.51h-124a7.77,7.77,0,0,1,1.76-2.29c.77-.67,9.32-6.38,15-10.13L70.5,30.46c.09,0,.15.1.24.1h91.41Zm0-22.51h-90l3.58-3.27a10.2,10.2,0,0,1,5.66-2.47h78.88a1.89,1.89,0,0,1,1.89,1.88Z"/><path class="cls-1" d="M58,46.81a.79.79,0,0,0,.74.51H81.05a.8.8,0,0,0,.8-.8V34.11a.79.79,0,0,0-.8-.79H72.27a.78.78,0,0,0-.54.21L58.16,45.93A.8.8,0,0,0,58,46.81Zm14.62-11.9h7.67V45.72H60.76Z"/><path class="cls-1" d="M53.8,70.52a4.54,4.54,0,1,0,4.54,4.54A4.55,4.55,0,0,0,53.8,70.52Zm0,7.48a2.94,2.94,0,1,1,3-2.94A2.94,2.94,0,0,1,53.8,78Z"/><path class="cls-1" d="M140,70.52a4.54,4.54,0,1,0,4.54,4.54A4.55,4.55,0,0,0,140,70.52ZM140,78a2.94,2.94,0,1,1,2.94-2.94A2.94,2.94,0,0,1,140,78Z"/><path class="cls-1" d="M113.44,58.83a.8.8,0,0,0,.8-.8V32.67a.8.8,0,0,0-1.6,0V58A.79.79,0,0,0,113.44,58.83Z"/><path class="cls-1" d="M87.29,58.83a.79.79,0,0,0,.8-.8V32.59a.8.8,0,1,0-1.59,0V58A.79.79,0,0,0,87.29,58.83Z"/><path class="cls-1" d="M113.44,73.21a.8.8,0,0,0,.8-.8V64.14a.8.8,0,0,0-1.6,0v8.27A.8.8,0,0,0,113.44,73.21Z"/><path class="cls-1" d="M87.29,73.21a.8.8,0,0,0,.8-.8V64.05a.8.8,0,1,0-1.59,0v8.36A.79.79,0,0,0,87.29,73.21Z"/><path class="cls-1" d="M91,47.32h18.48a.8.8,0,0,0,.8-.8V34.11a.79.79,0,0,0-.8-.79H91a.79.79,0,0,0-.8.79V46.52A.8.8,0,0,0,91,47.32Zm.8-12.41h16.88V45.72H91.83Z"/><path class="cls-1" d="M117.34,47.32h27.95a.8.8,0,0,0,.8-.8V34.11a.79.79,0,0,0-.8-.79H117.34a.79.79,0,0,0-.8.79V46.52A.8.8,0,0,0,117.34,47.32Zm.79-12.41h26.36V45.72H118.13Z"/><rect class="cls-2" width="195.78" height="108.42"/></g></g></svg>