<svg xmlns="http://www.w3.org/2000/svg" viewBox="0 0 195.78 108.42"><defs><style>.cls-1{fill:#181ca9;}.cls-2{fill:none;}</style></defs><g id="Layer_2" data-name="Layer 2"><g id="Layer_1-2" data-name="Layer 1"><path class="cls-1" d="M162.63,61c.36-4.13,1.34-22.19-8.24-32.34a.92.92,0,0,0-.5-.25c-.24,0-25.76-2.29-50.09-.42A76.83,76.83,0,0,0,66.93,40.51a46.62,46.62,0,0,1-7.43,4.34c-2.14.93-4.87,1.92-7.77,3C41.73,51.45,34.54,54,32.86,61a3.56,3.56,0,0,0-2.63,2.71,10.16,10.16,0,0,0-.1,3.35l0,.32a5.16,5.16,0,0,0,5.29,5.26h6.13a12.64,12.64,0,0,0,25.22,0H129a12.64,12.64,0,0,0,25.21,0h6.75c1.66,0,4.79-1.17,4.79-5.62C165.73,63.69,165.18,61.4,162.63,61ZM54.18,82.73A11.11,11.11,0,1,1,65.29,71.62,11.12,11.12,0,0,1,54.18,82.73Zm87.41,0a11.11,11.11,0,1,1,11.1-11.11A11.12,11.12,0,0,1,141.59,82.73ZM160.94,71h-6.71a12.66,12.66,0,0,0-25.29,0H66.82a12.66,12.66,0,0,0-25.29,0h-6a3.57,3.57,0,0,1-3.81-3.78l0-.31a9,9,0,0,1,.05-2.79c.49-1.65,1.55-1.61,1.65-1.62h0l.06,0h9.13a.8.8,0,1,0,0-1.59h-8c1.9-5.88,8.19-8.2,17.62-11.61,2.92-1.06,5.67-2.06,7.86-3a47.89,47.89,0,0,0,7.68-4.49,75.59,75.59,0,0,1,36.1-12.27c22.72-1.74,46.69.14,49.51.39,8.9,9.72,7.9,27.39,7.59,31h-8.25a.8.8,0,1,0,0,1.59h9c1.42,0,2.36.34,2.36,4.46C164.14,70.86,161.27,71,160.94,71Z"/><path class="cls-1" d="M151.21,33.47a.78.78,0,0,0-.69-.55l-.75-.07c-3.37-.3-11.25-1-23.47-1-7.24,0-16,.25-22.36.74-12.74,1-26.73,8.6-34.24,12.7a36.94,36.94,0,0,1-4.54,2.31.8.8,0,0,0,0,1.6h72.25a28.3,28.3,0,0,0,2.92.13c3.58,0,8.38-.55,10.9-3.2a6.21,6.21,0,0,0,1.65-4.75A30.19,30.19,0,0,0,151.21,33.47Zm-47.14.69c6.31-.48,15-.73,22.23-.73,1.81,0,3.49,0,5.11,0v14.1H99.71V34.76A41.47,41.47,0,0,1,104.07,34.16ZM70.47,46.67c6.24-3.39,17-9.22,27.64-11.56V47.58H68.8ZM150.06,45c-2.23,2.36-7.05,2.72-9.73,2.72-1.6,0-2.73-.14-2.83-.14H133V33.51c8.34.2,13.95.69,16.62.93l.22,0a26.75,26.75,0,0,1,1.44,7A4.54,4.54,0,0,1,150.06,45Z"/><path class="cls-1" d="M130.24,60.94H65.53a.8.8,0,1,0,0,1.59h64.71a.8.8,0,1,0,0-1.59Z"/><path class="cls-1" d="M54.18,64a7.66,7.66,0,1,0,7.65,7.66A7.67,7.67,0,0,0,54.18,64Zm0,13.71a6.06,6.06,0,1,1,6-6A6.06,6.06,0,0,1,54.18,77.67Z"/><path class="cls-1" d="M141.59,64a7.66,7.66,0,1,0,7.65,7.66A7.67,7.67,0,0,0,141.59,64Zm0,13.71a6.06,6.06,0,1,1,6-6A6.06,6.06,0,0,1,141.59,77.67Z"/><path class="cls-1" d="M99.72,59.3V51.71a.8.8,0,1,0-1.6,0V59.3a.8.8,0,0,0,1.6,0Z"/><path class="cls-1" d="M132.13,50.91a.8.8,0,0,0-.8.8V59.3a.8.8,0,1,0,1.6,0V51.71A.8.8,0,0,0,132.13,50.91Z"/><path class="cls-1" d="M61.8,50.1A26.33,26.33,0,0,0,55,55.59a.8.8,0,0,0,.12,1.12.79.79,0,0,0,1.12-.12,25.13,25.13,0,0,1,6.36-5.08.8.8,0,0,0,.32-1.09A.81.81,0,0,0,61.8,50.1Z"/><rect class="cls-2" width="195.78" height="108.42"/></g></g></svg>