<svg xmlns="http://www.w3.org/2000/svg" viewBox="0 0 195.78 108.42"><defs><style>.cls-1{fill:#181ca9;}.cls-2{fill:none;}</style></defs><g id="Layer_2" data-name="Layer 2"><g id="Layer_1-2" data-name="Layer 1"><path class="cls-1" d="M126.53,37.5h24.84A4.65,4.65,0,0,0,156,32.85V25.63A4.64,4.64,0,0,0,151.37,21H126.53a4.63,4.63,0,0,0-4.63,4.64v7.22A4.64,4.64,0,0,0,126.53,37.5Zm-3-11.87a3.05,3.05,0,0,1,3-3h24.84a3,3,0,0,1,3,3v7.22a3,3,0,0,1-3,3H126.53a3.05,3.05,0,0,1-3-3Z"/><path class="cls-1" d="M107.68,21H89.8a.8.8,0,0,0-.71.44L81.42,36.26c0,.08,0,.17,0,.26s-.08.1-.08.18V55.77A4.65,4.65,0,0,0,86,60.42H107.5a4.8,4.8,0,0,0,4.81-4.65v-30s0,0,0,0,0,0,0-.06A4.63,4.63,0,0,0,107.68,21Zm-17.39,1.6h17.39a3.05,3.05,0,0,1,3,3s0,0,0,.06,0,0,0,0V35.9H83.4ZM107.5,58.82H86a3,3,0,0,1-3-3V37.5h27.78V55.77A3.19,3.19,0,0,1,107.5,58.82Z"/><path class="cls-1" d="M45.41,60.6a9.35,9.35,0,1,0,9.35,9.34A9.35,9.35,0,0,0,45.41,60.6Zm0,17.1a7.75,7.75,0,1,1,7.75-7.76A7.77,7.77,0,0,1,45.41,77.7Z"/><path class="cls-1" d="M45.41,64.11a5.84,5.84,0,1,0,5.83,5.83A5.84,5.84,0,0,0,45.41,64.11Zm0,10.07a4.24,4.24,0,1,1,4.23-4.24A4.24,4.24,0,0,1,45.41,74.18Z"/><path class="cls-1" d="M137.59,64.11a5.84,5.84,0,1,0,5.83,5.83A5.84,5.84,0,0,0,137.59,64.11Zm0,10.07a4.24,4.24,0,1,1,4.23-4.24A4.24,4.24,0,0,1,137.59,74.18Z"/><path class="cls-1" d="M137.55,60.6a9.35,9.35,0,1,0,9.35,9.34A9.36,9.36,0,0,0,137.55,60.6Zm0,17.1a7.75,7.75,0,1,1,7.75-7.76A7.77,7.77,0,0,1,137.55,77.7Z"/><path class="cls-1" d="M164.14,52.19h1.91a4.66,4.66,0,0,0,4.64-4.64v-20a4.66,4.66,0,0,0-4.64-4.64h-1.91a4.62,4.62,0,0,0-3,1.2V21.23a4.65,4.65,0,0,0-4.64-4.65h-70a.82.82,0,0,0-.71.43L77.25,32.85c-1.07,2.28-2.53,3.39-4.55,3.39-.28,0-28.16,3.06-35.55,3.95a8.63,8.63,0,0,0-8.07,8.48v8.5a4.64,4.64,0,0,0-4,4.59v.91a4.64,4.64,0,0,0,4.64,4.63H31.3a14.38,14.38,0,1,0,28.22,0h63.92a14.41,14.41,0,0,0-.27,2.64,14.07,14.07,0,0,0,14,14.39,14.75,14.75,0,0,0,14.72-14.39,14.41,14.41,0,0,0-.27-2.64H169.1a.8.8,0,0,0,.8-.8V58a.8.8,0,0,0-.8-.8h-8V51A4.62,4.62,0,0,0,164.14,52.19Zm0-27.65h1.91a3,3,0,0,1,3,3v20a3.05,3.05,0,0,1-3,3h-1.91a3.05,3.05,0,0,1-3-3v-20A3,3,0,0,1,164.14,24.54Zm-4.64-3.31V40.3H117.73V18.18h38.72A3.06,3.06,0,0,1,159.5,21.23Zm-125,21.4V52H30.68V48.66A7,7,0,0,1,34.51,42.63Zm10.9,40.1A12.78,12.78,0,1,1,58.19,69.94,12.8,12.8,0,0,1,45.41,82.73Zm0-27.16A14.33,14.33,0,0,0,31.75,65.7h-2a3,3,0,0,1-3-3v-.91a3.08,3.08,0,0,1,3.19-3,.8.8,0,0,0,.8-.8V53.64H55.83a3,3,0,0,1,2.64,1.54c.19.32,3.56,5.45,6.91,10.52H59.07A14.33,14.33,0,0,0,45.41,55.57Zm91.8,27.16a12.48,12.48,0,0,1-12.44-12.79,12.78,12.78,0,0,1,25.56,0A13.13,13.13,0,0,1,137.21,82.73Zm.34-27.16A14.33,14.33,0,0,0,123.89,65.7h-4.44l.38-.57c2.06-3.1,4.12-6.2,6.13-9.32a4.08,4.08,0,0,1,3.87-2.17h15.64a4.08,4.08,0,0,1,3.86,2.17c2.09,3.24,4.23,6.45,6.37,9.67l.14.22h-4.62A14.34,14.34,0,0,0,137.55,55.57Zm30.75,3.27V65.7H157.77L157,64.59c-2.13-3.2-4.27-6.42-6.36-9.64a5.67,5.67,0,0,0-5.2-2.91H129.83A5.67,5.67,0,0,0,124.62,55c-2,3.11-4.07,6.2-6.12,9.29l-1,1.46H67.31c-3.66-5.52-7.29-11-7.45-11.32a4.65,4.65,0,0,0-4-2.34H36.1v-10a12.68,12.68,0,0,1,1.24-.28c7.38-.89,35.25-3.93,35.44-4,2.58,0,4.57-1.44,5.9-4.27l8.25-15.38h29.2V41.1a.8.8,0,0,0,.8.8H159.5V58a.8.8,0,0,0,.8.8Z"/><rect class="cls-2" width="195.78" height="108.42"/></g></g></svg>