<svg xmlns="http://www.w3.org/2000/svg" viewBox="0 0 195.78 108.42"><defs><style>.cls-1{fill:#181ca9;}.cls-2{fill:none;}</style></defs><g id="Layer_2" data-name="Layer 2"><g id="Layer_1-2" data-name="Layer 1"><path class="cls-1" d="M54.28,63.31A10.51,10.51,0,1,0,64.79,73.82,10.52,10.52,0,0,0,54.28,63.31Zm0,19.42a8.91,8.91,0,1,1,8.91-8.91A8.93,8.93,0,0,1,54.28,82.73Z"/><path class="cls-1" d="M117,39.21H87.21c-4.44,0-6.52,1.41-7.4,2.29l-10.36,8a.81.81,0,0,0-.26.89.8.8,0,0,0,.75.54h47.13a.8.8,0,0,0,.8-.8V40.48a3.91,3.91,0,0,0-.05-.62A.79.79,0,0,0,117,39.21ZM80.78,42.76s.16-.15.19-.16c.54-.54,2.23-1.8,6.24-1.8h11.2v8.55H72.27Zm35.49,6.59H100V40.8h16.26Z"/><path class="cls-1" d="M54.28,68.46a5.36,5.36,0,1,0,5.36,5.36A5.37,5.37,0,0,0,54.28,68.46Zm0,9.12A3.76,3.76,0,1,1,58,73.82,3.76,3.76,0,0,1,54.28,77.58Z"/><path class="cls-1" d="M167.25,48.09h-44.2V39.93c0-4-2.84-5.09-4.58-5.09H85.86c-6.85,0-9.73,3-9.76,3.09L62.21,48.84c-2.12.19-17.83,1.62-24.38,2.74-7,1.21-6.67,5.93-6.67,5.93v5.94c-2.37.25-3.43,1.67-3.43,4.53v1.55c0,4.72,2.8,5.09,3.65,5.09h7.35a.8.8,0,0,0,.8-.8,14.75,14.75,0,1,1,29.49,0,.8.8,0,0,0,.8.8h59.23a.79.79,0,0,0,.57-.25.75.75,0,0,0,.41-.64,14.7,14.7,0,0,1,29.39,0,.73.73,0,0,0,.32.6.76.76,0,0,0,.58.29h6.93a.8.8,0,0,0,.8-.8V48.89A.8.8,0,0,0,167.25,48.09Zm-.79,12.67-3.64-3.23v-2.8h3.64ZM32.76,63.37V59.18H35.6v4.19Zm21.52-5.89A16.36,16.36,0,0,0,38,73H31.38c-1.69,0-2.05-1.9-2.05-3.49V68c0-2.53.85-3,2.64-3,0,0,.06,0,.09,0H36.4a.8.8,0,0,0,.8-.8V58.38a.8.8,0,0,0-.8-.8H32.76v-.14c0-.13-.2-3.33,5.35-4.29C45,52,62.41,50.43,62.59,50.41a.8.8,0,0,0,.42-.16L77.17,39.1s2.6-2.66,8.69-2.66h32.67c.68,0,2.92.25,2.92,3.49V73H70.6A16.36,16.36,0,0,0,54.28,57.48ZM161,73a16.24,16.24,0,0,0-32.45,0h-5.45V49.69h43.41v3.44H162a.8.8,0,0,0-.8.8v4a.8.8,0,0,0,.27.6l5,4.41V73Z"/><path class="cls-1" d="M144.82,63.31a10.51,10.51,0,1,0,10.5,10.51A10.53,10.53,0,0,0,144.82,63.31Zm0,19.42a8.91,8.91,0,1,1,8.9-8.91A8.93,8.93,0,0,1,144.82,82.73Z"/><path class="cls-1" d="M144.82,68.46a5.36,5.36,0,1,0,5.35,5.36A5.36,5.36,0,0,0,144.82,68.46Zm0,9.12a3.76,3.76,0,1,1,3.76-3.76A3.76,3.76,0,0,1,144.82,77.58Z"/><path class="cls-1" d="M99,52.51a.79.79,0,0,0-.8.8V70.23a.8.8,0,0,0,1.6,0V53.31A.8.8,0,0,0,99,52.51Z"/><path class="cls-1" d="M67.67,51.81,62.07,56a.8.8,0,0,0,.47,1.44.77.77,0,0,0,.48-.16l5.6-4.17A.79.79,0,0,0,68.79,52,.8.8,0,0,0,67.67,51.81Z"/><rect class="cls-2" width="195.78" height="108.42"/></g></g></svg>