<svg xmlns="http://www.w3.org/2000/svg" viewBox="0 0 195.78 108.42"><defs><style>.cls-1{fill:#181ca9;}.cls-2{fill:none;}</style></defs><g id="Layer_2" data-name="Layer 2"><g id="Layer_1-2" data-name="Layer 1"><path class="cls-1" d="M50.78,61.5a9.58,9.58,0,1,0,9.58,9.58A9.59,9.59,0,0,0,50.78,61.5Zm0,17.55a8,8,0,1,1,8-8A8,8,0,0,1,50.78,79.05Z"/><path class="cls-1" d="M144.89,61.5a9.58,9.58,0,1,0,9.57,9.58A9.59,9.59,0,0,0,144.89,61.5Zm0,17.55a8,8,0,1,1,8-8A8,8,0,0,1,144.89,79.05Z"/><path class="cls-1" d="M170.18,44.52c-.18,0-3.61.07-9.17.21h0c-3.28-.25-8.64-2.89-14.32-5.69-6.09-3-12.38-6.1-17.56-7.07a85.33,85.33,0,0,0-35.68,1.11C84.07,35.49,76.53,40,71,43.21c-1.19.7-2.27,1.34-3.24,1.88-4.17,2.32-11.46,3.48-12.6,3.65-6,.44-10.87.9-13.84,1.39-12.91,2.14-19.46,6-19.46,11.45v9.33a3.7,3.7,0,0,0,3.69,3.69H38.06a13.18,13.18,0,0,0,25.44,0h68.67a13.18,13.18,0,0,0,25.44,0H170.2a3.7,3.7,0,0,0,3.69-3.69V48.2A3.7,3.7,0,0,0,170.18,44.52Zm2.11,3.68v2.32l-6.64.27,4.16-4.66h.39A2.09,2.09,0,0,1,172.29,48.2ZM68.57,46.48c1-.54,2.07-1.19,3.28-1.9,5.41-3.2,12.83-7.59,22-10a83.66,83.66,0,0,1,35-1.09c5,.93,11.15,4,17.14,6.94,3.45,1.7,6.73,3.27,9.63,4.39-3.35.07-7.14.18-11.29.28-5.84-3.54-13.28-7.69-19.4-8.84-6.74-1.25-18.09-1.63-27.09.52A52.82,52.82,0,0,0,80.16,45l-.34.22-3.33,2.27c-4.13.2-8.08.39-11.77.61A23.84,23.84,0,0,0,68.57,46.48Zm11,.89,1.17-.79.33-.22a51.6,51.6,0,0,1,17.14-8A59.35,59.35,0,0,1,109.6,37l-2.78,9.34C97.56,46.61,88.23,47,79.55,47.37ZM111.28,36.9a70.63,70.63,0,0,1,13.33,1c5.16,1,11.4,4.22,16.72,7.35-9.81.27-21.21.61-32.82,1Zm-81.46,18h2.86a1.79,1.79,0,0,1,1.79,1.79v.7a1.8,1.8,0,0,1-1.79,1.8H24.21C25.13,57.57,27,56.13,29.82,54.9ZM27.17,68.12H23.49v-3h3.68a1.49,1.49,0,1,1,0,3ZM25.58,73a2.09,2.09,0,0,1-2.09-2.09V69.76H37.66c0,.44-.13.86-.13,1.32A13.43,13.43,0,0,0,37.72,73Zm25.2,9.73A11.66,11.66,0,1,1,62.43,71.08,11.66,11.66,0,0,1,50.78,82.73ZM63.84,73A13.43,13.43,0,0,0,64,71.08a13.24,13.24,0,0,0-26.15-2.92H29.8a3,3,0,0,0,.46-1.54,3.09,3.09,0,0,0-3.09-3.08H23.49v-2a4.08,4.08,0,0,1,.14-.79h9.05a3.4,3.4,0,0,0,3.39-3.4v-.7a3.34,3.34,0,0,0-2.43-3.2,66,66,0,0,1,8-1.78c2.88-.47,7.57-.93,13.41-1.35h.14l.18,0C87.2,48,153.83,46.47,167.63,46.17l-4.21,4.71L61.73,55.1a.8.8,0,0,0-.73.56.79.79,0,0,0,.3.88A18,18,0,0,1,68.61,69a.81.81,0,0,0,.79.72h61a.8.8,0,1,0,0-1.6H70.1A19.6,19.6,0,0,0,63.91,56.6l108.38-4.48v16H157.8a13.24,13.24,0,0,0-26.16,2.92,13.43,13.43,0,0,0,.19,1.92Zm81,9.73a11.66,11.66,0,1,1,11.66-11.65A11.66,11.66,0,0,1,144.89,82.73ZM170.2,73H158a13.43,13.43,0,0,0,.19-1.92c0-.46-.09-.88-.13-1.32h14.28v1.15A2.1,2.1,0,0,1,170.2,73Z"/><path class="cls-1" d="M107,55.9a.82.82,0,0,0-.83.77l0,1.14c-.09,2.5-.16,4.33-.38,8.17a.81.81,0,0,0,.75.84h0a.81.81,0,0,0,.8-.75c.22-3.86.29-5.7.38-8.19l0-1.16A.79.79,0,0,0,107,55.9Z"/><path class="cls-1" d="M107.05,52.5h0a.81.81,0,0,0,.8-.76,17.81,17.81,0,0,1,.13-2l-.76-.21-.5-.63c-.3.23-.36.28-.47,2.71A.8.8,0,0,0,107.05,52.5Z"/><rect class="cls-2" width="195.78" height="108.42"/></g></g></svg>