<svg xmlns="http://www.w3.org/2000/svg" viewBox="0 0 195.78 108.42"><defs><style>.cls-1{fill:#181ca9;}.cls-2{fill:none;}</style></defs><g id="Layer_2" data-name="Layer 2"><g id="Layer_1-2" data-name="Layer 1"><path class="cls-1" d="M50.78,61.5a9.58,9.58,0,1,0,9.58,9.58A9.59,9.59,0,0,0,50.78,61.5Zm0,17.55a8,8,0,1,1,8-8A8,8,0,0,1,50.78,79.05Z"/><path class="cls-1" d="M144.89,61.5a9.58,9.58,0,1,0,9.57,9.58A9.59,9.59,0,0,0,144.89,61.5Zm0,17.55a8,8,0,1,1,8-8A8,8,0,0,1,144.89,79.05Z"/><path class="cls-1" d="M167.53,37.35c-3.74-3.23-6.37-4.2-11.55-5.16-11.59-2.16-51.45-2-62.54.88C84.07,35.49,76.53,40,71,43.21c-1.19.7-2.27,1.34-3.24,1.88-4.17,2.32-11.46,3.48-12.6,3.65-6,.44-10.87.9-13.84,1.39-12.91,2.14-19.46,6-19.46,11.45v9.33a3.7,3.7,0,0,0,3.69,3.69H38.06a13.18,13.18,0,0,0,25.44,0h68.67a13.18,13.18,0,0,0,25.44,0H170.2a3.7,3.7,0,0,0,3.69-3.69V48.2C173.65,44.09,170.54,40,167.53,37.35Zm4.76,10.85v2.32l-6.64.27,4.16-4.66h.39A2.09,2.09,0,0,1,172.29,48.2ZM68.57,46.48c1-.54,2.07-1.19,3.28-1.9,5.41-3.2,12.83-7.59,22-10,10.85-2.8,49.24-3.12,60.61-1,5,.93,9.16,2.38,11.88,4.76,1.88,1.65,4.5,4.88,5,6.46-3.35.07-3.87,0-8,.14-1-3.94-2.89-7.62-9.55-8.67s-47-1.63-56,.52A52.82,52.82,0,0,0,80.16,45l-.34.22-3.33,2.27c-4.13.2-8.08.39-11.77.61A23.84,23.84,0,0,0,68.57,46.48Zm11,.89,1.17-.79.33-.22a51.6,51.6,0,0,1,17.14-8,89.71,89.71,0,0,1,14-1.46l-2.78,9.29C100.17,46.52,88.23,47,79.55,47.37Zm34.33-10.51c5-.07,26.64-.47,39.62,1,5.21.6,7.5,4,8,7.18-9.81.27-38.8.69-50.41,1.09Zm-84.06,18h2.86a1.79,1.79,0,0,1,1.79,1.79v.7a1.8,1.8,0,0,1-1.79,1.8H24.21C25.13,57.57,27,56.13,29.82,54.9ZM27.17,68.12H23.49v-3h3.68a1.49,1.49,0,1,1,0,3ZM25.58,73a2.09,2.09,0,0,1-2.09-2.09V69.76H37.66c0,.44-.13.86-.13,1.32A13.43,13.43,0,0,0,37.72,73Zm25.2,9.73A11.66,11.66,0,1,1,62.43,71.08,11.66,11.66,0,0,1,50.78,82.73ZM63.84,73A13.43,13.43,0,0,0,64,71.08a13.24,13.24,0,0,0-26.15-2.92H29.8a3,3,0,0,0,.46-1.54,3.09,3.09,0,0,0-3.09-3.08H23.49v-2a4.08,4.08,0,0,1,.14-.79h9.05a3.4,3.4,0,0,0,3.39-3.4v-.7a3.34,3.34,0,0,0-2.43-3.2,66,66,0,0,1,8-1.78c2.88-.47,7.57-.93,13.41-1.35h.14l.18,0C87.2,48,153.83,46.47,167.63,46.17l-4.21,4.71L61.73,55.1a.8.8,0,0,0-.73.56.79.79,0,0,0,.3.88A18,18,0,0,1,68.61,69a.81.81,0,0,0,.79.72h61a.8.8,0,1,0,0-1.6H70.1A19.6,19.6,0,0,0,63.91,56.6l108.38-4.48v16H157.8a13.24,13.24,0,0,0-26.16,2.92,13.43,13.43,0,0,0,.19,1.92Zm81,9.73a11.66,11.66,0,1,1,11.66-11.65A11.66,11.66,0,0,1,144.89,82.73ZM170.2,73H158a13.43,13.43,0,0,0,.19-1.92c0-.46-.09-.88-.13-1.32h14.28v1.15A2.1,2.1,0,0,1,170.2,73Z"/><path class="cls-1" d="M109.81,55.9a.81.81,0,0,0-.83.77l0,1.14c-.09,2.5-.16,4.33-.38,8.17a.79.79,0,0,0,.75.84h0a.79.79,0,0,0,.79-.75c.23-3.86.29-5.7.39-8.19l0-1.16A.8.8,0,0,0,109.81,55.9Z"/><path class="cls-1" d="M142.77,36.32a.78.78,0,0,0-.63.89l.21,1c.46,2.26.79,3.91,1.42,7.4a.76.76,0,0,0,.91.58h0a.78.78,0,0,0,.61-.87c-.63-3.5-1-5.16-1.42-7.42l-.22-1A.77.77,0,0,0,142.77,36.32Z"/><path class="cls-1" d="M109.83,52.5h0a.8.8,0,0,0,.8-.76,15.14,15.14,0,0,1,.14-2l-.77-.21-.49-.63c-.31.23-.36.28-.48,2.71A.8.8,0,0,0,109.83,52.5Z"/><rect class="cls-2" width="195.78" height="108.42"/></g></g></svg>