<svg xmlns="http://www.w3.org/2000/svg" viewBox="0 0 195.78 108.42"><defs><style>.cls-1{fill:#181ca9;}.cls-2{fill:none;}</style></defs><g id="Layer_2" data-name="Layer 2"><g id="Layer_1-2" data-name="Layer 1"><path class="cls-1" d="M165.5,65.65a2.68,2.68,0,0,0-1.11-.59v-17c0-3.05-1.4-9.51-2.52-14.7-.3-1.39-.59-2.7-.83-3.84a6.51,6.51,0,0,0-7.53-5.16H96.6c-8.92,0-19,0-25.82,4.4-6.2,4-15.45,12.56-16.79,13.79-1.1.29-6.8,1.79-13.4,3.63-7.3,2-7.18,5.5-7.07,6.22v4.49a4.88,4.88,0,0,0-3.32,1.43,4.63,4.63,0,0,0-1,3.33V70.1c0,5.75,4.82,6,4.9,6h9.71a12.47,12.47,0,0,0,23.46,0h60.54a12.47,12.47,0,0,0,23.46,0h11.87a3.44,3.44,0,0,0,2.61-1,3.58,3.58,0,0,0,.88-2.49V68.76A4,4,0,0,0,165.5,65.65Zm-2.71-8.75h-2.6V50.19h2.6ZM35.11,56.79V53.24h7.22v3.55ZM55.52,82.73a10.95,10.95,0,1,1,10.95-11A11,11,0,0,1,55.52,82.73Zm84,0a10.95,10.95,0,1,1,10.95-11A11,11,0,0,1,139.52,82.73ZM165,72.66a2.08,2.08,0,0,1-.46,1.35,1.89,1.89,0,0,1-1.44.49H151.75a12.81,12.81,0,0,0,.31-2.72,12.55,12.55,0,0,0-25.09,0,12.81,12.81,0,0,0,.32,2.72H67.75a12.81,12.81,0,0,0,.32-2.72,12.55,12.55,0,0,0-25.09,0,12.81,12.81,0,0,0,.31,2.72H34.12c-.35,0-3.34-.28-3.34-4.4V66.38h10a.8.8,0,0,0,0-1.6h-10v-3.2a3.12,3.12,0,0,1,.64-2.2,3.64,3.64,0,0,1,2.78-1c.05,0,.08.05.13.05s.09-.05.16-.07h8.64a.8.8,0,0,0,.8-.8V52.44a.8.8,0,0,0-.8-.8h-8c.22-.86,1.23-2.6,5.87-3.89,7.34-2,13.57-3.67,13.57-3.68a.8.8,0,0,0,.35-.19c.1-.09,10.28-9.56,16.71-13.75S87.91,26,96.6,26h57c.22,0,4.91-.69,5.85,3.89.24,1.15.52,2.46.82,3.86,1.11,5.11,2.49,11.48,2.49,14.36v.5h-3.4a.8.8,0,0,0-.8.8V57.7a.8.8,0,0,0,.8.8h3.4V65h-9.08a.8.8,0,1,0,0,1.6h9.88l0,0,0,0a1.17,1.17,0,0,1,.76.28,2.57,2.57,0,0,1,.58,1.91Z"/><path class="cls-1" d="M93.08,45.38V31.12a.78.78,0,0,0-.24-.57c-.15-.16-.42-.17-.58-.23,0,0-4.63.1-8.51.1-5.32,0-8.55,1.88-13.39,5.84-4.09,3.35-9.57,8.48-9.62,8.54a.8.8,0,0,0-.2.88.82.82,0,0,0,.75.5h31A.8.8,0,0,0,93.08,45.38Zm-1.6-.8H63.32c1.91-1.76,5.31-4.83,8.06-7.08C76,33.71,78.89,32,83.75,32c2.9,0,6.23-.06,7.73-.09Z"/><path class="cls-1" d="M55.52,64.29A7.5,7.5,0,1,0,63,71.78,7.51,7.51,0,0,0,55.52,64.29Zm0,13.4a5.9,5.9,0,1,1,5.9-5.91A5.91,5.91,0,0,1,55.52,77.69Z"/><path class="cls-1" d="M139.52,64.29a7.5,7.5,0,1,0,7.5,7.49A7.5,7.5,0,0,0,139.52,64.29Zm0,13.4a5.9,5.9,0,1,1,5.9-5.91A5.91,5.91,0,0,1,139.52,77.69Z"/><path class="cls-1" d="M124.8,64.89H70.35a.8.8,0,0,0,0,1.6H124.8a.8.8,0,0,0,0-1.6Z"/><path class="cls-1" d="M91.19,48.47v13a.8.8,0,0,0,1.6,0v-13a.8.8,0,1,0-1.6,0Z"/><path class="cls-1" d="M58.07,47.81,54.9,50.76A7.39,7.39,0,0,0,53,56.28a.81.81,0,0,0,.8.76h0a.81.81,0,0,0,.76-.84A5.85,5.85,0,0,1,56,51.91L59.16,49a.79.79,0,0,0,0-1.13A.78.78,0,0,0,58.07,47.81Z"/><rect class="cls-2" width="195.78" height="108.42"/></g></g></svg>