<svg xmlns="http://www.w3.org/2000/svg" viewBox="0 0 512 512"><defs><style>.cls-1{fill:none;}</style></defs><g id="Layer_2" data-name="Layer 2"><g id="Layer_1-2" data-name="Layer 1"><path d="M459.53,312.75c-4.69-17.13-13.29-32.23-25-45.59-.71-.82-1.42-1.64-2.11-2.47a2.9,2.9,0,0,1-.32-.74c38-47.39,30.1-112.64-7.81-150.63-36.17-36.25-97.59-45.73-145.81-8-1.48-1.7-2.91-3.47-4.48-5.1C251.61,76.9,224.6,68.41,193.7,78.41S145.32,110.93,140.42,143c-.54,3.53-1.7,4.56-5.24,4.68-52.57,1.77-93.08,49.1-86.87,101.48,3.44,29,17.8,51.3,42,67.32,2.71,1.8,3,3.25,2,6.16C75,375.31,106.48,431,160.54,441.73c33.68,6.66,62.26-4,85.32-29.43.82-.9,1.59-1.85,2.41-2.74.16-.18.48-.21.91-.37a120.52,120.52,0,0,0,25.75,29c17.85,14.4,38.07,23.13,61,25.47a12.43,12.43,0,0,1,2.29.68h17.9c9.61-2.15,19.67-3.16,28.77-6.65,45.7-17.47,71.76-50.92,78.69-99.32.19-1.31.51-2.61.77-3.91V335.75C462.75,328.08,461.59,320.29,459.53,312.75ZM245.29,289.37c-9.16,9.76-20.58,14.17-33.85,14.09a52.69,52.69,0,0,1,.29-105.37,51.92,51.92,0,0,1,28.13,8c6.7,4.18,8.79,11.34,5.13,17.38s-10.89,7.49-17.78,3.46c-16.64-9.74-36.64-2.46-42.3,15.38-6.36,20,11,40.15,31.6,36.21,4-.75,8-3.41,11.07-6.16,6.07-5.38,12.93-6.27,18.14-1.41S250.87,283.43,245.29,289.37ZM313.12,304a52.78,52.78,0,1,1,52.73-52.78A53,53,0,0,1,313.12,304Zm72.64,87.09c-10.16.1-20.32,0-30.48,0-5.45,0-9.77-2-12.38-7s-1.52-9.72,1.64-14.08c7-9.65,14.1-19.22,21-28.92a69.64,69.64,0,0,0,5.07-8.75c1.19-2.32.48-4.35-2-5.3s-4.14.34-5.14,2.62a2.48,2.48,0,0,0-.1.39,12.39,12.39,0,0,1-16,9c-6.95-2.67-9.68-9.33-6.94-17.44a28.28,28.28,0,0,1,36-17.75c15,5.15,23.27,21.35,17.16,36-3.55,8.49-9.41,16-14.23,24-.42.68-.9,1.33-1.89,2.81,3.16,0,5.54,0,7.93,0,7.46.1,13,5.34,12.92,12.28S393.05,391,385.76,391.1Z"/><path d="M85.47,124.13A38.24,38.24,0,1,0,47.69,85.34,38.29,38.29,0,0,0,85.47,124.13Z"/><path d="M313.1,222.89a28.35,28.35,0,1,0,28.33,28.56A28.53,28.53,0,0,0,313.1,222.89Z"/><rect class="cls-1" width="512" height="512"/></g></g></svg>