<svg xmlns="http://www.w3.org/2000/svg" viewBox="0 0 512 512">
    <defs>
        <style>.cls-1{fill:none;}</style>
    </defs>
    <g fill="#2C2FAE" id="Layer_2" data-name="Layer 2">
        <g id="Layer_1-2" data-name="Layer 1">
            <path
                d="M482.7,73.48C471,51.8,452.13,41.27,427.78,41.18q-93.31-.33-186.63,0c-39.35.21-72.05,15.6-98.16,45.1q-44.12,49.83-88.42,99.49c-21.31,24-32.5,52.08-32.72,84.1-.07,10.88,2.19,21.79,3.59,32.67Q31.61,350.37,38,398.16c5.27,39.5,36.12,68.83,75.74,72.17a21.92,21.92,0,0,1,3.07.69H452.63c5-1.4,10.39-2.14,15.07-4.32,12.18-5.69,19.43-15.48,21.78-28.8a8.13,8.13,0,0,1,.67-1.66V94.86C487.72,87.71,486.22,80.05,482.7,73.48Zm-12,354.87c0,15.23-7.54,22.76-22.75,22.76q-82.37,0-164.72,0c-53.53,0-107.06-.09-160.59,0-21.35,0-38.84-7.69-52.24-24.42C61.8,416,58.21,403.42,56.51,390.07c-5-38.85-10.27-77.65-14.89-116.54-1.72-14.46,2-28.44,7.16-41.94A106.51,106.51,0,0,1,68.9,199.12q44.77-50.48,89.67-100.87,33.57-37.6,84.07-37.5,92,.09,183.93,0c26.77,0,44.1,17.34,44.11,44.08Q470.71,266.61,470.68,428.35Z" />
            <path
                d="M427.81,80.25c-62.68-.07-125.36-.19-188,.06-24.43.1-45.67,8.94-62.52,26.78-14,14.85-27.42,30.3-41,45.6-20.1,22.73-40.32,45.36-60,68.43-10.53,12.33-15.45,27.14-15.48,43.44,0,6.74,3.53,10.46,10.27,10.81,1.52.08,3,0,4.57,0H255.88q91.28,0,182.54,0c8.86,0,12.57-3.23,12.58-11.31q.09-80.52,0-161C450.94,89.15,441.77,80.27,427.81,80.25Zm3.77,175.51H81.25c1.31-9.24,5.46-17.12,11.32-23.91,16.64-19.27,33.57-38.29,50.44-57.37,14.45-16.33,29.14-32.45,43.41-48.94,15.26-17.6,34.32-26,57.56-25.91,60.24.16,120.48.05,180.72.05,6.85,0,6.88,0,6.88,6.92V255.76Z" />
            <path
                d="M438.4,373.09q-172.65,0-345.31,0a22.63,22.63,0,0,0-5.87.63,9.5,9.5,0,0,0-7,9.56,9.63,9.63,0,0,0,8.28,9,43.38,43.38,0,0,0,5.93.25H436.56a42.54,42.54,0,0,0,6.39-.29,9.32,9.32,0,0,0,8-9.62C450.81,376.52,446.34,373.09,438.4,373.09Z" />
            <path
                d="M440.91,314.59c-19.18-.16-38.36-.09-57.54,0a9.66,9.66,0,0,0-9.05,5.16c-3.51,6.47.86,13.91,8.65,14.14,9.74.29,19.49.07,29.23.08s19.18.15,28.77-.05c6.1-.13,10-4.13,10-9.64S447,314.64,440.91,314.59Z" />
            <path
                d="M264.16,119.36c-1.51,1-4.89,2.38-7.33,4.78-16.93,16.67-33.67,33.54-50.48,50.34-1.94,1.94-4,3.8-5.78,5.85-4.13,4.69-4.25,10-.43,14s9.45,3.95,14.31-.3c.69-.6,1.31-1.28,2-1.93q26.82-26.82,53.62-53.66a24.46,24.46,0,0,0,4-4.91C277.49,127.47,273.19,119.87,264.16,119.36Z" />
            <path
                d="M208,158.16c.77-.28,2.88-.44,4.06-1.58,7.66-7.4,15.34-14.8,22.52-22.64,2.94-3.2,1.86-8.6-1.17-11.68s-8.5-4.27-11.68-1.34c-7.93,7.31-15.9,14.73-22.78,23C194.3,149.54,199.6,158.12,208,158.16Z" />
            <rect class="cls-1" width="512" height="512" />
        </g>
    </g>
</svg>