<svg xmlns="http://www.w3.org/2000/svg" viewBox="0 0 512 512"><defs><style>.cls-1{fill:none;}</style></defs><g id="Layer_2" data-name="Layer 2"><g id="Layer_1-2" data-name="Layer 1"><path d="M493.06,271.14c-4.08-16.59-16.58-28.48-33.48-30.53A115.4,115.4,0,0,0,435,240.5c-11.25,1.08-19.61,10.77-20.15,22.07-.14,2.9,0,5.8,0,8.93H398.88v-5.33c0-11,.14-22,0-33-.25-14.93-10.12-24.61-25-24.71-7.28,0-14.57.09-21.85,0-5.63-.12-8.55-3.14-8.67-8.71-.09-4.64,0-9.29,0-13.93-.15-14.8-9.95-24.68-24.81-24.88-8.52-.11-17,0-25.56,0-1.65,0-3.31-.14-4.9-.21V137c13.06,0,25.76.06,38.46,0,14.12-.08,24.51-10.12,24.59-23.61s-10.23-23.82-24.29-23.84q-78.79-.1-157.58,0c-13.8,0-24.09,10.18-24.2,23.48-.11,13.48,10.32,23.85,24.26,24,11.31.09,22.62,0,33.93,0h5v23.85h-5.18c-11,0-22-.07-33,0-14.43.12-23.36,8.27-25,22.67-.76,6.59-3.33,9-10,9-7.59.07-15.19-.1-22.78.09a22.87,22.87,0,0,0-21.93,17.48,39,39,0,0,0-.86,9.18c-.1,9.4,0,18.8,0,28.27h-24c0-10.87.15-21.38,0-31.87a23.36,23.36,0,0,0-23.59-23.12,23.59,23.59,0,0,0-23.83,23c-.15,4.64,0,9.29,0,13.93q0,56.68,0,113.36c0,12.4,8.83,22.42,20.5,23.76,12.66,1.46,23.69-6,26.37-18.23.75-3.42.57-7.07.6-10.62.08-8.62,0-17.24,0-25.9H89.49c0,12.69,0,25.05,0,37.41,0,15.77,9.77,25.54,25.44,25.59,9.45,0,18.9.16,28.35-.07A13.47,13.47,0,0,1,154,379.2c11.39,11.61,23.07,22.94,34.43,34.58,5.89,6,12.7,8.75,21.15,8.7,35-.18,70-.07,105.05-.07,20.15,0,40.29.09,60.43-.05,12.6-.09,22.15-8.72,23.49-21.22.53-4.91.29-9.9.33-14.85,0-6.29,0-12.59,0-18.89h15.89c0,2.61,0,4.76,0,6.92.27,13.79,9.25,23.53,23,24.27a147.13,147.13,0,0,0,20.89-.32,38.88,38.88,0,0,0,33.66-27.89c.57-1.9,1.16-3.8,1.74-5.7V273.63A19.94,19.94,0,0,1,493.06,271.14ZM49.7,280.06c0,20.59,0,41.17,0,61.75,0,4.34-1.42,7.64-5.81,8.9A7.76,7.76,0,0,1,34,344.2a26.35,26.35,0,0,1-.13-4.17q0-60.36,0-120.72c0-1.08-.06-2.17,0-3.25.44-4.51,3.62-7.54,7.87-7.55,4.5,0,7.78,3.09,7.87,7.94.15,8.2,0,16.41.06,24.61ZM89.17,295.4H65.79V264.15H89.17Zm82.68-174.19a26.31,26.31,0,0,1-4.17-.14,7.73,7.73,0,0,1-6.71-8.13c.14-4.15,3-7.12,7.34-7.5,1.38-.12,2.78-.06,4.18-.06H323.85a41.59,41.59,0,0,1,4.18.07,7.56,7.56,0,0,1,7.15,7.19,7.72,7.72,0,0,1-6.41,8.37,25.45,25.45,0,0,1-4.63.19Zm99.68,16.13v23.21h-47V137.34ZM382.94,397.2c0,6.75-2.9,9.35-9.87,9.36q-41.11,0-82.25,0c-27.11,0-54.22-.06-81.33.06a12.76,12.76,0,0,1-9.87-4.07c-11.18-11.37-22.69-22.42-33.74-33.92-6.44-6.7-13.75-10-23.11-9.65s-18.59.13-27.88.07c-6.71,0-9.54-2.9-9.54-9.69q0-65.72,0-131.44c0-6.76,2.76-9.41,9.68-9.45,7.12,0,14.25.08,21.38,0,13.14-.21,22.54-8.66,24.24-21.63,1.14-8.71,2.68-10.05,11.66-10.05h143.6c9.31,0,11.56,2.25,11.58,11.42,0,4.18-.06,8.36,0,12.54a23.59,23.59,0,0,0,23.28,23.53c7.43.22,14.87,0,22.31.07,6.95,0,9.82,2.61,9.83,9.39Q383,315.45,382.94,397.2Zm31.42-46.39H399.2V287.94h15.16Zm63.7,9.22c-.12,11.93-9.37,21.44-21.27,22.51a158.74,158.74,0,0,1-17.18.27c-6.28-.13-8.94-2.94-9-9.3,0-18.12,0-36.23,0-54.35q0-26.48,0-53c0-7.7,2.57-10.2,10.35-10.22,4.65,0,9.3-.1,13.94,0,12.58.36,23,10.17,23.12,22.74Q478.5,319.39,478.06,360Z"/><rect class="cls-1" width="512" height="512"/></g></g></svg>