<svg width="326" height="37" viewBox="0 0 326 37" fill="none" xmlns="http://www.w3.org/2000/svg">
<path d="M1.57043 1.93871C1.31783 1.82713 1.20352 1.5319 1.3151 1.27931C1.42668 1.02671 1.7219 0.912397 1.9745 1.02398L1.57043 1.93871ZM325.714 1.48134L322.289 6.12928L319.976 0.83925L325.714 1.48134ZM1.9745 1.02398C2.88007 1.42401 3.7876 1.82078 4.69708 2.21428L4.29999 3.13206C3.38818 2.73755 2.47832 2.33976 1.57043 1.93871L1.9745 1.02398ZM10.1711 4.53342C11.9999 5.29184 13.8363 6.03714 15.6801 6.76917L15.3111 7.6986C13.4626 6.9647 11.6215 6.2175 9.78806 5.45714L10.1711 4.53342ZM21.2216 8.92075C23.0722 9.62315 24.93 10.3123 26.7949 10.988L26.4543 11.9282C24.5846 11.2508 22.722 10.5599 20.8668 9.85567L21.2216 8.92075ZM32.3992 12.9708C34.2702 13.617 36.1482 14.2497 38.0329 14.8689L37.7208 15.8189C35.8313 15.1982 33.9485 14.5638 32.0727 13.9161L32.3992 12.9708ZM43.695 16.6818C45.5848 17.2712 47.4811 17.8471 49.384 18.4093L49.1006 19.3683C47.193 18.8047 45.2918 18.2273 43.3972 17.6364L43.695 16.6818ZM55.0974 20.0509C57.0036 20.5831 58.916 21.1017 60.8346 21.6065L60.5802 22.5736C58.6567 22.0675 56.7394 21.5476 54.8285 21.014L55.0974 20.0509ZM66.5948 23.076C68.5161 23.5509 70.4434 24.0121 72.3765 24.4593L72.1511 25.4336C70.2131 24.9852 68.281 24.5229 66.3548 24.0468L66.5948 23.076ZM78.1785 25.7562C80.1132 26.1736 82.0536 26.5771 83.9995 26.9666L83.8032 27.9471C81.8524 27.5566 79.9072 27.1521 77.9677 26.7337L78.1785 25.7562ZM89.8379 28.0903C91.7837 28.4498 93.7348 28.7954 95.6911 29.1269L95.524 30.1129C93.5628 29.7805 91.6068 29.434 89.6562 29.0736L89.8379 28.0903ZM101.559 30.0769C103.515 30.3786 105.475 30.6664 107.441 30.94L107.303 31.9305C105.333 31.6561 103.367 31.3677 101.407 31.0652L101.559 30.0769ZM113.335 31.7164C115.299 31.9603 117.267 32.1902 119.24 32.406L119.131 33.4C117.154 33.1838 115.18 32.9533 113.212 32.7087L113.335 31.7164ZM125.155 33.0089C127.125 33.1951 129.099 33.3672 131.078 33.5251L130.999 34.522C129.015 34.3637 127.036 34.1911 125.061 34.0044L125.155 33.0089ZM137.008 33.9549C138.982 34.0835 140.96 34.198 142.943 34.2982L142.892 35.2969C140.905 35.1964 138.922 35.0817 136.943 34.9528L137.008 33.9549ZM148.882 34.5554C150.859 34.6266 152.839 34.6837 154.824 34.7266L154.802 35.7263C152.813 35.6834 150.827 35.6261 148.846 35.5547L148.882 34.5554ZM160.768 34.8121C161.759 34.8192 162.751 34.8228 163.743 34.8228V35.8228C162.748 35.8228 161.754 35.8192 160.761 35.812L160.768 34.8121ZM163.743 34.8228C164.736 34.8228 165.727 34.8192 166.718 34.8121L166.725 35.812C165.732 35.8192 164.738 35.8228 163.743 35.8228V34.8228ZM172.662 34.7266C174.647 34.6837 176.628 34.6266 178.605 34.5554L178.641 35.5547C176.659 35.6261 174.673 35.6834 172.684 35.7263L172.662 34.7266ZM184.544 34.2982C186.526 34.198 188.504 34.0835 190.478 33.9549L190.543 34.9528C188.564 35.0817 186.581 35.1964 184.594 35.2969L184.544 34.2982ZM196.408 33.5251C198.387 33.3672 200.361 33.1951 202.331 33.0089L202.426 34.0044C200.451 34.1911 198.471 34.3637 196.488 34.522L196.408 33.5251ZM208.246 32.406C210.219 32.1902 212.188 31.9603 214.151 31.7164L214.275 32.7087C212.306 32.9533 210.333 33.1838 208.355 33.4001L208.246 32.406ZM220.045 30.94C222.011 30.6664 223.972 30.3786 225.927 30.0769L226.08 31.0652C224.119 31.3677 222.154 31.6561 220.183 31.9305L220.045 30.94ZM231.795 29.127C233.752 28.7954 235.703 28.4498 237.648 28.0903L237.83 29.0736C235.88 29.434 233.924 29.7805 231.962 30.1129L231.795 29.127ZM243.487 26.9666C245.433 26.5771 247.373 26.1736 249.308 25.7562L249.519 26.7337C247.579 27.1521 245.634 27.5566 243.683 27.9471L243.487 26.9666ZM255.11 24.4593C257.043 24.0121 258.97 23.5509 260.892 23.076L261.132 24.0468C259.205 24.5229 257.273 24.9852 255.335 25.4336L255.11 24.4593ZM266.652 21.6065C268.57 21.1017 270.483 20.5831 272.389 20.0509L272.658 21.014C270.747 21.5476 268.83 22.0675 266.906 22.5736L266.652 21.6065ZM278.102 18.4093C280.005 17.8471 281.902 17.2712 283.791 16.6818L284.089 17.6364C282.195 18.2273 280.293 18.8047 278.386 19.3683L278.102 18.4093ZM289.453 14.8689C291.338 14.2497 293.216 13.617 295.087 12.9708L295.414 13.9161C293.538 14.5638 291.655 15.1982 289.766 15.8189L289.453 14.8689ZM300.691 10.988C302.556 10.3123 304.414 9.62315 306.265 8.92075L306.62 9.85567C304.764 10.5599 302.902 11.2508 301.032 11.9282L300.691 10.988ZM311.806 6.76917C313.65 6.03713 315.487 5.29184 317.315 4.53342L317.698 5.45713C315.865 6.21749 314.024 6.96469 312.175 7.6986L311.806 6.76917ZM1.36839 2.39607C0.8632 2.17291 0.634571 1.58246 0.857733 1.07727C1.0809 0.572081 1.67134 0.343452 2.17653 0.566615L1.36839 2.39607ZM325.714 1.48134L318.864 10.7772L314.239 0.197158L325.714 1.48134ZM2.17653 0.566615C3.08094 0.966128 3.98731 1.36239 4.89563 1.75539L4.10144 3.59095C3.18847 3.19593 2.27744 2.79764 1.36839 2.39607L2.17653 0.566615ZM10.3627 4.07156C12.1891 4.82902 14.0231 5.57336 15.8646 6.30446L15.1266 8.16332C13.2757 7.42848 11.4323 6.68033 9.59652 5.91899L10.3627 4.07156ZM21.3991 8.45329C23.2473 9.1548 25.1027 9.84306 26.9653 10.5179L26.284 12.3983C24.4119 11.72 22.547 11.0282 20.6893 10.3231L21.3991 8.45329ZM32.5624 12.4982C34.431 13.1435 36.3066 13.7754 38.189 14.3938L37.5648 16.2939C35.6728 15.6724 33.7877 15.0373 31.9095 14.3887L32.5624 12.4982ZM43.8439 16.2045C45.7312 16.7931 47.6252 17.3683 49.5257 17.9298L48.959 19.8478C47.0489 19.2835 45.1453 18.7054 43.2484 18.1137L43.8439 16.2045ZM55.2319 19.5693C57.1356 20.1008 59.0457 20.6188 60.9618 21.1229L60.4529 23.0571C58.5271 22.5504 56.6074 22.0299 54.694 21.4956L55.2319 19.5693ZM66.7147 22.5906C68.6336 23.0649 70.5585 23.5255 72.4892 23.9722L72.0384 25.9207C70.098 25.4718 68.1634 25.0089 66.2348 24.5322L66.7147 22.5906ZM78.284 25.2675C80.2162 25.6843 82.1542 26.0873 84.0976 26.4763L83.7051 28.4374C81.7519 28.0464 79.8042 27.6414 77.8622 27.2225L78.284 25.2675ZM89.9288 27.5986C91.8721 27.9577 93.8208 28.3028 95.7746 28.634L95.4404 30.6059C93.4768 30.2731 91.5184 29.9262 89.5654 29.5653L89.9288 27.5986ZM101.635 29.5827C103.589 29.8841 105.547 30.1715 107.51 30.4448L107.234 32.4257C105.261 32.151 103.293 31.8622 101.33 31.5593L101.635 29.5827ZM113.397 31.2202C115.358 31.4638 117.324 31.6935 119.294 31.9089L119.077 33.8971C117.097 33.6806 115.121 33.4498 113.15 33.2049L113.397 31.2202ZM125.202 32.5111C127.17 32.6971 129.142 32.869 131.118 33.0267L130.959 35.0204C128.973 34.8619 126.991 34.6891 125.014 34.5022L125.202 32.5111ZM137.041 33.4559C139.012 33.5844 140.988 33.6987 142.968 33.7988L142.867 35.7963C140.877 35.6957 138.892 35.5808 136.911 35.4517L137.041 33.4559ZM148.9 34.0557C150.874 34.1269 152.853 34.1839 154.835 34.2267L154.792 36.2262C152.8 36.1832 150.812 36.1259 148.828 36.0544L148.9 34.0557ZM160.772 34.3121C161.762 34.3192 162.752 34.3228 163.743 34.3228V36.3228C162.747 36.3228 161.752 36.3192 160.758 36.312L160.772 34.3121ZM163.743 34.3228C164.735 34.3228 165.725 34.3192 166.714 34.3121L166.729 36.312C165.734 36.3192 164.739 36.3228 163.743 36.3228V34.3228ZM172.652 34.2267C174.634 34.1839 176.612 34.1269 178.587 34.0557L178.659 36.0544C176.675 36.1259 174.687 36.1832 172.695 36.2262L172.652 34.2267ZM184.519 33.7988C186.498 33.6987 188.474 33.5844 190.446 33.4559L190.576 35.4517C188.594 35.5808 186.609 35.6957 184.62 35.7963L184.519 33.7988ZM196.368 33.0267C198.345 32.869 200.317 32.6971 202.284 32.5111L202.473 34.5022C200.495 34.6891 198.514 34.8619 196.528 35.0204L196.368 33.0267ZM208.192 31.9089C210.163 31.6935 212.129 31.4638 214.09 31.2202L214.336 33.2049C212.365 33.4498 210.39 33.6806 208.409 33.8971L208.192 31.9089ZM219.977 30.4448C221.94 30.1715 223.898 29.8841 225.851 29.5827L226.156 31.5593C224.193 31.8622 222.225 32.151 220.252 32.4257L219.977 30.4448ZM231.712 28.634C233.666 28.3028 235.614 27.9577 237.558 27.5986L237.921 29.5653C235.968 29.9262 234.01 30.2731 232.046 30.6059L231.712 28.634ZM243.389 26.4763C245.332 26.0873 247.27 25.6843 249.202 25.2675L249.624 27.2225C247.682 27.6414 245.735 28.0464 243.781 28.4374L243.389 26.4763ZM254.997 23.9722C256.928 23.5255 258.853 23.0649 260.772 22.5906L261.252 24.5322C259.323 25.0089 257.388 25.4718 255.448 25.9207L254.997 23.9722ZM266.525 21.1229C268.441 20.6188 270.351 20.1008 272.255 19.5693L272.792 21.4956C270.879 22.0299 268.959 22.5504 267.033 23.0571L266.525 21.1229ZM277.961 17.9298C279.861 17.3683 281.755 16.7931 283.643 16.2045L284.238 18.1137C282.341 18.7054 280.438 19.2835 278.527 19.8478L277.961 17.9298ZM289.297 14.3938C291.18 13.7754 293.055 13.1435 294.924 12.4982L295.577 14.3887C293.699 15.0373 291.814 15.6724 289.922 16.2939L289.297 14.3938ZM300.521 10.5179C302.384 9.84306 304.239 9.1548 306.087 8.45329L306.797 10.3231C304.939 11.0282 303.075 11.72 301.202 12.3983L300.521 10.5179ZM311.622 6.30445C313.463 5.57335 315.297 4.82901 317.124 4.07156L317.89 5.91899C316.054 6.68032 314.211 7.42847 312.36 8.16331L311.622 6.30445Z" fill="black" fill-opacity="0.61"/>
</svg>
