<svg width="326" height="37" viewBox="0 0 326 37" fill="none" xmlns="http://www.w3.org/2000/svg">
<path d="M0.9215 34.3839C0.668905 34.4955 0.55459 34.7907 0.666171 35.0433C0.777752 35.2959 1.07298 35.4102 1.32557 35.2987L0.9215 34.3839ZM325.065 34.8413L321.64 30.1934L319.327 35.4834L325.065 34.8413ZM1.32557 35.2987C2.23114 34.8986 3.13868 34.5019 4.04816 34.1084L3.65106 33.1906C2.73925 33.5851 1.82939 33.9829 0.9215 34.3839L1.32557 35.2987ZM9.52221 31.7892C11.351 31.0308 13.1874 30.2855 15.0312 29.5535L14.6622 28.624C12.8136 29.3579 10.9726 30.1051 9.13913 30.8655L9.52221 31.7892ZM20.5727 27.4019C22.4233 26.6995 24.2811 26.0103 26.146 25.3346L25.8054 24.3944C23.9357 25.0719 22.0731 25.7628 20.2178 26.467L20.5727 27.4019ZM31.7502 23.3518C33.6213 22.7057 35.4992 22.073 37.384 21.4538L37.0719 20.5037C35.1824 21.1245 33.2996 21.7588 31.4238 22.4066L31.7502 23.3518ZM43.0461 19.6409C44.9358 19.0514 46.8322 18.4755 48.7351 17.9133L48.4517 16.9543C46.544 17.518 44.6429 18.0953 42.7483 18.6862L43.0461 19.6409ZM54.4485 16.2718C56.3546 15.7395 58.2671 15.221 60.1857 14.7162L59.9312 13.7491C58.0078 14.2552 56.0905 14.775 54.1795 15.3086L54.4485 16.2718ZM65.9458 13.2466C67.8672 12.7717 69.7945 12.3106 71.7276 11.8633L71.5022 10.889C69.5642 11.3374 67.632 11.7997 65.7059 12.2758L65.9458 13.2466ZM77.5296 10.5664C79.4643 10.1491 81.4047 9.74557 83.3506 9.35604L83.1543 8.37549C81.2035 8.766 79.2583 9.1705 77.3187 9.58889L77.5296 10.5664ZM89.189 8.23236C91.1348 7.87284 93.0858 7.52724 95.0422 7.19568L94.8751 6.20974C92.9139 6.54213 90.9579 6.88859 89.0073 7.249L89.189 8.23236ZM100.91 6.24576C102.866 5.94401 104.826 5.65626 106.792 5.38262L106.654 4.39217C104.684 4.66649 102.718 4.95496 100.758 5.25745L100.91 6.24576ZM112.686 4.60626C114.65 4.3623 116.618 4.13239 118.591 3.91666L118.482 2.92258C116.505 3.13885 114.531 3.36932 112.563 3.61389L112.686 4.60626ZM124.506 3.31376C126.476 3.12753 128.45 2.9554 130.429 2.79749L130.35 1.80066C128.366 1.95896 126.387 2.13151 124.412 2.3182L124.506 3.31376ZM136.359 2.36775C138.333 2.23915 140.311 2.12467 142.294 2.02444L142.243 1.02572C140.256 1.12619 138.273 1.24095 136.294 1.36987L136.359 2.36775ZM148.233 1.76728C150.21 1.69602 152.191 1.63891 154.175 1.59606L154.154 0.596297C152.164 0.639246 150.178 0.696492 148.197 0.767928L148.233 1.76728ZM160.12 1.51056C161.11 1.50344 162.102 1.49988 163.094 1.49988V0.499878C162.099 0.499878 161.105 0.503453 160.112 0.51059L160.12 1.51056ZM163.094 1.49988C164.087 1.49988 165.078 1.50344 166.069 1.51056L166.076 0.51059C165.083 0.503453 164.089 0.499878 163.094 0.499878V1.49988ZM172.013 1.59606C173.998 1.63891 175.979 1.69602 177.956 1.76728L177.992 0.767928C176.01 0.696491 174.024 0.639246 172.035 0.596297L172.013 1.59606ZM183.895 2.02444C185.877 2.12467 187.855 2.23915 189.829 2.36775L189.894 1.36987C187.915 1.24095 185.932 1.12619 183.945 1.02572L183.895 2.02444ZM195.759 2.79748C197.738 2.9554 199.713 3.12753 201.683 3.31376L201.777 2.3182C199.802 2.13151 197.822 1.95896 195.839 1.80065L195.759 2.79748ZM207.597 3.91665C209.57 4.13239 211.539 4.3623 213.502 4.60625L213.626 3.61388C211.657 3.36932 209.684 3.13885 207.706 2.92258L207.597 3.91665ZM219.397 5.38261C221.362 5.65626 223.323 5.94401 225.278 6.24576L225.431 5.25745C223.47 4.95496 221.505 4.66649 219.534 4.39217L219.397 5.38261ZM231.146 7.19568C233.103 7.52724 235.054 7.87284 237 8.23236L237.181 7.249C235.231 6.88859 233.275 6.54213 231.313 6.20974L231.146 7.19568ZM242.838 9.35604C244.784 9.74557 246.724 10.1491 248.659 10.5664L248.87 9.58888C246.93 9.1705 244.985 8.76599 243.034 8.37549L242.838 9.35604ZM254.461 11.8633C256.394 12.3106 258.321 12.7717 260.243 13.2466L260.483 12.2758C258.557 11.7997 256.624 11.3374 254.686 10.889L254.461 11.8633ZM266.003 14.7162C267.921 15.221 269.834 15.7395 271.74 16.2717L272.009 15.3086C270.098 14.775 268.181 14.2551 266.257 13.7491L266.003 14.7162ZM277.453 17.9133C279.356 18.4755 281.253 19.0514 283.142 19.6408L283.44 18.6862C281.546 18.0953 279.645 17.5179 277.737 16.9543L277.453 17.9133ZM288.805 21.4538C290.689 22.073 292.567 22.7057 294.438 23.3518L294.765 22.4066C292.889 21.7588 291.006 21.1245 289.117 20.5037L288.805 21.4538ZM300.043 25.3346C301.908 26.0103 303.765 26.6995 305.616 27.4019L305.971 26.467C304.115 25.7628 302.253 25.0719 300.383 24.3944L300.043 25.3346ZM311.157 29.5535C313.001 30.2855 314.838 31.0308 316.666 31.7892L317.049 30.8655C315.216 30.1051 313.375 29.3579 311.526 28.624L311.157 29.5535ZM0.719464 33.9266C0.214274 34.1497 -0.0143547 34.7402 0.208808 35.2454C0.43197 35.7505 1.02242 35.9792 1.52761 35.756L0.719464 33.9266ZM325.065 34.8413L318.215 25.5454L313.59 36.1255L325.065 34.8413ZM1.52761 35.756C2.43202 35.3565 3.33839 34.9602 4.2467 34.5672L3.45252 32.7317C2.53954 33.1267 1.62852 33.525 0.719464 33.9266L1.52761 35.756ZM9.71375 32.2511C11.5402 31.4936 13.3742 30.7493 15.2157 30.0182L14.4777 28.1593C12.6268 28.8942 10.7834 29.6423 8.94759 30.4036L9.71375 32.2511ZM20.7501 27.8693C22.5983 27.1678 24.4538 26.4796 26.3164 25.8047L25.635 23.9243C23.763 24.6026 21.898 25.2944 20.0404 25.9995L20.7501 27.8693ZM31.9134 23.8244C33.7821 23.1791 35.6577 22.5472 37.5401 21.9288L36.9159 20.0287C35.0239 20.6502 33.1388 21.2854 31.2606 21.9339L31.9134 23.8244ZM43.195 20.1182C45.0823 19.5295 46.9763 18.9543 48.8767 18.3928L48.31 16.4748C46.4 17.0392 44.4964 17.6172 42.5994 18.2089L43.195 20.1182ZM54.5829 16.7533C56.4867 16.2218 58.3967 15.7039 60.3129 15.1997L59.804 13.2655C57.8782 13.7722 55.9585 14.2928 54.0451 14.827L54.5829 16.7533ZM66.0658 13.732C67.9847 13.2577 69.9096 12.7971 71.8403 12.3504L71.3895 10.4019C69.449 10.8509 67.5145 11.3137 65.5859 11.7904L66.0658 13.732ZM77.635 11.0552C79.5673 10.6383 81.5052 10.2354 83.4487 9.84631L83.0561 7.88522C81.1029 8.27621 79.1553 8.68122 77.2133 9.10013L77.635 11.0552ZM89.2799 8.72404C91.2232 8.36497 93.1718 8.0198 95.1257 7.68865L94.7915 5.71677C92.8279 6.04957 90.8695 6.39646 88.9165 6.75733L89.2799 8.72404ZM100.987 6.73991C102.94 6.43854 104.898 6.15114 106.861 5.87784L106.585 3.89695C104.612 4.17161 102.644 4.46043 100.682 4.7633L100.987 6.73991ZM112.748 5.10244C114.709 4.85879 116.675 4.62917 118.646 4.41369L118.428 2.42554C116.448 2.64208 114.472 2.87284 112.501 3.1177L112.748 5.10244ZM124.553 3.81154C126.521 3.62554 128.493 3.45362 130.469 3.2959L130.31 1.30224C128.324 1.46074 126.342 1.6335 124.365 1.82042L124.553 3.81154ZM136.392 2.86669C138.363 2.73825 140.339 2.62391 142.319 2.5238L142.218 0.526355C140.228 0.626955 138.243 0.741847 136.262 0.870925L136.392 2.86669ZM148.251 2.26695C150.225 2.19578 152.204 2.13874 154.186 2.09595L154.143 0.0964132C152.151 0.139414 150.163 0.196729 148.179 0.268252L148.251 2.26695ZM160.123 2.01055C161.113 2.00344 162.103 1.99988 163.094 1.99988V-0.00012207C162.098 -0.00012207 161.103 0.00345731 160.109 0.0106031L160.123 2.01055ZM163.094 1.99988C164.086 1.99988 165.076 2.00344 166.065 2.01055L166.08 0.0106031C165.086 0.00345731 164.09 -0.00012207 163.094 -0.00012207V1.99988ZM172.003 2.09595C173.985 2.13874 175.963 2.19578 177.938 2.26695L178.01 0.268252C176.026 0.196729 174.038 0.139414 172.046 0.096413L172.003 2.09595ZM183.87 2.5238C185.849 2.62391 187.825 2.73825 189.797 2.86669L189.927 0.870924C187.946 0.741847 185.96 0.626954 183.971 0.526355L183.87 2.5238ZM195.719 3.2959C197.696 3.45362 199.668 3.62554 201.635 3.81154L201.824 1.82042C199.846 1.6335 197.865 1.46073 195.879 1.30224L195.719 3.2959ZM207.543 4.41369C209.514 4.62916 211.48 4.85878 213.441 5.10244L213.687 3.1177C211.716 2.87283 209.741 2.64208 207.76 2.42554L207.543 4.41369ZM219.328 5.87784C221.291 6.15114 223.249 6.43854 225.202 6.73991L225.507 4.7633C223.544 4.46043 221.576 4.1716 219.603 3.89694L219.328 5.87784ZM231.063 7.68865C233.017 8.0198 234.965 8.36496 236.909 8.72403L237.272 6.75733C235.319 6.39646 233.361 6.04957 231.397 5.71677L231.063 7.68865ZM242.74 9.84631C244.683 10.2354 246.621 10.6383 248.554 11.0552L248.975 9.10012C247.033 8.68122 245.086 8.27621 243.132 7.88522L242.74 9.84631ZM254.348 12.3504C256.279 12.7971 258.204 13.2577 260.123 13.732L260.603 11.7904C258.674 11.3137 256.74 10.8509 254.799 10.4019L254.348 12.3504ZM265.876 15.1997C267.792 15.7039 269.702 16.2218 271.606 16.7533L272.143 14.827C270.23 14.2928 268.31 13.7722 266.385 13.2655L265.876 15.1997ZM277.312 18.3928C279.212 18.9543 281.106 19.5295 282.994 20.1182L283.589 18.2089C281.692 17.6172 279.789 17.0392 277.879 16.4748L277.312 18.3928ZM288.648 21.9288C290.531 22.5472 292.406 23.1791 294.275 23.8244L294.928 21.9339C293.05 21.2854 291.165 20.6502 289.273 20.0287L288.648 21.9288ZM299.872 25.8047C301.735 26.4796 303.59 27.1678 305.438 27.8693L306.148 25.9995C304.291 25.2944 302.426 24.6026 300.554 23.9243L299.872 25.8047ZM310.973 30.0182C312.814 30.7493 314.648 31.4936 316.475 32.2511L317.241 30.4036C315.405 29.6423 313.562 28.8942 311.711 28.1593L310.973 30.0182Z" fill="black" fill-opacity="0.61"/>
</svg>
