<svg xmlns="http://www.w3.org/2000/svg" viewBox="0 0 64 80" x="0px" y="0px">
    <g data-name="Layer 11">
        <path
            d="M53,34H49V24h3v1a1,1,0,0,0,1,1h4a1,1,0,0,0,1-1V11a1,1,0,0,0-1-1H53a1,1,0,0,0-1,1v1H40V11a1,1,0,0,0-1-1H35a1,1,0,0,0-1,1V25a1,1,0,0,0,1,1h4a1,1,0,0,0,1-1V24h3V34h-.6a3.011,3.011,0,0,1-1.874-.657l-3.9-3.124-1.25,1.562L39.28,34.9A5.014,5.014,0,0,0,42.4,36H53a6.976,6.976,0,0,1,4.89,2H55a1,1,0,0,0-1,1,5.006,5.006,0,0,0,5,5h1v1a3,3,0,0,1-3,3H53.92a7,7,0,1,0-13.84,0H23.92a7,7,0,1,0-13.84,0H7.333L5.2,46.4A3.015,3.015,0,0,1,4,44V36H5.4a8.938,8.938,0,0,0,5.294-1.722l6.792-4.939A6.955,6.955,0,0,1,21.6,28h6.592a7.022,7.022,0,0,1,4.372,1.534l.809.647,1.25-1.562-.809-.647A9.029,9.029,0,0,0,28.194,26H21.6a8.938,8.938,0,0,0-5.294,1.722L9.516,32.661A6.955,6.955,0,0,1,5.4,34H3a1,1,0,0,0-1,1v9a5.025,5.025,0,0,0,2,4l2.4,1.8A1,1,0,0,0,7,50h3.685a6.985,6.985,0,0,0,12.63,0h17.37a6.985,6.985,0,0,0,12.63,0H57a5.006,5.006,0,0,0,5-5V43A9.011,9.011,0,0,0,53,34Zm1-22h2V24H54V12ZM38,24H36V12h2V24Zm2-10H52v8H40Zm5,10h2V34H45ZM17,52a5,5,0,1,1,5-5A5.006,5.006,0,0,1,17,52Zm30,0a5,5,0,1,1,5-5A5.006,5.006,0,0,1,47,52Zm9.171-12h3.144a6.937,6.937,0,0,1,.605,2H59A3.006,3.006,0,0,1,56.171,40Z" />
        <path d="M47,49a2,2,0,1,1,1.333-3.491l1.334-1.49A4,4,0,1,0,51,47H49A2,2,0,0,1,47,49Z" />
        <path d="M17,43a4,4,0,1,0,4,4A4,4,0,0,0,17,43Zm0,6a2,2,0,1,1,2-2A2,2,0,0,1,17,49Z" />
        <path
            d="M36.94,35.34a1,1,0,0,0-.3-1.108l-4.888-4.073A5.008,5.008,0,0,0,28.552,29h-7.27a4.969,4.969,0,0,0-2.906.931l-5.957,4.255A1,1,0,0,0,13,36H36A1,1,0,0,0,36.94,35.34Zm-17.4-3.781A2.952,2.952,0,0,1,20,31.292V34H16.121ZM22,34V31h6.552a3.007,3.007,0,0,1,1.92.7L33.238,34Z" />
        <rect x="22.083" y="37" width="3.917" height="2" />
    </g>
    <text x="0" y="79" fill="#000000" font-size="5px" font-weight="bold"
        font-family="'Helvetica Neue', Helvetica, Arial-Unicode, Arial, Sans-serif">Created by
        KonKapp</text>
    <text x="0" y="84" fill="#000000" font-size="5px" font-weight="bold"
        font-family="'Helvetica Neue', Helvetica, Arial-Unicode, Arial, Sans-serif">from the Noun
        Project</text>
</svg>