<svg xmlns="http://www.w3.org/2000/svg" viewBox="0 0 145 145"><defs><style>.cls-1{fill:#231f20;}.cls-2{fill:none;}</style></defs><g id="Layer_2" data-name="Layer 2"><g id="Layer_1-2" data-name="Layer 1"><path class="cls-1" d="M42.56,76.38a30.11,30.11,0,0,0,11.22,19.9V76.38Zm11.2-27.65a30.05,30.05,0,0,0-11,18.36h11Zm9.33,18.34h9V42.32a29.55,29.55,0,0,0-9,1.49ZM72.5,30.5a42,42,0,1,0,41.66,42A41.83,41.83,0,0,0,72.5,30.5Zm25,9.64,1.66,1.55-1.78,4.54,4.46-2,1.66,1.59L99,53.37,97.4,51.75l2.5-4.42h0L95,49.4l-.67-.63,1.85-5,0,0L92,46.61l-1.68-1.55Zm-18.34-4a4.6,4.6,0,0,1,6-2.65c2.42.79,4.1,3.22,3.32,5.66a4.89,4.89,0,0,1-9.29-3ZM69.54,32c1.74-.13,3.12.55,3.27,2.36a2.31,2.31,0,0,1-1.74,2.54l3,3.24-2.85.23-2.42-3.08h0l.26,3.25-2.29.18-.67-8.44ZM54.86,35.89l6.85,6L59.54,43l-1.18-1-2.8,1.48L55.7,45l-2.16,1.13-.89-9.09ZM44.29,43.15l1.37,1.25-1.88,2.07,1,1,1.7-1.87,1.37,1.26-1.7,1.87,2.44,2.25-1.55,1.71-6.21-5.72ZM35.05,56.81l6.05,2.54,1.06-2.56,1.71.72L41.93,62.2,34.17,59ZM40.32,70l-1.47.56,0,3.18,1.45.63,0,2.46-8.37-3.52,0-2.53,8.45-3.25ZM72.5,103.38A30.88,30.88,0,1,1,103.13,72.5,30.76,30.76,0,0,1,72.5,103.38Zm29-45.43,7.76-3.25,1.92,4.68-1.7.71-1-2.53-1.3.54,1,2.41-1.71.71-1-2.41-1.34.56,1,2.54-1.71.72Zm7.9,18.27a4.93,4.93,0,0,1-.34-9.84c2.54-.09,4.41,2.21,4.5,4.76S111.9,76.13,109.36,76.22Zm-.27-7.43a2.51,2.51,0,0,0,.18,5,2.53,2.53,0,0,0-.18-5Zm-40.16-33c.74,0,1.57-.26,1.5-1.17s-.93-1-1.67-.93l-.22,0,.16,2.1Zm14.12,4.3a2.39,2.39,0,1,0,1.45-4.54,2.43,2.43,0,0,0-3.06,1.36A2.48,2.48,0,0,0,83.05,40.1Zm-45.88,31L34.48,72v0l2.66,1ZM57,40.74l-2.08-2h0l.41,2.83Zm6.07,60.43a29.57,29.57,0,0,0,9,1.51V76.4h-9Zm10,1.41h0Zm0-60.16v60.15a30.08,30.08,0,0,0,0-60.15Zm18.34,7.27a.92.92,0,1,1-.91.92A.92.92,0,0,1,91.41,49.69Zm-10,3.2V52H92.29v.87Zm10.85,1V55H81.44V53.86Zm-3.17-4.17a.92.92,0,1,1-.91.92A.91.91,0,0,1,89.12,49.69Zm-2.29,0a.92.92,0,1,1-.91.92A.91.91,0,0,1,86.83,49.69Zm-2.29,0a.92.92,0,1,1-.91.92A.91.91,0,0,1,84.54,49.69Zm-2.3,0a.92.92,0,0,1,0,1.83.92.92,0,0,1,0-1.83ZM75.91,67.23a.92.92,0,0,1,.26-.63l1.61-1.12c.78-.53.64-1.4.53-2.12s-.88-.38-1.1-.11A1.87,1.87,0,0,1,74,62a1.85,1.85,0,0,1,3.18-1.32c.22.26,1,.6,1.1-.12s.25-1.6-.53-2.13l-1.61-1.12a.88.88,0,0,1-.26-.62.89.89,0,0,1,.89-.89.84.84,0,0,1,.61.26l2.49,1.73c-.14.72.34,3.34,2.11,4.18-1.77.83-2.2,3.34-2.11,4.21l-2.49,1.73a.84.84,0,0,1-.61.26A.89.89,0,0,1,75.91,67.23Zm19.27-12a11,11,0,0,1,5.19,9.27,8.35,8.35,0,0,1-7.84,8.3H82.44a1,1,0,0,0,0,1.93h9.49a5.54,5.54,0,0,1,5.44,5.57,5.4,5.4,0,0,1-5.44,5.4h-9a.92.92,0,0,0,0,1.83h6.86a2.95,2.95,0,0,1,0,5.89l-4.15,0a.7.7,0,0,0,0,1.39h3.19c1.11,0,2.35,1.66,0,2.57,0-.47,0-1.16-1.06-1.16H85.15A2.19,2.19,0,0,1,82.91,94a2.32,2.32,0,0,1,2.24-2.34h4.37a.87.87,0,0,0,0-1.74h-7a4.11,4.11,0,0,1-4.1-4.14,4,4,0,0,1,4.1-4H91.1c.53,0,1-.28,1-.81a1,1,0,0,0-1-1H82.44a6.23,6.23,0,0,1,0-12.45h8.33a1.21,1.21,0,0,0,1.17-1.22,1.15,1.15,0,0,0-1.17-1.14H81.38a2.6,2.6,0,0,1,2.87-2.27h4.37a.9.9,0,0,0,.9-.91.84.84,0,0,0-.9-.84H84.25a2.94,2.94,0,0,1-2.87-2.59h4.53c.38-1.21,1.13-1.82,2-1.82h4.82A2.51,2.51,0,0,0,95.18,55.2Z"/><rect class="cls-2" width="145" height="145"/></g></g></svg>