<svg xmlns="http://www.w3.org/2000/svg" viewBox="0 0 145 145"><defs><style>.cls-1{fill:#231f20;}.cls-2{fill:none;}</style></defs><g id="Layer_2" data-name="Layer 2"><g id="Layer_1-2" data-name="Layer 1"><path class="cls-1" d="M1.85,54.54c.15.08,1.3.66,1.7.88l2,1,0,.15c0,.07-.14.62-.2.94s-.22,1-.25,1.2-.05.4.15.5L6.94,60l2.13,1a5.75,5.75,0,0,0,0,.7c0,.24.08,1,.12,1.19s0,.51.28.68a6.28,6.28,0,0,0,1.18.49c.47.13.64.2,1.33.38l1.54.41s.08.47.23,1a10.24,10.24,0,0,0,.4,1.54.93.93,0,0,0,.49.48,12.79,12.79,0,0,0,1.32.29l1.46.24c.47.06,1.52.16,1.52.16a2.08,2.08,0,0,1,.1.19c0,.11.46.71.66,1a5.54,5.54,0,0,0,.64.88c.23.24.36.46.62.54a14.86,14.86,0,0,0,1.82.37c.61.08,1.73.23,2.28.28s1.59.07,1.59.07a5.66,5.66,0,0,0,.21.76,3.28,3.28,0,0,0,.57,1,1.29,1.29,0,0,0,.91.59,14.32,14.32,0,0,0,1.54.13c.33,0,1.92,0,2.23,0l1.46,0a2.85,2.85,0,0,0,.11.33,7,7,0,0,0,.48.88,2.65,2.65,0,0,0,.55.64,1.35,1.35,0,0,0,.84.4,8,8,0,0,0,1.53-.09A16.19,16.19,0,0,0,39,76.21l1.41-.34a6.23,6.23,0,0,0,.43.71,3.19,3.19,0,0,0,.59.69c.16.12.27.24.94.28a7.43,7.43,0,0,0,2-.33c.64-.14,1.58-.46,1.58-.46a2.91,2.91,0,0,0,.08.4c.09.25.37,1,.7,1.8a17.53,17.53,0,0,0,.94,2,15.93,15.93,0,0,0,1.23,2c.5.68,1.1,1.41,1.47,1.82s1.95,2,2.42,2.39,1.65,1.28,2.16,1.64,1.39.88,1.9,1.15,1.75.89,2.33,1.15,1.35.57,1.35.57l.27.58c.09.25.59,1.2.66,1.32s.24.13.38.1.86-.31,1.09-.41.93-.36.93-.36l.53.8c.16.22.55.78.6.89a.31.31,0,0,0,.33.07c.08,0,.53-.33.85-.49l1-.56s.38.46.48.6.73.85.82,1a.25.25,0,0,0,.32.07c.1,0,.66-.49.87-.65l.86-.62s.52.54.71.72a8,8,0,0,0,.86.75.19.19,0,0,0,.21,0,1.11,1.11,0,0,0,.16-.16c.06-.06.51-.48.69-.67L73.9,94a1.81,1.81,0,0,0,.28.21c.14.09.58.45.86.64a2.79,2.79,0,0,0,.61.43c.11,0,.19.06.26,0s.59-.67.75-.89.6-.75.6-.75l.83.48c.17.08,1,.53,1,.55s.25.08.32,0,.47-.65.61-.87.55-.83.55-.83l.87.36,1.16.43a.33.33,0,0,0,.37-.1c0-.09.35-.67.51-1s.47-1,.47-1,.77-.3,1.43-.6,2.2-1.13,3-1.64,1.92-1.31,2.52-1.78,1.71-1.48,2-1.74l1-1a26,26,0,0,0,1.82-2.26c.26-.36,1.07-1.7,1.23-2s.68-1.37.77-1.62.49-1.37.49-1.37a6,6,0,0,0,.65.25,9.5,9.5,0,0,0,1.11.28,2.85,2.85,0,0,0,.77,0,2.3,2.3,0,0,0,.7-.4,4.85,4.85,0,0,0,.59-.61,6.27,6.27,0,0,0,.36-.63l.41.14,1.29.38c.31.07,1,.23,1.37.28a4.53,4.53,0,0,0,1.13.08,1.63,1.63,0,0,0,.84-.53,3.68,3.68,0,0,0,.55-.77,4.9,4.9,0,0,0,.28-.68s.25.11.5.19a13.17,13.17,0,0,0,1.49.29,16.76,16.76,0,0,0,1.72.12,6.83,6.83,0,0,0,1.14-.06.82.82,0,0,0,.6-.32,1.93,1.93,0,0,0,.4-.59,5.23,5.23,0,0,0,.36-.91c.08-.26.2-.72.2-.72h.68l1.44,0,2.1,0a6.36,6.36,0,0,0,1-.12,1,1,0,0,0,.62-.34,2.36,2.36,0,0,0,.41-.64,7.51,7.51,0,0,0,.25-.86c0-.16.15-.79.15-.79a4,4,0,0,0,.46.08c.32,0,.82.09,1.26.12s1.38,0,1.69,0a7.55,7.55,0,0,0,1.07-.06,2.58,2.58,0,0,0,.59-.39,6.19,6.19,0,0,0,.7-.81,9.83,9.83,0,0,0,.55-1.06c.09-.26.32-1.08.32-1.08l.59,0,1.61-.17c.47-.06.93-.16,1.3-.24a1.46,1.46,0,0,0,.74-.39,2.2,2.2,0,0,0,.48-.78,6,6,0,0,0,.19-1c0-.29.06-.95.06-.95h.41c.22,0,.74-.11,1.1-.18a8,8,0,0,0,1.34-.41,2.12,2.12,0,0,0,.66-.44,3.23,3.23,0,0,0,.45-.89A5.55,5.55,0,0,0,137,60.9c0-.33,0-.89,0-.89l1.08-.28a15.93,15.93,0,0,0,1.51-.57c.23-.09.83-.45.88-.47a2.64,2.64,0,0,0,0-.67,5.23,5.23,0,0,0-.27-1.12c-.1-.28-.39-1-.39-1s1-.43,1.39-.58,1.57-.76,1.67-.83a.68.68,0,0,0,.29-.22c.09-.11.33-.53.38-.62s0-.14-.16-.28-.47-.62-.81-1a15.51,15.51,0,0,0-1.29-1.23c-.08-.08-.31-.08-.86,0s-3.35.26-4.68.39-4,.26-4.77.28-3.34-.09-4.56-.15-7.25-.42-8.63-.41-8,.33-9.17.4-4.95.22-6.14.24a34.14,34.14,0,0,1-4.24-.28c-.73-.08-3.33-.34-4.43-.36a26.65,26.65,0,0,0-2.68.12,34.32,34.32,0,0,0-3.48.53c-1,.22-2.2.58-2.2.58s-1.64-.74-2.4-1a39.52,39.52,0,0,0-4.57-1.31,32.24,32.24,0,0,0-6.13-.59A33.32,33.32,0,0,0,67,50a34.58,34.58,0,0,0-4.77,1.17c-.85.29-2.51.94-2.51.94a13.12,13.12,0,0,0-1.88-.44c-.87-.16-4.76-.41-6-.41s-7.46.28-8.78.32-5.25-.16-6.69-.25S29.14,51,27.88,51s-6.44.1-7.34.15-5,.3-5.51.3H11c-1,0-3.41-.11-4-.18S4.37,51,4.17,51a.72.72,0,0,0-.62.22L2.82,52c-.3.33-1.36,1.58-1.36,1.58s.05.14.11.39a.82.82,0,0,0,.28.53m7.57,4.85-1.65-.73a4.4,4.4,0,0,1-1-.52c-.1-.13,0-.32,0-.49a.61.61,0,0,0-.19-.53c-.19-.16-.42-.33-.42-.33l.08-.37s1,0,1.34,0,2.2.08,2.86.08,2.69.06,3.19,0,3.27,0,3.86,0l4.09,0c.6,0,3.91,0,4.42,0s3.24,0,3.87,0,3.38,0,4,0,2.2,0,2.54,0a4.58,4.58,0,0,0,.7-.06c.06,0,.29-.12.41-.06a.78.78,0,0,1,.26.3,2.46,2.46,0,0,0,.25.22,1.1,1.1,0,0,1,.31.25.63.63,0,0,0,.23.23c.14.11.17.16.12.22a5.6,5.6,0,0,0-.35.48c-.09.14-.12.28-.17.33a1.71,1.71,0,0,1-.36.08s.18-.15.15-.27a.73.73,0,0,0-.66-.42,15.62,15.62,0,0,0-2,.12L31,58.46c-.57.06-5,.37-5.79.44s-4.29.27-5,.31-3.34.18-4.14.23-2.71.14-3.45.17-2.13.07-2.4,0a2.69,2.69,0,0,1-.8-.26m45,17.2c0,.11.08.21,0,.23s-.33.2-.39.23a.3.3,0,0,1-.35-.13c0-.1-.32-.12-.51-.28s-.18-.26-.18-.43a5.52,5.52,0,0,0,.06-.9l-.18-.38s.3-.73.37-.86a2.39,2.39,0,0,0,.18-.34,3.4,3.4,0,0,0,.15.55,5.87,5.87,0,0,1,.31.56c0,.14.35.91.39,1a.76.76,0,0,1,.12.43.34.34,0,0,0,0,.28m-3.18-7.77c-.16-.28-.27-.3-.4-.34s-.19,0-.4-.09-.32-.34-.46-.36-.12,0-.23,0a.32.32,0,0,1-.28,0s.67-.61,1-.94.94-.94,1.23-1.2.75-.76.75-.76a.44.44,0,0,0,.34.18l.63.06a1,1,0,0,0,.56-.06.42.42,0,0,1,.21-.13l-.31.41c-.19.24-.67.92-.94,1.32s-.88,1.33-1,1.5l-.41.65c-.07.08-.16.21-.16.21a.88.88,0,0,0-.13-.47m-.35-7.75s-.51.4-.69.57a4.72,4.72,0,0,1-.54.49c-.08,0-.33-.1-.5-.19a3.82,3.82,0,0,0-.68-.18l-.25,0,.62-.53c.25-.2.73-.51.93-.68l.47-.29a.26.26,0,0,1,.21.08s.19,0,.23.15,0,.24,0,.3.14,0,.17.11a.56.56,0,0,1,0,.19m0,.48c.18-.13.51-.4.51-.4s.16,0,.14.12.09.11.15.11a1.69,1.69,0,0,1,.3,0,.19.19,0,0,1,.13.17c0,.11,0,.2.06.21s.14,0,.15,0a.58.58,0,0,0,0,.1s-.57.59-.81.78-.61.63-.66.69l-.08.11a1.33,1.33,0,0,0-.29-.41,1,1,0,0,0-.47-.28,1.48,1.48,0,0,0-.38-.06s.44-.41.65-.59.43-.42.59-.56m-1.32-1.9a1.78,1.78,0,0,1-.34.46c-.25.23-.44.34-.59.47a1.64,1.64,0,0,1-.5.34c-.13,0-.31-.08-.42-.11a3.12,3.12,0,0,1-.48-.18.44.44,0,0,0-.28-.08l-.35.07v-.2l.83-.46c.19-.13.85-.44,1.12-.6a1.93,1.93,0,0,1,.76-.25c.16,0,.3.07.32.14a.55.55,0,0,1-.07.4m-1-1.27c-.11.06-.75.42-1,.53a6.11,6.11,0,0,1-.94.39,1.31,1.31,0,0,1-.51-.09,2.27,2.27,0,0,0-.29-.08H45.6a.31.31,0,0,0,0-.1.56.56,0,0,1,0-.13s.54-.29,1-.49,1.38-.52,1.57-.56.41-.13.52-.05.21.12.18.2a1.08,1.08,0,0,1-.3.38m-.2-1.67s-.06.08-.17.18a1.05,1.05,0,0,1-.34.33l-.78.22c-.35.07-.88.25-1.08.3a.83.83,0,0,1-.55.06L45,57.68c-.12,0-.13,0-.21,0s-.09,0-.09,0v-.25s.56-.24,1-.38,1.16-.3,1.5-.38.58-.17.69-.12a1.5,1.5,0,0,0,.4,0l.17,0s.09.1,0,.12m-3.47,1.95c.19.08.37.16.39.28a.46.46,0,0,1-.11.4.77.77,0,0,0-.09.27,1,1,0,0,0,0,.25.57.57,0,0,1-.24.11l-.2.06a.48.48,0,0,0-.08-.25.63.63,0,0,0-.52-.15c-.17,0-.83.32-1.09.43l-1.21.54a1.17,1.17,0,0,1-.67.16,2.46,2.46,0,0,1-.66-.16c-.19-.09-.45-.22-.53-.24l-.27-.06a.46.46,0,0,1,.12-.24c.08-.08.32-.12.45-.2l.89-.32c.4-.15,1.14-.36,1.44-.44s1-.31,1.16-.39.4-.21.57-.19a2.84,2.84,0,0,1,.68.14M41.2,62.05l.86-.41,1.76-.82c.34-.16.89-.43,1-.47a1.53,1.53,0,0,1,.39-.17c.14,0,.46.09.64.11s.45.08.5.17a.77.77,0,0,1,.07.42,1.86,1.86,0,0,0-.1.39c0,.11,0,.34,0,.34l-.26.12a1.48,1.48,0,0,1-.3.15.49.49,0,0,0-.16-.24.51.51,0,0,0-.48-.1,10.13,10.13,0,0,0-1,.57l-.95.59a.67.67,0,0,1-.5.17,1.55,1.55,0,0,1-.6-.14c-.14-.08-.45-.29-.54-.35s-.4-.14-.4-.23,0-.1,0-.1m2.85,1.3,1.63-.93a5.12,5.12,0,0,1,.88-.48,7.91,7.91,0,0,1,.86,0c.25,0,.4,0,.43.12a1.27,1.27,0,0,1,0,.34,2.33,2.33,0,0,0,0,.38l-1.75,1.38c-.28.21-1,.8-1,.82s-.28-.17-.54-.28a2,2,0,0,0-.54-.14,2.79,2.79,0,0,1-.45-.19,2.62,2.62,0,0,0-.35-.13,1,1,0,0,0-.37.09l0-.17,1.25-.79M45.65,65c.31-.28,1.22-1,1.47-1.22l1-.75a.39.39,0,0,1,.29-.09c.12,0,.39-.08.5-.08s.35,0,.37.15.1.48.09.6a.57.57,0,0,0,0,.33l.07.13-.27.28-.92.88c-.24.23-.71.68-.88.86l-.44.44a.94.94,0,0,0-.23-.4A1.42,1.42,0,0,0,46,66c-.24,0-.52-.23-.64-.26a.35.35,0,0,0-.23,0s-.14,0-.19-.07.45-.38.75-.63m2.66.74c.22-.23,1-1,1.19-1.14a2,2,0,0,1,.53-.46c.22-.07.46-.2.56-.16s.19.18.26.34a.72.72,0,0,0,.47.49,1.43,1.43,0,0,0,.6.1h.2s-.3.28-.45.44-.59.59-.85.83-1,.94-1.13,1.1l-.46.43a.5.5,0,0,0-.15-.32.78.78,0,0,0-.66-.15.72.72,0,0,1-.5-.17c-.13-.11-.24-.23-.31-.23a.47.47,0,0,0-.26.09.75.75,0,0,1-.23,0Zm4.63-1.55.06-.1s.35-.42.64-.73l.71-.76a2,2,0,0,0,.2-.25,6.82,6.82,0,0,0-.23.65,5.42,5.42,0,0,0-.1.77,3,3,0,0,1-.11.57,3.08,3.08,0,0,0,0,.4,1.32,1.32,0,0,1-.25.14,1.37,1.37,0,0,0-.21.14,1.25,1.25,0,0,0-.15-.49.86.86,0,0,0-.28-.25.83.83,0,0,0-.25-.09m-1.12,6.42a5.34,5.34,0,0,0,.67-.08,4.69,4.69,0,0,1,.8-.12c.09,0,.09.12.11.21s0,.95,0,1.23a5.18,5.18,0,0,1,0,1.13c-.06.23-.73,1.52-.89,1.9s-.57,1.13-.63,1.28a.65.65,0,0,1-.16.25c-.05.06-.17-.13-.33-.33a.57.57,0,0,0-.68-.17c-.24,0-1.55.42-1.77.45a2.9,2.9,0,0,1-.86.13.59.59,0,0,1-.41-.36c-.11-.17-.23-.28-.37-.28a1,1,0,0,1-.28,0l1.49-1.57c.27-.28,1.74-1.86,2.06-2.22s.84-1,1-1.15.23-.26.3-.26m1.8-1.31a2.2,2.2,0,0,0-.18.39l0,.23a2.15,2.15,0,0,1-.23.14l-.21,0v-.19a2.3,2.3,0,0,0-.21-.37A.6.6,0,0,1,52.7,69c.07-.27.21-.59.3-.83s.18-.44.34-.82a4.94,4.94,0,0,1,.49-1c.19-.3.28-.44.36-.55a.5.5,0,0,1,.19-.16l.16.24c.08.1.2.21.18.29s-.39.81-.48,1-.33,1-.39,1.3-.16.63-.23.81m.79-7.39c-.25.27-1,1.12-1.34,1.5a10.13,10.13,0,0,1-.67.77,1.92,1.92,0,0,0-.24.3h-.09a.59.59,0,0,0,.08-.34.84.84,0,0,0-.32-.51c-.13-.07-.18-.1-.28-.07l-.25.09-.13,0s.35-.41.53-.57.59-.57.75-.72a.77.77,0,0,1,.35-.25,1,1,0,0,0,.49,0,1.1,1.1,0,0,0,.52-.62.75.75,0,0,0-.26-.57.9.9,0,0,0-.51-.19,1.38,1.38,0,0,0-.47.13l-.2.06a2.65,2.65,0,0,1,0-.28.63.63,0,0,0-.16-.46.66.66,0,0,0-.5-.31c-.22,0-.32,0-.4,0s0-.19-.1-.37a.77.77,0,0,0-.37-.46,1.81,1.81,0,0,0-.52-.12c-.09,0-.09-.07-.09-.2a1.11,1.11,0,0,0-.16-.63,1.31,1.31,0,0,0-.47-.28c-.14,0-.24-.05-.24-.13a2.72,2.72,0,0,0,.1-.41.61.61,0,0,0-.24-.53c-.17-.14-.39-.19-.48-.34a1.24,1.24,0,0,0-.25-.28h-.34l-.63.1a1.08,1.08,0,0,1-.43.06,1.81,1.81,0,0,0-.51-.13c-.16,0-.56,0-.81.06s-.55,0-.76,0a1.56,1.56,0,0,1-.53-.16,2.28,2.28,0,0,1-.32-.16.59.59,0,0,1-.16-.12l0-.15a.71.71,0,0,1,.07-.15l1.37-.05a12.36,12.36,0,0,1,1.69.06,8.49,8.49,0,0,0,1.26.07c.24,0,.61,0,1.2,0s1.65.07,2.34.15a12.32,12.32,0,0,1,1.9.45,5.49,5.49,0,0,1,1.95,1,1.66,1.66,0,0,1,.54,1.22A4.38,4.38,0,0,1,56,59.86c-.17.32-.56,1-.63,1.11s-.68.69-.92,1M44.23,57.21c.12.08.24.24.21.31a1.5,1.5,0,0,1-.15.23c-.06.09,0,.13-.06.21a1.43,1.43,0,0,0,0,.24,3.45,3.45,0,0,1-.36.1.4.4,0,0,0-.13,0s.07-.22,0-.25a1,1,0,0,0-.5-.2,4.38,4.38,0,0,0-1.08.2c-.21.09-1,.3-1.3.4a2.73,2.73,0,0,1-.83.21,2.51,2.51,0,0,1-.68-.24c-.19-.09-.24-.14-.32-.18l-.22-.13a1.63,1.63,0,0,1,.24-.3,5.5,5.5,0,0,1,.7-.24c.18-.06,1-.26,1.42-.34s1.13-.22,1.47-.32a7,7,0,0,1,.78-.21.66.66,0,0,1,.37.14l.44.34m-.51-1.4a1.47,1.47,0,0,0-.18.4c-.06.12,0,.26-.1.27a2.49,2.49,0,0,1-.39.06s.05-.14,0-.21a1,1,0,0,0-.51-.12c-.2,0-1.16.09-1.47.12l-1.33.18a.91.91,0,0,1-.48-.06,4.46,4.46,0,0,1-.74-.34.93.93,0,0,0-.24-.16l-.2,0,.09-.25.11-.21H40.7c.55,0,2.17,0,2.32,0s.41.08.5.08l.16,0s.09.19,0,.23M12.23,62.89a5.58,5.58,0,0,1-1.45-.48.82.82,0,0,1-.24-.43,1.23,1.23,0,0,0-.43-.56l-.44-.25v-.29s.48,0,.73,0,1.26-.05,1.92-.08,3.28-.14,4.1-.19,4.58-.24,5.27-.3,5.61-.38,6.31-.45l5.37-.44,3.53-.32a4.09,4.09,0,0,0,1-.17c.12,0,.2-.08.33.06a5.1,5.1,0,0,0,.52.52c.16.1.63.41.64.55a1.19,1.19,0,0,1-.21.5,1.39,1.39,0,0,0-.06.42l-.48.09a1.47,1.47,0,0,0,0-.19.44.44,0,0,0-.28-.34,1.62,1.62,0,0,0-.88-.07c-.32.07-1.84.33-2.47.44s-4.19.7-5.06.83-4.32.68-5.14.78-4,.54-5.1.64-2.46.25-3.2.29a14.74,14.74,0,0,1-2,0c-.55-.07-1.75-.44-2.28-.58m5.22,4c-.6-.08-1.27-.23-1.51-.27a.59.59,0,0,1-.57-.35c-.09-.28-.07-.49-.25-.68a2,2,0,0,0-.53-.45c-.14-.05-.36,0-.39-.11a1.21,1.21,0,0,1,0-.3,1.76,1.76,0,0,0,.43,0c.22,0,.41-.12.67-.14l1.49-.06c.43,0,1.7-.14,2.15-.19s2.56-.24,3.26-.34,4.46-.62,5.09-.72,3.78-.56,4.63-.71,3.75-.67,4.48-.8,1.65-.28,2-.36.55-.21.74-.18a5.81,5.81,0,0,1,.6.31,7,7,0,0,0,.78.29c.2.07.38.18.4.25a.89.89,0,0,1-.09.5,1.59,1.59,0,0,0-.16.41c0,.17,0,.29,0,.29l-.46.17s.08-.21,0-.31-.32-.28-.45-.26a2,2,0,0,0-.54.09c-.22.08-2.95.91-3.39,1l-3.25.9c-.42.12-3,.75-3.7.9s-3.43.7-4.1.82-3.19.45-3.85.49a8,8,0,0,1-1.27,0,19.67,19.67,0,0,1-2.11-.25m9.41,3.53a18,18,0,0,1-2.37-.17c-.58-.08-2.23-.33-2.46-.38a1,1,0,0,1-.49-.33,1.5,1.5,0,0,0-.46-.39c-.23-.1-.5-.25-.68-.31s-.26-.11-.39-.16a1.37,1.37,0,0,1-.31-.11.22.22,0,0,1-.1-.14s1.85-.2,2.25-.26,3.25-.45,3.94-.59,3.6-.78,4.12-.92,3.73-1,4.37-1.12,2.78-.78,3.36-1,2.29-.69,2.48-.77a1.11,1.11,0,0,1,.58-.21,9.55,9.55,0,0,1,.94.26,3.36,3.36,0,0,1,.82.24.29.29,0,0,1,.12.3,7.81,7.81,0,0,0,0,1c0,.1.2.25.2.25l-.48.19L42,66a.79.79,0,0,0,0-.29,1.28,1.28,0,0,0-.38-.23.74.74,0,0,0-.39.07c-.22.06-.76.32-1,.44s-1.89.76-2.37.94-2.45,1-3.09,1.17-3.48,1.21-4,1.37-2.39.68-2.84.81a4.25,4.25,0,0,1-1,.2M32.24,73c-.59,0-1.76,0-2.13,0a5.1,5.1,0,0,1-1.17-.13c-.29-.13-.33-.27-.5-.46a1.59,1.59,0,0,0-.66-.45.84.84,0,0,0-.48-.05c-.05,0-.07-.23-.07-.23a3.86,3.86,0,0,0,.77-.24c.16-.06,1.13-.34,1.43-.44s1.39-.37,1.85-.52l3-1c.42-.13,3-1.08,3.45-1.28l3.72-1.49c.4-.17.81-.34.94-.42a3.26,3.26,0,0,1,.82-.38A3.47,3.47,0,0,1,44,65.7c.19,0,.33,0,.42.08a.58.58,0,0,1,.09.38,1,1,0,0,0,.21.66,2,2,0,0,0,.74.32,3,3,0,0,0,.67.12.39.39,0,0,0,.17,0s-.57.36-.72.42l-.74.37a.78.78,0,0,0-.12-.19,2.72,2.72,0,0,0-.58,0,1.93,1.93,0,0,0-.64.21c-.2.13-2.15,1.17-2.53,1.37s-3.36,1.75-3.76,1.93-2.33,1.12-2.64,1.27a2.72,2.72,0,0,1-.79.29c-.29,0-1,0-1.56,0M38.5,74.9c-.56.1-1.74.3-2,.31a.9.9,0,0,1-.76-.2c-.2-.21-.31-.53-.58-.67a1.22,1.22,0,0,0-.63-.19c-.36,0-.39-.08-.39-.08s2.33-1.17,2.66-1.31,3.82-1.92,4.26-2.18l3.53-1.91c.55-.32,1.32-.72,1.43-.81s.21-.19.36-.23a1.15,1.15,0,0,1,.26-.07L47,68a1.25,1.25,0,0,0,.7.46,2.65,2.65,0,0,0,.65,0,4.17,4.17,0,0,0,.52-.09s-.84.79-1,.91-2,1.64-2.36,2-1.72,1.37-2,1.6A16.37,16.37,0,0,1,42,74a6.32,6.32,0,0,1-1.08.4c-.33.1-1.87.43-2.43.55m8.16.68c-.1.08-.4,0-.58-.09s-.44,0-.73,0-.78.23-1.12.31a9.56,9.56,0,0,1-1.32.26.92.92,0,0,1-.58-.15,2.46,2.46,0,0,0-.57-.55.69.69,0,0,0-.42-.07c-.08.06-.41.25-.46.11l1.53-1.15,1.7-1.35c.32-.25,1.65-1.33,2-1.66s1.63-1.37,1.94-1.64l.95-.89a.76.76,0,0,0,.15.34,2.31,2.31,0,0,0,.53.39,2.4,2.4,0,0,0,.88.11l.62,0a.24.24,0,0,1,.27.23c0,.16,0,.29,0,.36a.47.47,0,0,0,0,.17l-1.86,2.06c-.36.4-1.4,1.53-1.74,1.87s-1.19,1.26-1.29,1.35M61,90.67l-.27.44L60.48,91s.17-.14.11-.27a.69.69,0,0,0-.34-.34c-.18-.11-1-.45-1.38-.63s-1.95-1-2.52-1.39-2-1.35-2.64-1.88S51.64,84.56,51.16,84a23.56,23.56,0,0,1-1.76-2.3A27.65,27.65,0,0,1,48,79.29a2.51,2.51,0,0,0-.45-.84c-.17-.17-.22-.21-.3-.21h-.24s-.06-.14-.15-.42l-.14-.42s.39.48.61.47a1.69,1.69,0,0,0,.45-.1.64.64,0,0,1,.41,0,.43.43,0,0,1,.21.36,1.79,1.79,0,0,0,.19.72c.13.28.66,1.36,1,1.85s1.18,1.75,1.55,2.2,1.62,1.81,1.94,2.1,2,1.63,2.56,2a31.13,31.13,0,0,0,2.84,1.73c.84.42,1.89.9,2.17,1s.45.12.51.2a.6.6,0,0,0,.13.17Zm.51-.92a.07.07,0,0,1-.13,0c0-.06.11-.22.11-.41a1,1,0,0,0-.23-.6,2.74,2.74,0,0,0-.62-.36c-.19-.08-1.07-.5-1.52-.73s-1.36-.75-1.94-1.14-1.37-.91-1.89-1.31-1.22-1-1.65-1.48A22.59,22.59,0,0,1,52,81.86a18.05,18.05,0,0,1-1.38-2c-.33-.59-.67-1.3-.78-1.42a1.51,1.51,0,0,0-.5-.4,2.88,2.88,0,0,0-.47-.12c-.11,0-.29,0-.3-.1a.2.2,0,0,1,0-.12,2.24,2.24,0,0,0,.61-.13c.28-.12,1-.33,1.34-.41s.65-.24.81-.27a.87.87,0,0,1,.35-.08c.09,0,.14.08.24.21a4.43,4.43,0,0,0,.35.56.86.86,0,0,0,.63.27,4,4,0,0,0,.82-.16,7.58,7.58,0,0,0,.77-.45c.09,0,.24-.15.29-.1s.11.15.2.17a.43.43,0,0,1,.2.18c0,.08.67,1,1,1.4a15.56,15.56,0,0,0,1.19,1.32c.35.32,1.34,1.19,1.73,1.47s1.56,1.06,2.07,1.33,1.15.61,1.64.82,1,.42,1.19.49a.79.79,0,0,1,.29.24c.11.07.17.17.12.28s-.57.92-.8,1.35-.66,1.11-.85,1.42-.62,1-.73,1.29-.49.79-.51.85m3,1c-.1.24-.39.94-.48,1.13l-.16.36-.37.12s.11-.16,0-.25-.25-.29-.37-.29a1,1,0,0,0-.4.06c-.15.07-.35.07-.41-.06a4.71,4.71,0,0,1-.3-.59.52.52,0,0,1,0-.42c.09-.19.75-1.41.89-1.64s.91-1.51,1.09-1.82.59-1,.67-1.2.14-.28.08-.42-.07-.18-.13-.22l-.2,0,.39-.65a1.87,1.87,0,0,0,.42.06A2.7,2.7,0,0,1,66,85c.24.08.57.26.61.39s-.07.39-.21.72-.79,2-1,2.42-.81,2.07-.9,2.29m3.13.18c0,.27-.25,1.18-.32,1.38a4.77,4.77,0,0,1-.2.61,1.45,1.45,0,0,1-.38.24l-.17.07s.11-.15.07-.26a.35.35,0,0,0-.31-.21c-.15,0-.33.11-.45.07s-.3-.11-.45-.44a.84.84,0,0,1-.1-.65c.05-.26.67-1.74.81-2.1s.71-1.82.84-2.17a3.79,3.79,0,0,0,.32-1,1,1,0,0,0-.18-.44C67.06,86,67,86,66.92,86a.11.11,0,0,1-.09,0l.2-.55s.31,0,.45,0a1.92,1.92,0,0,1,.65,0c.29,0,.61.1.64.21a.92.92,0,0,1,0,.52c-.07.26-.56,2.23-.63,2.59s-.46,1.89-.52,2.15m3.27-3.17c0,.3-.21,2.35-.21,2.54s-.06,1.08-.08,1.38-.1.78-.12,1-.13.56-.13.61a.29.29,0,0,1,0,.1,5.56,5.56,0,0,1-.5.38c-.14,0-.14-.08-.22-.16a2.85,2.85,0,0,0-.39-.19,1.83,1.83,0,0,1-.61-.57.84.84,0,0,1-.1-.73c.09-.34.37-1.49.46-1.91s.37-1.57.45-2A9.29,9.29,0,0,0,69.72,87a.72.72,0,0,0-.2-.53.67.67,0,0,0-.22-.16l-.16-.07.09-.43s.3,0,.44,0a3.63,3.63,0,0,1,.51,0,1.7,1.7,0,0,1,.58.06.36.36,0,0,1,.29.44c0,.27-.1,1.27-.12,1.54M53.69,71.58c0-7.39,8-13.9,18.55-13.9S90.8,64.19,90.8,71.58s-8,13.91-18.56,13.91S53.69,79,53.69,71.58m9.43-17.71a1.81,1.81,0,0,0-.64-.34,3,3,0,0,1-.38,0,1.4,1.4,0,0,1-.24-.17l.7-.27c.21-.09,1.16-.42,1.81-.6s1.31-.35,2.11-.51,2-.34,3-.44a26.38,26.38,0,0,1,2.92-.16c.72,0,2.41.1,3.11.18s2,.23,2.82.42,2.29.55,2.95.77,1.45.48,1.53.56a.7.7,0,0,0,.29.22,2.44,2.44,0,0,1,.25.14,5.21,5.21,0,0,0-.55.73c-.65,1.11.12,2.51,1.14,3.28,1.35,1,3.79,2.5,4.21,4.76a9,9,0,0,1,.07,1.48l-.32-.35c-.11-.13-.16-.68-.29-1a6.51,6.51,0,0,0-.89-1.24,10.13,10.13,0,0,0-1.88-1.52,17.2,17.2,0,0,0-3.13-1.62,21.64,21.64,0,0,0-3.21-1,27.92,27.92,0,0,0-4.91-.65,32,32,0,0,0-4.59.22,22.18,22.18,0,0,0-4,.92,13.47,13.47,0,0,0-2.2.85,18.37,18.37,0,0,0-1.92,1c-.4.26-1,.7-1.41.93s-.46.45-.7.39a.6.6,0,0,1-.41-.39s.28-.32.56-.6.91-.82,1.32-1.16,1.19-1,1.32-1.13S62,57,62,57s.12.24.32.16a1.46,1.46,0,0,0,.72-.59,2.64,2.64,0,0,0,.44-1.6c-.07-.6-.15-1-.31-1.12m43.26,2.83a.82.82,0,0,0-.5-.37,7.83,7.83,0,0,0-1.52-.15c-.33,0-1.15,0-1.53,0a2.51,2.51,0,0,1-.91-.16l-.18-.06a.19.19,0,0,0-.21,0,1.83,1.83,0,0,1-.07-.26.56.56,0,0,1,0-.1,3.42,3.42,0,0,0,.7,0c.29,0,1.12-.17,1.65-.24s1.55-.26,1.88-.34a2.49,2.49,0,0,1,.9-.06.41.41,0,0,1,.25.34,3.56,3.56,0,0,0,.18.58c0,.13.14.33.12.4a1.85,1.85,0,0,1-.31.38c-.14.12-.42.4-.42.4a.61.61,0,0,0-.05-.37m-4.82.2c.24,0,1.32.17,1.75.24s1.56.23,1.89.27.82,0,1,.05.23.32.25.48a1.52,1.52,0,0,1,0,.5,1.29,1.29,0,0,1-.34.35,3.25,3.25,0,0,1-.41.26c-.09.06,0-.22-.07-.32a.89.89,0,0,0-.48-.18c-.25-.06-.66-.16-.89-.2s-1.19-.25-1.56-.31a5.87,5.87,0,0,1-1-.22c-.25-.13-.42-.34-.56-.38a1.32,1.32,0,0,0-.32-.1v-.19s.23-.23.3-.23a3.8,3.8,0,0,1,.48,0M104.73,61a2,2,0,0,0-.75-.37c-.27-.07-1-.31-1.45-.43s-1.1-.36-1.33-.42a3.25,3.25,0,0,1-.67-.24c-.16-.11-.33-.29-.41-.32a.73.73,0,0,0-.25-.07s0-.48,0-.51.27.05.36,0a3,3,0,0,1,.58.05c.23.06,1.51.39,2,.48s1.17.28,1.61.35.71.08.79.24a1.38,1.38,0,0,1,.08.64,2.84,2.84,0,0,1,0,.59c0,.05-.23.14-.39.2l-.21.09a.35.35,0,0,0,0-.31M104,63.18a.52.52,0,0,1-.32.1,1.75,1.75,0,0,0-.28,0s.16-.16,0-.29a1.28,1.28,0,0,0-.52-.34c-.31-.11-.84-.32-1.08-.42s-1.23-.55-1.52-.64-.86-.32-1.06-.43a1.41,1.41,0,0,1-.35-.24c0-.09-.25-.12-.25-.12s0-.16.07-.34,0-.28,0-.29.17.05.3,0a.53.53,0,0,1,.34,0c.11.06.55.2.78.29l1.77.64c.37.14,1.06.41,1.38.5a3.34,3.34,0,0,1,.62.24.56.56,0,0,1,.19.46c0,.21,0,.24-.06.36a1.34,1.34,0,0,0-.1.17c0,.08.08.19,0,.24m-1.68,1.64c-.06.06-.23.06-.35.11a1,1,0,0,1-.22,0,.17.17,0,0,0,.07-.18.4.4,0,0,0-.32-.31c-.22-.06-.47-.06-.66-.12a2.36,2.36,0,0,1-.65-.29c-.3-.16-.89-.53-1.22-.69l-1.08-.6a2.56,2.56,0,0,0-.38-.22.6.6,0,0,0-.29,0,.9.9,0,0,1-.29,0s.28,0,.33-.13a2.24,2.24,0,0,0,.06-.52c0-.12,0-.18.06-.19s.19.07.32.08a1.08,1.08,0,0,1,.5.11c.22.11,1.13.6,1.6.81s1.43.69,1.73.8.77.28.85.44a.36.36,0,0,1,0,.4c-.07.12-.13.2-.1.27s.1.21,0,.26m-3.06,1.27a3.74,3.74,0,0,0-.62-.17,4.31,4.31,0,0,1-.77-.47c-.21-.17-.75-.58-1-.74a7.39,7.39,0,0,0-.8-.57,2.57,2.57,0,0,0-.72-.15c-.18,0-.42,0-.45,0s-.1.2-.19.15a1,1,0,0,0-.21-.15c-.11-.06-.12-.09-.12-.09v-.19a1,1,0,0,1,.31-.05,1.4,1.4,0,0,0,.53,0,1.24,1.24,0,0,0,.32-.14l.33-.19c.13-.07.1-.19.17-.2a1.34,1.34,0,0,1,.4,0c.08.05.59.46.89.64l1.58,1a10.44,10.44,0,0,1,1,.65c.17.16.28.23.28.37s-.13.25-.19.36a2.23,2.23,0,0,0-.09.32,1,1,0,0,0-.07.17l-.43.08a.23.23,0,0,0,.09-.21c0-.11-.09-.22-.27-.33m-2.07,1.59a4.15,4.15,0,0,0-.51-.28,9.21,9.21,0,0,1-.8-.6c-.25-.19-1-.85-1.09-1a5.8,5.8,0,0,0-.76-.6,3.15,3.15,0,0,0-.61-.13L93.08,65s-.08.15-.12.15-.08,0-.08,0,0,0-.06-.07a1.12,1.12,0,0,1-.14-.15.65.65,0,0,0,0-.18c0-.09,0-.23.09-.22a2.14,2.14,0,0,0,.46.14c.18,0,.2,0,.2,0a.46.46,0,0,1,.3-.2l.35,0a.69.69,0,0,1,.4.07,10,10,0,0,1,1.07.78c.24.18,1.18.93,1.44,1.14l.65.49c.08.07.34.33.29.44a3.28,3.28,0,0,0-.24.37c0,.12,0,.29,0,.36s-.17.1-.23.09l-.28,0a.44.44,0,0,0,.14-.17c0-.07,0-.15-.14-.25m-2.26,1.14-.5-.28a2.32,2.32,0,0,1-.55-.44c-.15-.18-.5-.64-.67-.84s-.59-.72-.76-.9a1.52,1.52,0,0,0-.64-.41l-.36-.06c-.06,0-.15.15-.13.2s-.1,0-.19-.18-.36-.54-.36-.54a2.51,2.51,0,0,0,.59.14,2.54,2.54,0,0,0,.44,0,.88.88,0,0,1,.33-.23.73.73,0,0,1,.62.12c.21.16,1.23,1.19,1.38,1.32s.8.78,1,1a3.74,3.74,0,0,1,.6.64c.05.15.08.25,0,.33a.87.87,0,0,0-.15.21c0,.08,0,.29-.1.34a.28.28,0,0,1-.26.13,1.72,1.72,0,0,1-.29,0s.16-.07.16-.17a.33.33,0,0,0-.19-.31M101.23,56a.45.45,0,0,0-.06.27v.09l-.14.1c-.06.05-.41.23-.41.23a.55.55,0,0,0-.05-.19.6.6,0,0,0-.39-.27,7.16,7.16,0,0,0-.89-.08l-1-.05c-.21,0-.32,0-.41,0a.44.44,0,0,0-.26.06c-.09.07-.11.14-.17.14H97.3s-.11,0,0,.17a1.19,1.19,0,0,0,.72.25c.26,0,.62.1.88.15s.62.11.85.17a3.9,3.9,0,0,0,.54.06c.08,0,.21.08.21.16s0,.16-.06.24a.49.49,0,0,0,0,.24.14.14,0,0,1-.07.17c-.06,0-.31.12-.38.16a.4.4,0,0,1-.17,0s0-.16,0-.19a.56.56,0,0,0-.31-.2c-.19-.06-.71-.2-.94-.24l-.94-.22c-.26,0-.45-.14-.53-.06s-.1.13-.16.13-.11,0-.16,0-.13.13-.08.18a1,1,0,0,0,.41.23c.18.08.79.23,1,.32s.73.26,1,.32.5.12.54.26a.31.31,0,0,1,0,.35c-.1.08-.11.19-.14.22l-.06.19a1.85,1.85,0,0,1-.27.17l-.22.1a.28.28,0,0,0,0-.28c-.08-.18-.27-.26-.55-.4s-.78-.31-1-.39l-1-.4a1.24,1.24,0,0,0-.46-.08c-.15,0-.21.13-.18.19s.15.1.15.19,0,.15,0,.18,0,0,0,0a4,4,0,0,0,.58.34c.24.12.82.41,1,.5s.63.3.73.38.35.22.3.33a3,3,0,0,0-.09.35c0,.06,0,.11-.09.15l-.48.15a.58.58,0,0,0,0-.15.65.65,0,0,0-.3-.27c-.19-.1-.9-.53-1.1-.63a8.14,8.14,0,0,1-.74-.42,3.43,3.43,0,0,0-.45-.35c-.09,0-.26-.14-.38,0s-.15.29-.1.35a2.69,2.69,0,0,0,.21.2s-.12.09-.1.14a3.64,3.64,0,0,0,.58.45c.24.19.88.61,1,.72s.51.34.62.43.14.19.06.29a.34.34,0,0,0-.11.19s0,.1,0,.16a.33.33,0,0,1,0,.11.34.34,0,0,1-.18.07l-.33,0a.32.32,0,0,1,0-.16c0-.1-.08-.16-.22-.27s-.64-.49-.89-.67a9.55,9.55,0,0,1-.83-.61c-.11-.1-.31-.4-.43-.5s-.26-.18-.39-.14-.28.15-.29.28,0,.22,0,.27.18.12.18.17-.12.07-.09.14a5.43,5.43,0,0,0,.64.54c.2.18.85.68,1,.82a1.87,1.87,0,0,1,.51.57.62.62,0,0,1,0,.43c0,.07-.18.09-.32.11a2.31,2.31,0,0,1-.31.06s.06-.15,0-.22-.3-.24-.51-.42l-1.09-.91a2.06,2.06,0,0,1-.56-.62c-.09-.16-.23-.41-.43-.41a.62.62,0,0,0-.53.2c-.12.16-.12.34,0,.41s.26.17.2.2l-.18.11a4,4,0,0,1,.44.33c.28.23.76.63.94.8l.63.59a.61.61,0,0,1,.17.37,1.08,1.08,0,0,1-.08.38c0,.08,0,.11-.09.17a1,1,0,0,1-.36.05.33.33,0,0,1-.13,0s.16-.11.15-.18a1.83,1.83,0,0,0-.36-.4c-.13-.12-.83-.71-1.07-.94a3.57,3.57,0,0,1-.71-.81,2.92,2.92,0,0,0-.21-.69c-.13-.19-.43-.41-.55-.61a11.31,11.31,0,0,1-.77-1.26,3.7,3.7,0,0,1-.47-1.09,3.15,3.15,0,0,0-.08-.68c-.05-.11-.2-.29-.26-.29l-.31,0a2,2,0,0,1,.57-.54,7.17,7.17,0,0,1,1.33-.62,21.18,21.18,0,0,1,2.31-.47c.61-.05,2.25-.05,2.78-.07l1.89,0c.36,0,.84,0,1.2,0l1.28,0a4.7,4.7,0,0,1,.78,0c.13,0,.35.06.37.15a.33.33,0,0,1,0,.29M91,63.06c.16.12.44.31.53.36a3.15,3.15,0,0,1,.53.51c.1.11.33.32.3.45a1.37,1.37,0,0,1-.18.56c-.09.1-.21.21-.31.21h-.29s.23-.07.23-.18,0-.16-.21-.33a3.29,3.29,0,0,1-.4-.46,5.45,5.45,0,0,1-.3-.47l-.12,0-.13,0-.08-.6a4.3,4.3,0,0,0-.16-.5l-.1-.34s.55.63.69.75m-.48,3,0-.16.35.45c.08.09.35.32.44.45s.57.72.76,1,.73,1,.85,1.13a2.51,2.51,0,0,1,.38.69,2.6,2.6,0,0,1-.1.4c-.07.12-.13.26-.19.27h-.35a.51.51,0,0,0,.08-.18.62.62,0,0,0-.31-.39,4,4,0,0,1-.62-.38c-.08-.1-.34-.75-.45-1a7.31,7.31,0,0,0-.55-1c-.14-.22-.23-.44-.3-.47s0,0-.12,0a.2.2,0,0,1-.16,0,2.59,2.59,0,0,0,.16-.45,3.26,3.26,0,0,1,.11-.43M96.27,77.2a4.4,4.4,0,0,0-.75-.38c-.23-.08-.72-.24-1-.37a1.57,1.57,0,0,1-.61-.36A10.29,10.29,0,0,1,93.17,75l-.89-1.7a1.65,1.65,0,0,1-.23-.62c0-.18,0-.8-.1-1a1.64,1.64,0,0,0-.35-.52.6.6,0,0,0-.21-.14,1,1,0,0,0-.22-.09s0-.22,0-.26a1.09,1.09,0,0,0,0-.13s.43,0,.68,0a4,4,0,0,1,.61,0c.1,0,.25,0,.36.14a2,2,0,0,1,.23.5,17,17,0,0,0,1,1.46c.13.16.72,1,1,1.28s1,1.22,1.15,1.49.61.67.71.82.36.52.4.61-.06.19-.12.28-.18.22-.31.34a1.31,1.31,0,0,1-.35.27s0-.15,0-.23,0-.2-.2-.33m-4.4.3a1.25,1.25,0,0,0-.42-.34c-.19-.1-.55-.29-.59-.4a.57.57,0,0,1,0-.45,1.35,1.35,0,0,0,.06-.83,1.26,1.26,0,0,0-.14-.37.41.41,0,0,0-.13-.15s.15-.51.17-.64l.11-.46s.28.46.39.62a7.93,7.93,0,0,1,.5.79c.12.25.54.92.64,1.14a1.29,1.29,0,0,1,.23.67,1.51,1.51,0,0,1-.27.61c-.06.11-.06.23-.21.34a.76.76,0,0,1-.37.14.77.77,0,0,0,.17-.25.84.84,0,0,0-.18-.42m-.51.91a2.77,2.77,0,0,0,.71,0,.56.56,0,0,0,.5-.22,3,3,0,0,0,.36-.61c.07-.14.15-.34.15-.34l.53.22,1,.34a3.54,3.54,0,0,1,.8.27c.15.12.19.19.18.31a3.07,3.07,0,0,1-.22.6c-.1.19-.49,1-.63,1.28s-.78,1.25-1.09,1.7a20.23,20.23,0,0,1-1.7,2.06,6.73,6.73,0,0,1-1.09,1c-.28.14-.71.22-1,.4l-1.54,1c-.4.25-1,.59-1.39.81s-1.45.73-1.77.88-.74.33-.93.44a1.17,1.17,0,0,1-.54.14.38.38,0,0,1-.33-.25c-.08-.12-.57-1-.76-1.3s-.87-1.53-1-1.74a.87.87,0,0,0-.52-.45,1,1,0,0,0-.36-.11.75.75,0,0,1-.32,0,.28.28,0,0,1-.16-.15s.69-.25,1-.42.91-.38,1.31-.57,1.49-.79,2-1.08A16,16,0,0,0,86,81.45c.49-.41,1.27-1.13,1.59-1.43a14.73,14.73,0,0,0,1.27-1.51c.23-.32.61-.92.61-.92l.84.43a5.07,5.07,0,0,0,1,.39M73.72,93c0,.17,0,.37,0,.37l-.62.61-.7.6a2,2,0,0,1,.17-.34.36.36,0,0,0,.08-.36,4.36,4.36,0,0,0-.6-.64.83.83,0,0,1-.32-.54c0-.2.08-1.6.15-2.2s.13-1.91.17-2.37a3.41,3.41,0,0,0,0-1.19,1.21,1.21,0,0,0-.35-.49l-.3-.1v-.4h.49a2.8,2.8,0,0,1,.78-.09c.28,0,.58.09.61.25s0,.64,0,.93.13,1.88.14,2.14.16,2,.18,2.41.09,1.25.09,1.42m3.19.11a5.1,5.1,0,0,1-.48.61c-.16.15-.7.82-.7.82a.43.43,0,0,1,0-.29c.07-.08.23-.22.21-.37a1.2,1.2,0,0,0-.3-.55c-.12-.13-.42-.28-.56-.43a.87.87,0,0,1-.24-.57c0-.35-.15-2.11-.2-2.68s-.16-2.19-.2-2.43a.89.89,0,0,0-.66-.9.81.81,0,0,0-.19,0l0-.33s.4-.05.55-.09a3.43,3.43,0,0,1,.82-.13c.23,0,.46.06.51.22s.1.57.13.77.47,2.06.52,2.32.54,2.29.6,2.56.22,1,.21,1.17a2.5,2.5,0,0,1,0,.35m2.87,0c-.14.22-.63.88-.63.88a.84.84,0,0,1,0-.34.53.53,0,0,0,.07-.35,1.3,1.3,0,0,0-.3-.5c-.14-.13-.44-.21-.59-.35a1,1,0,0,1-.33-.64c-.12-.43-.4-1.63-.47-2s-.47-2-.56-2.37a3.49,3.49,0,0,0-.31-1,1.6,1.6,0,0,0-.51-.43,1.51,1.51,0,0,0-.29,0h-.11l-.08-.34a2.07,2.07,0,0,0,.46-.06,5.78,5.78,0,0,1,.89-.29c.2,0,.51,0,.55.06a3.55,3.55,0,0,1,.22.53c.09.26.69,1.77.82,2.18s.81,2,.94,2.35.44,1.07.48,1.23a3,3,0,0,1,.15.68,5.1,5.1,0,0,1-.42.7m3.67-1.62c-.06.15-.39.73-.44.89l-.4.71a4.14,4.14,0,0,0-.11-.67.8.8,0,0,0-.34-.48,6,6,0,0,0-.6-.27,1.2,1.2,0,0,1-.38-.48c-.16-.3-.56-1.41-.69-1.75s-.67-1.67-.85-2.08A9,9,0,0,0,79.06,86a1.38,1.38,0,0,0-.57-.43,1.14,1.14,0,0,0-.31,0H78l-.12-.26s.56-.13.84-.21a5.51,5.51,0,0,1,.76-.25c.2,0,.29,0,.38.06a1.13,1.13,0,0,1,.25.41c0,.15.62,1.13.8,1.45s.74,1.28.9,1.57.73,1.22.84,1.44.27.46.39.63.25.53.33.69.13.28.08.39m14-13.33c-.06.17-.27.74-.4,1s-.6,1.19-.78,1.5-.89,1.44-1.2,1.86-1.21,1.54-1.51,1.86-1.4,1.4-1.67,1.68-2.26,1.55-2.63,1.8-1.66,1-2,1.12-1.19.59-1.48.74a10.1,10.1,0,0,1-1.29.57,2,2,0,0,1-.6,0,2.09,2.09,0,0,0-.31,0l-.28,0-.08-.14s.73-.3,1.11-.49,2-.91,2.44-1.18,1.4-.8,1.89-1.12,1.65-1.18,2.07-1.56S92.39,84.23,92.6,84s1.18-1.18,1.4-1.4a8.67,8.67,0,0,0,.9-1A20,20,0,0,0,96,79.8c.13-.32.28-.56.25-.69s0-.26-.08-.26a1.63,1.63,0,0,0-.26-.09l.09-.28a1,1,0,0,0,.06-.15,1,1,0,0,0,.36,0,2.46,2.46,0,0,0,.62-.47,2.69,2.69,0,0,0,.48-.54,1.19,1.19,0,0,1,.11-.15s.1,0,.1.08a8.7,8.7,0,0,1-.27.92m4.35-1.64a4.12,4.12,0,0,1-.42.6c-.14.12-.45.33-.45.33a.72.72,0,0,0,.09-.32.77.77,0,0,0-.42-.36c-.16-.07-.86-.23-1.17-.34a4.61,4.61,0,0,1-1.14-.5c-.19-.14-1-1.09-1.18-1.32L96,73.12c-.24-.3-.78-1.07-1.06-1.44s-.76-1-.87-1.09-.15-.18-.26-.25a1,1,0,0,1-.16-.14l.08-.3a.76.76,0,0,0,0-.18,6.1,6.1,0,0,0,.64,0,2.13,2.13,0,0,1,.68-.09.46.46,0,0,1,.48.3,4.17,4.17,0,0,0,.74.88c.25.25,1.47,1.38,1.85,1.74s1.56,1.49,2,1.85,1,.87,1.15,1,.5.51.57.61a.43.43,0,0,1,0,.46m5.94-1.13a7.17,7.17,0,0,1-.53.9,2.33,2.33,0,0,1-.41.42.28.28,0,0,1-.16.09s.17-.19.13-.31a.67.67,0,0,0-.3-.43,7.06,7.06,0,0,0-.91-.23c-.3-.06-1.42-.34-1.87-.47a3.34,3.34,0,0,1-1.08-.41c-.26-.21-1-.87-1.32-1.2s-1.07-1-1.49-1.36-1.27-1.18-1.57-1.47-1.13-1-1.27-1.18a6.53,6.53,0,0,0-.59-.59c-.11-.09-.19-.09-.25-.2a.34.34,0,0,1,0-.28l.06-.13a2.19,2.19,0,0,0,.57,0,3.74,3.74,0,0,1,.64-.14,1.2,1.2,0,0,1,.54.05,7,7,0,0,1,1,.59c.27.21,1.36,1.07,1.71,1.32L102.93,72c.32.23,1.83,1.23,2.23,1.48l1.52.9a6.81,6.81,0,0,1,.89.55c.11.1.25.21.14.45m6.36-1.65c-.1.18-.28.71-.37.88a4.18,4.18,0,0,1-.37.63,1.42,1.42,0,0,1-.27.2c-.09,0-.1,0-.1,0s.15-.17.15-.24a.71.71,0,0,0-.22-.39.62.62,0,0,0-.41-.16,7.69,7.69,0,0,1-.93-.05,13.56,13.56,0,0,1-1.53-.23,6.46,6.46,0,0,1-1.19-.3c-.4-.18-1.26-.65-1.72-.91s-1.89-1.15-2.36-1.46-2.51-1.76-2.82-2-1.07-.77-1.37-1a7.79,7.79,0,0,0-.91-.66c-.17-.07-.69-.25-.86-.34s-.36-.12-.42-.24a.65.65,0,0,1,0-.26s.72-.17.9-.25a2.23,2.23,0,0,1,.73-.12,6.79,6.79,0,0,1,1,.45c.3.18,1.69.9,2.14,1.15s2.28,1.17,2.69,1.36,1.76.88,2.24,1.08,2.18,1,2.66,1.16,1.14.44,1.54.59l1.17.35c.23.08.66.19.69.29a.75.75,0,0,1,0,.46M120.74,71c0,.14-.17.54-.24.77a3,3,0,0,1-.35.7,1.12,1.12,0,0,1-.44.21.33.33,0,0,0,.15-.27.37.37,0,0,0-.2-.29.49.49,0,0,0-.37-.16c-.17,0-.61,0-1,0s-1.54,0-2,0-.93,0-1.28,0a7.87,7.87,0,0,1-1.29-.27c-.55-.15-1.87-.62-2.47-.87s-2.33-1-2.81-1.21l-2.78-1.37c-.57-.3-1.38-.69-1.83-.93s-1.41-.77-1.65-.9a4.81,4.81,0,0,0-.75-.26,4.1,4.1,0,0,1-.61-.19,1.49,1.49,0,0,0-.31-.12l0-.29a7.74,7.74,0,0,0,1-.28,2.82,2.82,0,0,1,1-.24,8.53,8.53,0,0,1,1.43.41c.39.15,1.79.65,2.16.81s3.6,1.22,4.13,1.37,3.29,1,3.89,1.16,3.28.85,3.91,1,1.68.3,2,.38.63.12.66.28a1,1,0,0,1-.05.51M127,68.54a4,4,0,0,1-.52.9,2.37,2.37,0,0,1-.5.53.79.79,0,0,1-.19.12s.13-.18.1-.3a.55.55,0,0,0-.4-.31,7.29,7.29,0,0,0-1,0,21,21,0,0,1-2.56-.2c-1-.16-2.57-.39-3.61-.64s-2.52-.61-3.58-.9-2.82-.82-3.92-1.18l-3.14-1.06c-.62-.23-2.44-.87-2.71-1a2.09,2.09,0,0,0-.69-.17c-.21,0-.49,0-.7,0a3.37,3.37,0,0,1-.61-.15c-.12,0-.22,0-.27-.15a.17.17,0,0,1,0-.17,4.64,4.64,0,0,0,.54-.06l.8-.2c.19-.06.26-.1.28-.19s0-.38,0-.5a2.15,2.15,0,0,1,.09-.23,5.08,5.08,0,0,0,.58.11,6.85,6.85,0,0,1,1,.18c.25.06,3,.75,3.46.89l4.13,1c.55.09,3.14.67,3.72.78s4.41.84,5.06,1,2.82.44,3.33.49,1.27.13,1.43.17.29.11.24.28a3.91,3.91,0,0,1-.37,1m5.24-3.28A2.68,2.68,0,0,1,132,66a1,1,0,0,1-.3.38l-.21.09s.11-.22,0-.34a.74.74,0,0,0-.42-.34,6.87,6.87,0,0,0-1,.13c-.35,0-1,.11-1.38.15s-.94.07-1.21.06-.76-.06-1.19-.12l-2.61-.38c-.55-.08-2.42-.42-3.2-.54s-3.55-.7-4.08-.84-2.59-.56-3.1-.68l-3.28-.77c-.52-.13-2-.48-2.34-.56l-1.4-.34a1.65,1.65,0,0,0-.62,0,5.81,5.81,0,0,0-.68.19.54.54,0,0,1-.32,0,.53.53,0,0,1-.3-.14,4.48,4.48,0,0,0,.61-.22c.21-.09.54-.18.65-.36s.13-.2.12-.33a1,1,0,0,0,0-.2s.66,0,.92.06,1.53.21,1.93.27,2.33.34,2.86.42l4.78.66c.71.08,3.77.48,4.33.55s4,.43,4.55.48l3.13.28c.67.06,2.09.14,2.72.15a8.32,8.32,0,0,1,1.22,0c.16,0,.28.17.25.28s-.17,1.09-.22,1.28m4.2-3.74a2.56,2.56,0,0,1-.47.92,2.4,2.4,0,0,1-.37.24s.09-.2,0-.3a.66.66,0,0,0-.44-.27c-.15,0-1,.24-1.49.28a13,13,0,0,1-1.74.13c-.56,0-1.83-.06-2.5-.11s-2.4-.18-3.28-.28l-4.39-.48-4.16-.52c-.78-.1-3.36-.44-4-.55l-3-.41c-.52-.09-2.1-.32-2.56-.39s-.74-.12-.94-.12h-.61l-.35,0-.28,0-.18,0s.47-.29.67-.45.43-.31.48-.46a.73.73,0,0,0,0-.22l1.75.07,2.32.16,3.72.26,5,.34c.69,0,3.52.21,4.22.25l4.28.22,4.48.14c.53,0,2.25,0,2.56,0l.88,0c.19,0,.42,0,.44.23a7.84,7.84,0,0,1-.11,1.39m3.44-3.69c0,.16.08.37,0,.42a1.82,1.82,0,0,1-.48.25.48.48,0,0,1-.16,0,.23.23,0,0,0,0-.22.72.72,0,0,0-.38-.27,1.33,1.33,0,0,0-.6.12,13.52,13.52,0,0,1-1.46.42,6.32,6.32,0,0,1-1.37.18c-.75,0-2.45,0-3.19,0s-2.88-.09-3.91-.14L124,58.38c-.89,0-3.59-.2-4.24-.24s-3.81-.23-4.49-.26-4-.27-4.49-.32-1.69-.13-2-.15a7.33,7.33,0,0,1-1-.12c-.18,0-.18-.12-.33-.15l-.34,0,.49-.55a2.21,2.21,0,0,1,.28-.3,1.88,1.88,0,0,0,.5,0c.22-.08,1.58,0,1.95-.08h3.43l4.7,0c.59,0,3.16,0,3.82,0s3.83,0,4.59,0,4.71,0,5.38-.06,3.71-.07,4.26-.09,1.66,0,2,0a5.05,5.05,0,0,1,.79,0c.13,0,.15.15.2.23s.21.7.31,1a3.68,3.68,0,0,1,.17.81M88,52.18c.63-.11,2.41-.43,3.14-.48s2-.11,2.59-.11,1.93.06,2.88.15,2.34.3,3.24.35,2.4.09,3.09.08,1.88-.08,2.55-.09,3.1-.1,3.91-.16,3-.17,3.83-.19,3.33-.1,4-.1,3.83.14,4.62.18l3.45.18,2.34.13c.6,0,2.37,0,2.76,0l2.47,0,3.43-.26c.7-.07,2.54-.25,3.14-.29a11.2,11.2,0,0,1,1.42-.09,1.37,1.37,0,0,1,.63.31c.08.11.42.47.68.75a4.56,4.56,0,0,1,.54.66c0,.1.22.33.17.41s-.06.25-.14.3l-.51.23a.35.35,0,0,0-.17-.26.82.82,0,0,0-.56-.09l-1.11.47a5.77,5.77,0,0,1-1.17.44c-.28,0-1.3.08-2,.09s-2.7,0-3.57,0-3.82.05-4.44.06l-4.17,0c-.87,0-3.28,0-4,0s-4.24.06-5,0-2.91,0-3.49,0-1.35,0-2.11.09-1.8.17-2.1.18a2.89,2.89,0,0,1-.85-.07.94.94,0,0,0-.24-.08l-.34-.06-.07-.13s.33-.06.61-.13.5-.18,1-.28,1.7-.33,2.3-.42,3.36-.59,4.16-.7,2.83-.33,3.56-.38,2.76-.22,3.48-.24,2.32-.12,2.73-.11,1.8,0,2.34.06.85.05.85.05l.1-.37-1.06-.06c-.5,0-1.74-.06-2.17-.06s-2,0-2.55,0-1.38-.07-2-.08c-.83,0-2.65,0-3.4,0s-2.86.27-3.53.36-3,.4-4,.61-2.7.51-3.47.65-1.75.34-2.63.43-2.66.13-3.3.11-2.57-.06-3.54,0-2.58,0-3.52.14a11.68,11.68,0,0,0-2.21.46,4.69,4.69,0,0,0-1.31.57,1,1,0,0,0-.49.61.81.81,0,0,0,0,.16l.26.07-.4.31a1.34,1.34,0,0,0-.34.66c0,.23-.13.81-.14,1.06a1,1,0,0,0,0,.54c.08.2.47.89.62,1.18s.56.94.67,1.12.32.47.47.72a3.83,3.83,0,0,1,.45.95,5.24,5.24,0,0,1,0,.72V65a.79.79,0,0,1-.06.42.54.54,0,0,0-.18.27,3.49,3.49,0,0,1-.11.5c0,.13-.13.41-.13.41a3.4,3.4,0,0,1-.16-.37,3.88,3.88,0,0,0,0-.69,25.78,25.78,0,0,1-.75-2.84,4.91,4.91,0,0,0-.91-2.1c-.36-.52-.58-1-1-1.73A8.56,8.56,0,0,0,84.93,57,2.94,2.94,0,0,1,83.65,55c0-.32-.17-.8-.55-.59a1.62,1.62,0,0,1,.41-.49,6.64,6.64,0,0,1,1.68-1c.67-.24,2.19-.65,2.81-.8m-26.66-.27c.37-.14,2.22-.78,2.8-.93s2.33-.56,3.31-.72a32.22,32.22,0,0,1,4.85-.38c1.64,0,3.13.14,3.92.22s2.38.39,3,.54,1.73.43,2.35.64,1.54.53,1.9.69a4.3,4.3,0,0,1,.67.28.6.6,0,0,0,.26.24l.48.19a1.06,1.06,0,0,1-.26.16l-.49.2a2.43,2.43,0,0,0-.3.16s0-.22-.08-.28a6.34,6.34,0,0,0-1-.5c-.46-.16-1.14-.41-1.82-.6s-1.85-.54-2.66-.68-1.65-.3-2.44-.37-2.57-.23-3.49-.22-2.71.11-3.59.22a31,31,0,0,0-3.2.56c-.84.21-2,.49-2.42.63a7.41,7.41,0,0,1-1.17.38c-.16,0-.52,0-.65,0a1.57,1.57,0,0,0-.32,0c-.06,0-.25.12-.33.09l-.25-.14s.58-.2.94-.37m-58,.18c.22-.24.5-.6.62-.63a3.15,3.15,0,0,1,.9,0l2.53.22c.36,0,2,.08,2.37.09s2.44,0,3.1.06,2.77.07,3.4,0,2.37-.19,2.91-.22,2.22-.15,3-.17,2.41,0,2.93,0,2.56-.05,3.27-.05,2.71.09,3.38.09l4.34.22c.76,0,4.52.17,5.36.18s2.07.06,2.71,0,3.83-.18,4.78-.21,3.49-.06,4.51,0,3.48.26,4.3.36,1.65.3,1.9.32a1.38,1.38,0,0,1,.73.16,3.08,3.08,0,0,0,.51.54c.25.14.6.22.72.37s.14.5.21.65a2.75,2.75,0,0,1,.4.92,2.2,2.2,0,0,1-.2,1.2,7,7,0,0,1-.9,1.14c-.38.38-1,.79-1.45,1.23a11.58,11.58,0,0,0-1.77,1.68,3.5,3.5,0,0,0-.8,1.6c-.09.6,0,1-.07,1a1.2,1.2,0,0,1-.26.5c-.14.16-.77.86-1,1.17s-.6.83-.68,1a1.9,1.9,0,0,0-.17.3l-.15-.26a4.51,4.51,0,0,0,.35-.45,5.67,5.67,0,0,0,.11-1.29c.17-1.88,2.5-4,2.18-5.88-.28-1.5-2.14-2.78-4-3.06-1.06-.18-4.61-.44-5.37-.46-.95,0-3.51-.08-4.31-.09s-2.92,0-3.54,0a17.52,17.52,0,0,1-2.41-.19,19.88,19.88,0,0,1-2.73-.7c-1-.3-1.81-.54-2.6-.71a20.68,20.68,0,0,0-2.47-.4c-.7-.06-2-.16-3.08-.19s-3.54,0-4.35,0-3.31.09-4,.09-1.36,0-1.7,0-.22.17-.36.2-.91,0-1.36,0a7.23,7.23,0,0,1-.9-.05h-.39a.18.18,0,0,0,.13.2,5.6,5.6,0,0,0,.65.09l1.54.08c.36,0,1,0,1.39.05s1.1,0,1.57.06h3c.68,0,2,0,2.6,0s2.16.07,3.34.21a28.21,28.21,0,0,1,3.35.56c1.13.28,2.49.7,3.15.91s1.56.44,2,.55a3.74,3.74,0,0,1,1,.24c.12.09.12.21,0,.35s-.12.2-.17.34l-.11.27H37a.34.34,0,0,0,.09-.19c0-.09-.24-.23-.5-.3s-1.47-.15-1.79-.19a21,21,0,0,0-2.15-.15c-.65,0-3.18,0-3.83,0s-3,0-3.61,0-2.68,0-3.25,0H19.58c-.52,0-2.29,0-2.92,0s-2.78-.05-3.19,0-1.59,0-2.17,0-2.61-.09-3.16-.09A7.07,7.07,0,0,1,6.7,55.2c-.21-.06-1.37-.65-1.83-.88l-1.59-.81c-.24-.12-.48-.29-.55-.32s-.39.29-.49.41-.25,0-.25,0,1.12-1.24,1.34-1.51"/><path class="cls-1" d="M90.45,71.62c0-6.64-7.26-13.29-18-13.29S54.56,65,54.56,71.62,61.82,84.93,72.5,84.93s18-6.67,18-13.31M61.62,78.13c0-.64,1.27-1.29,1.26-1.86V67c0-.48-1.33-.69-1.33-1.59,0,0,0-.11,0-.2.32-.74,2.29-2.35,5.47-3.34A20,20,0,0,1,72.38,61a20.24,20.24,0,0,1,3,.2c4.07.6,6.93,2.53,7.21,5a4.21,4.21,0,0,1,0,.62c0,1.46-.68,2.74-2.9,4v0a5.85,5.85,0,0,1,3.45,5.19c0,3.17-3.66,5.83-10,5.85-.45,0-.89,0-1.31,0-6.42-.33-10.24-3.17-10.24-3.8"/><path class="cls-1" d="M77.21,76.21c0-3.48-2.37-4.3-4.6-4.31s-4.81.72-4.81,4.31,2.5,4.18,4.72,4.18h.17c2.33,0,4.52-1.06,4.52-4.18"/><path class="cls-1" d="M72.51,70.48c2.47,0,4.27-1,4.27-3.92s-1.71-3.87-4.27-3.88c-2.35,0-4.29,1.17-4.29,3.88,0,3.07,1.93,3.91,4.29,3.92"/><rect class="cls-2" width="145" height="145"/></g></g></svg>