<svg xmlns="http://www.w3.org/2000/svg" viewBox="0 0 145 145"><defs><style>.cls-1{fill:#231f20;}.cls-2{fill:none;}</style></defs><g id="Layer_2" data-name="Layer 2"><g id="Layer_1-2" data-name="Layer 1"><path class="cls-1" d="M103.11,90.87a.93.93,0,0,0,.83.29c.63-.08.64-1,.64-1s.15-2.16.15-4.35a9,9,0,0,0-2.14-5.15S80.3,56.09,72.5,56.09,42.42,80.63,42.42,80.63a9,9,0,0,0-2.15,5.15c0,2.18.15,4.35.15,4.35s0,1,.64,1a1,1,0,0,0,.84-.29c2.48-2.17,22.36-19.23,30.6-19.23s28.12,17.06,30.61,19.23"/><path class="cls-1" d="M41.06,68.57a1,1,0,0,0,.84-.28c2.49-2.16,22.36-19.23,30.6-19.23s28.12,17.07,30.6,19.23a1,1,0,0,0,.84.28c.63-.06.64-1,.64-1s.15-2.17.15-4.36a8.91,8.91,0,0,0-2.15-5.15S80.3,33.5,72.5,33.5,42.42,58.05,42.42,58.05a8.91,8.91,0,0,0-2.15,5.15c0,2.19.15,4.36.15,4.36s0,1,.64,1"/><path class="cls-1" d="M89,101.06c-2.71-.07-5.45,0-5.48,0-3.31,0-6,2.28-6,5.11s2.7,5.19,6,5.19c0,0,2.77,0,5.48,0,3.33,0,6-2.33,6-5.19s-2.65-5-6-5.11m-1.85,8.88s-1,0-1.75,0a3.87,3.87,0,0,1-4-3.76,3.79,3.79,0,0,1,4-3.67,15.18,15.18,0,0,1,1.75,0,3.8,3.8,0,0,1,4,3.67,3.87,3.87,0,0,1-4,3.76"/><path class="cls-1" d="M121.79,101.2h-8.55c-.13,0-.46,0-.46.37v9.28a.36.36,0,0,0,.36.38h3.57v-7.76a.49.49,0,0,1,.51-.51h3.94a2.9,2.9,0,0,1,2.69,3.11v4.76a.4.4,0,0,0,.41.4h3.38v-4.92c0-2.86-2.57-5.11-5.85-5.11"/><path class="cls-1" d="M57.9,101.2H43.22a.38.38,0,0,0-.39.38v1.6h3.52a2.22,2.22,0,0,1,2.2,2.18v5.49a.4.4,0,0,0,.39.38H52.5v-7.54a.51.51,0,0,1,.52-.51h5.27v-1.6a.38.38,0,0,0-.39-.38"/><path class="cls-1" d="M40.34,101.2H37.17a.38.38,0,0,0-.38.37v9.28a.39.39,0,0,0,.38.38h3.55v-9.66a.38.38,0,0,0-.38-.37"/><path class="cls-1" d="M73,107.56h0a3.37,3.37,0,0,0,2.89-3.12c0-1.57-1.51-3.24-4-3.24H62.44a2,2,0,0,0-2,2v7.61a.37.37,0,0,0,.37.38h3.55v-3.56h3.36a4,4,0,0,1,4.3,3.56H75.9c-.11-2.6-2.91-3.67-2.91-3.67M70.5,105.9H64.32v-2a.9.9,0,0,1,1-.93h5.24a1.47,1.47,0,1,1,0,2.94"/><path class="cls-1" d="M25.27,102.46a15.86,15.86,0,0,1,1.73,0,4.06,4.06,0,0,1,3.47,1.91.37.37,0,0,0,.33.19h3.83A6.24,6.24,0,0,0,28.85,101c-1.38,0-3.86-.08-5.49,0a6.29,6.29,0,0,0-4.23,1.55,4.85,4.85,0,0,0-1.77,3.68c0,2.87,2.56,5.12,5.94,5.24,2.32.07,2.57.09,5.62,0,2.82-.09,4.83-1.35,5.7-3.59H30.79a.36.36,0,0,0-.32.19A4,4,0,0,1,27,110H25.26a3.77,3.77,0,1,1,0-7.52"/><path class="cls-1" d="M100.86,108.91V107h8v-1.77h-8.05v-1.73a.53.53,0,0,1,.6-.51h9.22v-1.42c0-.41-.44-.38-.46-.38H97.31a.36.36,0,0,0-.39.38v7.61a2,2,0,0,0,2.06,2h11.31a.4.4,0,0,0,.38-.38v-1.42h-9.28a.5.5,0,0,1-.53-.52"/><path class="cls-1" d="M102.91,97.56a2.73,2.73,0,0,0-1.37-.35,2.55,2.55,0,0,0-1.36.35,1,1,0,0,0-.57.83,1,1,0,0,0,.57.84,2.64,2.64,0,0,0,1.36.35,2.71,2.71,0,0,0,1.34-.32c.34-.21.71-.56,1.09-.56a2.24,2.24,0,0,1,1.08.53,2.86,2.86,0,0,0,2.74,0,1,1,0,0,0,.56-.84,1,1,0,0,0-.57-.83,2.55,2.55,0,0,0-1.36-.35,2.62,2.62,0,0,0-1.37.35c-.36.22-.65.53-1.08.53s-.67-.31-1.06-.53"/><rect class="cls-2" width="145" height="145"/></g></g></svg>