<svg xmlns="http://www.w3.org/2000/svg" viewBox="0 0 145 145"><defs><style>.cls-1{fill:#231f20;}.cls-2{fill:none;}</style></defs><g id="Layer_2" data-name="Layer 2"><g id="Layer_1-2" data-name="Layer 1"><path class="cls-1" d="M49.86,106.07c-.25-.7-1.07-3.07-1.58-4.46s-1.34-4-1.48-4.39-.16-.64-.64-.7a17.17,17.17,0,0,0-2.32-.07.41.41,0,0,0-.4.33c-.09.3-1,3.18-1.42,4.37s-1.58,4.6-1.73,5.06l-1.38,4.11c-.16.53-.19.69.15.69l.93,0c.34,0,.49,0,.61-.26s1.22-3.57,1.22-3.57h2.49l2.55,0a11.4,11.4,0,0,1,.62,1.73c.45,1.39.58,2.15,1.23,2.15H51c.31,0,.41-.13.41-.38a3.37,3.37,0,0,0-.25-.82s-1.06-3.08-1.3-3.79m-5.5-.41c-1.23,0-2,0-2,0s.18-.63,1-3,1-3.1,1-3.1.31.81,1.13,3.3.89,2.83.89,2.83h-2"/><path class="cls-1" d="M85.76,106.07c-.23-.7-1.06-3.07-1.57-4.46s-1.34-4-1.47-4.39-.16-.64-.65-.7a17.32,17.32,0,0,0-2.33-.07c-.1,0-.28,0-.38.33s-1,3.18-1.44,4.37-1.59,4.6-1.72,5.06-1.2,3.58-1.37,4.11-.2.69.15.69l.92,0c.34,0,.5,0,.61-.26s1.22-3.57,1.22-3.57h2.48l2.56,0a11.8,11.8,0,0,1,.63,1.73c.44,1.39.57,2.15,1.22,2.15h2.29c.31,0,.41-.13.41-.38a3.37,3.37,0,0,0-.25-.82s-1.07-3.08-1.31-3.79m-5.49-.41c-1.23,0-2,0-2,0s.18-.63,1-3,1-3.1,1-3.1.32.81,1.12,3.3.9,2.83.9,2.83h-2"/><path class="cls-1" d="M57.08,96.88c0-.41-.69-.39-1.09-.39H54.5c-.55,0-.7.24-.7.85s0,3.31,0,4.48.05,7.74.05,8.48.34.8.87.8,1.31,0,1.84,0,.59-.29.59-1,0-5.54,0-6.6-.06-6.21-.06-6.62"/><path class="cls-1" d="M71.88,96.47l-1.42,0c-.37,0-1,0-1,.39s0,4,0,5.79c0,0-1,0-2.54,0s-2.27,0-2.27,0c0-1.82,0-5.45,0-5.79s-.68-.39-1.06-.39l-1.42,0c-.53,0-.67.25-.67.86s0,3.31,0,4.48,0,7.74,0,8.48.34.8.84.81l1.76,0c.49,0,.56-.3.56-1s0-4.08,0-5.83h4.79c0,1.75,0,5.27,0,5.83s.06,1,.56,1l1.76,0c.5,0,.83-.06.83-.81s0-7.32,0-8.48,0-3.88,0-4.48-.15-.86-.67-.86"/><path class="cls-1" d="M97.1,96.68c-.42,0-3.21-.08-3.82-.09s-2.88,0-3.33,0l-3.45,0c-.21,0-.31.25-.31.76s0,.84.33.84,2.45,0,3,0h.51c.07,0,.19,0,.19.07s0,2.13,0,2.92,0,2.86,0,3.69.06,3.58.06,3.93,0,1.18,0,1.64,0,.55.2.59a15.56,15.56,0,0,0,1.62.16c.6,0,1.35.14,1.35-.69s0-3.64,0-3.9,0-3.11,0-3.36V98.43c0-.13,0-.17.2-.17l2.39,0h1c.15,0,.32,0,.34-.19s.07-.74.08-1,0-.42-.42-.44"/><path class="cls-1" d="M100.65,99.56c0-.83.61-1.55,2-1.55,2.19,0,2.78,1,3.19,1,.12,0,.21-.11.21-.27V97.67c0-.22-.06-.35-.45-.54a8.08,8.08,0,0,0-3.11-.55c-1.92,0-4.33.58-4.33,3.79,0,4.38,6.08,5,6.08,8.13,0,.57-.24,1.46-1.79,1.46-2.72,0-3.36-.93-4-.93-.18,0-.22.35-.22.64v.59a.47.47,0,0,0,.37.54,15.11,15.11,0,0,0,3.57.61c2,0,4.68-.8,4.68-3.88,0-4.36-6.29-5.47-6.29-8"/><path class="cls-1" d="M119.24,96.87l-1,0c-.2,0-.25.14-.25.42s0,1.73,0,2.67c0,1.77.07,6.08.07,7.22,0,2.93-2.18,2.93-2.77,2.93-3,0-2.78-2.75-2.78-4.24v-3.17c0-.56,0-3.55,0-4.69s-.3-1.2-.6-1.2h-1c-.38,0-.67,0-1.11,0s-.47.21-.47.5.05,7,.05,9.4,1.54,4.79,6,4.79,4.4-3.32,4.4-4.23v-4.36c0-4.09-.06-5.59-.06-5.81s-.2-.23-.54-.23"/><path class="cls-1" d="M30.69,96.38H25.81c-.4,0-.65,0-.65.47s0,4.73,0,7.2.06,6,.06,6.36,0,.5.85.56,4.12,0,5.1,0c4,0,6-2.86,6-7,0-6.79-3.79-7.64-6.51-7.64m-.46,13.1c-.83,0-1.81-.06-1.81-.06V98.33c0-.37.3-.33.5-.33h1.14c1.78,0,3.89,0,3.89,5.61s-1.9,5.87-3.72,5.87"/><path class="cls-1" d="M25.16,89.53h94.68v-56H25.16ZM36.64,47.1l21.6,21.53s53-4.66,53-10.24c0-3.36-23.68-6.31-35.27-7.26-10.37-.85-21.82-.8-21.82-.8l16,16L58.79,67.49,38.33,47.1S51.69,46.28,76,48.46s37.79,5.9,37.79,9.8C113.79,68.63,48,78.78,48,78.78l5.89-9.16L31.29,47.35Z"/><rect class="cls-2" width="145" height="145"/></g></g></svg>