<svg xmlns="http://www.w3.org/2000/svg" viewBox="0 0 145 145"><defs><style>.cls-1{fill:#231f20;fill-rule:evenodd;}.cls-2{fill:none;}</style></defs><g id="Layer_2" data-name="Layer 2"><g id="Layer_1-2" data-name="Layer 1"><path class="cls-1" d="M94.26,99.54c-8.72,8.85-37.71,6.95-43,0a92.27,92.27,0,0,1-8-43.86q-.36-7.44,4.87-10c12.11-5.43,36.31-6,47.54-.22,4.63,1.79,6.33,6.26,6.14,12.76a104.69,104.69,0,0,1-7.48,41.34m-57.08-44c1-5.9,4.73-10.24,10.79-13.75C61.2,33.1,82.19,33,97.29,42.14A19.13,19.13,0,0,1,107.36,55c3,16,.4,30-6.35,42.1-7.36,16.86-46.32,17.14-55.48,2C37.79,88.52,34,71,37.18,55.58ZM72.49,114.5a42,42,0,1,1,42.28-42A42.14,42.14,0,0,1,72.49,114.5Zm10.44-58H93.64l0,3.82H90.09l0,30.05h-3.5l-.16-30-3.48,0ZM78.65,69.63H73.82v-9.5h3l1.84,4.45Zm3.5,20.71h-3.5l0-16.19H73.8l-.07,16.19H70.57v-34h8.25l3.33,6.72Zm-19.24-34H66.4V90.44H62.91Zm-11.75.1H61.32v3.76H54.66V70.38H59.9l0,3.8H54.68l0,16.26h-3.5Z"/><rect class="cls-2" width="145" height="145"/></g></g></svg>