<svg xmlns="http://www.w3.org/2000/svg" viewBox="0 0 145 145"><defs><style>.cls-1{fill:#231f20;fill-rule:evenodd;}.cls-2{fill:none;}</style></defs><g id="Layer_2" data-name="Layer 2"><g id="Layer_1-2" data-name="Layer 1"><path class="cls-1" d="M72.52,49.5c-33.6,0-60.82,10.31-60.82,23s27.22,23,60.82,23,60.78-10.28,60.78-23S106.09,49.5,72.52,49.5Zm0,43.65c-32.23,0-58.43-9.18-58.43-20.63s26.2-20.7,58.43-20.7S131,61.11,131,72.52,104.84,93.15,72.52,93.15ZM96.8,71.45c-1.37-.16-3.1,1-4.51,2.74a8.42,8.42,0,0,0-1.57,3.49,2.75,2.75,0,0,0,.47,2.23c.36.28,1.92,1.1,4.35-1.37a21.75,21.75,0,0,0,2.71-3.61l-.43-.11C98.64,73.29,98.49,71.64,96.8,71.45ZM72.52,53.54c-31.29,0-56.59,8.51-56.59,19s25.3,19,56.59,19,56.63-8.51,56.63-19S103.77,53.54,72.52,53.54Zm-26.43,29a6.17,6.17,0,0,1-6.5-6.23c0-2.43,1.92-5.42,5.56-6.32.43,0,.59.16.59.4s-.16.35-.51.5a5.68,5.68,0,0,0-2.9,4.39,3.46,3.46,0,0,0,2.44,3.42,4.16,4.16,0,0,0,1.21.08c3.8,0,8.08-4.28,12.71-10.79-.75,0-3.93.39-4.71,1.3-.36.27-.59.11-.67-.2a1.4,1.4,0,0,1,.24-.51c1.25-1.41,5-1.73,5.92-1.84,3.38-5.18,7.68-8.49,8.87-8.73l-.09,0a38.63,38.63,0,0,0-7.92-1.29C52.76,56.74,49.39,60,49.55,63a1.91,1.91,0,0,0,2.5,1.73,6.83,6.83,0,0,0,4.32-3.06.44.44,0,0,1,.55-.24.49.49,0,0,1,.15.48c-.19,1.53-2.54,5.76-6.62,5.76a4,4,0,0,1-3.76-4.2c0-3.88,4-7.8,13.76-7.8a36.69,36.69,0,0,1,6.19.55,100.89,100.89,0,0,0,14.51,1.65,44.65,44.65,0,0,0,6.51-.24,14.71,14.71,0,0,1,2.55-.43c.79,0,.79.31.79.63,0,1.25-4.4,3.65-8.12,3.65-5.49,0-11.19-2.49-14.14-3.3a.45.45,0,0,1,.1.51,4.1,4.1,0,0,1-.59.63,24.19,24.19,0,0,0-6.35,7.33A48.26,48.26,0,0,0,67,66a3.75,3.75,0,0,1-.16-.94c.12-1.68,1.1-2.71,2.35-2.51a1.38,1.38,0,0,1,1.18,1.34,3.48,3.48,0,0,1-1,2.11,6.76,6.76,0,0,1-1.22.79c0,.43.59.78,1.1.82-.12.43-.08.63-.27.59a1.9,1.9,0,0,1-1.65-1.14c-1.57.28-3.1.47-6.19.78C53.31,80.5,50.88,82.58,46.09,82.58ZM99.86,80.5c1.69-.08,4.78-3.29,5.53-4.08.16-.19.43-.54.58-.54s.48.15.48.39a4,4,0,0,1-.63,1.1c-1.57,2-4.16,5-7.1,5-1.45,0-2-.58-2.19-1.72a9.49,9.49,0,0,1-5.26,1.61,3.2,3.2,0,0,1-3.1-2.08,4.52,4.52,0,0,1-.23-2.94,6.48,6.48,0,0,1-3.45.59c-1.65,0-2.67-.79-3.18-2.71-1.88,3.45-2,3.57-3.88,7.18H74.09l4.28-7.26a9.54,9.54,0,0,0,1-2.59.78.78,0,0,0-.75-.94,4.34,4.34,0,0,0-2.31,1.38,43.71,43.71,0,0,0-3.8,4.74c-1.53,2.27-4.16,4.87-7,4.87a4.13,4.13,0,0,1-4.35-3.34s-.2.51-2,1.57c-.15.08-.54.31-.66.23a1.71,1.71,0,0,1-.59-1c.12,0,.35-.15,1.1-.74a5.09,5.09,0,0,0,1.76-2c.36-.75,1-1.92,1.42-2.75,1.17-2.35,3.21-4.74,6.54-4.86a.79.79,0,0,1,.82.43.72.72,0,0,1,.2.71,7.45,7.45,0,0,0-4.94,3.06,8.56,8.56,0,0,0-1.33,3.29c-.24,1.76.59,2.94,1.8,3.21,2.28.36,4.16-1.29,5.65-3.84a8.9,8.9,0,0,0,.67-3.33,3.76,3.76,0,0,0-.9-2.32,1,1,0,0,1,.93-1.09.61.61,0,0,1,.48.15,5.31,5.31,0,0,1,1.21,3.42,5.76,5.76,0,0,1-.08,1.17c1.65-2,3.73-4.59,5.34-5.1a2,2,0,0,1,.94-.15A2.22,2.22,0,0,1,82,71.91c1.57-1.8,2.66-2.47,4.11-2.39a2,2,0,0,1,2.12,2,2.26,2.26,0,0,1-2.08,2.24A2.1,2.1,0,0,1,84,72.23c-.74.27-1.09.78-1.25,1.8a2,2,0,0,0,2,2.32,5,5,0,0,0,3.88-1.65c2.67-2.51,4.16-5.14,8-5.1,2.3,0,2.9,1.89,3.29,2.67L105,63.72h3.1L99.7,78.58A3.13,3.13,0,0,0,99.19,80C99.27,80.7,100.21,80.5,99.86,80.5ZM68.92,65.33a2.12,2.12,0,0,0,.55-1.41c0-.24-.16-.51-.43-.48a1.27,1.27,0,0,0-1.1,1,2.48,2.48,0,0,0,0,1.53S68.33,66,68.92,65.33Z"/><rect class="cls-2" width="145" height="145"/></g></g></svg>