<svg xmlns="http://www.w3.org/2000/svg" viewBox="0 0 145 145"><defs><style>.cls-1{fill:#231f20;}.cls-2{fill:none;}</style></defs><g id="Layer_2" data-name="Layer 2"><g id="Layer_1-2" data-name="Layer 1"><polygon class="cls-1" points="15.15 74.14 18.98 74.14 18.98 79.5 26.89 79.5 26.89 65.66 18.98 65.66 18.98 70.95 15.15 70.95 15.15 65.66 7.23 65.66 7.23 79.5 15.15 79.5 15.15 74.14"/><path class="cls-1" d="M33.79,79.5h8.29c4.52,0,5.74-3,5.74-4.47V65.65H39.91V74.9a2,2,0,1,1-4,0V65.65H28V75c0,1.42,1.22,4.47,5.76,4.47"/><polygon class="cls-1" points="56.11 73.57 59.37 79.5 62.68 79.5 65.94 73.57 65.94 79.5 73.21 79.5 73.21 65.65 64.15 65.65 61.02 71.27 57.9 65.65 48.83 65.65 48.83 79.5 56.11 79.5 56.11 73.57"/><polygon class="cls-1" points="81.5 73.57 84.76 79.5 88.08 79.5 91.33 73.57 91.33 79.5 98.6 79.5 98.6 65.65 89.54 65.65 86.42 71.27 83.29 65.65 74.23 65.65 74.23 79.5 81.5 79.5 81.5 73.57"/><polygon class="cls-1" points="114.94 75.68 107.66 75.68 107.66 74.14 114.94 74.14 114.94 70.95 107.66 70.95 107.66 69.49 114.94 69.49 114.94 65.65 99.5 65.65 99.5 79.5 114.94 79.5 114.94 75.68"/><path class="cls-1" d="M135.87,70.24c0-1.72-1.09-4.59-4.15-4.59H116V79.5h7.92v-4l3.37,4H137l-4.14-4.91c1.65.07,3-2.63,3-4.35M126,72h-2.16V68.91h2.42c2,0,1.79,3.13-.26,3.13"/><path class="cls-1" d="M136.6,65.5a1.15,1.15,0,1,0,1.17,1.14,1.15,1.15,0,0,0-1.17-1.14m0,2.11a.93.93,0,0,1-.94-1,.94.94,0,1,1,.94,1"/><rect class="cls-2" width="145" height="145"/></g></g></svg>