<svg xmlns="http://www.w3.org/2000/svg" viewBox="0 0 145 145"><defs><style>.cls-1{fill:#231f20;}.cls-2{fill:none;}</style></defs><g id="Layer_2" data-name="Layer 2"><g id="Layer_1-2" data-name="Layer 1"><path class="cls-1" d="M30.77,53.49A12.49,12.49,0,0,0,29,64.54a17.19,17.19,0,0,0,5.52,7.81,37.88,37.88,0,0,0,11.19,6.48,73.47,73.47,0,0,0,24.51,4.69,87.67,87.67,0,0,0,12.24-.45,78.09,78.09,0,0,0,12.45-2.34,49.9,49.9,0,0,0,14.94-6.61A23,23,0,0,0,117,67a12.47,12.47,0,0,0,1.69-9.34,15.17,15.17,0,0,0-3.91-7.08,32.2,32.2,0,0,0-10.09-7,58.78,58.78,0,0,0-14-4.48A76.53,76.53,0,0,0,80.37,37.7c-.79,0-1.56-.13-2.34-.2H70.5a2.62,2.62,0,0,1-.38.09c-1.29.08-2.57.13-3.85.26a75.85,75.85,0,0,0-12,2,54.13,54.13,0,0,0-15.47,6.21,25.07,25.07,0,0,0-8,7.42M83.25,69.36A15.51,15.51,0,0,1,78,78.66a6.06,6.06,0,0,1-3.68,1.39c-1,.08-1.92.11-2.49.14a79.37,79.37,0,0,1-9.63-.81,70.13,70.13,0,0,1-9.43-1.84c-1.07-.3-2.11-.65-3.13-1-.84-.35-.87-.86-.17-1.42A55.69,55.69,0,0,1,72,64.47a22,22,0,0,1,6.57-.73,4.69,4.69,0,0,1,4.11,2.17,4.85,4.85,0,0,1,.54,3.45m21-17.36c.36-.71.72-1.42,1.09-2.13.48-.91,1-1.13,1.87-.66A13.29,13.29,0,0,1,115,59.47a7.36,7.36,0,0,1,0,1.05,10.06,10.06,0,0,1-2.32,6.42,22.56,22.56,0,0,1-7.31,6,48,48,0,0,1-15.27,5.31c-.22,0-.66,0-.68-.14a1,1,0,0,1,.08-.84c.68-1,1.43-1.94,2.16-2.91a84.9,84.9,0,0,0,6.91-11c2-3.72,3.84-7.53,5.75-11.32m-36-8.65a8.36,8.36,0,0,1,6.07-2.55,63.64,63.64,0,0,1,17.6,2c1.56.38,3.12.87,4.66,1.36a6.56,6.56,0,0,1,1.38.68.79.79,0,0,1,.13,1.33,4.48,4.48,0,0,1-1,.82A92.4,92.4,0,0,1,77.9,56.09,30.86,30.86,0,0,1,70,57.72a7.58,7.58,0,0,1-3.42-.55c-1.75-.8-2.29-2.25-2.26-4.43a15.32,15.32,0,0,1,4-9.39m-13.05-.26a12.21,12.21,0,0,1,2.84-.26c.8,0,1,.39.5,1-1.31,1.75-2.68,3.43-4,5.18A80.94,80.94,0,0,0,43.24,69.43a8.73,8.73,0,0,1-1,1.93,1.51,1.51,0,0,1-2.06.69,8.7,8.7,0,0,1-2.9-2,16.59,16.59,0,0,1-4.49-6.39,31.05,31.05,0,0,1-.71-3.1l.13,0A10.5,10.5,0,0,1,35,53.84a24.28,24.28,0,0,1,6.74-5.39,55.8,55.8,0,0,1,13.47-5.36"/><path class="cls-1" d="M103.08,90.25a6.55,6.55,0,0,0-1-.06H89.52l-.59,0v16.64c0,.2,0,.43,0,.64h14.28l.55-.21a2.72,2.72,0,0,0,1.92-2.24,5.64,5.64,0,0,0,.12-1.29c0-2.11,0-4.2,0-6.3,0-1.24,0-2.48,0-3.72-.06-2.15-.86-3.14-2.67-3.49m-2.4,11.47c-.05,1.25-.4,1.57-1.62,1.59h-5v-9c1.8,0,3.57,0,5.35,0,.75,0,1,.39,1.18,1.13a3.06,3.06,0,0,1,.09.74c0,1.75,0,3.52,0,5.28a1.92,1.92,0,0,1,0,.24"/><path class="cls-1" d="M124.7,90.77v-.61l-.52,0c-4,0-8,0-12,.06-.17,0-.33,0-.49,0a3.56,3.56,0,0,0-3.58,3.61c0,4.57,0,9.12,0,13.67H113v-3.79h6.63v3.79h5c0-.2,0-.4,0-.6,0-5.37,0-10.76,0-16.13m-5,8.56H113c0-1.26,0-2.51,0-3.76a1.12,1.12,0,0,1,1.12-1.14c1.31-.09,2.64-.07,3.95-.09.5,0,1,0,1.54,0Z"/><path class="cls-1" d="M67,90.13c-1.36,0-2.75,0-4.11,0-.48,0-.59.15-.59.6,0,3.76,0,7.55,0,11.32,0,1-.29,1.25-1.24,1.26H55.69V90.17H50.57v.7c0,3.33,0,6.66,0,10,0,2.22,0,4.42,0,6.63H65s.09-.08.15-.09a2.63,2.63,0,0,0,2.3-2.48,7.57,7.57,0,0,0,.12-1.26c0-4.29,0-8.62,0-12.9v-.61l-.59,0"/><path class="cls-1" d="M86.67,97.22c0-1.36,0-2.7-.11-4a2.83,2.83,0,0,0-2.13-2.75,8.62,8.62,0,0,0-2.06-.3c-4.07,0-8.15,0-12.22,0l-.45,0v4.94q0,6.21,0,12.41h5.13q0-6.5,0-13a1.26,1.26,0,0,1,0-.16,1.26,1.26,0,0,1,.27,0c1.7,0,3.42,0,5.13,0,.79,0,1.14.34,1.14,1.15,0,3.93,0,7.87,0,11.8a.93.93,0,0,1,0,.24H86.7a1,1,0,0,1,0-.28c0-3.35,0-6.69,0-10"/><path class="cls-1" d="M25,90.13c-.34,0-.29.24-.29.47v5.72h-6.6V90.13h-.64l-4.27,0v17.4h4.93v-6.81h6.64v6.81h5.14a.61.61,0,0,0,0-.14V90.55a3.55,3.55,0,0,0-.06-.4c-1.64,0-3.25,0-4.86,0"/><path class="cls-1" d="M45,90.15a.77.77,0,0,0-.49.34C43.25,92.25,42,94,40.74,95.8a4.58,4.58,0,0,1-.33.45,4.35,4.35,0,0,1-.3-.45c-1.14-1.74-2.3-3.49-3.44-5.25a.7.7,0,0,0-.63-.38c-1.58,0-3.15,0-4.73,0h-.64l.37.57c1.86,2.79,3.67,5.63,5.62,8.38a5.45,5.45,0,0,1,1.1,3.72c-.11,1.56,0,3.13,0,4.7h5.13c0-2.11,0-4.25,0-6.38a1.65,1.65,0,0,1,.24-.79l6.71-9.69c.09-.13.17-.27.27-.43a.45.45,0,0,0-.19-.06c-1.61,0-3.25,0-4.87,0"/><path class="cls-1" d="M127.05,90.78c0,5.36,0,10.73,0,16.08,0,.2,0,.43,0,.64h4.82V90.21c-1.38,0-2.77,0-4.16-.09-.52,0-.63.17-.63.66"/><rect class="cls-2" width="145" height="145"/></g></g></svg>