<svg xmlns="http://www.w3.org/2000/svg" viewBox="0 0 145 145"><defs><style>.cls-1{fill:#231f20;}.cls-2{fill:none;}</style></defs><g id="Layer_2" data-name="Layer 2"><g id="Layer_1-2" data-name="Layer 1"><path class="cls-1" d="M80.42,84.16a12.12,12.12,0,0,0,6.29,1.39c3.08,0,5.44-.55,7.07-1.62A12.68,12.68,0,0,0,98,78.53l-7.59-.88A5.79,5.79,0,0,1,89,79.23a3.7,3.7,0,0,1-2.16.71A3.38,3.38,0,0,1,84,78.3a7.16,7.16,0,0,1-1-3.43H98.43V73.8a20.76,20.76,0,0,0-1.31-8,10.09,10.09,0,0,0-3.82-4.7,12.3,12.3,0,0,0-6.81-1.63,10.34,10.34,0,0,0-8.36,3.63,14.27,14.27,0,0,0-3,9.48,15.82,15.82,0,0,0,1.52,7.14,10.36,10.36,0,0,0,3.8,4.46m3.44-17.23a3.34,3.34,0,0,1,3-1.81,3.12,3.12,0,0,1,2.56,1.2,7.33,7.33,0,0,1,1.2,4H83a7.52,7.52,0,0,1,.87-3.36"/><path class="cls-1" d="M118.31,59.45a6.65,6.65,0,0,0-3.75,1.11,10.86,10.86,0,0,0-2.74,3.15V60H104.6V96.35h7.8V82.57A8.11,8.11,0,0,0,115,84.81a7.11,7.11,0,0,0,3.26.74,7.26,7.26,0,0,0,6.08-3.27c1.61-2.2,2.4-5.37,2.4-9.51a18.9,18.9,0,0,0-2.2-9.49,6.91,6.91,0,0,0-6.25-3.83M118.14,77a2.66,2.66,0,0,1-2.26,1.38A3,3,0,0,1,113.35,77a7.72,7.72,0,0,1-1-4.41,8.48,8.48,0,0,1,1-4.65,2.9,2.9,0,0,1,2.47-1.44,2.73,2.73,0,0,1,2.31,1.44,8,8,0,0,1,1,4.45,8.83,8.83,0,0,1-.91,4.66"/><path class="cls-1" d="M36.55,83.46A10.26,10.26,0,0,0,40,78.24a36.77,36.77,0,0,0,.85-9V48.65H32.19V71.77a10.53,10.53,0,0,1-.69,4.49,2.19,2.19,0,0,1-2.11,1.32,2,2,0,0,1-1.4-.45,3.82,3.82,0,0,1-1-1.78A15,15,0,0,1,26.65,72l-8.41-.3a29.45,29.45,0,0,0,1.69,8.41,9.16,9.16,0,0,0,3.57,4.12A12.58,12.58,0,0,0,30,85.6a9.73,9.73,0,0,0,6.53-2.14"/><path class="cls-1" d="M51.94,84.16a12,12,0,0,0,6.29,1.39,13,13,0,0,0,7.08-1.62,12.9,12.9,0,0,0,4.2-5.4l-7.61-.88a5.79,5.79,0,0,1-1.34,1.58,3.79,3.79,0,0,1-2.16.71,3.37,3.37,0,0,1-2.93-1.64,7,7,0,0,1-1-3.43H69.94V73.8a20.57,20.57,0,0,0-1.31-8,10.09,10.09,0,0,0-3.82-4.7A12.32,12.32,0,0,0,58,59.45a10.34,10.34,0,0,0-8.36,3.63,14.32,14.32,0,0,0-3,9.48,16.09,16.09,0,0,0,1.51,7.14,10.46,10.46,0,0,0,3.82,4.46m3.45-17.23a3.29,3.29,0,0,1,2.93-1.81,3.13,3.13,0,0,1,2.57,1.2,7.25,7.25,0,0,1,1.2,4h-7.6a7.49,7.49,0,0,1,.9-3.36"/><rect class="cls-2" width="145" height="145"/></g></g></svg>