<svg xmlns="http://www.w3.org/2000/svg" viewBox="0 0 145 145"><defs><style>.cls-1{fill:#231f20;}.cls-2{fill:none;}</style></defs><g id="Layer_2" data-name="Layer 2"><g id="Layer_1-2" data-name="Layer 1"><path class="cls-1" d="M72.5,102.5c32.25,0,58.57-13.48,58.57-30s-26.32-30-58.57-30S13.93,56,13.93,72.49s26.31,30,58.57,30m0-52.9c29.75,0,54,10.29,54,22.89s-24.24,22.88-54,22.88-54-10.27-54-22.88S42.76,49.6,72.5,49.6"/><polygon class="cls-1" points="93.2 86.73 98.92 66.75 104.64 86.73 112.52 86.73 104.38 58.12 101.09 58.12 96.51 58.12 92.28 58.12 92.28 59.42 93.44 59.42 85.32 86.73 93.2 86.73"/><path class="cls-1" d="M37.06,86.73h7.87V74.26l8.88,11.79H63L52.4,72l9.12-13.27H52.36L44.93,69.55V58.75H37.06v0H35.64V60a3.75,3.75,0,0,1,1.42.23Z"/><path class="cls-1" d="M69.57,86.73h7.87v-28H69.57v0H68.15V60a3.72,3.72,0,0,1,1.42.23Z"/><rect class="cls-2" width="145" height="145"/></g></g></svg>