<svg xmlns="http://www.w3.org/2000/svg" viewBox="0 0 145 145"><defs><style>.cls-1{fill:#231f20;}.cls-2{fill:none;}</style></defs><g id="Layer_2" data-name="Layer 2"><g id="Layer_1-2" data-name="Layer 1"><path class="cls-1" d="M75.9,100.38a32.43,32.43,0,0,0,15.74-6.14,40.62,40.62,0,0,0,5.63-5.44,33.12,33.12,0,0,0,6.64-14c.41-1.92.43-2.28.43-6A25.11,25.11,0,0,0,104,63,32.3,32.3,0,0,0,88.13,40.78a33.51,33.51,0,0,0-10.4-3.66A39.73,39.73,0,0,0,68.18,37,32.3,32.3,0,0,0,48.26,47.7a31.74,31.74,0,0,0-6.53,29.83,32.26,32.26,0,0,0,16.9,19.9,35.37,35.37,0,0,0,10.26,2.94,43.17,43.17,0,0,0,7,0m-8.11-4A28.5,28.5,0,0,1,46.18,79.13a25.76,25.76,0,0,1-2-9.57A25.36,25.36,0,0,1,44.93,62a28.1,28.1,0,0,1,22-21.05c2.4-.46,2.57-.45,2.87.25C70.43,42.72,71,46,71.63,51.22c.25.48-.06,4.11,1,3.66.2-.12.3-.49.39-1.4.64-6.55,1.66-12,2.4-12.74.19-.2.43-.19,1.82,0a27.76,27.76,0,0,1,15.31,7.95,25.31,25.31,0,0,1,5,6.74,27.1,27.1,0,0,1,3.25,14.12,24.85,24.85,0,0,1-1,6.5,28.21,28.21,0,0,1-21.06,20c-1,.22-2.12.44-2.54.5l-.74.1-.26-.6c-.74-1.78-1.69-7-2.09-11.56-.09-1.12-.2-2.15-.25-2.31s-.6-.37-.74-.14c0,.08-.27,1.73-.48,3.69-.66,5.85-1.57,10.39-2.15,10.76C69.24,96.65,69.29,96.65,67.79,96.4Z"/><path class="cls-1" d="M72.92,68.88l0-8.09.58,0c.53,0,.59-.1.63-.55l0-.5-1.64-.05c-2.13-.06-2.16-.06-2.11.55,0,.43.12.5.6.58l.55.07,0,3.66a24.31,24.31,0,0,1-.09,3.56c-.07,0-.89-1.95-1.82-4.24l-1.7-4.16-2,0-2.05,0v.48c0,.43.05.47.59.52l.58,0,0,7.39,0,7.39h-1.4L62,68.06c-2-9.11-1.85-8.64-2.15-8.76-.65-.25-.73,0-2.15,6.51S55.89,73.65,55,74.6a3.24,3.24,0,0,1-2.38,1.05h-.79l0-7.4,0-7.4.55-.07c.49-.08.55-.14.55-.55v-.48H48.14l0,.46c-.05.52.16.71.79.72h.44V75.65h-.38c-.65,0-.88.16-.88.63a.86.86,0,0,0,.12.52c.07,0,2,0,4.34,0l4.22-.1.47-2.36L57.7,72l1.28,0c1.23,0,1.3,0,1.36.32.29,1.3.56,2.86.56,3.1s-.13.3-.5.34-.51.1-.51.52v.47l3.76,0c3.25,0,3.78,0,3.93-.21.32-.43.08-.83-.55-.88l-.56-.05,0-5.79c0-3.18,0-5.83.09-5.9s1.2,2.57,2.53,5.86c3.26,8.12,2.9,7.35,3.41,7.29l.43,0ZM57.77,70.52c0-.38,1.17-5.67,1.26-5.67a46.24,46.24,0,0,1,1.13,5.67,3.66,3.66,0,0,1-1.22.12A3.13,3.13,0,0,1,57.77,70.52Zm22.44,6.37c1.35-.37,2.37-1.81,2.86-4,.31-1.35.24-1.6-.39-1.6s-.57,0-1,1.5-.94,2.49-1.66,2.72a1.92,1.92,0,0,1-2.46-1.23c-.31-.67-.34-1-.39-4.79-.08-5.77.26-7.89,1.37-8.46,1.46-.75,2.69.3,3.12,2.66.2,1,.32,1.23.75,1.15.26,0,.29-.28.38-2.48,0-1.34,0-2.51,0-2.62-.13-.35-.81-.23-1,.18l-.17.37-.75-.47a2.2,2.2,0,0,0-1.78-.41,2.74,2.74,0,0,0-1.68.53c-1.83,1.29-3.11,4.66-3.11,8.2,0,4.08,1.61,7.75,3.83,8.72A2.91,2.91,0,0,0,80.21,76.89Zm17.64-.22c.35-.42.12-.78-.54-.87l-.61-.07-1.77-8.14c-1-4.48-1.77-8.16-1.77-8.19a1.69,1.69,0,0,0-.47,0c-.54,0-.44-.32-1.48,4.54-.4,1.85-1.13,5.23-1.61,7.51l-.9,4.15-.75.05-.75,0,0-7.41,0-7.41.55-.07c.49-.08.55-.14.55-.55v-.48H83.53v.48c0,.41,0,.47.55.55l.54.07V75.57l-.54.08c-.49.07-.56.14-.6.59l0,.51,3.74,0,3.72,0,0-.43c0-.38,0-.45-.44-.54-.26,0-.47-.13-.47-.19s.17-.87.36-1.82L90.74,72l1.29,0c1.22,0,1.28,0,1.35.32.28,1.32.56,2.86.56,3.11s-.11.3-.38.3A.64.64,0,0,0,93,76c-.21.39-.21.41.08.7S97.56,77,97.85,76.67Zm-7-6.38c0-.2.3-1.5.59-2.9a16.14,16.14,0,0,1,.62-2.54,16,16,0,0,1,.63,2.7c.28,1.48.54,2.78.58,2.89s-.25.2-1.21.2C90.81,70.64,90.77,70.63,90.85,70.29Z"/><path class="cls-1" d="M71.82,29.5c14,.11,28.06,5.34,42.32,15.24l.7.49.07.85c1.36,16.69-1.37,30.86-8.3,42.45s-18.06,20.52-33.5,26.7l-.67.27-.67-.27c-16.72-6.68-27.66-16.25-34.18-28S29,61.64,30,46.33l.05-.8.64-.5C44.12,34.42,57.84,29.39,71.82,29.5m39.54,17.73c-13.42-9.18-26.61-14-39.55-14.12S46.12,37.63,33.54,47.38c-.81,14.31,1.17,27.22,7.21,38.09s16.18,19.8,31.69,26.13c14.33-5.86,24.64-14.19,31.07-24.92S112.5,62.78,111.36,47.23Z"/><rect class="cls-2" width="145" height="145"/></g></g></svg>