<svg xmlns="http://www.w3.org/2000/svg" viewBox="0 0 145 145"><defs><style>.cls-1{fill:#231f20;}.cls-2{fill:none;}</style></defs><g id="Layer_2" data-name="Layer 2"><g id="Layer_1-2" data-name="Layer 1"><path class="cls-1" d="M108.37,77.86h-1.66l-1,3h1.58a4.91,4.91,0,0,0,1.07-.19,1.6,1.6,0,0,0,.76-.48,2.36,2.36,0,0,0,.52-.86,1.35,1.35,0,0,0,0-1.11c-.17-.26-.59-.39-1.28-.39"/><path class="cls-1" d="M84.89,68a3.6,3.6,0,0,0,1.76-.33,3.52,3.52,0,0,0,1.16-1.13A12.28,12.28,0,0,0,89,64c.55-1.61.74-2.7.53-3.28s-.77-.88-1.73-.88H86.9L84,68Z"/><path class="cls-1" d="M52,77.86H50.37l-1,3H51A5,5,0,0,0,52,80.7a1.67,1.67,0,0,0,.77-.48,2.36,2.36,0,0,0,.52-.86,1.35,1.35,0,0,0,0-1.11c-.18-.26-.6-.39-1.29-.39"/><polygon class="cls-1" points="59.32 60.28 56.12 65.71 58.73 65.71 59.32 60.28"/><path class="cls-1" d="M72.51,45.82c-31.07,0-56.42,12-56.42,26.69S41.44,99.19,72.51,99.19s56.41-12,56.41-26.68S103.57,45.82,72.51,45.82M98.06,65.21l1-3.12,10.27-.17-2.06,3.18L97.19,69.9l5.41-4.85Zm-8.18-8.83a4.27,4.27,0,0,1,2.42.55,2.62,2.62,0,0,1,1.06,1.58,6,6,0,0,1,.1,2.43,14,14,0,0,1-.74,2.93A17.56,17.56,0,0,1,91,67.62a10.27,10.27,0,0,1-2,2.22,6,6,0,0,1-2.08,1.21,8.23,8.23,0,0,1-2.32.41H79.14l5.3-15.08Zm-31.15,0h4L61.9,71.46H58.07L58.36,69H54.17l-1.45,2.49H49Zm-15.42,0H47L43,67.74h5.72l-1.3,3.72H38ZM41,83.25l-10.26.18,2-3.17,10.13-4.81L37.5,80.31,42,80.14ZM57.2,79a6.89,6.89,0,0,1-1.14,2.15A6,6,0,0,1,54.4,82.6a5.17,5.17,0,0,1-1.51.59,2.77,2.77,0,0,1,.8.55,2.9,2.9,0,0,1,.35.79,4.69,4.69,0,0,1,.22.93l.4,4.34H50.43l-.53-4.58a2.51,2.51,0,0,0-.31-1.15,1,1,0,0,0-.8-.35h-.34l-2,6.08H42.7l4.87-15h6.27a6.26,6.26,0,0,1,2.54.37,1.87,1.87,0,0,1,1,1.35A4.49,4.49,0,0,1,57.2,79M71.3,82.2a14.56,14.56,0,0,1-2.11,4.31,9.62,9.62,0,0,1-2.92,2.62,7.54,7.54,0,0,1-3.69.93,5.3,5.3,0,0,1-3.14-.8,3.81,3.81,0,0,1-1.35-2.56,9.57,9.57,0,0,1,.58-4.37,12.72,12.72,0,0,1,3.51-5.7,7.8,7.8,0,0,1,5.28-2q3,0,4,2c.66,1.34.61,3.21-.18,5.61m.79-10.74-1.54-8.28-2.9,8.28H64.2l5.3-15.08h3.43l1.53,8.34,2.93-8.34h3.46l-5.3,15.08ZM74.65,89.8l.28-15h3.93L78.08,85.6l6.21-10.75h3.82l-9.39,15Zm22.62-6.33H91.43l-1,2.94H97L95.86,89.8H85.6l4.87-15h10.07L99.5,78H93.2l-.78,2.37h5.85ZM113.55,79a6.67,6.67,0,0,1-1.13,2.15,6,6,0,0,1-1.66,1.46,5.17,5.17,0,0,1-1.51.59,2.77,2.77,0,0,1,.8.55,3.71,3.71,0,0,1,.35.79,5.54,5.54,0,0,1,.22.93L111,89.8h-4.26l-.52-4.58a2.54,2.54,0,0,0-.3-1.15,1,1,0,0,0-.81-.35h-.33l-2,6.08H99.06l4.87-15h6.25a6.3,6.3,0,0,1,2.56.37,1.84,1.84,0,0,1,1,1.35,4.61,4.61,0,0,1-.23,2.42"/><path class="cls-1" d="M66.31,78.08a3,3,0,0,0-2.14,1,8.26,8.26,0,0,0-1.76,3.27A5.63,5.63,0,0,0,62,85.6a1.48,1.48,0,0,0,1.54,1,3.07,3.07,0,0,0,2.2-1,9,9,0,0,0,1.78-3.48,4.93,4.93,0,0,0,.32-3.08,1.52,1.52,0,0,0-1.57-1"/><path class="cls-1" d="M72.51,42.5c-32.81,0-59.58,13.49-59.58,30s26.77,30,59.58,30,59.56-13.47,59.56-30-26.75-30-59.56-30m0,58.26c-32.09,0-58.25-12.69-58.25-28.25S40.42,44.26,72.51,44.26,130.76,57,130.76,72.51s-26.17,28.25-58.25,28.25"/><rect class="cls-2" width="145" height="145"/></g></g></svg>