<svg xmlns="http://www.w3.org/2000/svg" viewBox="0 0 145 145"><defs><style>.cls-1{fill:#231f20;}.cls-2{fill:none;}</style></defs><g id="Layer_2" data-name="Layer 2"><g id="Layer_1-2" data-name="Layer 1"><path class="cls-1" d="M62.6,98.71l.14,1.16h8.94l.65,11,.63-11h8.56l.17-1.14a239.12,239.12,0,0,0,2.54-33.6l7.54-1-7.54-1a238.7,238.7,0,0,0-2.54-33.57l-.17-1.14H72.91l-.64-11-.62,11H62.74l-.16,1.17a287.63,287.63,0,0,0-2.21,33.58l-7.54,1,7.53,1A259.43,259.43,0,0,0,62.6,98.71m16.61-1.49h-6.1l1.75-30.86,6.7-.88a238.82,238.82,0,0,1-2.35,31.74m0-66.09a236.32,236.32,0,0,1,2.35,31.7L74.86,62,73.08,31.13Zm-14.12,0h6.4L69.72,62,63,62.87a282.29,282.29,0,0,1,2.06-31.74m4.64,35.23,1.78,30.86H65.08A253.24,253.24,0,0,1,63,65.5Z"/><path class="cls-1" d="M72.73,117.78a1.75,1.75,0,0,1,1.36.58,4,4,0,0,1,.84,1.68l.33-.11-.47-2.54a.63.63,0,0,1-.25.22.69.69,0,0,1-.35.06,1.53,1.53,0,0,1-.62-.15,2.41,2.41,0,0,0-.75-.13,2.83,2.83,0,0,0-2.5,1.44,8.09,8.09,0,0,0-.06,7.46,2.75,2.75,0,0,0,2.35,1.2,2.17,2.17,0,0,0,1.66-.77,4.1,4.1,0,0,0,1-2l-.32-.18a3.5,3.5,0,0,1-.8,1.77,1.93,1.93,0,0,1-1.45.66,1.81,1.81,0,0,1-1.76-1.22,8.58,8.58,0,0,1-.52-3.34,8,8,0,0,1,.6-3.29,1.92,1.92,0,0,1,1.73-1.34"/><path class="cls-1" d="M56.9,118.77l4,8.61h.28v-9.07a.44.44,0,0,1,.14-.35.48.48,0,0,1,.34-.11h.43v-.36H60v.36h.42a.48.48,0,0,1,.37.11.56.56,0,0,1,.11.35v6.76H60.8l-3.56-7.58H55.57v.36h.36a.57.57,0,0,1,.42.11.46.46,0,0,1,.12.35v8.25a.53.53,0,0,1-.11.36A.49.49,0,0,1,56,127h-.42v.35h2.11V127h-.42a.42.42,0,0,1-.47-.47v-7.79Z"/><path class="cls-1" d="M47.46,127H46.25a.54.54,0,0,1-.35-.11.45.45,0,0,1-.13-.35v-8.26a.43.43,0,0,1,.13-.35.49.49,0,0,1,.35-.11h1.21v-.35H43.24v.35h1.21c.19,0,.31,0,.37.11a.56.56,0,0,1,.1.35v8.26a.58.58,0,0,1-.1.35.48.48,0,0,1-.37.11H43.24v.35h4.22Z"/><path class="cls-1" d="M34.8,125.12l-.26-.1a3.2,3.2,0,0,1-.79,1.53,1.84,1.84,0,0,1-1.26.48H31.05a.47.47,0,0,1-.34-.12.41.41,0,0,1-.13-.34v-8.26a.45.45,0,0,1,.13-.35.51.51,0,0,1,.34-.11h.37v-.35H28.88v.35h.34a.52.52,0,0,1,.39.11.44.44,0,0,1,.12.35v8.26a.48.48,0,0,1-.1.34.46.46,0,0,1-.37.12h-.38v.36h5.45Z"/><path class="cls-1" d="M111.69,127h-.42a.51.51,0,0,1-.34-.11.45.45,0,0,1-.14-.35v-7.8h.1l4,8.61h.29v-9.07a.41.41,0,0,1,.14-.35.47.47,0,0,1,.34-.11h.41v-.35H114v.35h.43a.51.51,0,0,1,.37.11.56.56,0,0,1,.09.35v6.76h-.09l-3.55-7.57h-1.67v.35h.35a.58.58,0,0,1,.41.11.43.43,0,0,1,.13.35v8.26a.52.52,0,0,1-.1.35.56.56,0,0,1-.38.11h-.41v.35h2.1Z"/><path class="cls-1" d="M102.31,125.12l-.26-.1a3.12,3.12,0,0,1-.8,1.53A1.8,1.8,0,0,1,100,127H98.55a.5.5,0,0,1-.33-.12.39.39,0,0,1-.14-.34v-8.26a.42.42,0,0,1,.14-.35.55.55,0,0,1,.33-.11h.38v-.35H96.39v.35h.35a.59.59,0,0,1,.39.11.48.48,0,0,1,.12.35v8.26a.44.44,0,0,1-.12.34.46.46,0,0,1-.37.12h-.38v.36h5.44Z"/><path class="cls-1" d="M85.91,117.38a2.45,2.45,0,0,0-2.14,1.39,8.26,8.26,0,0,0,.06,7.34,2.46,2.46,0,0,0,2.08,1.39A2.51,2.51,0,0,0,88,126.13a7.21,7.21,0,0,0,.84-3.72,7.63,7.63,0,0,0-.79-3.55,2.42,2.42,0,0,0-2.17-1.48m2,5a9.24,9.24,0,0,1-.53,3.67,1.62,1.62,0,0,1-1.43,1.07c-.56,0-1-.38-1.4-1.13a11.74,11.74,0,0,1,0-7.07c.36-.77.83-1.17,1.43-1.17s1.19.43,1.49,1.28a10,10,0,0,1,.47,3.35"/><rect class="cls-2" width="145" height="145"/></g></g></svg>