<svg xmlns="http://www.w3.org/2000/svg" viewBox="0 0 145 145"><defs><style>.cls-1{fill:#231f20;}.cls-2{fill:none;}</style></defs><g id="Layer_2" data-name="Layer 2"><g id="Layer_1-2" data-name="Layer 1"><path class="cls-1" d="M72.5,24.5c-7.71,0-15,5.05-20.35,14.2s-8.28,21-8.28,33.8,2.94,24.77,8.28,33.81S64.79,120.5,72.5,120.5s15-5,20.37-14.19,8.26-21,8.26-33.81S98.2,47.74,92.87,38.7,80.24,24.5,72.5,24.5m0,94.58c-7.18,0-14-4.79-19.13-13.5S45.3,85,45.3,72.5s2.86-24.26,8.07-33.08,11.95-13.5,19.13-13.5,14,4.8,19.14,13.5S99.71,60,99.71,72.5s-2.87,24.26-8.07,33.08-11.93,13.5-19.14,13.5"/><polygon class="cls-1" points="85.86 69.8 85.86 69.32 72.5 69.32 59.16 69.32 59.16 69.8 72.5 69.8 85.86 69.8"/><polygon class="cls-1" points="72.5 72.63 85.86 72.63 85.86 72.14 72.5 72.14 59.15 72.14 59.15 72.63 72.5 72.63"/><polygon class="cls-1" points="87.28 70.61 72.5 70.61 57.72 70.61 57.72 71.11 72.5 71.11 87.28 71.11 87.28 70.61"/><path class="cls-1" d="M84,76.18a2,2,0,0,0,1.9-2.12h1.31v-.6H57.85v.6h1.3a2,2,0,0,0,1.9,2.12c1.29,0,1.78-.82,1.78-2,1.3,0,6,0,6,5.68h7.24c0-5.68,4.75-5.68,6.06-5.68,0,1.19.47,2,1.78,2"/><path class="cls-1" d="M77.51,80.5h-10a.25.25,0,0,0-.25.25v2a.25.25,0,0,0,.25.25h10a.25.25,0,0,0,.25-.25v-2a.25.25,0,0,0-.25-.25"/><path class="cls-1" d="M57.73,67.34v1.48H87.29V67.34H86c0-7,1.3-15.8,6.2-22.28-3.18.72-7.07,4.1-8.65,6.19,1.29-.44,2.45-1.29,3.59-1.72C86,52,82.66,62.05,82.66,67.34H79.5c-3.76-6.32-5.92-9.77-5.92-22.71,2,1.15,2.73,2,4.91,2.44-2.45-2.44-6-7.9-6-13.22,0,5.32-3.53,10.78-6,13.22,2.16-.42,2.88-1.29,4.9-2.44,0,12.94-2.16,16.39-5.92,22.71H62.34c0-5.29-3.32-15.37-4.47-17.81,1.15.43,2.3,1.28,3.61,1.72-1.59-2.09-5.48-5.47-8.65-6.19C57.73,51.54,59,60.3,59,67.34ZM73.87,61c.43,2.44,2,4.31,3,6.32h-3Zm-2.73,0v6.32h-3c1-2,2.6-3.88,3-6.32"/><polygon class="cls-1" points="82.16 97.56 83.63 97.56 82.88 94.72 82.16 97.56"/><path class="cls-1" d="M76.37,88.13V83.79a.25.25,0,0,0-.25-.25H68.88a.26.26,0,0,0-.26.25v4.34H48c3.65,17.39,13.23,29.8,24.47,29.8S93.33,105.52,97,88.13ZM58.11,99.91h-1v-6l-1.64,4.81-1.54-4.81v6h-1V92.23h1.64l1,3.36,1-3.36h1.63Zm4.92,0-.31-1.19H60.56l-.27,1.19H59L61,92.23h1.15l2.18,7.68Zm6.16-1a2.08,2.08,0,0,1-.73.86,2.28,2.28,0,0,1-1.17.28c-.69,0-1.2-.23-2.36-1.1l.79-1c1,.66,1.24.77,1.58.77a1,1,0,0,0,.78-.31,1.1,1.1,0,0,0,.26-.74.92.92,0,0,0-.11-.46.9.9,0,0,0-.38-.33c-.14-.07-.46-.27-.9-.47a7.63,7.63,0,0,1-1.37-1A1.93,1.93,0,0,1,64.86,94a2.77,2.77,0,0,1,.25-1.11,1.68,1.68,0,0,1,.69-.73,2.82,2.82,0,0,1,3.27.79l-.86.9a2.22,2.22,0,0,0-1.1-.65.88.88,0,0,0-.77.2.6.6,0,0,0-.18.47.67.67,0,0,0,.17.47,5,5,0,0,0,1,.82c.54.31,1,.55,1.22.73.59.44.64.72.68.84a2,2,0,0,1,.18,1,2.61,2.61,0,0,1-.27,1.13m4.71,1H70.37V92.23h3.42v1.3H71.46v1.7h2.12v1.28H71.46v2.1H73.9Zm5.1,0H77.9l-.85-1.7c-.22,0-.43,0-.63,0v1.68H75.33V92.23h1.09c1.64,0,3.32.5,3.32,2.83,0,1.8-.77,2.59-1.71,2.93Zm5.3,0L84,98.72H81.82l-.27,1.19H80.21l2.08-7.68h1.17l2.17,7.68Zm5.29-6.38H88v6.38H86.9V93.53H85.32v-1.3h4.27Zm1.24-1.3h1.08v7.68H90.83Z"/><polygon class="cls-1" points="60.9 97.56 62.4 97.56 61.62 94.72 60.9 97.56"/><path class="cls-1" d="M76.42,93.38v3.73c.89,0,2.12-.19,2.12-2,0-1.49-1.08-1.74-2.12-1.74"/><rect class="cls-2" width="145" height="145"/></g></g></svg>