<svg xmlns="http://www.w3.org/2000/svg" viewBox="0 0 145 145"><defs><style>.cls-1{fill:#231f20;}.cls-2{fill:none;}</style></defs><g id="Layer_2" data-name="Layer 2"><g id="Layer_1-2" data-name="Layer 1"><polygon class="cls-1" points="72.45 29.5 59.3 52.3 72.45 74.99 85.7 52.3 72.45 29.5"/><polygon class="cls-1" points="72.45 74.99 85.7 97.71 112.02 97.71 98.87 74.99 72.45 74.99"/><polygon class="cls-1" points="32.98 97.71 59.3 97.71 72.45 74.99 46.15 74.99 32.98 97.71"/><polygon class="cls-1" points="42.72 109.26 40.58 104.28 38.42 104.28 38.42 115.21 40.37 115.21 40.37 108.09 42.72 113.26 45.17 108.09 45.17 115.21 47.13 115.21 47.13 104.28 44.98 104.28 42.72 109.26"/><rect x="48.95" y="104.28" width="1.84" height="10.93"/><polygon class="cls-1" points="51.74 105.95 54.08 105.95 54.08 115.21 56.04 115.21 56.04 105.95 58.39 105.95 58.39 104.28 51.74 104.28 51.74 105.95"/><path class="cls-1" d="M62.69,108.87c-1.55-.78-2.16-1.17-2.16-2s.49-1.08,1.37-1.08a1.58,1.58,0,0,1,1.47,1.77h2c-.1-1.86-1-3.42-3.44-3.42-2.24,0-3.32,1.17-3.32,2.83s1,2.44,2.44,3.31c2.07,1.18,2.55,1.47,2.55,2.14S63,113.74,62,113.74a1.71,1.71,0,0,1-1.66-1.94H58.48c.1,2,1,3.7,3.52,3.7,1.87,0,3.53-1.07,3.53-3.11,0-1.77-1.07-2.54-2.84-3.52"/><path class="cls-1" d="M71.82,111.8c0,1.17-.57,1.85-1.63,1.85a1.66,1.66,0,0,1-1.89-1.85v-7.52h-2v7.52c0,2.92,2.05,3.61,3.84,3.61a3.3,3.3,0,0,0,3.59-3.61v-7.52h-2Z"/><path class="cls-1" d="M80.45,109.46A2.58,2.58,0,0,0,82,107c0-1.76-1.29-2.74-3.33-2.74H75.07v10.93h4a3.07,3.07,0,0,0,3.34-3,2.76,2.76,0,0,0-2-2.72m-1.87,4.09H77V106h1.48c.89,0,1.57.38,1.57,1.36s-.59,1.37-1.57,1.37h-.78v1.75h.78c1.17,0,1.86.4,1.86,1.46s-.69,1.66-1.77,1.66"/><polygon class="cls-1" points="100.71 108.57 96.79 108.57 96.79 104.28 94.74 104.28 94.74 115.21 96.79 115.21 96.79 110.43 100.8 110.43 100.8 115.21 102.75 115.21 102.75 104.28 100.71 104.28 100.71 108.57"/><rect x="83.55" y="104.28" width="1.84" height="10.93"/><rect x="104.69" y="104.28" width="1.84" height="10.93"/><path class="cls-1" d="M90.94,108.77c-1.59-.88-2.16-1.27-2.16-2s.57-1.07,1.35-1.07c1,0,1.48.78,1.58,1.75h1.85c-.1-1.85-1-3.42-3.43-3.42-2.24,0-3.32,1.18-3.32,2.84s1,2.43,2.44,3.23c2.07,1.16,2.54,1.55,2.54,2.23s-.57,1.27-1.55,1.27c-1.18,0-1.67-1.08-1.67-2.05H86.71c.1,2.14,1,3.71,3.53,3.71,1.85,0,3.53-1.08,3.53-3s-1.08-2.54-2.83-3.52"/><rect class="cls-2" width="145" height="145"/></g></g></svg>