<svg xmlns="http://www.w3.org/2000/svg" viewBox="0 0 145 145"><defs><style>.cls-1{fill:#231f20;}.cls-2{fill:none;}</style></defs><g id="Layer_2" data-name="Layer 2"><g id="Layer_1-2" data-name="Layer 1"><path class="cls-1" d="M123.43,56.13H110.55c-1.68,0-3.18-1.42-4-2.63-6.83-11.09-19.89-18-34.1-18-14.73,0-28,7.27-34.68,19l0,.11a2.09,2.09,0,0,1-2.25,1.56h-14a3.44,3.44,0,0,0-3.43,3.43v23A3.43,3.43,0,0,0,21.56,86H33.2a3,3,0,0,1,2.41,1.53c.16.24.42.59.73,1,.54.71,1.21,1.6,1.65,2.29,7.07,11.52,20.36,18.68,34.65,18.68,13.83,0,26.32-6,33.44-16.1.19-.29.44-.64.73-1a38.8,38.8,0,0,0,3.14-5c.63-1.12,1-1.32,1.89-1.32h11.59a3.43,3.43,0,0,0,3.44-3.43v-23a3.44,3.44,0,0,0-3.44-3.43m-87.18,1v-.05a3,3,0,0,0,2.44-2.16C45.21,43.53,58.14,36.47,72.5,36.47c13.86,0,26.62,6.72,33.28,17.54,1,1.49,2.69,3.09,4.77,3.09h12.88a2.39,2.39,0,0,1,1.42.46l-3.2,3a2.07,2.07,0,0,0-1.08-.31H24.41a2,2,0,0,0-1.1.33l-2.6-3.29a2.67,2.67,0,0,1,.85-.16Zm9.3,41.25a22.24,22.24,0,0,1-3.36-3.45c-.85-1-1.71-2.17-2.49-3.26s-1.56-2.22-2.15-3.11c-.69-1.06-1.16-1.83-1.26-2a2.54,2.54,0,0,1-.14-2.79,8.67,8.67,0,0,1,3.54-2.42l6.75,4-.31.51-5.76-3.21c4.46,12.7,17.22,21.87,32.27,21.87a32.9,32.9,0,0,0,31.19-21.33l-5,2.64-.16-.25a1.08,1.08,0,0,0-.12-.24s0,0,0,0l7-4,4.43,3.55c-1.41,3.59-5.39,9.75-10.79,9.11-7.15,7.93-15.4,11.72-26.44,11.72A37.79,37.79,0,0,1,45.16,94.1L41.88,93a23.74,23.74,0,0,0,3.67,5.31v0m52.12-12C93.92,97,82.2,101,72.5,101.17,62.79,101,51.09,97,47.31,86.32a.71.71,0,0,1,0-.55s.08,0,.13,0H97.59c.06,0,.12,0,.13,0s.08.25,0,.55m24-24V78A1.08,1.08,0,0,1,120.57,79H24.41A1.08,1.08,0,0,1,23.33,78V62.28a1.08,1.08,0,0,1,1.08-1.08h96.16a1.08,1.08,0,0,1,1.08,1.08"/><path class="cls-1" d="M47.6,59.48H98.41c1.77,0,1-1.5.61-2.31a9.92,9.92,0,0,1,5,2.35C99.51,45.85,87.16,39.25,72.63,39.25c-14.73,0-26.87,8-31.31,20.62a12.79,12.79,0,0,1,4.78-2.29,1.58,1.58,0,0,0,1.5,1.9m.13-2.73c4.3-11.17,14-15,24.77-15,11.12,0,22.36,3.64,25.91,15,0,0,0,.18,0,.26a2,2,0,0,0,0-.26c.14.69.08,1-.68,1H48.56c-.48,0-1.16-.13-.83-1"/><polygon class="cls-1" points="41.48 73.28 37.36 63.02 31.21 63.02 31.21 76.53 34.97 76.53 34.97 65.82 39.31 76.53 45.26 76.53 45.26 63.02 41.48 63.02 41.48 73.28"/><rect x="48.19" y="63.02" width="4.11" height="13.51"/><polygon class="cls-1" points="87.09 63.02 82.25 76.53 86.14 76.53 86.99 74.09 92.6 74.09 91.58 71.1 88.04 71.1 89.8 66.04 93.51 76.53 97.39 76.53 92.6 63.02 87.09 63.02"/><path class="cls-1" d="M62.54,68.24h-4V66h7.59V63H58.34c-2,0-3.71,1-3.71,3.88,0,1.36.23,4.36,4.56,4.36H63.3v2.19H55v3.08h8.41a4,4,0,0,0,3.87-4.2c0-2.63-1.4-4.09-4.78-4.09"/><polygon class="cls-1" points="109.05 73.28 104.94 63.02 98.8 63.02 98.8 76.53 102.54 76.53 102.54 65.82 106.89 76.53 112.85 76.53 112.85 63.02 109.05 63.02 109.05 73.28"/><path class="cls-1" d="M76.82,68.24h-4V66h7.6V63H72.62c-2,0-3.72,1-3.72,3.88,0,1.36.24,4.36,4.57,4.36H77.6v2.19H69.32v3.08h8.41a4,4,0,0,0,3.89-4.2c0-2.63-1.41-4.09-4.8-4.09"/><rect class="cls-2" width="145" height="145"/></g></g></svg>