<svg xmlns="http://www.w3.org/2000/svg" viewBox="0 0 145 145"><defs><style>.cls-1{fill:#231f20;}.cls-2{fill:none;}</style></defs><g id="Layer_2" data-name="Layer 2"><g id="Layer_1-2" data-name="Layer 1"><path class="cls-1" d="M37.4,56.82c.18,5.64.39,12.4.63,19.16a33.55,33.55,0,0,0,1.26,8.46,51.3,51.3,0,0,0,15.36,23.81,38.54,38.54,0,0,0,15.94,8.87,7.41,7.41,0,0,0,5.75-.42c2.65-1.46,5.36-2.83,7.94-4.41A48.29,48.29,0,0,0,102.57,92a44.48,44.48,0,0,0,4.74-17.11c.22-4.13.22-8.27.24-12.4,0-9.48,0-19,.06-28.43a1.24,1.24,0,0,0-1-1.42c-3.09-.86-6.14-1.87-9.26-2.59a116.35,116.35,0,0,0-22.26-2.52,95.88,95.88,0,0,0-25.86,2.81,61.74,61.74,0,0,0-11.07,3.69,1.12,1.12,0,0,0-.77,1.19c0,6.82,0,13.63,0,21.58m2.13,17.51c-.17-3.85-.37-7.7-.46-11.56-.11-5.06-.1-10.14-.18-15.22a1,1,0,0,1,.67-1.06,65.06,65.06,0,0,1,19-5.82c3.91-.54,7.87-.77,11.8-1.14.21,0,.43,0,.67,0a.35.35,0,0,1,.32.33V55.3a.32.32,0,0,1-.32.33H60.89c-.17,0-.24-.13-.13-.26.45-.45,1.16-.42,1.67-.72a.21.21,0,0,0,0-.38,3,3,0,0,0-3,.43,4.16,4.16,0,0,0-.76.81,1.65,1.65,0,0,1-1.61.84,10.68,10.68,0,0,0-1.55.1.25.25,0,0,1-.28-.3,3.8,3.8,0,0,1,1.36-2c.23-.22.56-.35.79-.55a.75.75,0,0,0,.19-.24.23.23,0,0,0-.12-.37.67.67,0,0,0-.3-.06,4.24,4.24,0,0,0-3,2.14,4.54,4.54,0,0,0-.3.68c-.16.38-.21,1-.49,1.11a10.47,10.47,0,0,1-2.28.66c-.08,0-.35-.32-.35-.48a3.48,3.48,0,0,1,1-2.36c.2-.21.38-.44.6-.7s.07-.29-.11-.3a1.93,1.93,0,0,0-1.82.72,5.23,5.23,0,0,0-1.31,3.18.76.76,0,0,1-.58.82c-.42.15-.82.33-1.23.52s-.7.06-.7-.44a4.68,4.68,0,0,1,.86-2.95,1.53,1.53,0,0,0,.14-.21.21.21,0,0,0-.18-.31,1.41,1.41,0,0,0-1.44.78,6.34,6.34,0,0,0-.71,3.31c0,.68-1.13,1.72-1.79,1.63-.17,0-.32-.2-.45-.34s-.32-.59-.55-.67a1.32,1.32,0,0,0-1.06.06c-.2.19-.17.7-.13,1a1,1,0,0,0,.25.45.3.3,0,0,1-.08.44l-.67.47a.88.88,0,0,0-.27,1.24.86.86,0,0,0,1.18.48,1.49,1.49,0,0,1,1.8.12,1.1,1.1,0,0,0,1.1-.13,1.33,1.33,0,0,0,.09-1.12c-.13-.4-.4-.7.14-1a31.07,31.07,0,0,1,12.78-4c.28,0,.55,0,.83,0l.18,0c.1,0,.19.19.19.37,0,1.78,0,3.56,0,5.33,0,.42-.59.79-.75,1.25-.23.66-.75.42-1.17.48s-1,.09-1.49.15c-.66.1-.74-.21-.66-.79a4,4,0,0,1,1.87-2.91l.18-.14c.1-.08,0-.18-.15-.19A3.24,3.24,0,0,0,54,62.86a5.7,5.7,0,0,0-.59,1.89c-.15,1.15-.1,1.16-1.25,1.45-.42.12-.83.22-1.23.32h-.15c-.09,0-.19-.15-.23-.33a3.9,3.9,0,0,1,1.25-3.63c.13-.13.09-.26-.09-.28a2.17,2.17,0,0,0-1.88,1,3.82,3.82,0,0,0-.55,3.14c.1.51,0,.73-.48.89a13.35,13.35,0,0,0-1.21.57c-.44.24-.69.11-.81-.38a4,4,0,0,1,.53-3.21,3.16,3.16,0,0,1,.18-.27c.1-.15,0-.29-.14-.27a1.82,1.82,0,0,0-1.48.94,3.86,3.86,0,0,0-.45,3c.25,1.19.29,1.29-.65,1.83a.49.49,0,0,1-.53,0l-.69-.6a.83.83,0,0,0-1.21,0,1.27,1.27,0,0,0-.14,1.11c.37.67.3,1-.36,1.44A1,1,0,0,0,41.48,73,1.11,1.11,0,0,0,43,73a4,4,0,0,0,.45-.39c.32-.33.61-.3,1,0s.52.42.77.39a1.6,1.6,0,0,0,1-.45c.14-.2,0-.65-.07-1a1.88,1.88,0,0,0-.4-.55.27.27,0,0,1,.07-.42,28.78,28.78,0,0,1,12.57-4,.3.3,0,0,1,.32.31v8a.34.34,0,0,1-.32.35,4.73,4.73,0,0,1-.53,0H40.62c-1,0-1,0-1.09-1M56.14,105c-.11.46-.22.93-.34,1.42,0,.17-.13.3-.21.29s-.11-.15-.11-.33v-.85a1,1,0,0,1,.21-.57,2.09,2.09,0,0,1,.14-.17c.12-.13.26-.21.31-.17s0,.21,0,.38m15.68.5c-.28.29-.83.49-.55,1a.33.33,0,0,1,0,.44c-.48.35-.44.46.21,1,.13.11.17.2.08.19a.36.36,0,0,0-.16,0c-.22,0-.49-.05-.64.06a.6.6,0,0,0-.17.55,1.38,1.38,0,0,0,.59.36c.14.07.35.06.45.16s-.08.3-.11.44a4.89,4.89,0,0,0,0,.66.65.65,0,0,1-.23.51.53.53,0,0,0-.25.75c0,.07-.1.19-.15.29s-.28.63-.2.71a1.61,1.61,0,0,0,.67.3c.16.07.29.21.28.33s-.13.15-.28.07-.19-.1-.28-.13-.42-.11-.51,0a.84.84,0,0,0-.29.6c0,.16.27.33.46.4a5.41,5.41,0,0,0,.69.19c.18,0,.3.15.26.25s-.19.13-.36.06-.48-.19-.74-.26L68.91,114c-.17,0-.33,0-.34,0s-.08,0-.15-.14a.57.57,0,0,0-.43-.24l-.43,0a.24.24,0,0,1-.22-.32,3,3,0,0,0,.09-.32,1.38,1.38,0,0,0,0-.64c-.06-.14-.37-.3-.48-.25a1.59,1.59,0,0,0-.46.53,1.19,1.19,0,0,0-.11.26.17.17,0,0,1-.3.07,1.5,1.5,0,0,0-.54-.26l-.43-.06a.24.24,0,0,1-.18-.35,11.39,11.39,0,0,0,.64-1.46c0-.09-.06-.21-.16-.34a.38.38,0,0,0-.48-.09.61.61,0,0,0-.28.27c-.16.51-.18,1-.32,1.57,0,0-.12,0-.23.06s-.22-.13-.2-.31a2.15,2.15,0,0,0,0-.93c-.07-.24-1.08-.4-1.66-.35a.51.51,0,0,1-.45-.22.7.7,0,0,0-.95-.25c-.16.07-.25,0-.2-.17a2.75,2.75,0,0,1,.19-.61c.24-.48,0-.68-.41-.83a2,2,0,0,0-.89-.28,2.23,2.23,0,0,0-.75.35c-.16.09-.25,0-.21-.16s.15-.58.23-.89.21-.5.12-.65a.65.65,0,0,0-.59-.24c-.19.09-.28.39-.38.62a1.09,1.09,0,0,0-.1.25c0,.14-.15.25-.23.24s-.14-.17-.13-.35a1,1,0,0,1,.07-.38c.17-.49.29-1,.44-1.47s-.2-.53-.56-.46a.37.37,0,0,1-.43-.13c-.06-.13-.08-.25,0-.27a.3.3,0,0,1,.12,0c.61.09,1.25,0,1.81.44.09.08.31,0,.51-.07a.55.55,0,0,1,.53.12l.19.2a.27.27,0,0,0,.42,0l.44-.59a.42.42,0,0,1,.47-.1c.41.13,1,0,1.48.5a2,2,0,0,0,1.21.4c.17,0,.39-.34.55-.54s.17-.23.26-.33.22-.25.27-.21,0,.21,0,.36-.15.27-.23.42a.38.38,0,0,0,.1.48l.26.21a.2.2,0,0,0,.34-.12c.06-.19.11-.39.15-.56a1,1,0,0,1,.32-.54c.17-.09.32,0,.43.2a.35.35,0,0,0,.43.18l.36-.13a.45.45,0,0,1,.5.15l.19.22a.24.24,0,0,0,.4,0c.1-.14.23-.28.36-.47a.52.52,0,0,1,.44-.22c.14,0,.15.11,0,.2a.94.94,0,0,0-.2.2c-.1.15-.23.41-.18.48a1.61,1.61,0,0,0,.58.35c.19.07.42.08.62.15s.44.28.54.22a1,1,0,0,0,.38-.58c.08-.6.16-.74.61-.58.17.06.27.27.15.4m33.63-29A44.35,44.35,0,0,1,99.06,95.1,46,46,0,0,1,88.4,107.36a70.29,70.29,0,0,1-13.3,8.22c-.18.09-.38.16-.6.25s-.31,0-.31-.2V89.51c0-.18.15-.38.33-.34.49.1,1.06.61,1.42.11a.4.4,0,0,1,.44-.18,2,2,0,0,0,1.13.26c.22,0,.35-.52.53-1a.84.84,0,0,1,.43-.42,16.31,16.31,0,0,0,5.39-3.88,1.27,1.27,0,0,1,.51-.28c4.92-1.77,9.77-1.91,14.4.92.38.23.73.5,1.21.85.15.1.25,0,.24-.14a2.27,2.27,0,0,0-.12-1,8.54,8.54,0,0,0-1.28-1.72c-.45-.48-.48-.77.19-1.08s1.37-.59,2.23-.92c.16-.07.17-.2,0-.3a1.46,1.46,0,0,0-.6-.36,3.25,3.25,0,0,0-3.21.92c-.24.28-.66.66-.92.61a8.13,8.13,0,0,1-1.93-.75.89.89,0,0,1,.11-.64,19.06,19.06,0,0,1,1.63-1.61,1.88,1.88,0,0,1,.51-.36.22.22,0,0,0,0-.38,2.24,2.24,0,0,0-2.55,0,6.25,6.25,0,0,0-1.59,1.73c-.42.74-.84,1.22-1.75,1.12a3.68,3.68,0,0,0-.8,0,.25.25,0,0,1-.27-.3,3.86,3.86,0,0,1,1.93-2.73c.16-.1.15-.23,0-.32a.82.82,0,0,0-.4-.17,3.69,3.69,0,0,0-3.79,2.84c-.41,1.35-.49,1.49-1.83,1.68-.18,0-.26-.07-.18-.24a6.87,6.87,0,0,0,.66-1.37c.36-1.26.62-2.54.87-3.83.07-.42.2-.59.64-.59h16.94c.6,0,.74.25.67.78M39.72,34.91a61.4,61.4,0,0,1,11.91-3.8,96.94,96.94,0,0,1,25.19-2.22,110.2,110.2,0,0,1,24.82,3.55,38.44,38.44,0,0,1,3.86,1.36,1,1,0,0,1,.55.72c.06,3.29,0,6.58,0,9.86a.51.51,0,0,1,0,.2c0,.12-.18.17-.35.1-1.32-.47-2.62-1-3.92-1.4A92.34,92.34,0,0,0,86,39.46l-.64-.09A66.82,66.82,0,0,0,74.2,38.7c-1.28,0-1.28,0-1.28,1.28,0,1.92,0,3.84,0,5.75,0,.71.18.93.92.93,9.75,0,19.5,0,29.26,0h2.48a.32.32,0,0,1,.33.32v.17a.33.33,0,0,1-.33.33H73.83c-1,0-1,0-1,1.09q0,3.46,0,6.93a1.1,1.1,0,0,0,.11.44.24.24,0,0,0,.38.14l.34-.17a1.32,1.32,0,0,1,.51-.16c.62,0,.86-.23.71-.73a.49.49,0,0,1,0-.44,1,1,0,0,1,.17-.14.24.24,0,0,1,.09-.06c.05,0,.17.06.29.2.38.43.75.47.89.06a8.23,8.23,0,0,1,.45-1.32s-.11-.14-.24-.26a.33.33,0,0,0-.46,0,1.54,1.54,0,0,0-.28.35,1.05,1.05,0,0,0-.13.35c0,.18-.15.3-.23.28s-.14-.18-.12-.34,0-.2.07-.29.25-.49.18-.56a2.3,2.3,0,0,0-.69-.43l-.26-.16c-.15-.08-.14-.24,0-.36a.66.66,0,0,0,.19-.89.41.41,0,0,0-.49-.15h0a.22.22,0,0,1-.31-.21c0-.48-.06-1-.06-1.44a.44.44,0,0,1,.27-.31.47.47,0,0,1,.38.1,1.75,1.75,0,0,1,.18.29.22.22,0,0,0,.38.06l.49-.51.19-.19c.09-.11.22-.16.26-.12s0,.15-.06.25a1.13,1.13,0,0,0-.12.21c0,.19-.12.47,0,.59a.67.67,0,0,0,.58.18c.18-.09.29-.35.39-.55a2.72,2.72,0,0,0,.15-.52c0-.18.18-.2.28-.06.32.39.59.63.93.37.14-.1.29-.1.37.06s.33.58.82.35c.05,0,.16.05.23.11.27.27.61.45.89.09a1.06,1.06,0,0,0,.11-.61c0-.17.11-.32.24-.32s.2.14.17.31,0,.21,0,.31A1.68,1.68,0,0,0,81,50a.54.54,0,0,0,.49.16,1.65,1.65,0,0,0,.37-.59c.07-.16.12-.33.17-.48a.19.19,0,0,1,.34-.09c.11.1.21.19.3.29a.32.32,0,0,0,.46,0l.42-.48a.66.66,0,0,1,.53-.19l1.86.33a.24.24,0,0,1,.2.35,1.15,1.15,0,0,0-.11.46,1.34,1.34,0,0,0,.11.51.38.38,0,0,0,.43.22c.13,0,.25-.07.28-.15a13.51,13.51,0,0,0,.42-1.47.36.36,0,0,1,.4-.25c.51,0,1.09-.12,1.63.3.12.1.42,0,.78-.12.16-.05.25,0,.19.22s-.21.53-.3.8c0,.07-.1.17-.09.2a2.92,2.92,0,0,0,.62.6,1.88,1.88,0,0,0,.93.29.52.52,0,0,0,.56-.73c0-.1.1-.24.13-.36s.2-.51.14-.7a.48.48,0,0,0-.79-.23s0,0-.09,0a.19.19,0,0,1-.07-.17c0-.06.15-.09.34-.08a2.36,2.36,0,0,1,1.21.19c.31.2.53.27.72.21s.38-.11.51,0,.38.33.53.31.38-.25.61-.49a.53.53,0,0,1,.46-.17,2.43,2.43,0,0,0,.57.06,3.8,3.8,0,0,1,2,.56c.14.08.49-.16.71-.3a.47.47,0,0,0,.12-.18c0-.1.1,0,.12.13s0,.31.08.47.18.36.36.35c.47,0,.55-.39.55-.88a.2.2,0,0,1,.3-.2l.32.14c.14.06.31.25.37.22.47-.27.76.06,1.12.26.12.07.47-.22.68-.38a.65.65,0,0,0,.17-.16c.08-.1.09,0,0,.14-.2.51,0,.62.75.78.39.09.72.53,1.13.29.16-.08.29-.07.34.1a.21.21,0,0,0,0,.07.65.65,0,0,1-.13.54c-.37.41-.33.52.22,1,.14.11.12.23,0,.27a4.75,4.75,0,0,0-.64.2c-.06,0-.06.44,0,.51a3.3,3.3,0,0,0,.68.27c.18,0,.39.23.3.39-.19.31-.7.68-.19,1.06.14.12.13.17,0,.22-.69.19-.4.9-.59,1.37-.07.17-.06.25.12.25h.24a.31.31,0,0,0,.33-.29c0-.16,0-.3.12-.31s.12.13.13.32,0,.49,0,.77a.33.33,0,0,1-.31.35,3.12,3.12,0,0,1-.52,0c-6,0-12,0-18,0-.66,0-.92.13-.89.86.07,1.94.11,3.89.09,5.82,0,.78.29.94,1,.93,5.8,0,11.6,0,17.4,0h.61a.39.39,0,0,1,.38.31,1.46,1.46,0,0,1,0,.22.29.29,0,0,1-.27.34l-.66,0H87.39c-1.1,0-1.09,0-1.08,1.11,0,2.32,0,4.63.06,7,0,.82,0,.84.79.49.11,0,.28.05.4,0l.46-.2a.28.28,0,0,0,.11-.41,3.72,3.72,0,0,0-.3-.37c-.07-.07-.15-.12-.23-.19s-.06-.15.11-.09c.66.24.68.12.92-.85,0-.07.15-.13.17-.23s.17-.54.06-.68-.29-.17-.54-.25-.32-.19-.32-.31a.82.82,0,0,1,0-.21c0-.26.29-.64.2-.75a1.71,1.71,0,0,0-.62-.3.46.46,0,0,1-.27-.43c0-.26.07-.57.11-.94a.26.26,0,0,1,.33-.24l.29.08c.2,0,.46.16.58.08a.83.83,0,0,0,.33-.57c0-.49.13-.55.43-.46s.19.22.08.36c-.29.31-.45.64-.21,1a.63.63,0,0,0,.21.23,2.44,2.44,0,0,1,.3-.08c.28-.1.45-.29.38-.74,0-.12.07-.26.19-.43a.18.18,0,0,1,.33,0,.79.79,0,0,0,0,.09.7.7,0,0,0,.47.34c.33,0,.45-.14.55-.64a.33.33,0,0,1,.37-.27c.52,0,1.07,0,1.49.33a.94.94,0,0,1,.19.24h.31l.33,0c.18,0,.23.12.12.26a1,1,0,0,0-.19.27.9.9,0,0,0,0,.58.5.5,0,0,0,.46.25.78.78,0,0,0,.49-.39c.13-.41.22-.85.32-1.29a.33.33,0,0,1,.38-.27l2.13.3c.18,0,.32,0,.33,0s.06,0,.14.19l.06.14a2.4,2.4,0,0,0,.2.35.79.79,0,0,0,.39,0h.14c.18,0,.27.06.21.2a1.12,1.12,0,0,0-.11.26,1.35,1.35,0,0,0-.07.7.61.61,0,0,0,.6.17c.17-.1.22-.41.3-.62s.06-.3.11-.44l.12-.4a.31.31,0,0,0-.2-.4l-.42-.13h-.12c-.06,0-.11-.06-.11-.12s.14-.1.32-.08a7.43,7.43,0,0,1,.94.07c.31,0,.62.13.94.16a1.44,1.44,0,0,1,.57.25c.45.42.58.39,1-.17a.74.74,0,0,1,.52-.23c.46,0,1-.16,1.38.09a.37.37,0,0,1,.22.33c0,.07-.17.08-.34,0a5.57,5.57,0,0,1-.81-.29c-.51-.23-.69.05-.81.45a4.68,4.68,0,0,0-.07.54c0,.28-.22.63-.1.82s.33.17.64.24a.27.27,0,0,1,.22.34,1.2,1.2,0,0,0-.09.25c0,.21-.16.47-.08.63a.61.61,0,0,0,.53.24,1.55,1.55,0,0,0,.36-.61,4.65,4.65,0,0,1,.17-.49c.34-.53.21-.83-.41-.91-.11,0-.29,0-.34,0a.76.76,0,0,1-.11-.22c0-.12,0-.23.14-.23a.62.62,0,0,1,.21,0c.24.09.46.2.75.34a.4.4,0,0,1,.19.46,11.78,11.78,0,0,0-.37,1.35.89.89,0,0,0,.06.45.56.56,0,0,1-.13.54c-.16.17-.32.33-.29.46s.24.35.46.53a.72.72,0,0,1,.23.53c0,.65-.08,1.36-.13,2.14a.35.35,0,0,1-.35.32h-.89c-5.65,0-11.28.05-16.93,0-.62,0-.85.2-.87.81-.12,5.69-4.65,10.3-9.63,11.81a11.94,11.94,0,0,1-2.54.57c-.82.06-1,.41-1,1.13,0,4.29,0,8.56,0,12.84v13.36c0,.13,0,.25,0,.39a.22.22,0,0,1-.33.2c-.3-.19-.24-.55-.24-.85,0-2.59-.05-5.17-.06-7.77,0-1,0-2,0-3s-.18-1.15-1.21-1.15h-14c-1.69,0-3.38,0-5.07,0a2,2,0,0,1-.82-.31c-.15-.08-.26-.21-.23-.31s.18-.16.35-.16H71.49c1.06,0,1.07,0,1.07-1.09q0-3.36,0-6.72c0-1,0-1-1-1-8.5,0-17,.09-25.52.13-.92,0-1.09-.07-1.26-.94a.21.21,0,0,1,.26-.25l.47.09c.22,0,.48.16.65.08s.32-.43.26-.51a1.43,1.43,0,0,0-.62-.46c-.44-.14-.88-.26-1.26-.36a.34.34,0,0,1-.25-.39c.06-.31.1-.58.16-.83s0-.32,0-.31,0-.12.11-.27.08-.14.12-.21a.31.31,0,0,0-.13-.43,4.23,4.23,0,0,0-.48-.23,6.51,6.51,0,0,1-1.28-.48c-.34-.23-.18-.39,0-.53a.66.66,0,0,0,.19-.56c-.11-.43-.46-.52-1-.4-.18,0-.25,0-.17-.2l0-.07a.36.36,0,0,1,.45-.17,1.48,1.48,0,0,0,.74.17c.11,0,.19-.25.28-.51a.43.43,0,0,1,.43-.27l.88.11a1,1,0,0,1,.54.27c.31.34.45.3.86-.22.13-.13.19-.1.2.08,0,.54.26.71.87.56.17,0,.26,0,.2.21s-.1.34-.14.5a1.46,1.46,0,0,0-.06.65c0,.12.35.28.47.22a1,1,0,0,0,.4-.48,6.78,6.78,0,0,0,.31-.83c0-.13.09-.34,0-.39a3,3,0,0,0-.6-.34l-.27-.11c-.14,0-.23-.16-.2-.23s.2-.12.37-.09a2.25,2.25,0,0,1,1.19.31c.57.48.85.36,1.07,0,.1-.14.21-.14.26,0a1.31,1.31,0,0,0,.29.55c.07.06.2,0,.34,0a1,1,0,0,1,.6.06l.91.48c.16.08.27.22.25.28s-.17.14-.31.15a.39.39,0,0,1-.26-.06c-.27-.27-.51-.43-.81-.11-.1.12-.16.47-.11.5a1.65,1.65,0,0,0,.52.2,2.83,2.83,0,0,1,.6.21.88.88,0,0,0,.52.19c.37,0,.46-.38.28-.76,0-.06.21-.23.28-.36s.23-.4.18-.53-.31-.26-.5-.37l-.26-.11c-.16,0-.24-.17-.19-.28a.29.29,0,0,1,.39-.06,5.33,5.33,0,0,0,1.6.59c.45,0,.6-.27.51-.61,0-.17,0-.3.19-.3.46,0,.92,0,1.36,0,.05,0,.11.39.09.59s-.25.57-.16.69.48.19.71.29.28.12.28.2a1.07,1.07,0,0,1-.06.36c0,.18-.17.21-.26.07s-.13-.19-.19-.21a1.19,1.19,0,0,0-.67-.11.62.62,0,0,0-.18.55c.1.18.37.25.57.35s.43.15.61.25c.37.24.8.07.73-.23a.88.88,0,0,1,.36-.91.3.3,0,0,0,0-.44,5.32,5.32,0,0,0-.46-.37.55.55,0,0,0-.22-.1.26.26,0,0,1-.11-.35c.06-.15.15-.11.26,0,.36.36,1,.1,1.35.44.13.13.29.24.45.17.36-.16.58-.39.29-.87-.1-.16,0-.27.13-.28s.4,0,.48,0a.74.74,0,0,0,1.18,0c.14-.11.18-.08.11.08a4.49,4.49,0,0,0-.38,1.1c0,.1.12.23.25.37a.38.38,0,0,0,.49,0,2,2,0,0,0,.35-.37.84.84,0,0,0,.08-.27c0-.15.15-.22.31-.14a5.18,5.18,0,0,0,1.69.65,1.27,1.27,0,0,1,.7.25,1.37,1.37,0,0,0,.57.24l.44,0a.61.61,0,0,1,.36.1c0,.05,0,.14-.16.21a.66.66,0,0,0-.17.16,1.5,1.5,0,0,0-.17.52,6,6,0,0,0,1.56.73c.13,0,.35-.29.61-.62a.54.54,0,0,1,.53-.16l1.25.35.42.13.32.07a.22.22,0,0,1,.16.33.83.83,0,0,0-.12.27c0,.22-.07.63,0,.67.75.3.6,1,.76,1.55l.06.17a.42.42,0,0,0,.38.18c.25,0,.34-.24.34-.57,0-1,0-2,0-3,0-.45-.19-.66-.66-.71A14.91,14.91,0,0,1,63.77,85a1.73,1.73,0,0,0-1.07-.31q-10.28,0-20.53.09c-.59,0-1-.12-1-.76a.3.3,0,0,1,.31-.33H61.94c.18,0,.34-.05.36-.11s-.07-.22-.2-.34A9.26,9.26,0,0,1,59.74,78a14.78,14.78,0,0,1-.23-2.66c0-5.94-.07-11.89-.12-17.84,0-1.21,0-1.22,1.19-1.22,3.59,0,7.17,0,10.76,0,.68,0,.88-.21.87-.89-.07-5.28-.1-10.55-.13-15.83,0-.66-.2-.93-.91-.9C61.11,39,51.3,40.64,42,44.53c-.9.36-1.76.77-2.7,1.19a.22.22,0,0,1-.33-.17c0-.1,0-.2,0-.3,0-3,0-6,0-9a1.26,1.26,0,0,1,.84-1.31"/><path class="cls-1" d="M92.52,67.71c.17.05.44.12.62.19s.41.18.55.11c.32-.13.34-.38.24-.65s-.15-.27-.14-.27l-.31,0c-.31,0-.63.11-.82-.3a.63.63,0,0,0-.47.07c-.12.16-.23.57-.18.59a2,2,0,0,0,.51.23"/><path class="cls-1" d="M98.47,67.5h0c-.19,0-.36.08-.38,0a.09.09,0,0,1-.06,0,4,4,0,0,0-.79-.31s-.07.1-.14.21a.31.31,0,0,0,.18.39l.48.25c.11,0,.24.07.36.13a1.91,1.91,0,0,1,.36.13.24.24,0,0,0,.34-.21c0-.1,0-.19,0-.28s0-.35,0-.37-.2,0-.36,0"/><path class="cls-1" d="M60.13,58.08c0,5.84,0,11.69,0,17.53a10.82,10.82,0,0,0,1.45,5.49,13.16,13.16,0,0,0,8.64,6.1,8.34,8.34,0,0,0,3.37.39,17,17,0,0,0,8.58-4.06A9.42,9.42,0,0,0,85.64,76c-.06-6.06,0-12.14,0-18.2,0-.65-.17-.86-.83-.85C80.89,57,77,57,73,57H61.24c-1,0-1.11.09-1.11,1.1m12.7-.25c3.64,0,7.26,0,10.9,0,.72,0,1,.17,1,1,0,5.84,0,11.68,0,17.54a8.81,8.81,0,0,1-3.35,6.57,15.77,15.77,0,0,1-7.8,3.83,4.09,4.09,0,0,1-1.55-.1c-3-.58-5.77-1.52-7.93-3.8a11,11,0,0,1-3-7.5c-.1-5.55,0-11.09,0-16.65,0-.65.2-.85.85-.84,3.66,0,7.31,0,11,0"/><path class="cls-1" d="M97.23,39.87c1.06.34,2.15.59,3.22.91,1.29.39,2.57.8,3.86,1.22a.26.26,0,0,0,.35-.23c.16-1.16.07-1.21-1.12-1.63-1.38-.47-2.79-.91-4.19-1.33-.82-.25-1-.4-.71-1.26a.34.34,0,0,1,.42-.21L104.34,39a.26.26,0,0,0,.35-.23c.1-1,0-1-1-1.41-1.57-.52-3.16-1-4.74-1.47a.48.48,0,0,1-.32-.42v-.5a.23.23,0,0,1,.32-.23l5.38,1.51a.29.29,0,0,0,.37-.23c.23-1,.13-1.12-1-1.48s-2.42-.74-3.63-1.07c-1-.27-2-.49-2.91-.72-.18,0-.34,0-.38,0a.24.24,0,0,0,0,.11c0,2.17,0,4.34,0,6.49,0,.19.32.46.54.53"/><path class="cls-1" d="M40.18,42.63a.27.27,0,0,0,.33.27c1.38-.25,1.54-.49,1.55-1.84a.87.87,0,0,1,.68-.93c1.65-.6,3.29-1.21,5-1.8a1.39,1.39,0,0,0,1.09-1.46c0-.75,0-1.5,0-2.24a1,1,0,0,0-1-1.14,2.75,2.75,0,0,0-1.17.11c-2,.67-4,1.36-6,2.09a.94.94,0,0,0-.42.71c-.05,1.54,0,3.08,0,4.62ZM42.1,37a.48.48,0,0,1,.3-.43c1.33-.45,2.7-.91,4.08-1.33.22-.07.77.14.77.23,0,.42,0,1.1-.23,1.19-1.49.61-3,1.13-4.62,1.68a.21.21,0,0,1-.3-.21Z"/><path class="cls-1" d="M70.55,34.16c1.41,0,2.82.05,4.25.05.47,0,.79.16.78.66s-.44.45-.78.44c-1.19,0-2.4,0-3.58,0-.5,0-1,0-1.49.08a.35.35,0,0,0-.32.34v.71a.32.32,0,0,0,.32.32c1.85,0,3.67,0,5.47,0s2-.68,2-2.16a3.65,3.65,0,0,0-.09-.74A1.06,1.06,0,0,0,76,32.8c-1.47,0-2.93-.1-4.39-.13-.38,0-.86.19-.93-.41s.4-.72.86-.73c.93,0,1.85-.09,2.76-.1h2.13c.17,0,.33-.1.33-.21a1.5,1.5,0,0,1,0-.2c.12-.74-.14-1.05-1-1-1.4,0-2.83-.1-4.24-.08-2.27,0-2.69.06-2.55,2.91,0,1,.49,1.34,1.49,1.33"/><path class="cls-1" d="M50,36.53c0,.59,0,1.18,0,1.77,0,1.07.58,1.47,1.61,1.21,1.68-.42,3.36-.86,5-1.23,1.09-.25,1.51-.65,1.53-1.75,0-1.26,0-2.53,0-3.8,0-1-.57-1.5-1.54-1.32-1.87.33-3.75.75-5.61,1.13a1.28,1.28,0,0,0-1.12,1.37c0,.66,0,1.31,0,2a1.43,1.43,0,0,0,0,.33.63.63,0,0,1,.05.32m2.44-2.74c1.09-.24,2.17-.47,3.27-.66.55-.09.85.17.84.75,0,.4,0,.8,0,1.2,0,1.9.28,1.56-1.62,2.06-.8.21-1.59.4-2.37.62-.6.18-.91,0-.9-.64s0-1.53,0-2.3a1,1,0,0,1,.79-1"/><path class="cls-1" d="M59.85,37.63c1.19.12,1.34-.1,1.36-1.32a.75.75,0,0,0,0-.15c-.05-.51.18-.71.69-.74.78-.05,1.58-.15,2.37-.23,1.36-.16,1.55,0,2,1.26.08.21.3.48.48.51a5.26,5.26,0,0,0,1.09-.05.23.23,0,0,0,.2-.34c-.27-.69-.52-1.34-.79-2a.76.76,0,0,1,0-.59,3.89,3.89,0,0,0,.31-2.23c-.07-1.06-.42-1.5-1.48-1.44-2,.11-4.06.3-6.08.51a.7.7,0,0,0-.48.49c0,2,0,4,0,6a.36.36,0,0,0,.32.36m1.46-5.23a.58.58,0,0,1,.4-.39c1.11-.14,2.21-.22,3.32-.32.53-.05.77.18.8.71s0,1.08-.64,1.15c-1.16.16-2.33.24-3.57.36a.31.31,0,0,1-.33-.31,9.48,9.48,0,0,1,0-1.2"/><path class="cls-1" d="M87.79,37.85l.94.18a.26.26,0,0,0,.32-.27V35.41a.25.25,0,0,1,.32-.25c1.37.31,2.63.59,3.9.9.12,0,.24.34.26.53,0,.65,0,1.29,0,1.94a.68.68,0,0,0,.37.51,4.55,4.55,0,0,0,.9.23.26.26,0,0,0,.32-.26c0-2.18,0-4.28,0-6.39a.56.56,0,0,0-.33-.39,6.31,6.31,0,0,0-1-.18.26.26,0,0,0-.32.27v1.93a.25.25,0,0,1-.31.26c-1.34-.29-2.57-.52-3.81-.81-.15,0-.32-.34-.34-.53,0-.52,0-1.05,0-1.57,0-.17-.16-.44-.3-.48a4.82,4.82,0,0,0-1-.15.28.28,0,0,0-.32.29v6.2a.43.43,0,0,0,.32.39"/><path class="cls-1" d="M79.46,36.93c1,0,1.89.15,2.82.26,1.23.12,2.45.27,3.66.4a.37.37,0,0,0,.39-.28c.19-1,0-1.05-1-1.2-1.5-.2-3-.34-4.51-.54-.2,0-.55-.26-.55-.4,0-1,0-2,0-3.15a.29.29,0,0,1,.32-.29l5.43.42a.29.29,0,0,0,.32-.3V31a.36.36,0,0,0-.32-.35c-2.14-.17-4.21-.35-6.28-.48a1,1,0,0,0-1.14,1.11c0,1.57,0,3.14,0,4.7,0,.63.31.87.91.92"/><path class="cls-1" d="M95.53,50.88c.12,0,.29,0,.44,0l.44.14a.29.29,0,0,0,.4-.19c0-.13.1-.27.15-.44a.29.29,0,0,1,.4-.17,1.42,1.42,0,0,0,.35.11,1.27,1.27,0,0,0,.67,0c.08,0,.17-.34.12-.42a1.38,1.38,0,0,0-.55-.39c-.12-.07-.3,0-.42-.06l-.44-.19a.3.3,0,0,0-.42.16c0,.12-.1.26-.17.42a.93.93,0,0,1-.37.41c-.13.07-.23,0-.24-.18s0-.26,0-.29c.51-.35.45-.65.19-.93a.46.46,0,0,0-.53-.09.59.59,0,0,0-.26.81c0,.09-.17.24-.24.39s-.2.4-.13.48a1.24,1.24,0,0,0,.56.38"/><path class="cls-1" d="M104.52,53c-.17-.05-.34-.14-.52-.19s-.43-.2-.58-.12a.51.51,0,0,0-.23.23c-.1.16-.13.3-.08.35s0,.16-.06.28a.77.77,0,0,0-.12.24,1.61,1.61,0,0,0,0,.69c0,.09.33.24.38.2.36-.29.5,0,.74.19s.56.1.59,0a8.08,8.08,0,0,0,.51-1.53c0-.09-.24-.26-.4-.37s-.14,0-.21,0"/><path class="cls-1" d="M78.06,51.72a.54.54,0,0,0,.5-.18,10.32,10.32,0,0,0,.36-1.23.38.38,0,0,0-.2-.44c-.34-.16-.73-.33-1.12-.47-.14,0-.35.09-.51.18s-.14.19-.11.26c.18.39,0,.62-.3.85a.4.4,0,0,0-.08.25c.48.27,1,.56,1.46.78"/><path class="cls-1" d="M52.77,91.89l-.4-.19c-.13-.07-.3-.14-.34-.24s.07-.27.11-.41a1.67,1.67,0,0,0,.17-.7c0-.09-.47-.26-.53-.19a1.75,1.75,0,0,0-.37.67c0,.11,0,.26-.1.38a4.14,4.14,0,0,1-.13.43.32.32,0,0,0,.22.4l.32.1a.6.6,0,0,1,.37.42c0,.06,0,.14,0,.23s.17.22.31.11a2.66,2.66,0,0,0,.24-.23c.08-.11.15-.23.22-.35a.3.3,0,0,0-.13-.43"/><path class="cls-1" d="M81.5,54.63a4.31,4.31,0,0,0,.11-.49c0-.22.26-.52.19-.61a1.54,1.54,0,0,0-.66-.29,4,4,0,0,0-.41-.11l-.57-.1c-.18,0-.29.08-.25.26a1.77,1.77,0,0,0,0,.2,1.42,1.42,0,0,0,.08.32,3.33,3.33,0,0,0,.34,0h.1a.2.2,0,0,1,.17.31,1.42,1.42,0,0,0-.11.35.76.76,0,0,0,.09.56.52.52,0,0,0,.49.13,1.32,1.32,0,0,0,.39-.56"/><path class="cls-1" d="M85.79,53.4l-.56,0a.25.25,0,0,0-.26.31.22.22,0,0,0,0,.11,1.15,1.15,0,0,0,.1.39.86.86,0,0,0,.4.06h.19c.17,0,.31.09.27.18a.57.57,0,0,1-.09.15,1.79,1.79,0,0,0-.3.72c0,.08.46.33.55.27a2,2,0,0,0,.4-.66,4.31,4.31,0,0,0,.15-.43c.06-.18.22-.44.16-.55s-.36-.25-.57-.35a1.25,1.25,0,0,0-.46-.15"/><path class="cls-1" d="M47.07,90.72c.18.08.34.23.53.3a.66.66,0,0,0,.52,0,.7.7,0,0,0,.21-.55c0-.16-.28-.3-.46-.38s-.51-.08-.73-.2c-.42-.23-.8-.1-.77.37s0,.51-.27.72a.67.67,0,0,0,0,.67c.1.12.43.07.65,0a.55.55,0,0,0,.19-.12c.07-.09.15-.16.13-.15L47,91.13a.45.45,0,0,1,0-.36c.06,0,.1-.07.13,0"/><path class="cls-1" d="M103.25,72.24s0,.05,0,.07a5.94,5.94,0,0,0-.17.7,1,1,0,0,0,0,.6.61.61,0,0,0,.47.22,1.29,1.29,0,0,0,.39-.55,1.46,1.46,0,0,0,.08-.46c0-.17.15-.21.28-.07.35.39.63.64,1,.13a.74.74,0,0,0-.08-.6,9.72,9.72,0,0,0-1.58-.43c-.09,0-.24.25-.36.39"/><path class="cls-1" d="M63.4,88.29l.17,0a.19.19,0,0,1,.15.21.33.33,0,0,1-.07.18c-.47.36-.29.62.06,1a.25.25,0,0,0,.41-.05c.1-.18.21-.35.28-.5a4,4,0,0,0,.17-.62c0-.2.16-.44.09-.58s-.35-.2-.54-.27a3,3,0,0,0-.57-.16,2.36,2.36,0,0,0-.75,0,.59.59,0,0,0-.1.43,4.24,4.24,0,0,0,.7.37"/><path class="cls-1" d="M90.69,69.65a1.48,1.48,0,0,0,.33-.54,2.1,2.1,0,0,0,.06-.24c0-.13.12-.19.26-.12a1.59,1.59,0,0,0,.27.12c.19,0,.45.13.58,0a.59.59,0,0,0,.21-.55c0-.15-.34-.41-.44-.38-.48.19-.68-.08-.88-.35a.28.28,0,0,0-.44,0,.73.73,0,0,0-.21.35,1.62,1.62,0,0,1-.32,1.08c-.07.09.09.41.21.59s.3.07.37,0"/><path class="cls-1" d="M82.33,51.77a2.53,2.53,0,0,0,.51.14c.21,0,.45.15.63.08s.27-.44.2-.5a1.6,1.6,0,0,0-.62-.37,1.67,1.67,0,0,0-.3-.07c-.19,0-.21-.14-.08-.27.35-.32.62-.58.14-1-.11-.08-.54,0-.57,0a7,7,0,0,0-.45,1.55c0,.08.33.26.54.36"/><path class="cls-1" d="M100.56,51.24a2.41,2.41,0,0,0,.6.16,1.8,1.8,0,0,0,.68.06c.1,0,.24-.41.17-.48a1.62,1.62,0,0,0-.61-.4,1.44,1.44,0,0,0-.44-.08c-.17,0-.22-.13-.08-.24s.18-.14.2-.21a2.91,2.91,0,0,0,.12-.39.35.35,0,0,0-.24-.41.43.43,0,0,0-.35,0c-.15.09-.17.41-.26.63s-.12.32-.18.47-.23.4-.17.49a1.39,1.39,0,0,0,.56.41"/><path class="cls-1" d="M90.83,54.6a.4.4,0,0,0,.21.07,1.92,1.92,0,0,0,.75-.07s.06-.5,0-.54a6,6,0,0,0-1.4-.55c-.14,0-.52.34-.49.45.12.42-.08.64-.32.93,0,.08,0,.27.13.46s.2.3.28.3.22-.12.3-.28.16-.31.24-.46,0-.14.07-.21a.16.16,0,0,1,.25-.1"/><path class="cls-1" d="M99.76,52.64c-.06,0-.22.07-.34.07s-.26-.07-.39-.09-.56-.26-.73-.17a.38.38,0,0,0-.15.6c.07.16.29.35.46.28s.4-.21.52,0,0,.4-.11.53c-.34.39-.34.65,0,.81.15.05.47,0,.51-.06a8.13,8.13,0,0,0,.56-1.49c0-.11-.18-.32-.32-.43"/><path class="cls-1" d="M100.08,71.36l.44.19c.15.07.28.18.44.24s.4.17.52.1a1.12,1.12,0,0,0,.38-.49,2.37,2.37,0,0,0,.17-.66,1,1,0,0,0,0-.65.56.56,0,0,0-.55-.11c-.14.1-.2.36-.27.57a1.64,1.64,0,0,0-.1.37c0,.18-.16.22-.28.07s-.24-.26-.36-.41a.2.2,0,0,0-.36,0c-.06.12-.12.22-.17.33a.29.29,0,0,0,.14.41"/><path class="cls-1" d="M94.78,52.45a1,1,0,0,0-.24-.16,2.9,2.9,0,0,0-.73-.19,1.05,1.05,0,0,0-.61,0c-.11,0-.22.34-.16.42s.3.37.47.36c.66,0,.92,0,.35.68-.1.1,0,.49.15.64a.65.65,0,0,0,.58-.06,9,9,0,0,0,.34-1.21.48.48,0,0,0-.15-.49"/><path class="cls-1" d="M60.24,90.13c0-.18.14-.24.29-.14a.62.62,0,0,0,.31.14,1.06,1.06,0,0,0,.38-.07.33.33,0,0,0,.22-.41c0-.17-.09-.33-.13-.33-.46,0-.81-.34-1.16-.38-.85-.1-.35.81-.64,1.22-.1.15-.2.3-.12.46a.66.66,0,0,0,.25.27c.34.15.57-.15.6-.76"/><path class="cls-1" d="M65.62,90.83l-.32-.2a.22.22,0,0,1,0-.38c.11-.09.19-.16.2-.24a.7.7,0,0,0,0-.32.34.34,0,0,0-.37-.28c-.17,0-.32,0-.37.12a3.6,3.6,0,0,0-.45,1.21c0,.15.3.52.4.5a.65.65,0,0,1,.75.33.56.56,0,0,0,.49.27.42.42,0,0,0,.34-.53c0-.19-.42-.33-.64-.48"/><path class="cls-1" d="M86.74,53.09a2.7,2.7,0,0,1,.4.14c.08,0,.19,0,.25,0,.75.42.75.42,1-.45a.56.56,0,0,1,.07-.13c.41-.73.47-.82-.16-1-.16,0-.41,0-.42.2s.11.6-.08.79a.3.3,0,0,1-.35.07.22.22,0,0,0-.07-.07L87,52.48a.33.33,0,0,0-.43.16s0,0,0,0a.34.34,0,0,0,.18.43"/><path class="cls-1" d="M76.73,56.11h.08a.43.43,0,0,0,.42-.28,1.89,1.89,0,0,1,.06-.18c0-.18.2-.24.33-.16a1.05,1.05,0,0,0,.26.13c.19,0,.47.1.6,0a.65.65,0,0,0,.16-.55,2,2,0,0,0-.49-.24c-.17-.08-.32-.09-.34,0s-.14,0-.27-.14c-.39-.33-.75-.34-.87,0a8,8,0,0,0-.21,1.08.31.31,0,0,0,.27.35"/><path class="cls-1" d="M90.68,72.72a1,1,0,0,0-.5.13c-.09.09-.08.32-.11.47l-.09.37c0,.17,0,.45.22.44s.34-.23.49-.42a.25.25,0,0,1,.39,0,.49.49,0,0,0,.17.18.68.68,0,0,0,.52.12.66.66,0,0,0,.32-.45c0-1-1.16-.18-1.41-.86"/><path class="cls-1" d="M101.93,69.36a1.93,1.93,0,0,0,.35.35,1.75,1.75,0,0,0,.66.19.9.9,0,0,0,.53.06.57.57,0,0,0,.23-.19.46.46,0,0,0,0-.49c-.08-.11-.14-.2-.22-.23a4,4,0,0,0-1.21-.32c-.11,0-.21.06-.31.17a.32.32,0,0,0,0,.46"/><path class="cls-1" d="M59.19,91.13a2.14,2.14,0,0,0-.76-.2c-.2,0-.47-.1-.59,0a.63.63,0,0,0-.14.57c.07.15.33.23.52.31s.44.15.66.24a1.85,1.85,0,0,1,.2.1c.1.07.28,0,.4-.13a.68.68,0,0,0,.23-.38c0-.19-.31-.4-.52-.51"/><path class="cls-1" d="M54,90.79a2.38,2.38,0,0,0-.54-.14,1.82,1.82,0,0,0-.72-.08c-.08,0-.2.41-.13.54a.74.74,0,0,0,.29.29c.14.1.31.13.36.06s.18,0,.28.06a.52.52,0,0,0,.21.13,1.08,1.08,0,0,0,.64,0c.13,0,.26-.38.21-.44a1.72,1.72,0,0,0-.6-.45"/><path class="cls-1" d="M102.59,54.94a3.42,3.42,0,0,0-.54-.18c-.21,0-.46-.16-.64-.09a.59.59,0,0,0-.23.53,1.18,1.18,0,0,0,.26.29c.15.1.31.14.36.08s.19,0,.33.06a.84.84,0,0,0,.27.13.92.92,0,0,0,.67,0,.58.58,0,0,0,.1-.57c-.1-.15-.37-.2-.58-.27"/><path class="cls-1" d="M59,89.34c.17-.09.28-.36.37-.56s-.05-.39,0-.45a.53.53,0,0,0,.16-.85.42.42,0,0,0-.49-.15l-.16.06a.57.57,0,0,0-.33.45c0,.22-.05.44-.08.66s-.11.47,0,.63a.59.59,0,0,0,.54.21"/><path class="cls-1" d="M92.11,70.71a1,1,0,0,0,0,.65.57.57,0,0,0,.55.17c.16-.09.25-.35.35-.56a3.53,3.53,0,0,0,.16-.58c0-.21.14-.47.06-.64a.47.47,0,0,0-.81.06c-.1.15-.14.3-.07.34s0,.18-.07.31a1.57,1.57,0,0,0-.14.25"/><path class="cls-1" d="M96.72,69c.08.17.35.26.55.36a3.66,3.66,0,0,0,.58.22c.17.06.38.17.5.11a.87.87,0,0,0,.31-.3.32.32,0,0,0-.07-.44l-.42-.26a2.54,2.54,0,0,0-.66-.21c-.2,0-.46-.12-.59,0a.6.6,0,0,0-.2.55"/><path class="cls-1" d="M84.73,54.21a.65.65,0,0,1-.68-.2c-.13-.11-.47,0-.66,0s-.16.4-.09.49a1.27,1.27,0,0,0,.58.32c.13,0,.28,0,.42,0s.52.33.69.26c.33-.12.34-.36.28-.62a1.13,1.13,0,0,0-.18-.37s-.19,0-.36.05"/><path class="cls-1" d="M103,52a3.71,3.71,0,0,0,.14-.39.36.36,0,0,0-.21-.43.47.47,0,0,0-.35-.06c-.16.09-.22.41-.31.64a2,2,0,0,0-.07.37c0,.16-.06.33-.08.5a.34.34,0,0,0,.27.38c.15,0,.27,0,.31,0a.87.87,0,0,0,.17-.43c0-.17,0-.33,0-.35s0-.06,0-.11.09-.06.1-.1"/><path class="cls-1" d="M57.37,90.72a.65.65,0,0,0-.37-.2.38.38,0,0,0-.43.22c0,.12-.09.24-.14.37s-.09.3-.11.45,0,.29-.07.43a.34.34,0,0,0,.24.38c.12,0,.23,0,.27,0A1,1,0,0,0,57,92c.06-.17.08-.32,0-.35s0-.09,0-.13a.43.43,0,0,0,.1-.09c.1-.23.3-.55.22-.69"/><path class="cls-1" d="M86.92,52c.16.1.54-.09.8-.19a.27.27,0,0,0,.13-.13c.07-.07,0-.16-.17-.29s-.07-.26.16-.48A1,1,0,0,0,88,50.2a.63.63,0,0,0-.49-.15,1.78,1.78,0,0,0-.37.63c-.09.14,0,.39-.15.47-.36.29-.34.64,0,.85"/><path class="cls-1" d="M48.86,88.63c.17-.08.4-.42.36-.52-.17-.34,0-.45.19-.66a.76.76,0,0,0,.05-.65.53.53,0,0,0-.51-.14.69.69,0,0,0-.24.24c-.11.14-.15.29-.11.35s0,.17-.07.3a1.08,1.08,0,0,0-.2.89.57.57,0,0,0,.53.19"/><path class="cls-1" d="M55.77,90.12c-.19,0-.55.25-.53.36a1.09,1.09,0,0,1-.31,1c0,.07.12.46.27.57s.5,0,.55-.12a10.71,10.71,0,0,0,.34-1.21.59.59,0,0,0-.1-.51.33.33,0,0,0-.22-.11"/><path class="cls-1" d="M97.4,72.21a.54.54,0,0,0-.5.05.64.64,0,0,0-.16.56c.05.15.3.25.49.32a2.84,2.84,0,0,0,.51,0l.48.12a.25.25,0,0,0,.32-.25c0-.09,0-.18,0-.26a1.45,1.45,0,0,1,0-.32l-.31,0c-.31,0-.63.09-.87-.29"/><path class="cls-1" d="M102,50.51a1.73,1.73,0,0,0,.79.27,1.45,1.45,0,0,0,.45-.07.38.38,0,0,0,.24-.42c0-.17-.07-.32-.16-.36a5.71,5.71,0,0,0-1.14-.29.61.61,0,0,0-.49.1.33.33,0,0,0-.12.21,1,1,0,0,0,.43.56"/><path class="cls-1" d="M100.35,54.29c-.17.09-.27.34-.37.54a4.5,4.5,0,0,0-.21.58c0,.18-.16.38-.11.52s.15.15.33.26a.29.29,0,0,0,.41-.14,4.18,4.18,0,0,0,.2-.45,4.41,4.41,0,0,0,.23-.56c0-.19.14-.45.06-.58a.55.55,0,0,0-.54-.17"/><path class="cls-1" d="M78.77,52.42a1.7,1.7,0,0,0,0,.7c0,.1.43.22.47.18a2.52,2.52,0,0,0,.32-.66c.06-.13.11-.27.18-.39a2.52,2.52,0,0,1,.18-.27.34.34,0,0,0-.06-.45.87.87,0,0,0-.44-.25c-.15,0-.35.33-.46.54a1.7,1.7,0,0,0-.14.6"/><path class="cls-1" d="M84.26,49.75a.34.34,0,0,0,.14,0,.19.19,0,0,1,.23.07s.07.09.11.11c.2.09.44.23.61.18s.31-.42.25-.52a1.45,1.45,0,0,0-.59-.41,1.75,1.75,0,0,0-.53-.19,1.45,1.45,0,0,0-.72,0,.64.64,0,0,0-.09.55c.11.14.38.16.59.2"/><path class="cls-1" d="M76.89,52.49a.5.5,0,0,0,.19-.21.33.33,0,0,0-.08-.44,2.07,2.07,0,0,0-.4-.28,2.53,2.53,0,0,0-.83-.2.87.87,0,0,0-.58.08.58.58,0,0,0-.08.5.94.94,0,0,0,.5.34,3.35,3.35,0,0,0,.74.2,1.1,1.1,0,0,0,.54,0"/><path class="cls-1" d="M54,89a11.48,11.48,0,0,0,.62-1.66s-.12-.15-.27-.26a.37.37,0,0,0-.48,0c-.14.15-.26.28-.23.34.17.41,0,.62-.25.89a.53.53,0,0,0,0,.52A.87.87,0,0,0,54,89"/><path class="cls-1" d="M49.81,90.09a5.77,5.77,0,0,0-.09-.6,1.24,1.24,0,0,1,0-.3l-.32.06a.72.72,0,0,1-.76-.28c0-.07-.37,0-.51,0a.81.81,0,0,0-.21.42c.49.28,1,.55,1.49.78a.8.8,0,0,0,.45-.13"/><path class="cls-1" d="M69.31,89.43a.56.56,0,0,0-.33-.14,1.06,1.06,0,0,0-.53.46,2,2,0,0,0-.25.67c0,.19-.11.44,0,.57a.59.59,0,0,0,.53.25c.16-.09.25-.36.34-.56s.1-.36.18-.52a2.09,2.09,0,0,1,.17-.28.33.33,0,0,0-.09-.45"/><path class="cls-1" d="M100.64,70.33a1.18,1.18,0,0,0,.51-.46,2.65,2.65,0,0,0,.28-.79c0-.17,0-.45-.06-.52a.93.93,0,0,0-.32-.13.35.35,0,0,0-.39.25c0,.07,0,.12,0,.18a.66.66,0,0,0,0,.39s0,.09-.09.14a.39.39,0,0,0-.14.1c-.09.18-.22.4-.18.56a.59.59,0,0,0,.46.28"/><path class="cls-1" d="M100,72.74a.37.37,0,0,0,.35-.33c0-.4-.19-.64-.76-.57a.43.43,0,0,1-.35-.13c-.27-.31-.53-.34-.81,0s-.22.44-.06.61a1.17,1.17,0,0,0,.23.21.9.9,0,0,1,.28-.07c.14,0,.26,0,.28,0,.22.39.53.36.84.33"/><path class="cls-1" d="M92.3,72a.61.61,0,0,0-.52.07c-.08.06-.16.14-.15.18a1.35,1.35,0,0,0,.52.61,1.49,1.49,0,0,0,.71.23,1.87,1.87,0,0,0,.4,0,.37.37,0,0,0,.28-.39c0-.14,0-.27-.09-.29A7.07,7.07,0,0,0,92.3,72"/><path class="cls-1" d="M98.33,53.64a.33.33,0,0,0-.37-.29c-.25,0-.5.11-.71-.22,0-.07-.38,0-.52,0a.45.45,0,0,0-.18.42A1,1,0,0,0,97,54c.16.07.42,0,.54.05s.51.55.78.16a.88.88,0,0,0,0-.58"/><path class="cls-1" d="M91.9,53.65a2.94,2.94,0,0,0,.9.28c.21,0,.54,0,.62-.19a.67.67,0,0,0-.16-.61,7.07,7.07,0,0,0-1.17-.36.54.54,0,0,0-.49.11.39.39,0,0,0-.12.25.88.88,0,0,0,.42.52"/><path class="cls-1" d="M97.15,71.1a.75.75,0,0,0,0,.59.56.56,0,0,0,.53.2c.15,0,.26-.3.35-.48a2.34,2.34,0,0,0,.16-.59,2,2,0,0,0,0-.74c0-.09-.34-.22-.39-.18a1.18,1.18,0,0,0-.29.3c-.11.15-.16.3-.1.34s0,.19-.11.31a2.07,2.07,0,0,0-.15.25"/><path class="cls-1" d="M95.55,69.91h.22a1.2,1.2,0,0,1,.3,0,1.6,1.6,0,0,1,.13.27c0,.16,0,.33,0,.37s-.09.06-.1.1a1.73,1.73,0,0,0-.1.7c0,.11.42.26.45.22a2,2,0,0,0,.35-.63c.06-.12,0-.31.07-.39.26-.28.49-.62.09-.86-.13-.07-.35,0-.57.12a1.09,1.09,0,0,1-.29.1l.07-.3c.06-.26.13-.52.19-.8a1.08,1.08,0,0,0,0-.59c-.07-.12-.41-.24-.49-.17a1.11,1.11,0,0,0-.37.56c0,.13,0,.3,0,.44s-.1.38-.15.57a.22.22,0,0,0,.23.3"/><path class="cls-1" d="M84,53.66c.11.06.28,0,.37-.18s.17-.3.24-.46.13-.39.21-.59.2-.42.15-.49a.82.82,0,0,0-.56-.28c-.71.06-.31.82-.53,1.19-.1.16-.22.3-.17.45a2.56,2.56,0,0,0,.11.24c0,.05.08.07.18.12"/><path class="cls-1" d="M97.62,54.56A4,4,0,0,1,97,54.4c-.19,0-.44-.15-.56-.07a.58.58,0,0,0-.2.53c.08.17.33.27.53.36s.39,0,.45.06a.52.52,0,0,0,.78.22.44.44,0,0,0,.23-.47.54.54,0,0,0-.59-.47"/><path class="cls-1" d="M95.38,71.91c0-.08-.06-.22-.21-.33s-.23-.12-.3-.09c-.44.13-.69-.08-1-.28a.43.43,0,0,0-.32,0,.39.39,0,0,0-.24.44.44.44,0,0,0,.14.29,3.92,3.92,0,0,0,1.27.45.61.61,0,0,0,.36-.17,1.57,1.57,0,0,0,.32-.35"/><path class="cls-1" d="M89.76,70.79c.07.09.53,0,.59-.1s0-.62-.06-.66a6.31,6.31,0,0,0-1.17-.33.6.6,0,0,0-.5.1c-.07.08-.14.18-.12.22.07.23.39.57.48.54a.61.61,0,0,1,.78.23"/><path class="cls-1" d="M79,53.7c-.09-.12-.44-.12-.61-.06a.51.51,0,0,0-.2.46,1.26,1.26,0,0,0,.54.42c.13.06.38-.07.45,0,.26.28.56.53.84.14a.75.75,0,0,0,0-.52,3,3,0,0,0,0-.34,2.2,2.2,0,0,0-.33.08A.49.49,0,0,1,79,53.7"/><path class="cls-1" d="M94.38,70.07a.7.7,0,0,0-.41,0,.36.36,0,0,0-.31.37c0,.16,0,.32.09.35a7,7,0,0,0,1.16.34.58.58,0,0,0,.52-.13c.08-.08.15-.17.13-.23-.08-.22-.5-.54-.56-.5-.34.26-.41-.09-.62-.19"/><path class="cls-1" d="M93.54,51.37c.09.16.16.31.21.3a1.26,1.26,0,0,1,1.07.34c.07.07.28,0,.52-.17a.23.23,0,0,0,.09-.38c-.16-.2-.27-.35-.35-.33a1.32,1.32,0,0,1-1-.31c-.07,0-.21,0-.36.11a.34.34,0,0,0-.15.44"/><path class="cls-1" d="M99.74,52.19c.13.13.24.23.33.22a.79.79,0,0,1,.92.32.55.55,0,0,0,.49-.08.83.83,0,0,0,.1-.58,12.71,12.71,0,0,0-1.6-.64c-.06,0-.16.11-.28.27a.38.38,0,0,0,0,.49"/><path class="cls-1" d="M50,91a.85.85,0,0,0-.07.57c.09.15.42.28.53.21s.28-.35.38-.55a2.91,2.91,0,0,0,.12-.51c0-.22.19-.48.13-.65s-.42-.3-.54-.23a.6.6,0,0,0-.25.27c-.1.16-.13.32-.07.36s0,.18-.08.29A1.2,1.2,0,0,0,50,91"/><path class="cls-1" d="M83.83,51a.52.52,0,0,1,.66.22.56.56,0,0,0,.52.1.54.54,0,0,0,.24-.22.37.37,0,0,0-.06-.47c-.14-.14-.27-.26-.33-.24-.38.2-.56-.07-.81-.22a1,1,0,0,0-.67,0c-.07,0-.15.34-.09.43s.41.44.54.4"/><path class="cls-1" d="M70.57,89.9a.84.84,0,0,0-.61-.26c-.09,0-.15.13-.22.25s-.1.31,0,.35,0,.16,0,.29a.55.55,0,0,0-.12.24,1.11,1.11,0,0,0-.07.64c0,.11.4.26.46.21a1.92,1.92,0,0,0,.4-.64,2.45,2.45,0,0,0,.18-.54c.05-.18.17-.46.08-.54"/><path class="cls-1" d="M80.39,52.48a5,5,0,0,0,1,.31.81.81,0,0,1,.4.21c0,.07.15,0,.25-.15s.14-.22.11-.29a1.43,1.43,0,0,0-.54-.58,1.34,1.34,0,0,0-.65-.25,1.93,1.93,0,0,0-.48,0,.31.31,0,0,0-.26.37c0,.16.07.31.15.36"/><path class="cls-1" d="M95.71,54.05a.64.64,0,0,0-.33-.12c-.17,0-.38.24-.47.42a2.57,2.57,0,0,0-.24.83c0,.18,0,.47.08.57s.52.1.57,0c.19-.36.34-.76.53-1.22a.44.44,0,0,0-.14-.49"/><path class="cls-1" d="M46.48,89a.22.22,0,0,0,0-.38c-.3-.25-.47-.43-.54-.4-.41.22-.59,0-.84-.25a.59.59,0,0,0-.57.1c-.11.12-.11.52,0,.57a6.81,6.81,0,0,0,1.46.57c.13,0,.29-.08.48-.21"/><path class="cls-1" d="M54.56,89.17a.63.63,0,0,0,.22.24c.15.1.31.13.34.08s.18,0,.32.09a1,1,0,0,0,.91.18.54.54,0,0,0,.16-.49A1.41,1.41,0,0,0,56,88.9a3.22,3.22,0,0,0-.58-.18,1.3,1.3,0,0,0-.67,0,.53.53,0,0,0-.16.5"/><path class="cls-1" d="M54.77,89.7a5.54,5.54,0,0,0-.93-.26.78.78,0,0,1-.46-.27c-.08-.11-.21-.07-.28.09a1.14,1.14,0,0,0-.13.46c0,.17.31.5.39.48a.86.86,0,0,1,.9.28c.08.09.49-.06.64-.2s0-.53-.13-.58"/><path class="cls-1" d="M61.08,90.66a3.12,3.12,0,0,0-.39-.33c-.1,0-.23,0-.29.21a1.79,1.79,0,0,1-.13.32,7.94,7.94,0,0,0-.28,1c0,.19,0,.53.17.6a.82.82,0,0,0,.6-.13,3,3,0,0,1,.48-1.35s-.05-.15-.16-.27"/><path class="cls-1" d="M88.37,50.71a.56.56,0,0,0,.14.48,5.61,5.61,0,0,0,1.35.49c.1,0,.23-.07.37-.19a.33.33,0,0,0,.06-.45c-.12-.16-.22-.29-.29-.28a1.44,1.44,0,0,1-1-.33c-.13-.06-.44.13-.6.28"/><path class="cls-1" d="M103,70.26a.22.22,0,0,0-.38,0c-.15.21-.27.36-.23.46.13.34,0,.49-.2.74,0,.07,0,.24,0,.43a.35.35,0,0,0,.4.24c.15,0,.27,0,.29-.11a5.66,5.66,0,0,1,.43-1.32c0-.07-.14-.25-.36-.47"/><path class="cls-1" d="M49.67,89.19a1.8,1.8,0,0,1,.31,0c.29,0,.57-.05.77.31a.55.55,0,0,0,.49,0,.75.75,0,0,0,.22-.54c0-.13-.26-.26-.43-.31a3.83,3.83,0,0,0-.6,0l-.5-.07a.26.26,0,0,0-.3.28l0,.15c0,.18,0,.32,0,.32"/><path class="cls-1" d="M61.16,88.63c.09.17.35.27.57.37s.4.11.59.19a1.29,1.29,0,0,1,.23.12.31.31,0,0,0,.41-.12c.1-.11.18-.22.16-.32s-.26-.37-.45-.47a3.53,3.53,0,0,0-.72-.22c-.19,0-.45-.17-.57-.09a.64.64,0,0,0-.22.54"/><path class="cls-1" d="M44.11,86.35a.36.36,0,0,0-.39.25,3,3,0,0,0-.09.38.18.18,0,0,0,0,.14c0,.07-.08.22-.22.32l-.1.06a.25.25,0,0,0,0,.4,1.89,1.89,0,0,1,.2.2.24.24,0,0,0,.39-.06l.24-.46a2.11,2.11,0,0,0,.21-.46,1.12,1.12,0,0,0,0-.65c0-.06-.15-.09-.26-.12"/><path class="cls-1" d="M45.91,89.58c-.16-.09-.56-.12-.59,0a7.92,7.92,0,0,0-.55,1.5c0,.08.13.21.31.39a.22.22,0,0,0,.37-.07c.22-.46.42-.85.57-1.26,0-.14,0-.45-.11-.51"/><path class="cls-1" d="M64.05,91.56a2.16,2.16,0,0,0-.57-.28c-.19,0-.46-.09-.59,0s-.19.49-.12.54a1.86,1.86,0,0,0,.49.24c.17.06.33.07.35,0s.06,0,.1,0,0,.06.08.07a1.75,1.75,0,0,0,.67.24c.08,0,.28-.41.25-.43a4.41,4.41,0,0,0-.66-.43"/><path class="cls-1" d="M45.27,87.48c.16.07.32.09.35,0s.1,0,.16.13.09.17.16.19a.76.76,0,0,0,.59,0,.91.91,0,0,0,.22-.52,11.18,11.18,0,0,0-1.39-.68.45.45,0,0,0-.4.09,1.16,1.16,0,0,0-.19.48,4.66,4.66,0,0,0,.5.25"/><path class="cls-1" d="M92.39,52.38a1.35,1.35,0,0,0,.4-.55,3,3,0,0,0,.2-.57c.05-.18.15-.39.09-.54s-.13-.17-.27-.27a.28.28,0,0,0-.42.09c-.08.16-.15.29-.21.43s-.12.37-.18.55-.18.46-.12.63a.61.61,0,0,0,.51.23"/><path class="cls-1" d="M97,51.91c-.09.18-.23.48-.15.57a.75.75,0,0,0,.6.23c.15,0,.28-.29.35-.48a3.58,3.58,0,0,0,.2-.68,1,1,0,0,0,0-.59.51.51,0,0,0-.49-.15.72.72,0,0,0-.23.23c-.09.14-.14.3-.08.36s0,.17-.07.28a.69.69,0,0,0-.16.23"/><path class="cls-1" d="M91.87,69.46a.34.34,0,0,0-.45-.09.85.85,0,0,0-.3.26,2.08,2.08,0,0,0-.29.89A1.33,1.33,0,0,0,91,71a.64.64,0,0,0,.29.36.4.4,0,0,0,.37-.21.47.47,0,0,0,.1-.3,1.41,1.41,0,0,1,.28-1c0-.06,0-.2-.13-.35"/><path class="cls-1" d="M67.56,90a3.59,3.59,0,0,0-1.1-.38.56.56,0,0,0-.48.21c-.09.11-.06.47,0,.51.36.18.74.31,1.18.48a.54.54,0,0,0,.5-.06.51.51,0,0,0,.14-.23.65.65,0,0,0-.26-.53"/><path class="cls-1" d="M88.76,53.74a.82.82,0,0,0,.22.18.37.37,0,0,0,.47-.09c.11-.13.2-.25.18-.32-.15-.38,0-.57.25-.82.09-.09.05-.39,0-.52a.44.44,0,0,0-.43-.17c-.15.06-.38.29-.35.39a.8.8,0,0,1-.31.88.59.59,0,0,0,0,.47"/><path class="cls-1" d="M47.09,91.71c0,.1,0,.2,0,.31a1.37,1.37,0,0,1-.22.58,1.25,1.25,0,0,0-.12.17c-.11.13-.05.25.12.25h.45a.39.39,0,0,0,.38-.32c0-.16.06-.28.1-.42s.27-.52.2-.67a.52.52,0,0,0-.58-.32.85.85,0,0,0-.28.11,1.84,1.84,0,0,1,0,.31"/><path class="cls-1" d="M88.85,74.06h.07a.65.65,0,0,0,.49-.3,2,2,0,0,0,.27-.58,1,1,0,0,0,0-.38.34.34,0,0,0-.38-.29c-.2,0-.4,0-.44.11a5.75,5.75,0,0,0-.26,1.14.25.25,0,0,0,.26.31"/><path class="cls-1" d="M83.43,56.06a2.9,2.9,0,0,0,.66,0c.18,0,.34,0,.36.06s.15,0,.29-.11a.25.25,0,0,0,0-.4.78.78,0,0,0-.26-.17,3,3,0,0,0-.78-.25,1.24,1.24,0,0,0-.61,0,.43.43,0,0,0-.15.41.82.82,0,0,0,.48.4"/><path class="cls-1" d="M51.17,92.55l-.28-.08c-.16-.06-.31-.06-.32,0s-.09,0-.16-.11a.55.55,0,0,0-.17-.14.43.43,0,0,0-.73.39c0,.16.19.43.31.43.42,0,.86,0,1.29,0,.18,0,.33-.09.35-.19s-.12-.19-.29-.24"/><path class="cls-1" d="M94.16,72.78c-.14,0-.25.31-.3.5a2.1,2.1,0,0,0-.07.63c0,.18.11.25.25.14a4.68,4.68,0,0,0,.71-.53.63.63,0,0,0,0-.59.77.77,0,0,0-.64-.15"/><path class="cls-1" d="M81.82,56.14a4.35,4.35,0,0,0,.67-.53.65.65,0,0,0,.1-.58.62.62,0,0,0-.55-.21.81.81,0,0,0-.34.48,3.21,3.21,0,0,0-.1.7c0,.18.08.23.22.14"/><path class="cls-1" d="M89.54,55.85a12.19,12.19,0,0,0-1.15-.42s-.13.08-.22.19a.31.31,0,0,0,0,.41c.07.06.14.13.22.13a8.2,8.2,0,0,0,1.11,0c.19,0,.34,0,.35-.11s-.12-.15-.29-.22"/><path class="cls-1" d="M104.33,51.2c.13,0,.27-.12.46-.29a.24.24,0,0,0,0-.4c-.2-.17-.36-.32-.46-.29a.84.84,0,0,0-.36.3.36.36,0,0,0,0,.48.54.54,0,0,0,.33.2"/><path class="cls-1" d="M91.13,55.13a.67.67,0,0,0-.33.21.33.33,0,0,0,0,.47.7.7,0,0,0,.35.3c.1,0,.25-.14.41-.33a.28.28,0,0,0,0-.43c-.15-.13-.27-.24-.38-.22"/><path class="cls-1" d="M94.49,50.34c.11-.08.21-.17.21-.25a1.53,1.53,0,0,0-.28-.56.24.24,0,0,0-.4,0c-.17.19-.32.33-.29.42a1,1,0,0,0,.28.38.37.37,0,0,0,.48,0"/><path class="cls-1" d="M61.8,90.86c-.16.09-.25.4-.3.63a.3.3,0,0,0,.1.19.45.45,0,0,0,.4.14.38.38,0,0,0,.26-.08.83.83,0,0,0,.13-.69.61.61,0,0,0-.59-.19"/><path class="cls-1" d="M99.64,70c.18-.22.31-.37.28-.5s-.29-.5-.47-.51-.52.29-.52.45.16.33.33.56a.22.22,0,0,0,.38,0"/><path class="cls-1" d="M55.88,87.08c.17-.17.31-.29.29-.37a1,1,0,0,0-.28-.41.32.32,0,0,0-.45,0,.66.66,0,0,0-.25.34c0,.12.12.26.27.44a.28.28,0,0,0,.42,0"/><path class="cls-1" d="M92.74,54.25a.26.26,0,0,0-.4,0c-.14.18-.25.33-.22.42a.76.76,0,0,0,.26.31.41.41,0,0,0,.5,0c.11-.11.22-.22.21-.32s-.16-.27-.35-.43"/><path class="cls-1" d="M93.36,69.3c.18-.21.33-.36.31-.49a.68.68,0,0,0-.53-.46c-.16,0-.45.3-.47.48s.12.27.29.47a.24.24,0,0,0,.4,0"/><path class="cls-1" d="M79.59,55.13a.26.26,0,0,0-.41,0c-.15.2-.27.36-.25.47a.65.65,0,0,0,.26.32.41.41,0,0,0,.49,0,.73.73,0,0,0,.23-.36c0-.12-.14-.26-.32-.43"/><path class="cls-1" d="M63.58,90c-.21,0-.49.32-.49.5s.31.48.49.48.25-.14.42-.3a.29.29,0,0,0,0-.43c-.17-.15-.3-.26-.4-.25"/><path class="cls-1" d="M95.42,73c-.18.2-.29.34-.27.43a.89.89,0,0,0,.26.39.32.32,0,0,0,.46,0c.1-.08.2-.17.19-.25a1.41,1.41,0,0,0-.28-.57.2.2,0,0,0-.36,0"/><path class="cls-1" d="M90.58,72.21a.68.68,0,0,0,.34.26c.11,0,.26-.12.42-.28a.29.29,0,0,0,0-.43c-.17-.18-.29-.32-.36-.3a1.08,1.08,0,0,0-.4.28.35.35,0,0,0,0,.47"/><path class="cls-1" d="M70.66,91.2c-.19.19-.35.33-.31.43s.17.25.31.36a.38.38,0,0,0,.48,0,.47.47,0,0,0,.23-.33c0-.12-.12-.26-.28-.43a.29.29,0,0,0-.43,0"/><path class="cls-1" d="M104.16,71.57c.14,0,.28-.12.46-.28a.25.25,0,0,0,0-.4c-.21-.18-.37-.33-.53-.33s-.44.35-.44.56.32.44.51.45"/><path class="cls-1" d="M85.71,53a.7.7,0,0,0,.48-.48c0-.14-.15-.27-.32-.45a.28.28,0,0,0-.42,0c-.16.19-.29.34-.27.46a.7.7,0,0,0,.53.45"/><path class="cls-1" d="M77,53.67a.89.89,0,0,0,.51.5c.11,0,.24-.11.41-.27a.25.25,0,0,0,0-.4,1.1,1.1,0,0,0-.49-.27c-.14,0-.46.36-.42.44"/><path class="cls-1" d="M90.55,53.29a.26.26,0,0,0,.41,0c.15-.2.28-.36.26-.5s-.36-.37-.58-.39-.44.32-.41.45a1.12,1.12,0,0,0,.32.47"/><path class="cls-1" d="M75.58,56.12a.71.71,0,0,0,.47-.51c0-.15-.18-.31-.37-.51a.25.25,0,0,0-.4,0c-.14.23-.26.38-.22.5a.73.73,0,0,0,.52.49"/><path class="cls-1" d="M99.09,55a3.36,3.36,0,0,0-.79.32s0,0,0,0,.1.11.23.22a3.52,3.52,0,0,0,.5.36.84.84,0,0,0,.36-.44c0-.17-.21-.51-.27-.49"/><path class="cls-1" d="M93,50.14c.13,0,.28-.11.47-.27a.23.23,0,0,0,0-.39c-.19-.17-.35-.31-.49-.31s-.22.11-.32.24a.38.38,0,0,0,0,.49.58.58,0,0,0,.32.24"/><path class="cls-1" d="M88.34,54.68c0,.21.29.51.47.53s.28-.13.47-.3a.24.24,0,0,0,0-.39,1,1,0,0,0-.49-.28c-.15,0-.47.34-.45.44"/><path class="cls-1" d="M75.94,51c.12,0,.25-.13.43-.31a.31.31,0,0,0,0-.43c-.16-.14-.29-.26-.36-.23a1,1,0,0,0-.39.3.33.33,0,0,0,0,.45c.12.12.23.22.35.22"/><path class="cls-1" d="M99.55,50.72a.76.76,0,0,0,.09-.63.49.49,0,0,0-.17-.23.34.34,0,0,0-.44,0,.72.72,0,0,0-.19.25.79.79,0,0,0,.19.61c.07.09.44.06.52,0"/><path class="cls-1" d="M89.28,69.21a.29.29,0,0,0,.36-.24c0-.16,0-.31,0-.45a.26.26,0,0,0-.09-.16,1.31,1.31,0,0,1-.11-.12l-.21.05c-.08,0-.17,0-.19.08-.11.21-.26.54-.17.66a.52.52,0,0,0,.37.18"/><path class="cls-1" d="M85.77,51.56a.35.35,0,0,0,.47,0,.94.94,0,0,0,.25-.36c0-.08-.1-.21-.25-.39a.26.26,0,0,0-.41,0c-.17.18-.3.32-.29.44a.5.5,0,0,0,.23.32"/><path class="cls-1" d="M67.24,91.33a.39.39,0,0,0-.49,0c-.1.1-.19.18-.2.28s.1.29.24.5a.23.23,0,0,0,.38,0c.18-.21.32-.35.31-.49s-.1-.21-.24-.31"/><path class="cls-1" d="M75.07,49.84a.4.4,0,0,0-.49-.12c-.41.23-.46.41-.2.82a.36.36,0,0,0,.47.11c.43-.25.48-.43.22-.81"/><path class="cls-1" d="M91.29,51.93a.59.59,0,0,0,.26-.29c0-.13-.08-.29-.23-.51a.24.24,0,0,0-.39,0c-.2.19-.35.33-.35.46s.11.23.23.35a.38.38,0,0,0,.48,0"/><path class="cls-1" d="M99.08,71.2c.14,0,.29-.13.5-.29a.22.22,0,0,0,0-.38,1,1,0,0,0-.51-.26c-.15,0-.47.32-.45.44s.3.49.48.49"/><path class="cls-1" d="M82.9,53.31c.13,0,.29-.13.5-.3a.22.22,0,0,0,0-.38,1.25,1.25,0,0,0-.53-.27c-.17,0-.47.33-.43.45a.7.7,0,0,0,.47.5"/><path class="cls-1" d="M102.19,72.55c-.15,0-.44.25-.42.32a2.33,2.33,0,0,0,.21.49c.09.16.21.28.28.28s.18-.14.26-.29a2.07,2.07,0,0,0,.2-.52.85.85,0,0,0-.53-.28"/><path class="cls-1" d="M99.44,73.07a.67.67,0,0,0-.31.25.41.41,0,0,0,0,.49c.11.11.21.21.3.2s.28-.16.44-.33a.24.24,0,0,0,0-.4c-.19-.13-.33-.24-.43-.21"/><path class="cls-1" d="M88.57,68.33a1.33,1.33,0,0,0-.51-.35c-.07,0-.17.1-.26.21a.38.38,0,0,0,0,.48,1.22,1.22,0,0,0,.35.3c.08,0,.22-.09.42-.23a.25.25,0,0,0,0-.41"/><path class="cls-1" d="M100.78,54a1.31,1.31,0,0,0,.52-.32.25.25,0,0,0,0-.41c-.18-.15-.32-.28-.4-.25a.91.91,0,0,0-.36.29.35.35,0,0,0,0,.48c.1.13.18.22.26.21"/><path class="cls-1" d="M50.33,87.93c.1,0,.24-.08.44-.22a.23.23,0,0,0,0-.39c-.19-.16-.33-.3-.47-.3s-.19.09-.29.18a.33.33,0,0,0,0,.46,1,1,0,0,0,.33.27"/><path class="cls-1" d="M95.32,53.12a1,1,0,0,0,.28.38.34.34,0,0,0,.46,0,.58.58,0,0,0,.23-.37c0-.12-.13-.25-.3-.41a.29.29,0,0,0-.44,0c-.14.16-.26.3-.23.39"/><path class="cls-1" d="M47.27,89.55c.1,0,.23,0,.37-.13s.23-.24.19-.33a1.35,1.35,0,0,0-.34-.35.76.76,0,0,0-.37-.15c-.08,0-.17.08-.26.19a.36.36,0,0,0,0,.48.75.75,0,0,0,.38.29"/><path class="cls-1" d="M101,72.35a1.48,1.48,0,0,0-.42.07.41.41,0,0,0-.17.13.21.21,0,0,0,0,.3.22.22,0,0,0,.17.1,1.36,1.36,0,0,0,.45,0,.3.3,0,0,0,.3-.33.32.32,0,0,0-.35-.26"/><path class="cls-1" d="M83,54c0-.12-.12-.24-.26-.37a.25.25,0,0,0-.41,0l-.14.18a.35.35,0,0,0,.05.46.9.9,0,0,0,.36.19c.13,0,.4-.31.4-.47"/><path class="cls-1" d="M94.25,69.65a.25.25,0,0,0,.4-.05c.13-.22.24-.38.21-.51a.79.79,0,0,0-.59-.38c-.12,0-.4.36-.37.5a1.26,1.26,0,0,0,.35.44"/><path class="cls-1" d="M96.09,52.4a.77.77,0,0,0,.54-.46c0-.12-.12-.26-.28-.46a.25.25,0,0,0-.41,0c-.16.2-.3.34-.3.49s.32.45.45.43"/><path class="cls-1" d="M81.12,51.36c.18-.21.33-.35.32-.48s-.32-.41-.52-.45-.45.28-.45.43.11.29.26.48a.24.24,0,0,0,.39,0"/><path class="cls-1" d="M88.14,49.74c.16-.2.27-.35.26-.49s-.1-.17-.21-.26a.38.38,0,0,0-.48,0,.65.65,0,0,0-.22.34c0,.09.1.22.26.4a.24.24,0,0,0,.39,0"/><path class="cls-1" d="M79.73,51a.76.76,0,0,0,.5-.49c0-.09-.1-.22-.25-.4a.27.27,0,0,0-.42,0c-.15.17-.28.3-.29.44s.33.47.46.45"/><path class="cls-1" d="M103.94,55.28a.57.57,0,0,0-.32.23.31.31,0,0,0,0,.46.73.73,0,0,0,.29.17.88.88,0,0,0,.46-.19.2.2,0,0,0,0-.35c-.21-.19-.35-.33-.49-.32"/><path class="cls-1" d="M52,89.82a.27.27,0,0,0,.42,0c.13-.16.24-.3.22-.39a1,1,0,0,0-.25-.32.35.35,0,0,0-.47,0,.7.7,0,0,0-.2.35c0,.09.12.21.28.34"/><path class="cls-1" d="M87.59,53.89a.67.67,0,0,0-.32.27.38.38,0,0,0,0,.48.74.74,0,0,0,.34.21c.09,0,.2-.11.34-.27a.32.32,0,0,0,0-.45c-.16-.15-.29-.27-.38-.24"/><path class="cls-1" d="M99,52.1c.12,0,.24-.12.4-.28a.28.28,0,0,0,0-.42c-.18-.17-.31-.3-.37-.27a1.1,1.1,0,0,0-.5.56c0,.08.31.42.48.41"/><path class="cls-1" d="M90.16,71.63a1.21,1.21,0,0,0-.31-.45.27.27,0,0,0-.42,0c-.14.17-.24.3-.23.39a.79.79,0,0,0,.49.49c.14,0,.49-.31.47-.44"/><path class="cls-1" d="M78.27,52.24c-.17-.16-.31-.28-.39-.25a.78.78,0,0,0-.49.51c0,.13.3.46.45.45s.27-.13.44-.29a.27.27,0,0,0,0-.42"/><path class="cls-1" d="M87,55.16c-.16.2-.27.35-.23.44a.72.72,0,0,0,.28.33.34.34,0,0,0,.46,0,.51.51,0,0,0,.19-.31,1,1,0,0,0-.31-.45.24.24,0,0,0-.39,0"/><path class="cls-1" d="M101.34,68.1c.12,0,.27-.1.47-.25a.25.25,0,0,0,0-.4c-.16-.16-.28-.28-.39-.28a.76.76,0,0,0-.35.19.35.35,0,0,0-.06.47c.1.13.2.25.32.27"/><path class="cls-1" d="M89.12,50.15a.84.84,0,0,0,.45-.3.26.26,0,0,0,0-.41c-.16-.16-.29-.28-.38-.26a.79.79,0,0,0-.51.51c0,.12.29.47.44.46"/><path class="cls-1" d="M93.65,54.67a1,1,0,0,0-.24.49.64.64,0,0,0,.51.38c.18,0,.48-.3.46-.45s-.15-.27-.33-.45a.25.25,0,0,0-.4,0"/><path class="cls-1" d="M55.32,88.13l.12,0a.26.26,0,0,0,.24-.34,1.17,1.17,0,0,1-.07-.25.39.39,0,0,0-.35-.29.34.34,0,0,0-.25.35,2.18,2.18,0,0,1,0,.25.29.29,0,0,0,.32.3"/><path class="cls-1" d="M96.3,67.75a1,1,0,0,0,.44-.32.27.27,0,0,0,0-.42c-.17-.13-.31-.23-.4-.21a.76.76,0,0,0-.47.52c0,.12.32.45.46.43"/><path class="cls-1" d="M65.44,89c.09,0,.45-.19.45-.26a3,3,0,0,0-.27-.74s0,0,0,0-.13.08-.28.2a1,1,0,0,0-.31.34c0,.07.24.39.43.49"/><path class="cls-1" d="M61.94,92.07a.55.55,0,0,0-.55-.15c-.26.13-.28.38-.22.71a.22.22,0,0,0,.34.17c.17-.07.34-.17.51-.25a.21.21,0,0,0,0-.37.43.43,0,0,0-.12-.11"/><path class="cls-1" d="M48.7,91.74a.71.71,0,0,0-.48.51.7.7,0,0,0,.1.4c.07.16.21.24.31.18a1.89,1.89,0,0,0,.41-.36c.09-.11.17-.21.15-.28s-.35-.48-.49-.45"/><path class="cls-1" d="M61,87.28c.1-.08.18-.16.18-.23a1.32,1.32,0,0,0-.24-.52.23.23,0,0,0-.38,0c-.16.19-.29.32-.26.42a.76.76,0,0,0,.22.34.41.41,0,0,0,.48,0"/><path class="cls-1" d="M58.28,90.5a.3.3,0,0,0,.44,0c.16-.18.29-.32.28-.43a.72.72,0,0,0-.55-.43c-.15,0-.4.31-.43.51s.11.21.26.36"/><path class="cls-1" d="M62.66,89.77l-.14-.13a.28.28,0,0,0-.42,0,.88.88,0,0,0-.24.44c0,.15.37.43.49.39a.74.74,0,0,0,.33-.26.35.35,0,0,0,0-.48"/><path class="cls-1" d="M95.94,71.87a.74.74,0,0,0-.48.48c0,.09.13.21.29.37a.3.3,0,0,0,.43,0,.78.78,0,0,0,.24-.44c0-.13-.34-.41-.48-.38"/><path class="cls-1" d="M104,52.39c.11,0,.23-.1.38-.24a.29.29,0,0,0,0-.43c-.16-.14-.28-.27-.37-.24a.77.77,0,0,0-.46.5c0,.11.29.41.45.41"/><path class="cls-1" d="M102.6,68.38c.17,0,.44-.28.49-.49s-.1-.2-.24-.34a.33.33,0,0,0-.46,0c-.17.15-.31.27-.29.35s.32.48.5.49"/><path class="cls-1" d="M60.41,88.59c.08,0,.21-.07.38-.2a.26.26,0,0,0,0-.41c-.14-.15-.26-.28-.37-.28a.45.45,0,0,0-.28.16.35.35,0,0,0-.06.47.78.78,0,0,0,.29.26"/><path class="cls-1" d="M54,92.3a.32.32,0,0,0-.46,0l-.2.18c-.12.12-.19.29-.12.4s.24.11.4,0l.32-.17a.24.24,0,0,0,.07-.4h0"/><path class="cls-1" d="M49.32,90.55a.27.27,0,0,0-.42,0c-.14.15-.24.27-.24.4a.57.57,0,0,0,.16.29.37.37,0,0,0,.48,0,.64.64,0,0,0,.24-.31c0-.09-.08-.22-.22-.39"/><path class="cls-1" d="M101.59,53.87c0,.1.11.23.28.41a.23.23,0,0,0,.39,0,.92.92,0,0,0,.24-.47c0-.12-.33-.42-.4-.39a.91.91,0,0,0-.51.49"/><path class="cls-1" d="M68.24,91.57a.49.49,0,0,0-.27.2.36.36,0,0,0,0,.48.61.61,0,0,0,.29.21c.11,0,.24-.11.4-.24a.26.26,0,0,0,0-.41c-.17-.14-.29-.25-.42-.24"/><path class="cls-1" d="M57.47,90.17c.15-.16.27-.27.23-.33a1.05,1.05,0,0,0-.47-.53c-.06,0-.44.25-.42.36a1.19,1.19,0,0,0,.27.48.24.24,0,0,0,.39,0"/><path class="cls-1" d="M58,92.34c-.2-.13-.33-.23-.46-.23a.38.38,0,0,0-.25.16.33.33,0,0,0,0,.42c.07.09.14.16.22.16a1,1,0,0,0,.48-.18c.16-.1.17-.23,0-.33"/><path class="cls-1" d="M96.45,55.66a1.12,1.12,0,0,0-.44-.17c-.05,0-.13.09-.2.2a.22.22,0,0,0,.13.35l.32.1c.17,0,.35,0,.39-.11s0-.27-.2-.37"/><path class="cls-1" d="M97.17,73.59a1.08,1.08,0,0,0-.47-.2c-.07,0-.16.17-.28.36s0,.29.16.29H97a.45.45,0,0,0,.38-.14c0-.08-.06-.22-.22-.31"/><path class="cls-1" d="M100.73,73.39a.78.78,0,0,0-.4.19c-.15.11-.23.26-.19.32s.2.13.37.13H101c.18,0,.23-.11.11-.25s-.29-.39-.42-.39"/><path class="cls-1" d="M92.31,55.48a.61.61,0,0,0-.34.17c-.14.12-.23.27-.2.32s.19.11.38.11h.29a.57.57,0,0,0,.38-.09c0-.06-.08-.2-.2-.33a.51.51,0,0,0-.31-.18"/><path class="cls-1" d="M80.72,55.49a.7.7,0,0,0-.39.13c-.16.09-.26.24-.24.32a.43.43,0,0,0,.38.17l.29,0c.18,0,.34,0,.38-.08s0-.19-.15-.34-.17-.22-.27-.22"/><path class="cls-1" d="M92.77,73.38c-.1,0-.22.17-.41.39s-.06.24.12.24H93a.59.59,0,0,0,.38-.09s0-.19-.19-.31a.74.74,0,0,0-.37-.23"/><path class="cls-1" d="M104.77,73.62a4.16,4.16,0,0,0-.5-.16s-.1.09-.15.18,0,.25.18.31l.31.1c.17.06.35,0,.39-.1s-.06-.26-.23-.33"/><path class="cls-1" d="M65.36,92.07l-.1.11a.2.2,0,0,0,.06.36c.15.06.28.11.37.06.38-.19.23-.36.07-.52a.25.25,0,0,0-.4,0"/><path class="cls-1" d="M41.5,54.6a3.68,3.68,0,0,0,1-.35.67.67,0,0,1,.57.07c.49.37,1,.79,1.69.26s.18-1.12-.13-1.78a.35.35,0,0,1,.17-.44c6.81-3.18,13.69-5.52,21.36-3.2.16,0,.24,0,.16-.19a1.38,1.38,0,0,0-.44-.55,21,21,0,0,0-2.12-1.2c-.45-.21-.5-.42-.29-.79A2.54,2.54,0,0,1,65.73,45h.67c.17,0,.33-.05.34-.12s-.12-.18-.28-.24a2.76,2.76,0,0,0-.76-.23,3.53,3.53,0,0,0-3.63,1.7c-.17.28-.42.71-.65.73-1,.07-1.91,0-2.93,0a.25.25,0,0,1-.26-.31,6.7,6.7,0,0,1,3-3.8c.14-.11.12-.23-.06-.25a2,2,0,0,0-.69,0,5.28,5.28,0,0,0-3.94,3.78c-.08.24-.21.57-.39.62-1,.3-2.1.54-3.22.81a.24.24,0,0,1-.32-.24,4.65,4.65,0,0,1,2-3.89c.14-.11.12-.21-.06-.22a2.58,2.58,0,0,0-1.19.13A3.33,3.33,0,0,0,51.26,46a12.18,12.18,0,0,0-.23,1.7c0,.47-.24.64-.64.77-.94.31-1.9.61-2.81,1-.55.22-.74,0-.78-.47a3.65,3.65,0,0,1,.81-2.72c.36-.42.74-.83,1.21-1.37.12-.12.07-.24-.1-.24A3.29,3.29,0,0,0,46,46.2a4.89,4.89,0,0,0-.7,3.85c0,.2,0,.52-.17.61a3.27,3.27,0,0,1-1.31.64c-.24,0-.52-.49-.85-.61a1.55,1.55,0,0,0-1.13-.1c-.28.12-.61.69-.52.91a1.06,1.06,0,0,1-.6,1.49.8.8,0,0,0-.16,1.24,1.14,1.14,0,0,0,.91.37"/><path class="cls-1" d="M94,89.15a3.26,3.26,0,0,0-1.16,1,1.62,1.62,0,0,1-1.9.78l-.8-.13c-.47,0-.54-.3-.4-.66a4.49,4.49,0,0,1,1.68-2.4,1.74,1.74,0,0,0,.27-.22.17.17,0,0,0-.06-.32,2.22,2.22,0,0,0-2.35,1c-.45.64-.73,1.4-1.12,2.08-.13.25-.31.61-.52.66a10.06,10.06,0,0,1-1.53.16.36.36,0,0,1-.39-.29,4.59,4.59,0,0,1,1.53-3.92c.13-.14.08-.22-.1-.19a2.63,2.63,0,0,0-.91.29,3.27,3.27,0,0,0-2,3c0,1.46-.68,1.83-1.84,2a.66.66,0,0,0-.15,0c-.68.18-.89,0-1-.69a3.24,3.24,0,0,1,.77-2.77c.13-.13.1-.25-.08-.25a2,2,0,0,0-1.73,1.12,3.58,3.58,0,0,0-.3,2.67,1,1,0,0,1-.25.88,4.18,4.18,0,0,1-1.78.87c-.32,0-.73-.57-1.11-.89l-.06,0a.91.91,0,0,0-1.32.19.85.85,0,0,0,.06,1.26,1.89,1.89,0,0,0,.2.2.31.31,0,0,1,0,.43c-1,1.11-1,1.35-.53,1.89s.89.55,1.88,0a.44.44,0,0,1,.52,0c.44.49.79,1.18,1.67.58a.67.67,0,0,0,.28-.56,10.64,10.64,0,0,0-.44-1.37.39.39,0,0,1,.19-.46A26.12,26.12,0,0,1,82,93.69a22.8,22.8,0,0,1,6.81-1.17A8,8,0,0,1,95,94.37a.81.81,0,0,0,.24.1c.15,0,.21-.06.17-.24a2.82,2.82,0,0,0-.29-.84A12.65,12.65,0,0,0,94,92.17c-.6-.67-.65-1.16,0-1.75a6.18,6.18,0,0,1,1.33-.8.2.2,0,0,0,0-.36A1.18,1.18,0,0,0,94,89.15"/><path class="cls-1" d="M90.43,99.91a4.42,4.42,0,0,0-1.15.37A8,8,0,0,0,88,101.37c-.48.41-1.7.49-2,0s-.07-1.1.31-1.53a7.54,7.54,0,0,1,1.15-.93,2.88,2.88,0,0,1,.49-.29c.17-.08.15-.19,0-.22a1.34,1.34,0,0,0-.32-.07,3.23,3.23,0,0,0-3,2.25,1.4,1.4,0,0,1-1.45,1.21c-.52.05-.71-.08-.84-.54a2.13,2.13,0,0,1,.41-1.9c.17-.24.32-.51.51-.8s0-.26-.14-.22a3.08,3.08,0,0,0-2.13,3.53,1.21,1.21,0,0,1-1.2,1.27c-.6,0-.76-.53-.79-1a9.84,9.84,0,0,1,.12-1.42c0-.18,0-.3-.14-.26a.39.39,0,0,0-.16.07,2.1,2.1,0,0,0-.59,2.85.82.82,0,0,1-.25,1.2c-.47.36-.79.57-1.3,0a1.26,1.26,0,0,0-1.17-.07c-.5.26-.21.75,0,1.1a3.17,3.17,0,0,0,.4.49.31.31,0,0,1,0,.44.58.58,0,0,0-.21.24c-.11.34-.29.85-.14,1s.69.25,1.06.25c.17,0,.37-.24.51-.41.37-.46.75-.63,1.2-.09.08.1.2.21.3.21.31,0,.75.08.92-.08a1,1,0,0,0,0-.9,2.23,2.23,0,0,0-.64-.62.28.28,0,0,1,0-.43,10.28,10.28,0,0,1,4.69-2.55c2.33-.56,4.63-.68,6.61,1.06,0,0,.06,0,.13,0s.09-.17,0-.34a1.19,1.19,0,0,0-.17-.38,2.9,2.9,0,0,0-.63-.63c-.59-.42-.57-.87-.12-1.36s.82-.87,1.24-1.31a.66.66,0,0,0,.21-.34c0-.06-.15-.07-.33,0"/><path class="cls-1" d="M61.83,107.16l.43.14a.23.23,0,0,0,.32-.21,1.41,1.41,0,0,0,0-.28.31.31,0,0,0-.29-.35l-.31,0a.47.47,0,0,1-.37-.16c0-.07,0-.18.17-.24a.41.41,0,0,0,.2-.16c.09-.17.15-.53.08-.57s-.62-.19-.65-.13a13.53,13.53,0,0,0-.63,1.64,1.94,1.94,0,0,0,.54.28c.15,0,.32,0,.48.07"/><path class="cls-1" d="M65.52,108.34a1.94,1.94,0,0,0,.65.3,2.57,2.57,0,0,0,.38.08l.43.13a.31.31,0,0,0,.4-.21q.06-.17.12-.39a2.43,2.43,0,0,1,.31-.54c.23-.31.18-.56-.27-.69a.66.66,0,0,0-.42.07l-.29.1a.83.83,0,0,0,0,.3c.08.21.2.43,0,.57a.32.32,0,0,1-.4,0c0-.06-.06-.1-.09-.11-.22-.08-.47-.2-.65-.13a.7.7,0,0,0-.23.53"/><path class="cls-1" d="M69.17,109.05c-.39.26-.24.48-.09.7a1.2,1.2,0,0,1,.14.27,1.27,1.27,0,0,1,.3-.08.8.8,0,0,1,.75.26.52.52,0,0,0,.5,0,.78.78,0,0,0,.22-.57c0-.34-1.52-.81-1.82-.61"/><path class="cls-1" d="M68.26,109.77a1.34,1.34,0,0,0-.66,0,.51.51,0,0,0-.17.47c.12.17.42.42.55.37.34-.12.47,0,.58.17A.37.37,0,0,0,69,111c.47-.19.54-.3.36-.66-.07-.16-.15-.27-.14-.27a1.32,1.32,0,0,1-.3-.08l-.66-.17"/><path class="cls-1" d="M63,106.45a.45.45,0,0,1,.62.24c0,.06.42,0,.57-.06a.49.49,0,0,0,.16-.47,1.52,1.52,0,0,0-.56-.39c-.12,0-.34,0-.39,0-.27-.34-.62-.47-.85-.12-.08.11,0,.33,0,.56a.37.37,0,0,0,.41.25"/><path class="cls-1" d="M68.86,111.33l-.16-.26a1.61,1.61,0,0,1-.31.06c-.16,0-.31,0-.36,0a.54.54,0,0,0-.72-.19.59.59,0,0,0-.34.45c0,.76,1.22.18,1.4.79a.77.77,0,0,0,.39,0c.13-.09.31-.29.29-.4a1.33,1.33,0,0,0-.19-.4"/><path class="cls-1" d="M66.74,110.89l-.31-.2a.24.24,0,0,0-.37.15c0,.16-.09.31-.14.47s0,.2-.1.24c-.52.3-.38.6-.17.88a.31.31,0,0,0,.45,0c.17-.15.36-.3.33-.34-.18-.48.09-.67.35-.87a.21.21,0,0,0,0-.37"/><path class="cls-1" d="M67.7,106.66c.14.12.29.16.32.11s.18,0,.31.06a1,1,0,0,0,.25.13,1.12,1.12,0,0,0,.65,0c.11,0,.26-.33.22-.39a1.84,1.84,0,0,0-.52-.44,2.57,2.57,0,0,0-.67-.25,1.35,1.35,0,0,0-.69,0,.54.54,0,0,0-.14.48.92.92,0,0,0,.27.29"/><path class="cls-1" d="M61.25,107.92a1.39,1.39,0,0,0-.52-.56,2.59,2.59,0,0,0-.63-.21c-.18-.05-.46-.18-.56-.1a.67.67,0,0,0-.22.61c0,.14.35.19.55.28s.35.12.53.2a1.52,1.52,0,0,1,.21.14.36.36,0,0,0,.44-.07c.12-.12.23-.22.2-.29"/><path class="cls-1" d="M70.07,110.56a.54.54,0,0,0-.27.25c-.12.14-.16.28-.11.33s0,.18,0,.32a1,1,0,0,0-.14.25c0,.19-.11.45,0,.57s.43.27.52.21a1.34,1.34,0,0,0,.34-.57,3.86,3.86,0,0,0,.16-.48c.07-.22.2-.48.13-.66a.57.57,0,0,0-.55-.22"/><path class="cls-1" d="M63.09,107.31a1.86,1.86,0,0,1-.38,1.25s.07.2.2.36a.32.32,0,0,0,.45.07c.14-.12.27-.22.27-.31a1.76,1.76,0,0,1,.35-1c.07-.1-.12-.53-.29-.61s-.61.17-.6.25"/><path class="cls-1" d="M64.13,109.7a5.71,5.71,0,0,0-1.14-.29.58.58,0,0,0-.5.1.4.4,0,0,0-.1.22c0,.18.23.39.41.49a2.65,2.65,0,0,0,.86.29,1.73,1.73,0,0,0,.38-.05.34.34,0,0,0,.24-.4c0-.17-.06-.32-.15-.36"/><path class="cls-1" d="M65.94,109.48a1.27,1.27,0,0,0-.55-.58,1.9,1.9,0,0,0-.69-.18h-.32a.33.33,0,0,0-.29.36c0,.17,0,.32.1.37a6.49,6.49,0,0,0,1.09.39.59.59,0,0,0,.52-.12c.08-.08.15-.18.14-.25"/><path class="cls-1" d="M68.76,107.42a.59.59,0,0,0-.55.21,3.91,3.91,0,0,0-.45,1.22c0,.13.11.28.25.46a.31.31,0,0,0,.45,0,.48.48,0,0,0,.22-.23,5.07,5.07,0,0,0,.37-1.22c0-.15-.14-.46-.29-.49"/><path class="cls-1" d="M66.34,107.31l.19,0a1.43,1.43,0,0,1,.3-.07,3,3,0,0,1,0-.31c0-.18,0-.35,0-.41.45-.39.37-.68.15-1a.23.23,0,0,0-.38,0c-.11.22-.24.43-.36.65a1,1,0,0,0-.1.31c0,.2,0,.39-.07.58a.21.21,0,0,0,.28.24"/><path class="cls-1" d="M59.08,105.63a.41.41,0,0,0-.5,0,.61.61,0,0,0-.24.31c0,.13.1.28.24.47a.29.29,0,0,0,.43,0c.19-.19.35-.33.32-.44a.74.74,0,0,0-.25-.36"/><path class="cls-1" d="M69.74,108.69c.15,0,.29-.12.48-.26a.26.26,0,0,0,0-.41c-.16-.17-.28-.29-.39-.27a.75.75,0,0,0-.51.44c0,.15.26.5.4.5"/><path class="cls-1" d="M69.54,112.8a.78.78,0,0,0-.38.2.34.34,0,0,0-.06.46.6.6,0,0,0,.3.26c.12,0,.28-.09.47-.22a.25.25,0,0,0,.06-.4c-.16-.17-.29-.3-.39-.3"/><path class="cls-1" d="M65.14,107.12c.14,0,.27-.14.43-.31a.29.29,0,0,0,0-.43c-.17-.16-.31-.29-.39-.24a1,1,0,0,0-.37.3.34.34,0,0,0,0,.46c.12.12.23.22.34.22"/><path class="cls-1" d="M64.86,108.37c.09,0,.21,0,.34-.12s.25-.24.21-.33a1.08,1.08,0,0,0-.32-.34.81.81,0,0,0-.35-.19c-.14,0-.46.37-.43.42a1.15,1.15,0,0,0,.55.56"/><path class="cls-1" d="M62.17,107.77a.3.3,0,0,0-.44,0c-.16.15-.29.28-.26.36a1.07,1.07,0,0,0,.28.37.37.37,0,0,0,.48,0,.64.64,0,0,0,.25-.36c0-.1-.13-.24-.31-.4"/><path class="cls-1" d="M61.6,108.93c-.11,0-.23.12-.39.28a.26.26,0,0,0,0,.41c.18.16.32.3.44.28s.22-.13.32-.25a.41.41,0,0,0,0-.49.67.67,0,0,0-.34-.23"/><path class="cls-1" d="M69.94,106.57c-.14.16-.25.3-.23.39a.62.62,0,0,0,.23.32.4.4,0,0,0,.48,0c.14-.1.24-.2.24-.3s-.14-.27-.3-.45a.26.26,0,0,0-.42,0"/><path class="cls-1" d="M67.91,112.6c-.11.1-.1.42,0,.62a.48.48,0,0,0,.19.21.3.3,0,0,0,.41,0,.72.72,0,0,0,.12-.23c0-.19.05-.5-.07-.58a.6.6,0,0,0-.62,0"/><path class="cls-1" d="M60.09,106.74c.09,0,.22-.11.39-.26a.25.25,0,0,0,0-.41,1.08,1.08,0,0,0-.44-.3c-.13,0-.44.33-.41.47a.74.74,0,0,0,.47.5"/><path class="cls-1" d="M66.68,109.41c-.16,0-.29,0-.36.07-.27.32-.13.57.33.84a.19.19,0,0,0,.3-.16c0-.16,0-.28,0-.41a.31.31,0,0,0-.3-.34"/><path class="cls-1" d="M65.89,70.89c-.54-.86-1-.9-1.48,0-.71,1.24-1.39,2.5-2.06,3.77a.51.51,0,0,0-.06.31c0,.18,0,.35.09.38s.21,0,.37-.13.61-.37.61-.56a6.25,6.25,0,0,1,1.31-3,1.07,1.07,0,0,1,.26-.26.3.3,0,0,1,.43.06,6.23,6.23,0,0,1,.53.82c.28.59.43,1.29,1.27,1.38.08,0,.22.29.2.43s-.2.26-.34.3c-.43.1-.88.17-1.32.23s-.75.32-.7.85a12,12,0,0,1,.12,2.32c-.09.93.53,1.4,1.06,2a.24.24,0,0,0,.4,0c.15-.19.28-.38.44-.58s0-.24-.13-.24c-.83,0-1-.54-1-1.26,0-.36-.08-.74-.08-1.11,0-1.16.29-1.39,1.38-1.08a3.06,3.06,0,0,0,2.32,0,.89.89,0,0,1,1.08.08,3.89,3.89,0,0,0,2.81.73,5.39,5.39,0,0,1,.9,0c.18,0,.28,0,.24.12s0,.23,0,.39a14.32,14.32,0,0,1,.56,1.5c.08.31.13.8-.06,1-.71.71-1.54,1.31-2.29,2a12.14,12.14,0,0,0-1,1.13c-.11.13-.16.31-.09.38s.24.06.4,0a7.26,7.26,0,0,0,.63-.46c.2-.17.31-.47.53-.61,1-.58,1.93-1.13,2.89-1.69a1,1,0,0,0,.57-1.11,1.6,1.6,0,0,1,.09-.59.19.19,0,0,1,.33-.12,5.56,5.56,0,0,0,1.2.8c.67.23.76.64.44,1.13-.54.82-1.19,1.56-1.77,2.36-.29.41-.54.83-.79,1.26-.09.15-.14.31-.09.35s.22.06.39,0L77,84a.36.36,0,0,0,.28-.38c0-.62.35-.93.91-1.17a2.39,2.39,0,0,0,.83-.56c.39-.43.68-1,1-1.42s.57-.89.06-1.5c-.91-1.1-.81-1.59,0-2.75a4.2,4.2,0,0,0,.68-1.7c.14-.92.33-1.09,1.25-.84a4.42,4.42,0,0,0,1,.1c.17,0,.32,0,.32-.07s-.11-.18-.26-.29L83,73.21a.38.38,0,0,1-.09-.48c.16-.25.3-.48.42-.7s0-.2-.12-.12c-.52.27-.7.29-.88,0a.37.37,0,0,1,.12-.47l.63-.41c.15-.09.13-.22,0-.29l-.85-.31a.23.23,0,0,1-.12-.37c.34-.43.68-.77.53-1.29,0-.17-.17-.18-.24,0a.9.9,0,0,1-.15.24,1.56,1.56,0,0,1-.35.24.22.22,0,0,1-.35-.16.93.93,0,0,1,0-.47c.21-.41.54-.76.79-1.15.1-.16.18-.32.28-.52s0-.22-.15-.15c-1,.49-1.92.93-2,2.1,0,.18-.07.31-.13.29a1.44,1.44,0,0,1-.24-.34c0-.09-.09-.18-.13-.28a.2.2,0,0,0-.36,0c-.31.45-.08.9.2,1.34s.8,1.14,1.15,1.73a1.24,1.24,0,0,1-.18,1.58.28.28,0,0,1-.44,0c-1-1.11-2.38-1-3.74-.9a13.37,13.37,0,0,1-1.79,0,1.31,1.31,0,0,1-1.25-1,1.64,1.64,0,0,1,.51-1.77c.53-.42,1-.18,1.5.16l.11,0c.06,0,.06-.18,0-.35-.11-.34-.23-.68-.37-1.08,0-.17,0-.26.2-.19s.45.21.66.29a.72.72,0,0,0,.36.08s0-.18-.09-.34l-.5-.87c-.08-.16,0-.26.16-.23l.36,0c.17,0,.24-.07.13-.21-.24-.31-.54-.54-.78-.83a3.84,3.84,0,0,1-.46-.76.3.3,0,0,1,.13-.43l.65-.36a.17.17,0,0,0,.06-.06s-.08-.13-.25-.19a2.74,2.74,0,0,0-1.72,0,1.8,1.8,0,0,1-.85-.06.28.28,0,0,1-.22-.37c.09-.24.17-.48.24-.73,0,0,0,0,0-.1s-.17,0-.33.05c-1.23.65-2.2,1.87-3.88,1.61-.17,0-.22.06-.11.19l.14.17a.29.29,0,0,1-.06.43l-2.3,1.58c-.15.09-.13.23,0,.31.71.36,1.23.79,1.94.3.1-.07.27,0,.52.07a.21.21,0,0,1,.15.34c-.26.38-.45.69-.66,1q-.69,1-1.38,1.89l-.34.47a.35.35,0,0,1-.46.09,1.71,1.71,0,0,1-.63-.51m6-5.86c.64,0,1,.48,1.21,1.39.23,1.29.08,2.23-.4,2.58-.14.09-.3,0-.31-.21,0-1.19.08-2.42-.64-3.47-.09-.15,0-.3.14-.29"/><path class="cls-1" d="M63,61.84a1.16,1.16,0,0,1-.58-.18.11.11,0,0,0-.18.07l-.05.23a.18.18,0,0,0,.06.19,1.54,1.54,0,0,0,.72.19A1,1,0,0,0,64,61.26a1.15,1.15,0,0,0-.79-1.1c-.41-.19-.54-.34-.54-.62a.45.45,0,0,1,.48-.47.82.82,0,0,1,.46.12.13.13,0,0,0,.19-.07l.06-.23a.18.18,0,0,0-.08-.19,1.33,1.33,0,0,0-.61-.14,1,1,0,0,0-1,1,1.12,1.12,0,0,0,.8,1.06c.39.18.51.35.51.64a.51.51,0,0,1-.54.55"/><path class="cls-1" d="M64.22,59.13l.76,0v3a.13.13,0,0,0,.13.14h.24a.13.13,0,0,0,.13-.14l0-3h.74a.13.13,0,0,0,.14-.13v-.24a.14.14,0,0,0-.14-.14h-2a.15.15,0,0,0-.14.14V59a.14.14,0,0,0,.14.13"/><path class="cls-1" d="M67.69,62.35c.75,0,1.17-.58,1.17-1.6v-2a.15.15,0,0,0-.13-.14H68.5a.14.14,0,0,0-.14.14v2c0,.49-.12,1.07-.65,1.07s-.62-.38-.62-1.07v-2a.15.15,0,0,0-.15-.14h-.22a.14.14,0,0,0-.14.14v2c0,1.37.7,1.58,1.11,1.58"/><path class="cls-1" d="M69.2,59.13l.76,0v3a.13.13,0,0,0,.13.14h.24a.14.14,0,0,0,.14-.14v-3h.75a.13.13,0,0,0,.14-.13v-.24a.14.14,0,0,0-.14-.14h-2a.14.14,0,0,0-.14.14V59a.13.13,0,0,0,.14.13"/><path class="cls-1" d="M71.53,59.13l.75,0v3a.14.14,0,0,0,.14.14h.24a.13.13,0,0,0,.13-.14l0-3h.74a.13.13,0,0,0,.14-.13v-.24a.14.14,0,0,0-.14-.14h-2a.14.14,0,0,0-.14.14V59a.13.13,0,0,0,.14.13"/><path class="cls-1" d="M74,61.84a1.47,1.47,0,0,0,1.15.49,2.42,2.42,0,0,0,.86-.17.23.23,0,0,0,.11-.16V60.44A.14.14,0,0,0,76,60.3h-.82a.14.14,0,0,0-.14.14v.22a.14.14,0,0,0,.14.14h.46v.91a.09.09,0,0,1,0,.05,1.27,1.27,0,0,1-.42,0c-.66,0-1.07-.52-1.07-1.37s.43-1.35,1.12-1.35a1.25,1.25,0,0,1,.56.11.13.13,0,0,0,.17-.08L76,58.9a.16.16,0,0,0-.09-.18,1.67,1.67,0,0,0-.69-.14,1.69,1.69,0,0,0-1.65,1.9A2.12,2.12,0,0,0,74,61.84"/><path class="cls-1" d="M76.5,62.29h.24a.17.17,0,0,0,.16-.12l.26-1s0,0,0,0h.9s0,0,0,0l.28,1a.16.16,0,0,0,.15.12h.26a.18.18,0,0,0,.1,0,.22.22,0,0,0,0-.11l-1-3.4a.16.16,0,0,0-.15-.12H77.5a.17.17,0,0,0-.16.12l-1,3.4a.15.15,0,0,0,0,.11.18.18,0,0,0,.1,0m.78-1.59.26-1a3.18,3.18,0,0,0,.11-.38c0,.12,0,.25.08.38l.28.94Z"/><path class="cls-1" d="M79.39,62.29h.22a.14.14,0,0,0,.15-.14V60.76h.28c.31,0,.44.17.53.63a6.3,6.3,0,0,0,.16.78.17.17,0,0,0,.17.12h.24a.15.15,0,0,0,.1,0s0-.08,0-.11a8.39,8.39,0,0,1-.2-.9,1,1,0,0,0-.37-.71,1,1,0,0,0,.49-.91,1,1,0,0,0-.24-.71,1.12,1.12,0,0,0-.9-.32,3.36,3.36,0,0,0-.67.07.14.14,0,0,0-.12.15v3.35a.13.13,0,0,0,.14.13m.37-2V59.13a.1.1,0,0,1,0,0,1.35,1.35,0,0,1,.3,0,.56.56,0,0,1,.61.6.57.57,0,0,1-.61.61Z"/><path class="cls-1" d="M81.44,59.13l.75,0v3a.13.13,0,0,0,.14.14h.23a.14.14,0,0,0,.14-.14v-3h.75A.13.13,0,0,0,83.6,59v-.24a.14.14,0,0,0-.14-.14h-2a.14.14,0,0,0-.14.14V59a.13.13,0,0,0,.14.13"/><rect class="cls-2" width="145" height="145"/></g></g></svg>