<svg xmlns="http://www.w3.org/2000/svg" viewBox="0 0 145 145"><defs><style>.cls-1{fill:#231f20;}.cls-2{fill:none;}</style></defs><g id="Layer_2" data-name="Layer 2"><g id="Layer_1-2" data-name="Layer 1"><path class="cls-1" d="M55.13,46.41c10.19,0,15.61,13.27,15.61,13.27l1.18-4S67.33,44.2,56.59,44.2a13.07,13.07,0,0,0-12.3,8,13.07,13.07,0,0,1,10.84-5.82"/><path class="cls-1" d="M52.26,82C45.34,82,42.7,64.6,42.7,64.6H41c0,1.13-.57,21.49,10.53,21.49,3.63,0,5.11-2.48,5.11-4.57A10.85,10.85,0,0,0,55,75.89S56.85,82,52.26,82"/><path class="cls-1" d="M89.86,46.41a13.07,13.07,0,0,1,10.85,5.82,13.08,13.08,0,0,0-12.29-8c-10.75,0-15.33,11.5-15.33,11.5l1.18,4s5.41-13.27,15.59-13.27"/><path class="cls-1" d="M102.3,64.6S99.67,82,92.74,82C88.15,82,90,75.89,90,75.89a10.8,10.8,0,0,0-1.6,5.63c0,2.09,1.47,4.57,5.11,4.57C104.57,86.09,104,65.73,104,64.6Z"/><path class="cls-1" d="M88.57,64.14s.88-2.56,2.76-2.56c3.23,0,2.8,5.59,1.38,10.26s-.31,5.49.57,5.49,2.83-.9,5-4.84a32,32,0,0,0,3-8.81h1.59c0-9.79-5.78-11.52-9-11.52-10.16,0-13.94,14.2-13.94,14.2l2,1.43-1,4.87-3.82,1.55L76.41,79l1.89-2.29,2-.79L79.65,79,76.2,80.42,75,88.68l.83,2.63-3.33,1.32-3.35-1.32L70,88.68l-1.2-8.26L65.35,79l-.62-3.07,2,.79L68.59,79l-.7-4.79-3.82-1.55-1-4.87,2-1.43s-3.77-14.2-13.95-14.2c-3.21,0-9,1.73-9,11.52h1.6a32.56,32.56,0,0,0,3,8.81c2.13,3.94,4.1,4.84,5,4.84s2-.71.57-5.49-1.85-10.26,1.4-10.26c1.84,0,2.74,2.56,2.74,2.56s-2.33,6.18,2.13,8.15l3.19,1.41c.88,3.68,1.88,7.86,2.06,8.56A12.5,12.5,0,0,0,65.13,85l2.17,3.67,1,4.93c.26,1.27.53,2.56,3.68,2.56h1c3.16,0,3.44-1.29,3.7-2.56l1-4.93L79.87,85a12.35,12.35,0,0,0,1.33-2.76c.19-.7,1.18-4.88,2-8.56l3.2-1.41c4.46-2,2.12-8.15,2.12-8.15m-28.21,7a3.72,3.72,0,0,1-2.64-3.81A16,16,0,0,1,58,64.17l2.32,3.61.87,3.73Zm24.28,0-.88.35.89-3.73L87,64.17a15.17,15.17,0,0,1,.33,3.18,3.73,3.73,0,0,1-2.65,3.81"/><path class="cls-1" d="M104.12,31.78c-2.38-.18-17.86-1.28-31.61-1.28s-29.23,1.1-31.62,1.28c-3,.22-7.8,2.12-7.8,9.47,0,6.21.71,28.86,1.32,38.5C35.06,89.81,38.28,95,44,98.92c2.64,1.79,10.28,6,17.27,9.68,4.54,2.43,8.8,4.65,11.2,5.9,2.39-1.25,6.64-3.47,11.18-5.9,7-3.71,14.62-7.89,17.28-9.68,5.76-3.91,9-9.11,9.62-19.17.62-9.64,1.32-32.3,1.32-38.5,0-7.35-4.76-9.25-7.79-9.47m3,47.75C106.5,88.7,103.73,92.83,99,96c-3.92,2.66-19.38,10.81-26.48,14.52C65.39,106.85,49.93,98.7,46,96c-4.73-3.21-7.51-7.34-8.1-16.51-.62-9.59-1.32-32.1-1.32-38.28,0-5,2.81-5.86,4.55-6C43.51,35.09,58.86,34,72.51,34s29,1.1,31.35,1.27c1.74.13,4.55,1,4.55,6,0,6.18-.7,28.69-1.31,38.28"/><rect class="cls-2" width="145" height="145"/></g></g></svg>