<svg xmlns="http://www.w3.org/2000/svg" viewBox="0 0 145 145"><defs><style>.cls-1{fill:#231f20;}.cls-2{fill:none;}</style></defs><g id="Layer_2" data-name="Layer 2"><g id="Layer_1-2" data-name="Layer 1"><path class="cls-1" d="M81.67,58.29,73.32,45.57l4.41-10.63L62.53,58.18l9.75,13.63ZM72.34,48.23l7.5,10.66-7.5,10.88L64.52,58.89Z"/><path class="cls-1" d="M66.41,84.39l.26.42H78.58l.25-.43L94.3,58.89l.27-.47L94.3,58,79,32.92l-.27-.42H66.1l-.27.43L50.71,58l-.29.45.29.46Zm.68-50.13H77.7L92.52,58.43l0,0H83.17L69.77,77.79l1.79-4.35-10.48-15H52.52l0-.05Z"/><path class="cls-1" d="M35,98.48a4.37,4.37,0,0,0-3.38-4.65H17.58c.1,1.2,2.22,2.4,2.22,2.4v12.51l-1.59.77v1.87h9.11v-1.87l-1.78-.77V103.3l.81,0,3,8.07h6.27v-1.74l-4.24-6.23A4.85,4.85,0,0,0,35,98.48m-6.22,2.61H25.54V97.23h3.28a5,5,0,0,1,.59,2,4.24,4.24,0,0,1-.59,1.88"/><polygon class="cls-1" points="51.39 105.4 47.6 105.4 47.6 108.43 44.29 108.43 44.29 103.51 46.5 103.51 47.32 104.61 49.23 104.61 49.23 99.71 47.56 99.71 46.45 100.83 44.29 100.83 44.29 96.77 47.56 96.77 47.56 98.66 51.62 98.66 51.62 93.77 36.7 93.77 36.7 95.38 38.36 96.13 38.36 108.67 36.7 109.73 36.7 111.44 51.39 111.44 51.39 105.4"/><polygon class="cls-1" points="62.34 111.44 67.11 111.44 67.11 96.49 69.05 95.67 69.09 93.72 62.5 93.72 62.5 95.62 64.15 96.18 64.2 102.21 59.33 93.72 52.5 93.77 52.5 95.34 53.56 95.89 53.56 108.96 51.9 110.02 51.9 111.44 58.46 111.44 58.46 110.02 56.89 109.03 56.89 102.44 62.34 111.44"/><path class="cls-1" d="M76.11,111.38H85.3v-1.87l-1.67-.72L78.29,93.73l-7.66,0v1.92l2.19,2.08-3.36,11.1a7.76,7.76,0,0,1-1.77,1v1.62h6.25v-1.62l-1.62-.56.94-3.19H77L78,108.79l-1.93,1Zm-2-8.36.76-2.6,1,2.6Z"/><path class="cls-1" d="M92.09,112.5c5.89,0,6.55-4.62,6.55-4.62V96.48l1.37-.56V94H94v1.83l1.89.61v11.9a5.45,5.45,0,0,1-2.44.82,3.7,3.7,0,0,1-2.13-.82V96.48l2.13-.87V94L82.6,94v1.63l2.73.81V108s.86,4.51,6.76,4.51"/><polygon class="cls-1" points="111.13 109.25 108.13 109.25 108.13 97.29 110.63 95.92 110.63 93.99 100.77 93.99 100.77 95.87 102.14 96.48 102.14 109.52 100.53 110.08 100.53 111.89 114.43 111.94 114.43 106.2 111.13 106.2 111.13 109.25"/><polygon class="cls-1" points="112.5 100.02 116.06 100.02 116.11 97.23 117.38 97.23 117.38 108.65 114.94 109.76 114.94 111.89 125.29 111.89 125.29 109.76 122.86 108.7 122.86 97.23 123.92 97.23 123.92 100.02 127.42 100.02 127.42 94.04 112.5 94.04 112.5 100.02"/><rect class="cls-2" width="145" height="145"/></g></g></svg>