<svg xmlns="http://www.w3.org/2000/svg" viewBox="0 0 145 145"><defs><style>.cls-1{fill:#231f20;}.cls-2{fill:none;}</style></defs><g id="Layer_2" data-name="Layer 2"><g id="Layer_1-2" data-name="Layer 1"><path class="cls-1" d="M103.22,79.4c.14-.69.26-5.57.27-6.84s0-20.31-.16-24.14c0-.54-.37-10.71-.42-11.7s0-1.27-.69-1.39-18.07-1.54-20.86-1.61A233.22,233.22,0,0,0,55.29,34c-9.77.53-13.87,5.6-14.74,9.65a40.37,40.37,0,0,0-.39,5.91c.07,5.18.18,17.06.27,20.64,0,0,.41,15.15.41,16.11s0,1.27.71,1.4,18.07,1.54,20.84,1.61a211.47,211.47,0,0,0,26.05-.3c15.09-.85,14.62-9,14.78-9.65M101.16,64v4s.07.49-.68.27c-1.93-.54-38.29-8.71-57.63-11.52-.21,0-.16-.4-.16-.41v-3s0-.36.21-.33c7.47,1.14,26.24,4.19,30.85,5s25.38,4.64,27.12,5c.35.06.3.92.3.92M42.92,45c.81-3.75,4.59-8.41,13.64-8.93a214.53,214.53,0,0,1,24.09-.27c2.57.07,18.64,1.39,19.26,1.49s.63.39.65,1.28.37,10.31.39,10.81-.26.64-.61.64c-1.89,0-24.79-1.92-29.65-1.83-1.22,0-1.27.67-1,1.05a1.14,1.14,0,0,0,.66.34s30.14,4.92,30.61,5.11c.09.05.27.07.27.62v4.47s.18.7-1,.35C80.47,55.65,42.86,50.7,42.86,50.7c-.24,0-.29-.05-.29-.19A38.6,38.6,0,0,1,42.92,45m20.2,42.21c-2.58-.06-18.65-1.39-19.27-1.49s-.67-.37-.67-1.28-.37-14.89-.37-14.89-.1-.67.64-.57c1.64.22,27.43,2.65,29.83,2.67S75,70.94,75,70.8a3.61,3.61,0,0,0-2.07-1.08c-1.31-.32-8.6-2.23-13.54-3.34L42.94,62.66s-.3,0-.32-.39c0-1.22,0-2.77,0-2.77s-.1-.63.37-.58l26.57,5.31c2.33.45,31.31,7,31.31,7s.27,0,.27.48c0,1.19-.13,5.69-.27,6.33s.29,8.12-13.64,8.91a191,191,0,0,1-24.08.28"/><path class="cls-1" d="M41.17,104.71c-.41,0-6.83-.22-9.41-.29a12.36,12.36,0,0,1-1.4-.09c-.45-.07-1.1-.12-1.1-1.1s.51-1.08,1-1.15,1.59-.07,1.59-.07h12.6V99.9H30.18c-1.76,0-5.49-.27-5.45,3.62,0,3.14,2.75,2.93,4.32,3,1,.07,6.39.22,8.82.28a7.29,7.29,0,0,1,1.36.08c.39.06,1.2.13,1.2,1.18s-.63,1.17-1.28,1.25a9.75,9.75,0,0,1-1.3.06H24.78v2.09s15.8,0,15.83,0c1.71-.16,4.2-.12,4.28-3.13.12-3.8-3.2-3.59-3.72-3.66"/><polygon class="cls-1" points="49.66 111.48 69.23 111.5 69.23 109.35 54.3 109.35 54.3 106.65 68.6 106.65 68.6 104.51 54.3 104.51 54.3 102.01 69.32 102.01 69.32 99.9 49.66 99.9 49.66 111.48"/><path class="cls-1" d="M74.3,104.32v7.18h4.44v-4.61H90.4v4.61l4.46,0V99.9H79.55c-1.72,0-5.27.12-5.25,4.42M90.4,102v2.81H78.72c0-2.8,1.43-2.81,2.51-2.81Z"/><polygon class="cls-1" points="99.49 102.13 107.53 102.13 107.53 111.48 112.18 111.48 112.18 102.11 120.27 102.11 120.27 99.9 99.49 99.9 99.49 102.13"/><rect class="cls-2" width="145" height="145"/></g></g></svg>