<svg xmlns="http://www.w3.org/2000/svg" viewBox="0 0 145 145"><defs><style>.cls-1{fill:#231f20;}.cls-2{fill:none;}</style></defs><g id="Layer_2" data-name="Layer 2"><g id="Layer_1-2" data-name="Layer 1"><path class="cls-1" d="M113.29,64.27a1.31,1.31,0,0,0-.79-.26h-3.45a37.51,37.51,0,0,0-4.2-8.9l5.76-5.46L114.39,54a1.35,1.35,0,0,0,1.48.37,1.33,1.33,0,0,0,.85-1.26l-.27-20.33a1.32,1.32,0,0,0-.43-.94,1.26,1.26,0,0,0-1-.37l-21,1.21a1.32,1.32,0,0,0-.7,2.38l5,3.64-5,4.87A38.61,38.61,0,0,0,35.83,64H32.76a1.32,1.32,0,0,0-.72.21c-.29.19-7.06,4.69-7.24,11.33-.11,4.11,2.31,8,7.18,11.58a1.38,1.38,0,0,0,.78.26H36a38.52,38.52,0,0,0,72.93,0h3.6a1.29,1.29,0,0,0,.76-.24c.28-.2,6.82-4.82,6.94-11.48.08-4.07-2.24-7.9-6.91-11.4M72.44,40.13a35.83,35.83,0,0,1,20.3,6.26,1.3,1.3,0,0,0,1.66-.15l6.94-6.71a1.36,1.36,0,0,0,.4-1.05,1.29,1.29,0,0,0-.55-1l-3.28-2.38,15.91-.91.2,15.33-2.31-2.7a1.33,1.33,0,0,0-.94-.44,1.3,1.3,0,0,0-1,.37L102.23,54a1.29,1.29,0,0,0-.18,1.7A35.21,35.21,0,0,1,106.26,64H96.38a26.19,26.19,0,0,0-47.5,0H38.63A35.77,35.77,0,0,1,72.44,40.13M93.43,64H51.84a23.54,23.54,0,0,1,41.59,0m-21,46.84A35.79,35.79,0,0,1,38.76,87.39H49.38a26.18,26.18,0,0,0,46.5,0H106.1a35.77,35.77,0,0,1-33.66,23.46m-20-23.46H92.87a23.56,23.56,0,0,1-40.47,0m59.66-2.65H33.2c-3.9-3-5.84-6-5.75-9.11.11-4.55,4.52-8.08,5.74-9h78.87c3.7,2.87,5.55,5.89,5.5,9-.07,4.56-4.29,8.19-5.5,9.13"/><polygon class="cls-1" points="51.69 70.81 49.45 70.81 46.77 70.81 44.08 70.81 44.08 72.3 46.1 72.3 42.59 78.82 38.78 72.33 41.56 72.31 41.56 70.81 37 70.81 34.34 70.81 30.51 70.81 30.51 72.33 33.05 72.33 34.07 74.19 36.9 79.4 38.04 81.47 44.16 81.47 46.48 77.22 49.14 72.31 49.22 72.31 51.69 72.29 51.69 70.81"/><path class="cls-1" d="M58.54,70.5c-4.33,0-7.84,2.53-7.84,5.64s3.51,5.63,7.84,5.63,7.82-2.53,7.82-5.63-3.49-5.64-7.82-5.64m-.12,9.59c-1.13,0-2-1.82-2-4.06s.91-4.07,2-4.07,2,1.81,2,4.07-.9,4.06-2,4.06"/><path class="cls-1" d="M107.84,70.51h-.16c-4.33,0-7.83,2.53-7.83,5.64s3.47,5.61,7.77,5.63h.06a10,10,0,0,0,2.68-.35c3-.79,5.15-2.85,5.15-5.28s-2.06-4.42-5-5.25a10.25,10.25,0,0,0-2.71-.38m0,9.51a.88.88,0,0,1-.33.07c-1.12,0-2-1.82-2-4.07s.92-4.06,2-4.06a1.19,1.19,0,0,1,.46.1c.91.4,1.58,2,1.58,4s-.75,3.7-1.71,4"/><path class="cls-1" d="M77.3,79.81H74.66V72.33l2.51,0v-1.5H67.1v1.52h2.55v7.48H67v1.65H82.36v-5H80.7a3.38,3.38,0,0,1-3.4,3.29"/><polygon class="cls-1" points="100.8 70.81 98.5 70.81 95.82 70.81 93.2 70.81 93.2 72.3 95.22 72.3 91.7 78.82 87.89 72.33 90.68 72.31 90.67 70.81 79.62 70.81 79.62 72.33 82.17 72.33 87.14 81.47 93.27 81.47 96.2 76.08 98.25 72.31 98.71 72.31 100.8 72.29 100.8 70.81"/><rect class="cls-2" width="145" height="145"/></g></g></svg>