<svg xmlns="http://www.w3.org/2000/svg" viewBox="0 0 145 145"><defs><style>.cls-1{fill:#231f20;}.cls-2{fill:none;}</style></defs><g id="Layer_2" data-name="Layer 2"><g id="Layer_1-2" data-name="Layer 1"><path class="cls-1" d="M23.15,91.45h3.66c.57,1.31,1.09,2.69,1.51,3.88.24,0,.49,0,.76,0s.47,0,.75,0l-4.31-10h-.34l-4.48,10c.16,0,.3,0,.5,0s.34,0,.53,0c.4-1.35.92-2.62,1.42-3.88M25,87.16l1.6,3.69H23.43Z"/><path class="cls-1" d="M33.45,94.88a2.59,2.59,0,0,1-2.34-1.49H31a5.2,5.2,0,0,1-.26,1.28,3.66,3.66,0,0,0,2.34.83,3.28,3.28,0,0,0,3.56-3.27c0-3.08-4.54-2-4.54-4.65a1.71,1.71,0,0,1,1.82-1.68,1.84,1.84,0,0,1,1.78,1.25h.14A7.42,7.42,0,0,1,36.2,86a3.16,3.16,0,0,0-2.06-.7c-1.73,0-3.19.91-3.19,2.77,0,3.24,4.5,2.07,4.5,4.75a2,2,0,0,1-2,2.09"/><path class="cls-1" d="M40.69,86.18v9.18c.19,0,.41,0,.63,0s.4,0,.63,0V86.18a22.23,22.23,0,0,1,3,.18,3.15,3.15,0,0,1-.05-.43,3.29,3.29,0,0,1,.05-.44H37.54c0,.16,0,.28,0,.44s0,.29,0,.43a23.7,23.7,0,0,1,3.15-.18"/><path class="cls-1" d="M56.09,90.19c0-3.45-2.74-4.92-5.44-4.92a5,5,0,0,0-5.33,5.15c0,3.07,2.12,5.08,5.31,5.08a5.11,5.11,0,0,0,5.46-5.31m-9.36.4c0-2.92,1.52-4.84,4.06-4.84a3.76,3.76,0,0,1,3,1.4,4.7,4.7,0,0,1,.92,3.16c.1,1.58-1,4.72-4,4.72-2.15,0-3.93-1.53-3.93-4.44"/><path class="cls-1" d="M59,87.59h.14l6.21,6.87c.3.32.6.68.75.87h.43V85.49a3.12,3.12,0,0,1-.4.05,2.18,2.18,0,0,1-.4-.05V92.9h-.15l-6.84-7.41h-.56v9.84c.14,0,.26,0,.41,0s.26,0,.41,0Z"/><path class="cls-1" d="M74.25,87.91c1,1.87,2,3.74,2.9,5.64l.8,1.62h.16c.85-2,2.09-4.28,3.76-7.26.19,1.43.49,4.53.72,7.42.23,0,.46,0,.68,0s.43,0,.68,0c-.39-2.74-.78-6.28-1.17-9.85h-.29c-1.45,2.6-2.78,5.1-4.15,7.56-1.54-2.56-2.92-5.26-4.07-7.56h-.36c-.15,1.53-1,7.54-1.39,9.85.18,0,.33,0,.52,0s.32,0,.51,0c0-1.77.38-4.62.7-7.42"/><path class="cls-1" d="M87.36,91.45H91c.57,1.31,1.11,2.69,1.52,3.88.24,0,.49,0,.75,0s.48,0,.75,0l-4.32-10h-.32l-4.48,10c.16,0,.31,0,.5,0s.33,0,.53,0c.4-1.35.91-2.62,1.42-3.88m1.84-4.29,1.6,3.69H87.64Z"/><path class="cls-1" d="M101.81,87.68c0-1.45-1-2.19-3.2-2.19h-3v9.84c.19,0,.4,0,.63,0s.4,0,.63,0v-4.8h.55l1.14,1.34,1.7,2.2c.3.41.6.81.92,1.26.24,0,.54,0,.81,0s.53,0,.84,0l-.28-.36-.69-.8-3-3.75c1.47-.27,3-1.07,3-2.74m-3.14,2.24a8.21,8.21,0,0,1-1.85.06V86a13.54,13.54,0,0,1,2.12,0,1.68,1.68,0,0,1,1.58,1.81,2.11,2.11,0,0,1-1.85,2.07"/><path class="cls-1" d="M106,86.18v9.18c.22,0,.42,0,.63,0s.41,0,.65,0V86.18a22.52,22.52,0,0,1,3,.18,3.15,3.15,0,0,1,0-.43,3.29,3.29,0,0,1,0-.44h-7.42c0,.16,0,.28,0,.44s0,.29,0,.43a23.76,23.76,0,0,1,3.14-.18"/><path class="cls-1" d="M113.15,85.49c-.23,0-.43.05-.63.05s-.42,0-.63-.05v9.84c.21,0,.42,0,.63,0s.4,0,.63,0Z"/><path class="cls-1" d="M116.76,87.59h.15l6.21,6.87c.3.32.59.68.75.87h.43V85.49a3.05,3.05,0,0,1-.41.05,2.44,2.44,0,0,1-.39-.05V92.9h-.15l-6.82-7.41H116v9.84c.14,0,.27,0,.42,0s.24,0,.39,0Z"/><path class="cls-1" d="M139.79,49.5h-56A5.17,5.17,0,0,0,80,50.94a5.27,5.27,0,0,0-1.39,2.62s-.09.24-.55.24H67c-.47,0-.54-.21-.54-.23A5.4,5.4,0,0,0,65,50.94a5.16,5.16,0,0,0-3.81-1.44H5.2a2.09,2.09,0,0,0-1.75.88,2,2,0,0,0,.1,2s1,1.7,1,1.7a2,2,0,0,0,1.9,1,1.12,1.12,0,0,1,.81.61l1,1.84a2.94,2.94,0,0,0,2.51,1.66,1.11,1.11,0,0,1,.83.6L13,62.05a2.61,2.61,0,0,0,1.86,1.31l23.43,6.87a2,2,0,0,1,1.12,1.13c.55,1.45,1.28,2.63,4.95,3.74l19.15,5.23a4.23,4.23,0,0,0,4.09-.85l4.48-4.28A.74.74,0,0,1,72.5,75a.7.7,0,0,1,.44.19s4.49,4.28,4.49,4.28a4.25,4.25,0,0,0,4.1.85L100.7,75.1c3.64-1.11,4.41-2.31,4.92-3.74a2,2,0,0,1,1.13-1.13l23.41-6.87c1-.31,1.5-.57,1.87-1.31l1.28-2.24a1.11,1.11,0,0,1,.83-.62,3,3,0,0,0,2.53-1.66s1-1.84,1-1.84a1.11,1.11,0,0,1,.82-.61,2,2,0,0,0,1.88-1s1.05-1.7,1.05-1.7a2.61,2.61,0,0,0,.31-1.15,1.72,1.72,0,0,0-.22-.84,2.08,2.08,0,0,0-1.76-.89M79.62,53.79a4,4,0,0,1,1.1-2.11,4.15,4.15,0,0,1,3.07-1.13h25.73a5.49,5.49,0,0,0-1.37,1.55c-.3.55-.68,1.21-1.12,2H79.52l.1-.27M101.06,60V58.69l2.46.33c-.33.41-.68.82-1,1.25l-1.42-.3m.8,1-.8.87v-1Zm-.8-3.09V56.76l4,.27c-.29.41-.61.82-.93,1.25Zm0-2v-1h5.47c-.28.43-.58.89-.92,1.37ZM61.21,50.55a4.13,4.13,0,0,1,3.07,1.13,4.07,4.07,0,0,1,1.12,2.11,1,1,0,0,0,.1.27H38c-.43-.71-1.13-2-1.13-2a5.06,5.06,0,0,0-1.36-1.55ZM42.52,60.27c-.36-.43-.71-.84-1-1.25l2.45-.33V60Zm1.41.53v1c-.25-.29-.52-.58-.78-.86l.78-.16m-3-2.52c-.33-.43-.65-.84-.94-1.25l4-.27v1.11Zm-1.51-2.05c-.32-.48-.64-.94-.91-1.37h5.45v1ZM6.55,54.06c-.7-.06-.85-.14-1.08-.51,0,0-.93-1.56-1-1.66a1.49,1.49,0,0,1-.19-.66c0-.38.27-.67,1-.68H33.14a4,4,0,0,1,3,1.93c.24.47.54,1,.88,1.58ZM10.34,58a1.79,1.79,0,0,1-1.08-.95c-.43-.75-1-1.84-1.29-2.2H37.53c.28.45.59.93.92,1.43L12.53,58a8.41,8.41,0,0,1-2.19,0m3.5,3.47L12.6,59.29a1.45,1.45,0,0,0-.3-.42L39,57.09c.3.43.61.87,1,1.32L15.13,61.73c-.94.13-1.23-.18-1.29-.25m7.32,2.65L15.6,62.49l24.94-3.34c.35.43.7.86,1.08,1.31L24.54,64a9.93,9.93,0,0,1-3.38.18m8.45,2.48-5.8-1.71.9-.14,17.52-3.61c.51.57,1,1.14,1.61,1.72L32.39,66.4a5.68,5.68,0,0,1-2.78.21m8.92,2.61-6.46-1.89a3.06,3.06,0,0,0,.57-.16s9.61-3,11.85-3.66c.82.8,1.71,1.6,2.65,2.37L41,68.77a4.19,4.19,0,0,1-2.42.45m22.86,3.25A36.39,36.39,0,0,1,57.2,71l7.21-7.53h2.3Zm6.26-9h1.93l-2.8,10.11a42.14,42.14,0,0,1-4.58-.89l5.45-9.22M56.39,70.66c-1.16-.52-2.3-1.1-3.42-1.73,3.31-2.37,6.78-4.84,7.63-5.46h2.69ZM52.2,68.48a38.9,38.9,0,0,1-3.54-2.42l5.54-2.59h5Zm-4.27-3s-1.64-1.39-2.32-2h6.68ZM43.5,73.73c-2.43-.92-2.79-1.84-3.14-2.71a3.32,3.32,0,0,0-.59-1,5.94,5.94,0,0,0,1.53-.52l6.52-3.06A39.5,39.5,0,0,0,51.49,69l-5.78,4.15a2.92,2.92,0,0,1-2.21.6m6.94,2-5.13-1.4a5.37,5.37,0,0,0,.89-.5l6-4.34a36.05,36.05,0,0,0,3.54,1.84L52.43,74.8c-.29.3-1.24,1.06-2,.88m7.1,1.94L52,76.12a4.77,4.77,0,0,0,1-.77l3.56-3.71A42.09,42.09,0,0,0,61,73.18l-1.81,3.09c-.23.41-1,1.45-1.61,1.35m7.18,1.53a1.44,1.44,0,0,1-1.11.14L58.78,78a4.63,4.63,0,0,0,1.06-1.29s.82-1.38,1.92-3.27a38.83,38.83,0,0,0,4.8,1l-.93,3.37a2.53,2.53,0,0,1-.91,1.41m2.13-.42a2.49,2.49,0,0,1-1.18.65,3.57,3.57,0,0,0,.75-1.47l1-3.44c1.2.14,2.42.24,3.65.27l-4.17,4M72.11,74a42.09,42.09,0,0,1-4.53-.26l2.84-10.22h1.69ZM44.77,62.66V54.87h55.49v7.78H44.77Zm33.53.81h2.28L87.82,71a37.3,37.3,0,0,1-4.21,1.45Zm4.5,9.22a41.68,41.68,0,0,1-4.58.89L75.43,63.47h1.92Zm-1.08-9.22H84.4L92,68.93c-1.13.64-2.26,1.21-3.42,1.73-2.53-2.62-5.55-5.77-6.9-7.19m4.07,0h5l5.54,2.59a36.3,36.3,0,0,1-3.54,2.42c-2.67-1.92-5.49-3.93-7-5m6.93,0H99.4c-.69.68-2.29,2-2.33,2-1.64-.75-3.22-1.5-4.35-2M72.91,74V63.47h1.67l2.84,10.22a39.44,39.44,0,0,1-4.51.26m4.56,4.11L74,74.74c1.24,0,2.45-.14,3.65-.27l1,3.45a3.47,3.47,0,0,0,.74,1.46c-.72-.2-.94-.42-1.86-1.32m3.93,1.23a1.44,1.44,0,0,1-1.11-.14,2.59,2.59,0,0,1-.92-1.41l-.93-3.37a38.14,38.14,0,0,0,4.78-1l2,3.28a4.58,4.58,0,0,0,1,1.28Zm6.06-1.67c-.64.1-1.37-.94-1.59-1.33L84,73.18a41.29,41.29,0,0,0,4.38-1.54L92,75.35a5,5,0,0,0,1,.77Zm8-2.19-.92.25c-.76.18-1.71-.58-2-.88l-3.37-3.52a36.21,36.21,0,0,0,3.55-1.84l6.06,4.35a6.41,6.41,0,0,0,.88.49c-1.35.38-4.21,1.15-4.21,1.15M104.64,71c-.34.87-.71,1.79-3.13,2.71a3,3,0,0,1-2.2-.59L93.52,69a39.24,39.24,0,0,0,3.66-2.53l6.53,3a5.78,5.78,0,0,0,1.53.52,3,3,0,0,0-.6,1m1.83-1.8a4.12,4.12,0,0,1-2.4-.45l-6.2-2.89c.94-.77,1.83-1.57,2.64-2.36l11.86,3.66a5,5,0,0,0,.55.15Zm8.93-2.61a5.84,5.84,0,0,1-2.79-.2h0l-11.44-3.52c.57-.57,1.12-1.16,1.63-1.73l17.51,3.61.9.14Zm8.46-2.48a10,10,0,0,1-3.39-.18s-11.7-2.39-17.08-3.51c.38-.43.73-.87,1.07-1.29l24.94,3.34Zm8.55-4.83s-1,1.8-1.23,2.18c-.06.06-.36.38-1.31.25L105,58.41c.35-.45.66-.89,1-1.32l26.39,1.75.3,0a2.12,2.12,0,0,0-.28.43m4.4-4.11-1.06,1.87a1.85,1.85,0,0,1-1.09.95,8.42,8.42,0,0,1-2.19,0l-25.92-1.72c.33-.5.66-1,.94-1.43H137a1.72,1.72,0,0,0-.22.33m3.73-3.3-1,1.66c-.2.3-.31.45-1.08.51H108c.33-.6.62-1.11.87-1.58a3.9,3.9,0,0,1,3-1.93h27.93a1,1,0,0,1,.87.38.6.6,0,0,1,.08.3,1.49,1.49,0,0,1-.19.66"/><path class="cls-1" d="M48.2,56.1l-2.36,5.31h.65v0c.19-.64.44-1.26.67-1.86l.06-.13h1.83c.25.56.51,1.22.77,2l0,0h.89L48.44,56.1ZM47.4,59c.05-.1.67-1.58.74-1.75L48.89,59Z"/><path class="cls-1" d="M52.87,58.4c-.55-.22-1.08-.42-1.08-1.06a.83.83,0,0,1,.89-.83.91.91,0,0,1,.88.62l0,0h.14l.21-.65,0,0a1.65,1.65,0,0,0-1.09-.38c-1,0-1.71.58-1.71,1.47s.68,1.18,1.28,1.43,1.06.41,1.06,1a1,1,0,0,1-1,1,1.29,1.29,0,0,1-1.16-.76v0h-.14L51,61h0a2,2,0,0,0,1.25.45,1.75,1.75,0,0,0,1.89-1.75c0-.85-.65-1.11-1.27-1.35"/><path class="cls-1" d="M58.37,56.76v-.54H54.42v.54h.06a13.35,13.35,0,0,1,1.59-.08v4.76h.75V56.67a14.5,14.5,0,0,1,1.51.08Z"/><path class="cls-1" d="M61,56.1a2.64,2.64,0,0,0-2.82,2.71A2.59,2.59,0,0,0,61,61.49a2.69,2.69,0,0,0,2.9-2.78A2.62,2.62,0,0,0,61,56.1m2,2.77a2.6,2.6,0,0,1-.66,1.7,1.87,1.87,0,0,1-1.39.59,2,2,0,0,1-2-2.26c0-1.51.8-2.47,2.07-2.47a1.92,1.92,0,0,1,1.52.72,2.41,2.41,0,0,1,.46,1.6Z"/><path class="cls-1" d="M68.62,56.22v3.84l-3.56-3.84h-.34v5.19h.5v-4h0l3.21,3.55.4.46h.29V56.22h-.51Z"/><path class="cls-1" d="M77.53,56.22h-.22L76.06,58.5s-.82,1.44-.88,1.58c-.78-1.3-1.47-2.66-2.07-3.84v0h-.26l0,0c-.07.75-.51,3.9-.71,5.1v0h.61v0c0-.75.15-1.84.28-3,0,0,.06-.52.08-.72.09.17,1.08,2,1.43,2.81l.43.85h.14v0c.43-1,1.06-2.14,1.88-3.64.13.9.28,2.69.37,3.72v0h.79v0c-.18-1.26-.37-2.93-.61-5.1Z"/><path class="cls-1" d="M81,56.1h-.2l-2.38,5.31h.64l0,0a19.56,19.56,0,0,1,.68-1.87.31.31,0,0,0,0-.12h1.84c.25.58.51,1.24.78,2v0h.89L81.06,56.1ZM80,59c0-.1.67-1.56.74-1.75.08.17.72,1.65.76,1.75Z"/><path class="cls-1" d="M87.11,57.4c0-.8-.56-1.18-1.71-1.18H83.78v5.19h.75V58.92h.21l.6.7s.86,1.13.86,1.13l.49.66h1l-2.06-2.58c.94-.18,1.5-.72,1.5-1.43m-2.58,1.14v-2a5.14,5.14,0,0,1,1,0,.83.83,0,0,1,.79.89,1,1,0,0,1-.93,1,3.55,3.55,0,0,1-.9,0"/><path class="cls-1" d="M87.54,56.22v.54h0a12.6,12.6,0,0,1,1.58-.09v4.77h.75V56.66a11.63,11.63,0,0,1,1.5.09h.06v-.54H87.54Z"/><rect x="92.19" y="56.23" width="0.53" height="5.19"/><path class="cls-1" d="M97.83,60.06h0l-3.54-3.84H93.9v5.2h.52v-4h0l3.21,3.55.4.46.29,0v-5.2h-.51Z"/><rect class="cls-2" width="145" height="145"/></g></g></svg>