<svg xmlns="http://www.w3.org/2000/svg" viewBox="0 0 145 145"><defs><style>.cls-1{fill:#231f20;}.cls-2{fill:none;}</style></defs><g id="Layer_2" data-name="Layer 2"><g id="Layer_1-2" data-name="Layer 1"><path class="cls-1" d="M89.82,86.93l5,5.55c-.43,0-.84,0-1.27,0-6.93,0-12.58,2.64-12.58,8.34,0,4.59,5.65,8.33,12.58,8.33s12.59-3.74,12.59-8.33c0-4.4-5.73-10.27-8.65-13.86Zm9.71,13.69c0,2.37-2.69,4.3-6,4.3s-6-1.93-6-4.3,2.7-4.3,6-4.3S99.53,98.25,99.53,100.62Z"/><path class="cls-1" d="M73.05,101.86c0,4.57-7.47,4.57-7.47,0V92.93H59.15v9.55c0,9.32,20.19,9.4,20.19,0V92.93H73.05Z"/><rect class="cls-1" x="108.45" y="92.93" width="5.25" height="16.14"/><path class="cls-1" d="M37.12,87.49l2.23,2.72L26.94,109.07h7.45l2-3.34H50.59l2.13,3.34H60.5L45.59,87.49Zm2,13.84,4.27-7.06,4.47,7.06Z"/><path class="cls-1" d="M111.69,35.5A21.26,21.26,0,0,0,98.39,40a21.26,21.26,0,0,0-26,0A21.29,21.29,0,0,0,46.5,40a21.35,21.35,0,1,0,0,33.93,21.29,21.29,0,0,0,25.94-.07,21.26,21.26,0,0,0,26,0A21.35,21.35,0,1,0,111.69,35.5Zm-.54,40.27a18.92,18.92,0,0,1-12.73-5.15A19,19,0,0,1,85.18,75.8a18.72,18.72,0,0,1-12.69-5.13,19,19,0,0,1-25.95.07,19.46,19.46,0,0,1-13.22,5.13A18.93,18.93,0,0,1,16.16,64.29a10.1,10.1,0,0,1-1.95-.37A20.58,20.58,0,0,1,32.86,36.37,9.33,9.33,0,0,1,33.75,38h.1a18.9,18.9,0,0,1,13,5.44l-.15-2.67a20.65,20.65,0,0,1,12.07-4.45,10.24,10.24,0,0,1,1,1.67,19.65,19.65,0,0,1,13,5.39l-.15-2.55A20.25,20.25,0,0,1,84.7,36.33,9.19,9.19,0,0,1,85.6,38h.09a19.74,19.74,0,0,1,13,5.53l-.17-2.69a20.55,20.55,0,0,1,12.15-4.54,15.46,15.46,0,0,0,1,1.66c10.15.47,18.26,6.56,18.67,19.18C130.65,67.54,121.57,75.91,111.15,75.77Z"/><path class="cls-1" d="M40.09,63.91a20,20,0,0,1-1.21-7.26A20.27,20.27,0,0,1,43.3,44.2c1,0,2.11-.05,2.72-.05A17.85,17.85,0,1,0,29.66,74.36l.89-1.11a17.15,17.15,0,0,0,2.81.28,16.47,16.47,0,0,0,10.16-3.35l2.49,0a19.19,19.19,0,0,1-4-6A9.13,9.13,0,0,1,40.09,63.91Zm-6.71,8.76A15.72,15.72,0,1,1,42.49,44a21.3,21.3,0,0,0,0,25.88A16.44,16.44,0,0,1,33.38,72.67Z"/><path class="cls-1" d="M49.36,51.84a3.32,3.32,0,0,1,1-1.35,15,15,0,0,0-3.77-5.81,18.18,18.18,0,0,0-4.94,12c-.09,3.15,1.12,8.14,3.52,10.92a13.44,13.44,0,0,0,1.45,1.68L46.64,67a15.71,15.71,0,0,0,3.54-9.85A16.58,16.58,0,0,0,49.36,51.84Zm-2.82,14a15.68,15.68,0,0,1,0-17.86,15.78,15.78,0,0,1,2.8,9.16A15.62,15.62,0,0,1,46.54,65.87Z"/><path class="cls-1" d="M75.21,51.82a3.25,3.25,0,0,1,1-1.36,16.33,16.33,0,0,0-3.73-5.77,17.8,17.8,0,0,0,.09,24.54l.06-2.11C74.53,64,76,61.05,76,57.16A16,16,0,0,0,75.21,51.82ZM72.46,65.77a15.7,15.7,0,0,1,0-17.7,15.75,15.75,0,0,1,0,17.7Z"/><path class="cls-1" d="M92,63.84a20.83,20.83,0,0,1-1.22-7.25,20.58,20.58,0,0,1,4.44-12.46h2.67a18.12,18.12,0,0,0-12.23-5.09A17.78,17.78,0,0,0,73.17,44a18.74,18.74,0,0,1,5.19,13.23,19.17,19.17,0,0,1-5.11,12.73,17.69,17.69,0,0,0,8.26,4.4c.27-.36.58-.74.88-1.12a16.43,16.43,0,0,0,2.82.27A17.72,17.72,0,0,0,95.55,70.1L97.83,70A19.25,19.25,0,0,1,94,64.19,9.35,9.35,0,0,1,92,63.84Zm-6.8,8.77a15.68,15.68,0,0,1-8.76-2.8,21.26,21.26,0,0,0,0-25.79,15.69,15.69,0,0,1,17.95,0,21.28,21.28,0,0,0,0,25.8A16.48,16.48,0,0,1,85.22,72.61Z"/><path class="cls-1" d="M128.15,50.4c-1.43-5-8.58-11.4-16.5-11.4a17.93,17.93,0,0,0-12.51,4.89,18.85,18.85,0,0,1,.06,26,18.14,18.14,0,0,0,8.28,4.38c.27-.35.58-.73.89-1.12a16.2,16.2,0,0,0,2.8.28,16.5,16.5,0,0,0,16-21.67A3.22,3.22,0,0,1,128.15,50.4Zm-17,22.18a15.59,15.59,0,0,1-8.75-2.8,21.26,21.26,0,0,0,0-25.8,15.56,15.56,0,0,1,9.2-2.84,15.72,15.72,0,1,1-.43,31.44Z"/><path class="cls-1" d="M101.19,51.79a3.45,3.45,0,0,1,1-1.36,15,15,0,0,0-3.78-5.79A17.82,17.82,0,0,0,98.6,69.3l0-2.18a15.86,15.86,0,0,0,3.39-10A16,16,0,0,0,101.19,51.79Zm-2.77,14a15.57,15.57,0,0,1-2.74-9.1A15.75,15.75,0,0,1,98.39,48a15.53,15.53,0,0,1,0,17.72Z"/><path class="cls-1" d="M66.07,63.88a20.85,20.85,0,0,1-1.22-7.26,20.46,20.46,0,0,1,4.44-12.46l2.56,0a17.73,17.73,0,0,0-24.57-.17,18.79,18.79,0,0,1,5.24,13.27A19,19,0,0,1,47.28,70a18.1,18.1,0,0,0,8.26,4.35c.27-.37.56-.75.89-1.14a15.39,15.39,0,0,0,2.81.28c3.35.05,7.7-1.08,10.26-3.39h2.39A18.94,18.94,0,0,1,68,64.22,8.66,8.66,0,0,1,66.07,63.88Zm-6.82,8.76a15.53,15.53,0,0,1-8.68-2.75,21.27,21.27,0,0,0,0-25.9,15.71,15.71,0,0,1,17.89,0,21.27,21.27,0,0,0,0,25.78A16.51,16.51,0,0,1,59.25,72.64Z"/><rect class="cls-2" width="145" height="145"/></g></g></svg>