<svg xmlns="http://www.w3.org/2000/svg" viewBox="0 0 145 145"><defs><style>.cls-1{fill:#231f20;}.cls-2{fill:none;}</style></defs><g id="Layer_2" data-name="Layer 2"><g id="Layer_1-2" data-name="Layer 1"><path class="cls-1" d="M72.51,30.5a42,42,0,1,0,42,42,42,42,0,0,0-42-42m0,82.84A40.84,40.84,0,1,1,113.34,72.5a40.89,40.89,0,0,1-40.83,40.84"/><path class="cls-1" d="M48.57,56a.52.52,0,0,0,.11.1l0,0L51.17,53c.3-.38.61-.75.9-1.13a1.26,1.26,0,0,0,.19-1.3,1.27,1.27,0,0,0-1.19-.74,1.34,1.34,0,0,0-1,.56c-.37.46-.72.91-1.09,1.36l-2.22,2.79,1.15.92.68.54"/><path class="cls-1" d="M72.51,32.39A40.11,40.11,0,1,0,112.62,72.5,40.11,40.11,0,0,0,72.51,32.39M66,34.89l3.76-.41,2.73,7.93,2.71-7.93,3.76.41.42,11.29-2.93-.42-.28-7.52-2.64,7.52h-2.1l-2.64-7.52-.27,7.52-2.93.42ZM40.7,53.47l-.91-.73a.81.81,0,0,0-.1-.09l.16-.2,2.33-2.92c.92-1.13,1.82-2.27,2.73-3.4.18-.21.34-.43.52-.66a3,3,0,0,1,1.17-.85,2.72,2.72,0,0,1,3.59,1.91A2.87,2.87,0,0,1,50.13,48l.2-.17A3,3,0,0,1,55.14,50a3.24,3.24,0,0,1-.09,1.2,6,6,0,0,1-1.24,1.92c-.94,1.17-1.88,2.33-2.8,3.49l-2.34,2.92-.17.21s-.08,0-.09-.06l-.87-.69c-1.14-.91-2.26-1.82-3.4-2.72L40.7,53.47m31.81,44.1A25.07,25.07,0,1,1,97.58,72.5,25.06,25.06,0,0,1,72.51,97.57m23.87-38-1.44-2.46,5-6.52L92.46,54,90.37,52l6.78-8.91,2.1,1.94-3.92,5.14,6.26-2.87,1.84,2.28L99.25,55.1l5.87-2.7,1.44,2.47Z"/><path class="cls-1" d="M48.47,48.85a1.24,1.24,0,0,0-.29-1.15,1.28,1.28,0,0,0-1.4-.32,2.11,2.11,0,0,0-.79.75l-2.65,3.29a2.48,2.48,0,0,0-.18.25c.17.15.35.29.53.43.47.39.94.76,1.41,1.14l1.39-1.74,1.39-1.73a2.73,2.73,0,0,0,.59-.92"/><path class="cls-1" d="M48.7,72.5H72.51V48.7A24.46,24.46,0,0,0,48.7,72.5"/><path class="cls-1" d="M72.51,96.3a24.46,24.46,0,0,0,23.8-23.8H72.51Z"/><rect class="cls-2" width="145" height="145"/></g></g></svg>