<svg xmlns="http://www.w3.org/2000/svg" viewBox="0 0 145 145"><defs><style>.cls-1{fill:#231f20;}.cls-2{fill:none;}</style></defs><g id="Layer_2" data-name="Layer 2"><g id="Layer_1-2" data-name="Layer 1"><path class="cls-1" d="M52,109.28a48.65,48.65,0,0,0,22,5.22c17.16-1,34.2-11.84,41.16-28.17,4.56-9.72,4-23.63-.36-33.27C110,41.63,97.88,33.64,86.7,30.5c-1.88.26-3.79.89-4.81,2.68,7.76,2.73,15.23,6.65,21,13.67,7.82,8.81,9.94,23.11,5.14,34-6,14.08-20.72,22.75-35.32,24A45.49,45.49,0,0,1,47.7,95C36.29,85.7,31.44,70.87,36.36,57c3.76-11.46,15.8-20.48,26.83-23.78-1-1.8-3-2.4-4.93-2.68A61.39,61.39,0,0,0,45.74,36a38.6,38.6,0,0,0-19,32.13C25.55,85.77,36.59,101.57,52,109.28m20.73-3.53c14.84-1.28,29.88-9.92,36-24.32,5.46-12.18,2.6-27.72-7-37.11-5.51-5.84-12.07-9.3-19-11.75.19-.38.75-.62,1.16-.87l4.57,1.52A15.84,15.84,0,0,0,85,32.87a41,41,0,0,0,11.32,4.25,47.3,47.3,0,0,1,7,5.49c-1.23-.8-2.89-1.09-4.31-1.71a20.14,20.14,0,0,0,8.08,6.16l.49.36a35.41,35.41,0,0,1,4.74,8.81,22.29,22.29,0,0,0-4.26-4.31,23.87,23.87,0,0,0,5.55,9.51c.72,1.64.69,3.53.89,5.35a42.19,42.19,0,0,1-.22,6.77A20.77,20.77,0,0,0,112.12,67a23.1,23.1,0,0,0,1,12.45,38.45,38.45,0,0,1-4.42,9.86c.72-2.13.55-5.1.35-7.52a24.39,24.39,0,0,0-2.64,5.76l-.89,5.95a38.43,38.43,0,0,1-7.64,7.18c2.1-2.21,2.89-4.94,3.58-7.71A18.12,18.12,0,0,0,96,99.39l-1.82,3.71a46.25,46.25,0,0,1-11,4.83,21.66,21.66,0,0,0,7.08-6.82c-2.93,1.32-6.15,2.49-8.43,5.36-.92.81-1.3,2.29-2.63,2.49a58.07,58.07,0,0,1-6.44.84ZM93.48,36a29.51,29.51,0,0,1-6.28-2.44A39.77,39.77,0,0,1,93.48,36m3-.17a29.1,29.1,0,0,1,5.52,5.08c-1.86-1.71-3.93-3.09-5.52-5.08m9.88,10.4a16.26,16.26,0,0,1-5.83-4.08,43.44,43.44,0,0,1,5.83,4.08m6.86,14A20.3,20.3,0,0,1,109,53.52a41.5,41.5,0,0,1,4.27,6.74m.1,17.95a58.8,58.8,0,0,0-.9-9.57c1.31,2.78,2,6.49.9,9.57m-7.12,14.46a57.48,57.48,0,0,0,2.53-9.08c.23,3.47-.25,6.66-2.53,9.08m-11,9.71a71.48,71.48,0,0,0,5.33-7.9,12.55,12.55,0,0,1-5.33,7.9m-14.54,6.18c2.84-1.92,5.54-4.24,8.29-6.43a17.12,17.12,0,0,1-8.29,6.43m-8,1.64a17.44,17.44,0,0,0,14.23.94c-2.82-.64-5.33-2-8.53-1.66a67.84,67.84,0,0,0,7.14-1.82c4.42,1,9.33.39,12.8-2.34-2.84.05-6-.37-8.73.58a57.46,57.46,0,0,0,9-5.28c4.44-.21,8.75-2,11-6.14-2.39,1-5.14,1.41-7.34,3a42.27,42.27,0,0,0,6.55-7.86A12.4,12.4,0,0,0,116.63,79c-1.47,1.9-3.88,3.51-5,5.68a40.36,40.36,0,0,0,3.32-12.78,13.29,13.29,0,0,0,1.37-12.37,26.09,26.09,0,0,0-1.5,5.58A38,38,0,0,0,112,54.26c.38-3.6-.46-6.84-3.11-9.27-.45-.46-.94-.92-1.36-1.35a20.41,20.41,0,0,0,1.41,5c-1.75-3.3-6-5.93-7.27-9.55-1.54-2.34-4.11-3.22-6.28-4.54v.21a14.22,14.22,0,0,0,2.17,2.73,51.57,51.57,0,0,0-13-6c1.93-1.26,3.86.09,5.7.63,9.27,3.25,19,10.26,23.53,19.61,5.63,10.54,5.8,26.31,0,36.84-8,15.61-24.15,24.9-41,25.73Zm1.51.26a87.38,87.38,0,0,0,11.11.78c-3.56.92-7.91.84-11.11-.78m12.67-3c3.26-.49,6.75-.67,9.9-1.57a14.19,14.19,0,0,1-9.9,1.57m13.23-7.42a44.55,44.55,0,0,0,8.31-4.55,11.35,11.35,0,0,1-8.31,4.55M110.23,88.4A36,36,0,0,0,116,80.6a11.08,11.08,0,0,1-5.77,7.8M114.9,71c0-3.5,0-7,1.26-10a50.11,50.11,0,0,1-1.26,10M111.38,52.8c-1.27-2.57-2.8-5-3.26-7.93a30.43,30.43,0,0,1,3.26,7.93M62.32,32.51C51.24,36,39.24,45.19,35.46,56.74c-4.69,13.19-.62,27.54,9.51,37,7.78,7.25,17,10.95,27.44,12v4a36.79,36.79,0,0,1-7.13-.93c-1.67-1.73-3.08-3.84-5.15-5.12-1.69-1-3.47-1.82-5.25-2.65v.2a22.81,22.81,0,0,0,7,6.69,47.54,47.54,0,0,1-11-4.83C49.41,100.35,48.51,97.33,46,95l-2.29-2.12A18.41,18.41,0,0,0,46,99.13l1.21,1.54a44,44,0,0,1-7.65-7.07c-.43-2.67-.53-5.45-1.51-7.89a32.35,32.35,0,0,0-2-3.93c-.2,2.42-.39,5.39.35,7.52A40.76,40.76,0,0,1,32,79.51c1.26-3.8,2-8.39,1-12.52a21.73,21.73,0,0,0-2.2,6.52,39,39,0,0,1,.44-11.61c1.46-2.2,3.5-4.15,4.49-6.56A35.69,35.69,0,0,0,37.05,52a18.83,18.83,0,0,0-4.3,4.25,36.18,36.18,0,0,1,4.77-8.86C39.87,46,42.33,45,44.35,42.88l1.76-1.94a18.47,18.47,0,0,0-4.37,1.72A37.85,37.85,0,0,1,49.07,37a40.48,40.48,0,0,0,11.06-4.15,15.56,15.56,0,0,0-3.57.35l4.49-1.52a5.14,5.14,0,0,1,1.27.81m2,76.05a17.09,17.09,0,0,1-8.3-6.43c2.74,2.19,5.45,4.5,8.3,6.43m-14.61-6.22a12.66,12.66,0,0,1-5.3-7.86,72.61,72.61,0,0,0,5.3,7.86M38.84,92.67c-2.29-2.42-2.77-5.61-2.55-9.08a57.53,57.53,0,0,0,2.55,9.08M31.71,78.21c-1.12-3.08-.42-6.79.89-9.57a62.34,62.34,0,0,0-.89,9.57m.12-17.91a38.12,38.12,0,0,1,4.24-6.78,21.67,21.67,0,0,1-4.24,6.78m6.9-14.12a43.85,43.85,0,0,1,5.77-4,15.63,15.63,0,0,1-5.77,4M43,40.9a30.46,30.46,0,0,1,5.45-5.08c-1.41,2-3.63,3.37-5.45,5.08M51.61,36a35.17,35.17,0,0,1,6.29-2.44A33.31,33.31,0,0,1,51.61,36M38,42.55c6-5.89,13-9.38,20.46-11.7a7.56,7.56,0,0,1,2.12.58,53.59,53.59,0,0,0-13,6,11.53,11.53,0,0,0,2.21-2.89c-2.69,1.32-6.27,3-7.32,6.31l-.45,1a33.4,33.4,0,0,0-5.76,6.75,21.32,21.32,0,0,0,1.33-5A11.23,11.23,0,0,0,33.11,54.3a36.47,36.47,0,0,0-2.79,10.87,25.52,25.52,0,0,0-1.51-5.63c-1.79,4-.88,9.19,1.45,12.63a39.25,39.25,0,0,0,3.22,12.48c-1.1-2-3.56-3.74-5-5.64a11.94,11.94,0,0,0,6.14,9.72c2.11.41,2.53,2.84,3.93,4.18a44.63,44.63,0,0,0,4.27,4.56c-2.23-1.57-4.91-1.94-7.32-3.07v.22c2.39,4.16,6.68,5.77,11.12,6a45.65,45.65,0,0,0,8.89,5.23c-2.56-1-5.87-.49-8.74-.61a10.62,10.62,0,0,0,2.9,1.75c2.93,1.32,6.74,1.28,10,.62a64.47,64.47,0,0,0,7,1.82c-3.2-.3-5.73,1-8.54,1.66a17.42,17.42,0,0,0,14.23-.94l.09,4C54.59,113.58,36.89,102.49,30,85.56c-5.64-14.19-3.05-32.15,8-43M33.69,52.8A29.87,29.87,0,0,1,37,44.87c-.48,2.91-2.05,5.35-3.3,7.93M30.15,71a50.85,50.85,0,0,1-1.23-10c1.25,3,1.2,6.5,1.23,10m4.74,17.44a11.33,11.33,0,0,1-5.84-7.87,37.33,37.33,0,0,0,5.84,7.87m10,11.58a11.58,11.58,0,0,1-8.38-4.55,48.67,48.67,0,0,0,8.38,4.55m13.22,7.36a13.68,13.68,0,0,1-9.91-1.51,67.58,67.58,0,0,0,9.91,1.51m12.67,3a16.57,16.57,0,0,1-11.06.78,89.12,89.12,0,0,0,11.06-.78"/><path class="cls-1" d="M40.66,53.41l5.45,9.37L46.32,67l.82,11,.62,4.4c.42,2.77,3.21,4.73,5.61,5.69A179.12,179.12,0,0,0,72.57,94c6.27-1.67,12.49-3.42,18.52-5.64,2.47-.94,5.53-2.75,6.1-5.64A150.1,150.1,0,0,0,98.93,62.9l5.49-9.49L103,53.22,84,50.88l-11.8-1.17-9.17,1Zm32.09-2.8,20.13,2.24,10.05,1.31L98,62.53c-.28,6-.65,11.94-1.28,17.76-.34,2-.67,4.12-2.61,5.42a24.8,24.8,0,0,1-6.39,2.87c-4.9,1.72-10,3-15,4.44l0-3.94c6.42-1.62,13.36-2,19.32-4.79,1.72-.79,2.31-2.56,2.43-4.26l.47-18.31C96,60,97.05,58.16,98,56.37l-25.28,0Zm.3,30.92H93.76c-.57,2.45-3.28,2.83-5.18,3.66l-5.14,1.3-10.34,2Zm-.64-24.79h.29v6.94l10.8,0,.1-.15V56.74H97.3L96,59H84a8.62,8.62,0,0,0-.1,2.11l.14.11H94.66A6.66,6.66,0,0,0,94.42,64l-10.52.07,0,7.14.14.1H94.23v.25H72.8l-.1.16v5l21.4,0c.08,0,0,.17,0,.26L72.75,77l0,3.77.13.12h21.1l-.1.26H72.75l0,7.34c0,.08-.18.06-.26.07l0-9.43-10.82-.07-.11.18v7.18a32.18,32.18,0,0,1-8.26-2.59h7.89a11.83,11.83,0,0,0,.13-2.17l-.19-.09H51.29A17.79,17.79,0,0,1,51,78.82l10.13,0,.13-.15v-7l-.19-.11H50.82v-.25H72.28l.13-.17v-5l-21.69-.08v-.25l21.6,0L72.41,62,50.69,62c-.12-.08-.07-.22-.07-.33h21.7ZM94.19,72l0,4.36H73.05V72ZM50.72,66.52H72v4.34H50.82Zm-.3-5.23-2.66-4.55H72v4.51ZM72.28,50.61v5.72H47.1l0,.31L50.2,61.8l.37,17.6c.15,1.47.19,3,1.35,4,2.3,1.7,5,2.32,7.73,3L72.22,89h.06c.1,1.3,0,2.67,0,4-6.44-1.85-13-3.49-19.16-6a7.13,7.13,0,0,1-4.72-6c-.71-6-1.16-12.16-1.4-18.39-1.56-2.85-3.34-5.62-4.88-8.47l20.92-2.55Z"/><path class="cls-1" d="M83.44,66.56H72.8v2.18l10.74,0a8.84,8.84,0,0,0-.1-2.14"/><rect x="61.59" y="74.33" width="10.74" height="1.72"/><rect class="cls-2" width="145" height="145"/></g></g></svg>