<svg xmlns="http://www.w3.org/2000/svg" viewBox="0 0 145 145"><defs><style>.cls-1{fill:#231f20;}.cls-2{fill:none;}</style></defs><g id="Layer_2" data-name="Layer 2"><g id="Layer_1-2" data-name="Layer 1"><path class="cls-1" d="M38.21,103.81a9.73,9.73,0,0,1-2.57.33,6.56,6.56,0,0,1-3-.69,5.49,5.49,0,0,1-2.09-1.87A4.76,4.76,0,0,1,29.78,99a4.71,4.71,0,0,1,.85-2.79,5.49,5.49,0,0,1,2.28-1.83,7.05,7.05,0,0,1,3-.65,8.19,8.19,0,0,1,3.19.57,18.88,18.88,0,0,1,2.73,1.43V90.79a21.86,21.86,0,0,0-7.19-1.43,14.09,14.09,0,0,0-4,.57,10.14,10.14,0,0,0-3.42,1.78,8.09,8.09,0,0,0-2.33,3A10,10,0,0,0,24,98.93a10.33,10.33,0,0,0,.71,3.84,8.26,8.26,0,0,0,2.13,3.07,9.23,9.23,0,0,0,3.34,2,13.54,13.54,0,0,0,4.37.67,23.12,23.12,0,0,0,2.54-.15,15.1,15.1,0,0,0,2.45-.53,15.9,15.9,0,0,0,2.37-1v-4.75a15.78,15.78,0,0,1-1.71,1,12.58,12.58,0,0,1-2,.74"/><polygon class="cls-1" points="58.69 96.46 50.23 96.46 50.23 89.64 44.61 89.64 44.61 108.26 50.23 108.26 50.23 101 58.69 101 58.69 108.26 64.34 108.26 64.34 89.64 58.69 89.64 58.69 96.46"/><polygon class="cls-1" points="73.53 100.55 81.35 100.55 81.35 96.77 73.53 96.77 73.53 93.42 81.72 93.42 81.72 89.64 67.89 89.64 67.89 108.27 81.96 108.27 81.96 104.5 73.53 104.5 73.53 100.55"/><path class="cls-1" d="M99.23,101.31a5.52,5.52,0,0,0-1.5-1.25,9.4,9.4,0,0,0,1.37-.84,4.09,4.09,0,0,0,1.15-1.42,4.84,4.84,0,0,0,.55-2.38,6,6,0,0,0-.66-2.57A5.72,5.72,0,0,0,98,90.57a7.1,7.1,0,0,0-3.8-.93H84.62v18.62h5.63V101h.64a4.63,4.63,0,0,1,1.58.23,3.27,3.27,0,0,1,1.26,1.08A13,13,0,0,1,95.19,105l1.48,3.3h6l-1.88-4a15.57,15.57,0,0,0-1.59-2.91m-4.92-4.08a6.18,6.18,0,0,1-2.84.45H90.25V93.23h1.2a5.7,5.7,0,0,1,2.76.5,1.92,1.92,0,0,1,.86,1.78,1.8,1.8,0,0,1-.76,1.72"/><polygon class="cls-1" points="111.29 95.5 107.01 89.64 101.17 89.64 108.6 99.83 108.6 108.26 114.25 108.26 114.25 99.74 121.56 89.64 115.58 89.64 111.29 95.5"/><path class="cls-1" d="M72.35,64c-2.5,0-4.92-.07-7.3-.19l8.44-24L90.66,77h11.4l-5.6-9.09.7,1c14.33-3.06,23.93-8.66,23.93-15.09,0-8-15-14.81-35.6-16.87l.05.07c-1.72-.18-3.5-.32-5.31-.42l.15.16h0l2.46,3.29s5.18.45,9.45,1c11.63,1.92,19.79,5.48,21,9.62a3.09,3.09,0,0,1,.1.85c0,3.61-5.15,6.86-13.37,9.09l.06.09c-2.14.58-4.5,1.09-7,1.53L77.36,36.78H69.75L56,63C52.89,62.55,50,62,47.3,61.42l.07-.05c-9.68-2.24-15.94-5.73-16.06-9.66.11-4.74,9.26-8.82,22.58-10.82,4.71-.61,10.92-1.12,10.92-1.12l2.64-3.27c-.93,0-1.82.06-2.7.13-1.64.09-3.27.22-4.84.36l0,0A103.24,103.24,0,0,0,44.59,39.5a1.17,1.17,0,0,1-.27,0c-.36.11-.72.19-1.09.29l-.94.27a.57.57,0,0,1-.14,0c-11.39,3.2-18.71,8.18-18.71,13.77s7.35,10.59,18.79,13.81l0-.06a90.07,90.07,0,0,0,10.11,2.2l-3.78,7.22H60.35l2.13-6c3.18.23,6.48.37,9.87.37,3.62,0,7.17-.15,10.58-.42l-2.79-7.17c-1.93.08-5.76.14-7.79.14"/><rect class="cls-2" width="145" height="145"/></g></g></svg>