<svg xmlns="http://www.w3.org/2000/svg" viewBox="0 0 145 145"><defs><style>.cls-1{fill:#231f20;}.cls-2{fill:none;}</style></defs><g id="Layer_2" data-name="Layer 2"><g id="Layer_1-2" data-name="Layer 1"><path class="cls-1" d="M35.3,64.4H57.11c.67,0,.91.31.91.91v3.2a1.27,1.27,0,0,0,1.39,1.4H84a1.26,1.26,0,0,0,1.4-1.4V65.32c0-.64.27-.92.91-.92H100a2.1,2.1,0,0,0,2.1-1.13L108.9,50a1.53,1.53,0,0,0,.25-.78A1.23,1.23,0,0,0,107.84,48H86.34c-.56,0-.91-.15-.91-.91V43.91A1.27,1.27,0,0,0,84,42.5H59.41A1.26,1.26,0,0,0,58,43.91v3.18c0,.69-.32.91-.91.91H43a2.08,2.08,0,0,0-2,1.19L34.12,62.62a1.3,1.3,0,0,0-.14.57A1.2,1.2,0,0,0,35.3,64.4m5.41-5.33L44,52.66c.13-.24.33-.38.83-.38H61.35c.57,0,.93-.23.93-.94V47.68c0-.66.29-.92.91-.92h17c.62,0,.91.27.91.93v3.68c0,.62.3.91.94.91h19.58a.73.73,0,0,1,.83.72.65.65,0,0,1-.09.35l-3.26,6.41a.84.84,0,0,1-.82.37H82.09c-.68,0-.93.3-.93.93v3.68c0,.61-.26.9-.92.9h-17c-.57,0-.91-.2-.91-.91V61.05c0-.67-.31-.92-.93-.92H41.44a.73.73,0,0,1-.81-.73.7.7,0,0,1,.08-.33"/><path class="cls-1" d="M87.74,45.66H88l.43.67h.23l-.44-.68c.26,0,.47-.13.47-.43s-.28-.41-.53-.41h-.67v1.52h.21Zm0-.66h.41c.16,0,.36,0,.36.22s-.07.27-.36.27h-.41Z"/><path class="cls-1" d="M88,46.92a1.34,1.34,0,1,0-1.35-1.34A1.34,1.34,0,0,0,88,46.92m0-2.48a1.14,1.14,0,0,1,0,2.27,1.14,1.14,0,1,1,0-2.27"/><polygon class="cls-1" points="22.75 93.83 28.55 93.83 28.55 102.49 32.58 102.49 32.58 83.15 28.55 83.15 28.55 90.89 22.75 90.89 22.75 83.15 18.71 83.15 18.71 102.49 22.75 102.49 22.75 93.83"/><polygon class="cls-1" points="130.36 102.49 134.39 102.49 134.39 86.1 139.88 86.1 139.88 83.15 124.88 83.15 124.88 86.1 130.36 86.1 130.36 102.49"/><polygon class="cls-1" points="103.56 83.15 99.52 83.15 99.52 102.49 111.07 102.49 111.07 99.54 103.56 99.54 103.56 83.15"/><path class="cls-1" d="M54.54,102.5h3.73a2,2,0,0,0,2.07-1.67l4.77-17.68H61.55L57.36,99.28c-.06.2-.21.26-.42.26a.42.42,0,0,1-.43-.27L52.26,83.15h-4.7l4.87,17.64a2,2,0,0,0,2.11,1.71"/><path class="cls-1" d="M8.13,102.5h9V99.54H10.63c-1.11,0-1.47-.28-1.47-1.48V87.57c0-1.16.27-1.47,1.47-1.47h6.54V83.15h-9c-2.07,0-3,1.07-3,3V99.47c0,2.15,1.1,3,3,3"/><path class="cls-1" d="M40.51,86.1h6.64V83.15H38c-2.09,0-3,1-3,3V99.47c0,2,1,3,3,3H48v-3H40.51c-1.12,0-1.47-.25-1.47-1.48V93.83h8V90.89H39V87.57c0-1.12.25-1.47,1.47-1.47"/><path class="cls-1" d="M79.91,91.29V86.16c0-2-1-3-3-3H65.64V102.5h4V86.1h4.71c1.26,0,1.49.35,1.49,1.47v2.36c0,1.14-.31,1.48-1.48,1.48h-2.2a1.24,1.24,0,0,0-1.34,1.36,2,2,0,0,0,.38,1l5.1,8.7h5L76,94.31h.91c1.86,0,3-.84,3-3"/><path class="cls-1" d="M89.63,102.5h4.42c1.93,0,3-.92,3-3V86.16c0-2-.93-3-3-3H85.16c-2.14,0-3,1.08-3,3V99.47c0,2.19,1.18,3,3,3ZM86.17,87.57c0-1,.14-1.47,1.48-1.47h3.91c1,0,1.48.18,1.48,1.47V98.06c0,1.24-.38,1.48-1.48,1.48H87.65c-1.16,0-1.48-.32-1.48-1.48Z"/><path class="cls-1" d="M114.87,102.5h10V99.54h-7.46c-1.13,0-1.48-.25-1.48-1.48V93.83h8V90.89h-8V87.57c0-1.12.23-1.47,1.47-1.47H124V83.15h-9.12c-2.08,0-3,1-3,3V99.47c0,2,1,3,3,3"/><rect class="cls-2" width="145" height="145"/></g></g></svg>