<svg xmlns="http://www.w3.org/2000/svg" viewBox="0 0 145 145"><defs><style>.cls-1{fill:#231f20;}.cls-2{fill:none;}</style></defs><g id="Layer_2" data-name="Layer 2"><g id="Layer_1-2" data-name="Layer 1"><polygon class="cls-1" points="38.49 32.5 38.49 34.29 72.5 28.29 106.51 34.29 106.51 32.5 72.5 26.5 38.49 32.5"/><path class="cls-1" d="M38.49,36V60.2a65.52,65.52,0,0,0,6.76,28.61c10.52,21.86,26.84,29.51,27,29.58l.24.11.25-.11c.16-.07,16.46-7.72,27-29.58a65.64,65.64,0,0,0,6.75-28.61V42.09l0-6.05-34-6ZM105.34,60.2a64.62,64.62,0,0,1-6.65,28.11c-9.64,20-24.16,27.88-26.19,28.9-2-1-16.56-8.88-26.19-28.9A64.48,64.48,0,0,1,39.66,60.2V42.79c1.86-1,13.4-6.45,32.9-6.45s30.92,5.48,32.78,6.45Z"/><path class="cls-1" d="M84.42,95.6a8.06,8.06,0,0,0-3.54-.2,2.29,2.29,0,0,0-2.06,1.91c-.12.75.76,1.21,1.5,1a1.65,1.65,0,0,0,1-1.17,2.88,2.88,0,0,1-1,.51c-.54.09-.82-.27-.67-.65a1.41,1.41,0,0,1,1.2-1,8.89,8.89,0,0,1,2,0c1,.09,1.53.27,1.26.75A7.63,7.63,0,0,0,83,98.75c-.22.54-.17.82-.53.82a1.37,1.37,0,0,0-1,.24,1.07,1.07,0,0,0-.38.9,1.25,1.25,0,0,1,1.17-.53c.2,0,.07.5-.12.9s-1.2,3-3.25,3a2.33,2.33,0,0,1-2.42-2.43c.22-.54.58-.06,1-.16s.84-.8.28-1.19c-1.32-.9-2.57,1.31-1.2,3.25s3.34,1.16,4.42.61a5.32,5.32,0,0,0,2-2.44c.37-.73.68-1.54.68-1.54a3.73,3.73,0,0,0,1.13-.17,1.73,1.73,0,0,0,.86-.81,3.38,3.38,0,0,1-1.74.23c-.13,0,.21-.76.55-1.43a3.72,3.72,0,0,1,1.14-1.48,28.58,28.58,0,0,0,3-.37A6.92,6.92,0,0,0,90.86,95a12.91,12.91,0,0,1-3.52.63,8.71,8.71,0,0,1-2.92-.05"/><path class="cls-1" d="M64.18,98.46c-1.59-.63-2.52-1-2.54-1.73,0-1.28,1.62-1,2-.84a4.89,4.89,0,0,1,2.86,2.24s-.34-2.06-.41-2.44-.32-.33-.43-.32-.25.44-.25.44S60.19,93.64,60.19,97c0,1.6,1.7,1.86,2.45,2.25,1.54.81,3.47,1.3,3.64,2.51s-.83,2.32-2.93,2.32a3,3,0,0,1-2.94-2.39c.08-.39.48-.15.8-.15a.69.69,0,0,0,.59-1c-.2-.49-1.82-.53-1.82,1.11,0,2.35,2.33,3,3.34,3s3.1-.34,3.57-2.47-.58-3-2.71-3.82"/><path class="cls-1" d="M72.88,87.78l.85.4a1.18,1.18,0,0,0,.92.06,2,2,0,0,0,.67-.94.43.43,0,0,0-.08-.42,13,13,0,0,1-1.13-3.17,9.64,9.64,0,0,1,.1-2.17,7.74,7.74,0,0,0,.07-1.23,1.61,1.61,0,0,0-.6-.52l-.48-.32a1,1,0,0,1-.26-.76l-.06-.47a10.25,10.25,0,0,0-2.62-2.67c-.48,0-.62.5-.65.82a11.42,11.42,0,0,0,.4,1.79l.22.89c.22,1.43,1.73,3.93,2.37,5l.31.51a.49.49,0,0,1-.16.68A11.55,11.55,0,0,1,69.64,85a9.08,9.08,0,0,1-1.4-.49A5.63,5.63,0,0,0,66.86,84a1.57,1.57,0,0,0-.66.1l-.22.07-.2-.07a6.36,6.36,0,0,0-2.05-.44c-1.93-.18-2.09.21-2.18.42s1.09,1.51,1.3,1.69a2.87,2.87,0,0,0,1.67.46,14.85,14.85,0,0,1,1.73-.2l.18.12.19.13a13.1,13.1,0,0,0,1.57.15,18.42,18.42,0,0,1,2.09.37l.8.17a10.17,10.17,0,0,1,1.8.79m.78-2.3a.29.29,0,0,1,.29.29.28.28,0,0,1-.29.28.31.31,0,0,1-.32-.28.32.32,0,0,1,.32-.29M63.33,85c-.26,0-.45-.12-.45-.31s.19-.31.45-.31.44.14.44.31-.19.31-.44.31M67,85c-.19,0-.33-.09-.33-.21s.14-.22.33-.22.3.1.3.22-.14.21-.3.21m2.8.88c-.56-.15-1.62-.48-1.57-.69l0,0h0a4,4,0,0,1,1.67.21c.57.13,1.63.47,1.58.68l0,0h0a4.3,4.3,0,0,1-1.66-.2"/><path class="cls-1" d="M72.23,39.39l-.21.48-.21.34h0c0,.06,0,.39,0,.39a2.73,2.73,0,0,0,.23.25,2,2,0,0,0-.09.33s-.89,0-.89,0l-.72-.34-.56-.19-1.3,0-.25.35,0,0,.56.09.14.07-.15.12-.78,0s-.57.24-.57.24l-.06,0,.27.18,1.2.05.88.22.15.26a2.76,2.76,0,0,1,.17.23l-.37.2-1.08.45-2.2,1.24L65,44.66s-.57.31-.57.31-.47.63-.47.63-.26.78-.26.78c0,1.31,0,1.34.06,1.35a.8.8,0,0,0,.71.09,6.44,6.44,0,0,1,1.43-.44.22.22,0,0,1,.27.09.21.21,0,0,1-.18.22l-.08,0c-.64.18-1.29.38-1.27.63l.11.19a2.31,2.31,0,0,0,1.43,0l.41-.12a3.13,3.13,0,0,1,1.1-.18,2.06,2.06,0,0,1,.59.2,2.76,2.76,0,0,0,1.09.33,4.06,4.06,0,0,1,1.39.26,1.45,1.45,0,0,1,0,.8l0,.24c-.22,2-2.5,4.32-3.58,5.43a3.58,3.58,0,0,0-.54.57l-.12.29a.87.87,0,0,1-.55.64,11,11,0,0,0-1.2.84,6.89,6.89,0,0,1-2,1.27A13.94,13.94,0,0,1,60,57.55c-2-2-2.9-1.56-3.39-1.33l-.09,0c-.61.27-1.23,2-1.3,2.37l-.26,1-.18.78c-.06.27-.3.91-.54,1.54l-.49,1.36a6.32,6.32,0,0,1-.45,1.13l-.21.52a15,15,0,0,0,.11,4.33h0l.05,0c.27,0,.83-.61,1.11-.89l0-.06a2.2,2.2,0,0,0,.48-1.12,6.09,6.09,0,0,0-.15-.92,6,6,0,0,1-.17-2.73l0-.22c0-.24.25-.5.48-.76l.3-.33a1,1,0,0,1,.49-.36l.25-.15.06,0a2.22,2.22,0,0,0,.59-.86l.24-1.08.06-.29c0-.06,0-.09.08-.09a.35.35,0,0,1,.32.14l1.81,2.09a4.94,4.94,0,0,1,.94,1h0s0,0,0,0a10.9,10.9,0,0,1-1.74-.3c-1.73-.51-2.5-.42-3.12.34s-.46,3.53-.33,3.83.76,3.51.79,3.94a3.11,3.11,0,0,0,.37,1.36l0,0a3.13,3.13,0,0,1,.86,1.33A5.41,5.41,0,0,0,59,75.59a.25.25,0,0,0,.2,0c.38-.26.55-1.56.58-2.09a2,2,0,0,0-.48-1.38l-.1-.13a1.42,1.42,0,0,0-.76-.42c-.09,0-.22,0-.22-.08s0-1-.34-1.21a3.11,3.11,0,0,1-.53-1.48A6.14,6.14,0,0,0,57,67.12a3.23,3.23,0,0,1-.28-1.65.39.39,0,0,1,.35-.33.71.71,0,0,1,.55.14,12.74,12.74,0,0,0,2.53,1.53,6,6,0,0,1,1.35,1,4.36,4.36,0,0,0,.77.59,4.59,4.59,0,0,0,1.44.14,2.45,2.45,0,0,1,.61,0c-.2.08-.2.46-.19.59.22,1.57,5.94,5.88,6.38,6.13A16.67,16.67,0,0,1,73,77.71a1.25,1.25,0,0,1,.3.76,1.3,1.3,0,0,0,.35,1,1.18,1.18,0,0,0,.85.45c.27,0,.43-.23.56-.39l0,0A3.92,3.92,0,0,0,76,77.31c.06-1,.56-1.48.71-1.5s.13,0,.14,0,0,.13-.1.19a2.36,2.36,0,0,0-.48,1.12l0,.5a1.73,1.73,0,0,1-.41,1.24,6.82,6.82,0,0,0-1.38,3.82c-.11,1.07.38,2.63,1.44,4.61l.06.13.3.49A5.46,5.46,0,0,1,77,89.37a1.71,1.71,0,0,1-.5,1,29,29,0,0,1-2.43,2.71.85.85,0,0,0-.69.25l-.3.23a1,1,0,0,0-.44.56.61.61,0,0,1-.23.33l-.11.08s-.09.1-.8.82a3.08,3.08,0,0,0-1,2.62c0,.28.28.38,1,.41A4.14,4.14,0,0,0,73.9,96.9v-.15c.07-.33.19-.91.37-1a4.75,4.75,0,0,0,.91-.87l0-.07a1.29,1.29,0,0,0,.22-.51.83.83,0,0,1,.16-.39.59.59,0,0,1,.27-.18,1.25,1.25,0,0,0,.69-.75,8.72,8.72,0,0,1,2.25-2,7.15,7.15,0,0,0,.88-.67,1.26,1.26,0,0,0,.18-.74,1.36,1.36,0,0,0-.32-1,4.6,4.6,0,0,1-.74-1.49h0c0-.11,0-.34,0-.74v-.05c0-1.06,1.57-2.11,2.27-2.56l.29-.2c2.48-2.19,3-3.84,3-4.29l0-.56c0-.37.05-.74.26-.78a.53.53,0,0,1,.34.16.37.37,0,0,1,.08.33C85,78.78,85,81.85,85,82s.28.33.28.33l.05,0v-.07s.14-.87.14-1.18a5.71,5.71,0,0,1,.66-1.77l0,0a4.89,4.89,0,0,1,.13,1.19,2.35,2.35,0,0,1-.3,1.33,6.62,6.62,0,0,0-.87,1.66L84.9,84a.31.31,0,0,0,0,.17,3.61,3.61,0,0,0,.34,1.38.11.11,0,0,0,.08,0s.09-.07.09-.4A3.07,3.07,0,0,1,86.44,83a4,4,0,0,0,1.11-3.12,7.75,7.75,0,0,0-.11-1.39s-.43-.64-.46-.65.15-.09.19-.12l.45.61a1.44,1.44,0,0,1,.27.5,6.87,6.87,0,0,0,.15,1.4l0,.07a13,13,0,0,0,.56,1.48l0,.11,0-.12a5.57,5.57,0,0,0,0-1.06,3.69,3.69,0,0,1,0-1l.09-.83a2.57,2.57,0,0,0-.34-1.49l-.12-.18c0-.08-.09-.15-.09-.17l.09,0a5.42,5.42,0,0,0,3.23-2.89,6.74,6.74,0,0,0,.4-2.37,12.26,12.26,0,0,0-.3-2.87,4.3,4.3,0,0,1-.06-1.65l.06-1a2.93,2.93,0,0,1,.71-1.71l.43-.65a1.18,1.18,0,0,0,0-1.15.13.13,0,0,0-.1,0,.09.09,0,0,0-.05.09,1.88,1.88,0,0,1-.65,1.06c-.55.21-.82.85-1,1.32-.12.23-.22.46-.3.46s-.06,0-.11-.11a3.23,3.23,0,0,1,0-2.17l0-.17a5.83,5.83,0,0,1,1.25-1.95l.17-.21a3.35,3.35,0,0,0,.32-1.66s0,0,0,0l0,0h0s0,0,0,.08a6.6,6.6,0,0,1-1.94,2.16,6.13,6.13,0,0,0-.74.89,1.53,1.53,0,0,1-.37.44,3.74,3.74,0,0,1,.5-2.87l.1-.22a6.46,6.46,0,0,1,1.8-2.39.1.1,0,0,0,0-.12s-.14,0-.28.06l-.07,0a5.52,5.52,0,0,0-2.63,2.46,7.46,7.46,0,0,0-.82,3.37A3.47,3.47,0,0,0,88,64.44c.27.78.78,2.7.93,3.46A23.72,23.72,0,0,1,89.06,71v.86l-.25.81a4,4,0,0,1-1.18,1.71,6,6,0,0,1-2.22,1.43,1.85,1.85,0,0,1-.92-.05c0-1.22-2.11-4.08-3.17-5a21.8,21.8,0,0,0-3.48-2.56c-1.52-.92-3.19-4.8-3.21-4.84l-.15-.51s-.08-1-.11-1.33a.65.65,0,0,1,.14.09l.51.3.59.23.78.14.44.23.4.26.61.45s.66.34.66.34l.76,0V63.5l-.87-.41s-.32-.56-.32-.56L77.72,62l-.46-.28-.56-.09a.76.76,0,0,1-.16-.14.76.76,0,0,1,.13-.08l.61.07.54.38.58.44.56.22.07,0-.24-.63s-.46-.42-.46-.42L77.68,61l-.53-.27-.56-.19L76,60.12V60l.83.33.7.18.57.23.86.41.7.16.86-.16s.83-.56.83-.56.14-.35.14-.35l0-.09-.25.12s-.74.37-.74.37L80,60.8l-.57-.12L79,60.23l-.66-.63-.59-.31L77,59.18,76.6,59v0a1.8,1.8,0,0,0,0-.22l.89.08,1-.08.55.12.55.22s.54.07.54.07l.11,0-.62-.6-.64-.45-.52-.19-.9-.09s0,0,0,0,0-.13,0-.17.41-.07.41-.07l.66.15.62.37.66.23,1-.15h0l-.3-.38-.48-.16-.4-.3-.59-.41-.46-.15L78,56.62l-.36-.33s0-.11,0-.17l.37.11.48.23.67.21-.15-.3a3.25,3.25,0,0,1-.26-.27,3.41,3.41,0,0,1-.23-.3.22.22,0,0,0,.09,0l.72.38.56.18.42.41.82.47.09,0-.15-.39s-.45-.58-.45-.58l-.37-.63L79.6,55l-.86-.46-.34-.37-.57-.6s-.07-.22-.11-.32l.59.18.67.19.46.3.39.48.64.27,1.6.21h.09l-.43-.46L80.85,54l-.49-.38-.29-.51-.3-.53-.48-.46-.6-.34-.58-.48s-.14-.3-.22-.5l.4.4.77.67.6.28.51.4.59.59s.94.15.94.15h.11l-.93-.8-.21-.66-.49-.47-.25-.29-.25-.78-.53-.54L78.31,49h0a1.63,1.63,0,0,1,0-.21l.14.08.79.45.92.26,1,.23,1.1.18-.27-.53-.55-.24-.52-.3-.63-.27-.54-.22s-.37-.46-.56-.72l.48.33.49,0h1.51l.62.34.5.57.1.06-.08-.63L82.38,48l-.89-.5-.7-.26L79.71,47h0l-.18-.25s-.79-.72-.79-.72l-.37-.18s-.13-.12-.2-.21h.4l.61.37s.81.27.81.27l1,.16.39.43.57.35.63.12h.08l-1.3-1.6-.63-.34L80,45.2s-.66-.74-.66-.74l-.8-.5-.6-.15c0-.06.15-.25.15-.25l.66-.3s.94-.18.94-.18.11-.25.11-.25a4.7,4.7,0,0,0-.41-.3l-.49-.15a2.57,2.57,0,0,0-.29.15l-.79,0-1-.22s-1-.82-1-.82-.43-.24-.43-.24l-1.65-.18s-.38-.59-.38-.59L72.92,40s-.65-.6-.65-.6Zm-7.3,7.34-.13.11c-.18.17-.28.25-.45.14a.4.4,0,0,1-.13-.31.85.85,0,0,1,.17-.65l.08-.09a.37.37,0,0,1,.34-.19.6.6,0,0,1,.45.14.33.33,0,0,1,.08.26.9.9,0,0,1-.41.59m1.17-.57,0,.08c0,.1-.07.12-.19.11s-.13,0-.15-.05,0-.08,0-.11V46.1c0-.09,0-.21,0-.27a.13.13,0,0,1,.11,0,.32.32,0,0,1,.24.14.23.23,0,0,1,0,.2m.73,1.27a.24.24,0,0,1-.23-.25.24.24,0,1,1,.23.25m2.1-3.17-.91.59-.62.25h-.07c-.34.11-.58.1-.64,0s.39-.42.93-.65l.17-.06.35-.18a3.65,3.65,0,0,1,.75-.28c.1,0,.22,0,.25.05s-.19.29-.21.3M53.81,68.11a.27.27,0,1,1,0-.53.27.27,0,1,1,0,.53m2.34-8.51a2.08,2.08,0,0,1-.55,1h-.08c-.17-.06-.07-.64.11-1.18a2.14,2.14,0,0,1,.53-1h.1c.17.06.08.64-.11,1.18m1.13-2.08c-.28,0-.51-.13-.51-.3s.23-.3.51-.3.5.14.5.3-.22.3-.5.3m2.42,3.12-.07,0a1.2,1.2,0,0,1-.62-.37c-.24-.22-.45-.47-.45-.62a.1.1,0,0,1,0-.07l.07,0a1.2,1.2,0,0,1,.64.38c.28.25.5.56.39.67m-1,13.2a.33.33,0,0,1,.33.33.34.34,0,0,1-.33.33.35.35,0,0,1-.35-.33.34.34,0,0,1,.35-.33M55.6,63.08a.54.54,0,0,1,.32-.24l.12,0c.11.08.1.3-.06.49a.6.6,0,0,1-.32.24l-.12,0c-.11-.08-.08-.29.06-.5M56.34,69h-.08a2.84,2.84,0,0,1-.46-1.23c-.11-.45-.25-1.31-.06-1.36h.07a2.74,2.74,0,0,1,.47,1.23c.11.45.25,1.32.06,1.37m4.31-2.87c-.27.19-1.07-.3-1.25-.45l-1.1-.82,0-.07a6.44,6.44,0,0,1,1.56.56c.52.32.78.52.81.67a.17.17,0,0,1-.05.11m1.69-4.25a3.1,3.1,0,0,1-.82,1.32H61.4c-.06,0-.09-.13-.09-.28a4.78,4.78,0,0,1,.32-1.34,2.76,2.76,0,0,1,.83-1.31h.12c.06,0,.08.13.08.27a4.62,4.62,0,0,1-.32,1.35M75.41,82.57l0,0h0s-.08,0-.09-.06a1.87,1.87,0,0,1-.14-.77,1.08,1.08,0,0,1,.14-.61l.56-1s.22-.08.34,0,0,.17,0,.33L76,81l-.23.61Zm1.26,4.52v.09l-.06-.08c0-.06-1-1.56-.73-1.94,0-.08.12-.11.24-.1a.42.42,0,0,1,.33.19c.41.49.23,1.78.23,1.84M71.9,97a.75.75,0,0,1-.47.26l-.11,0a.16.16,0,0,1,0-.11.79.79,0,0,1,.27-.49.77.77,0,0,1,.48-.27l.09,0c.12.11,0,.36-.21.6m1.66-2.49a.73.73,0,0,1-.42.25l-.1,0c-.07-.11,0-.35.21-.53a.76.76,0,0,1,.43-.24l.08,0c.1.1,0,.34-.2.52M88.12,75.22l.56-.84a10.45,10.45,0,0,0,1.21-2,13.26,13.26,0,0,0,.18-2.71c0-.64,0-1.13,0-1.14h.07s.94,2.62.48,4A5.32,5.32,0,0,1,89.11,75l-.37.38c-.27.34-.47.24-.52.19a.21.21,0,0,1-.13-.21.47.47,0,0,1,0-.09M82.66,77.7c0-.19.26-.29.26-.3h0s.44.14.44.47a4.11,4.11,0,0,1-.07.81.29.29,0,0,1-.25.22.17.17,0,0,1-.17-.13l0-.36,0-.25L82.75,78a.35.35,0,0,1-.09-.33M78.87,89.62a.35.35,0,0,1,.35.34.35.35,0,0,1-.7,0,.35.35,0,0,1,.35-.34m-1.44.87h0c.17.18-1.09,1.46-1.15,1.52a5.12,5.12,0,0,1-1.44,1.19h-.06c-.16-.18,1.11-1.47,1.17-1.53a5.42,5.42,0,0,1,1.44-1.19m-6-47.16a.59.59,0,0,1,.38,0l.09.09c0,.11-.06.28-.28.38a.52.52,0,0,1-.38,0l-.09-.08v-.07a.43.43,0,0,1,.28-.32M69.59,44.5a.66.66,0,0,1,.49-.38l.43,0h0a.72.72,0,0,1,.59.44.75.75,0,0,1,0,.77.3.3,0,0,1-.22.13,2.14,2.14,0,0,1-1.27-.72.2.2,0,0,1,0-.21m.85,3.39-.22,0-.15.06H70l0-.07c0-.09,0-.11,0-.16l0,0,.38-.27a7.59,7.59,0,0,0,.77-.56.19.19,0,0,1,.18-.07.11.11,0,0,1,.1.08s0,.11-.08.23l-.21.34-.15.23a1,1,0,0,1-.54.18M66.35,58.27a2.33,2.33,0,0,1,1.77-.85c1.39,0,1.8.72,1.89.93a.12.12,0,0,1,0,.15c-.06.07-.21,0-.54-.09a3.84,3.84,0,0,0-1.29-.25,6,6,0,0,0-1.42.2l-.39.06h-.06v0a.16.16,0,0,1,0-.12m4.58,16.2s-2.57-2-3.44-2.8c-.62-.59-1.32-1.41-1.29-1.74a.27.27,0,0,1,.09-.12c.31-.17.6-.1,1.22.72S71,74.39,71,74.43ZM71.45,61a.7.7,0,0,1-.57,0c-.22-.11-.33-.25-.33-.41a.56.56,0,0,1,.53-.46c.32,0,.46.06.49.62a.33.33,0,0,1-.12.3M72,52.32l-.07.15a4.62,4.62,0,0,1-.73,1.18l-.4.56a6.46,6.46,0,0,1-1.15,1.28.21.21,0,0,1-.25,0,.19.19,0,0,1,0-.21l.36-.64,1.07-2,.06-.12c.36-.65.87-1.53,1.17-1.62l.12,0c.33.2.26.36-.14,1.43m3.91,20a1.28,1.28,0,0,0-.31.63.36.36,0,0,1-.21.26.24.24,0,0,1-.19,0,.57.57,0,0,1,0-.47s.2-1.12.22-1.13a.37.37,0,0,1,.27-.14l.23.09a.55.55,0,0,1,0,.79M75.21,57a.28.28,0,1,1,0-.55.28.28,0,1,1,0,.55m.22-.8a.28.28,0,1,1,0-.55.28.28,0,1,1,0,.55m.25-.85a.32.32,0,1,1,0-.63.32.32,0,1,1,0,.63m.19-.95a.34.34,0,0,1-.36-.28.37.37,0,0,1,.72,0,.34.34,0,0,1-.36.28m.18-.74c-.27,0-.5-.11-.5-.27s.23-.28.5-.28.5.12.5.28-.23.27-.5.27m.1-2a.55.55,0,0,1,.39.07l.06.1c0,.15-.16.27-.4.31a.51.51,0,0,1-.38-.06l-.07-.12c0-.14.15-.27.4-.3M75.82,51c0-.14.14-.24.36-.26a.49.49,0,0,1,.33.08l.06.12c0,.14-.14.25-.35.27a.45.45,0,0,1-.34-.08L75.82,51Zm.4,1.73c-.23,0-.41-.11-.41-.26s.18-.27.41-.27.4.12.4.27-.18.26-.4.26m.12-2.36c-.19,0-.35-.11-.35-.25s.16-.26.35-.26.33.12.33.26-.13.25-.33.25m0-.83c-.16,0-.31-.11-.31-.23a.29.29,0,0,1,.31-.25.25.25,0,1,1,0,.48m0-.68a.23.23,0,1,1,0-.44.22.22,0,1,1,0,.44m.24-1a.23.23,0,0,1-.22.24.24.24,0,0,1-.24-.24.23.23,0,0,1,.24-.22.22.22,0,0,1,.22.22m-.34-.49a.24.24,0,0,1-.25-.23.23.23,0,0,1,.25-.22.22.22,0,0,1,.23.22.23.23,0,0,1-.23.23M76,45.22a.45.45,0,0,1,.34,0c.08,0,.18.12.16.22s-.08.12-.2.16l-.11,0c-.28.08-.68.19-.74.3a.53.53,0,0,1-.49.19.17.17,0,0,1-.1-.22v-.09c.06-.34.14-.8.57-1,.14,0,.22,0,.25,0s0,.13,0,.22-.06.19,0,.22a.64.64,0,0,0,.35,0m-.31-2.29c.12.08.1.17.07.21a.5.5,0,0,1-.49.2l-.11,0c-.09,0-.09,0-.11-.11l0-.06a.21.21,0,0,1,.09-.22.53.53,0,0,1,.57,0M75.08,42c.15,0,.29.16.35.3a.14.14,0,0,1,0,.19.26.26,0,0,1-.2.05.24.24,0,0,1-.14-.12l-.17-.09c-.1,0-.2-.06-.2-.15s.19-.18.4-.18M75,57.29c.17,0,.31.1.31.23s-.14.24-.31.24-.3-.1-.3-.24.13-.23.3-.23m-.28.65c.14,0,.28.09.28.2s-.14.21-.28.21-.29-.09-.29-.21.13-.2.29-.2m-.28.56c.16,0,.28.1.28.2s-.12.21-.28.21-.28-.09-.28-.21.13-.2.28-.2m-.49,5a16,16,0,0,0,2.44,4.55h0a0,0,0,0,1,0,0l0,0s0,0,0,0h0c-.06,0-.22-.09-.66-.31,0,0-.58-.3-1.73-2.15a9.17,9.17,0,0,1-.82-2.56.57.57,0,0,1,0-.14.3.3,0,0,1,.07-.08h0a.44.44,0,0,1,.38,0c.18.1.25.35.31.62M73.33,48a.18.18,0,0,1,.23.08.3.3,0,0,1-.1.41,2.7,2.7,0,0,1-.87.56c-.24.09-.57.16-.71.05s0-.07,0-.14v0c0-.25.52-.41.85-.51a1.27,1.27,0,0,0,.46-.29Zm-.73-.75c.05-.06.26,0,.34.06s.11.15,0,.33a2.15,2.15,0,0,1-.47.41l-.27.25a.25.25,0,0,1-.31.1.19.19,0,0,1-.1-.18.46.46,0,0,1,0-.19c.1-.33.54-.61.71-.72Z"/><path class="cls-1" d="M71.09,41.09s.45-.19.45-.19a2.39,2.39,0,0,0-.07-.44l-.91-1.05,0,0v.06l-.1.42-.28.68,0,0,.61.31Z"/><rect class="cls-2" width="145" height="145"/></g></g></svg>