<svg xmlns="http://www.w3.org/2000/svg" viewBox="0 0 145 145"><defs><style>.cls-1{fill:#231f20;}.cls-2{fill:none;}</style></defs><g id="Layer_2" data-name="Layer 2"><g id="Layer_1-2" data-name="Layer 1"><path class="cls-1" d="M19.55,85.5H42.3c4.77,0,7.8-2.42,7.8-6.86V69.35H31.47v5.78H43.71v2.36a1.71,1.71,0,0,1-2,2H20.84c-1.52,0-2-.79-2-2V67.34c0-1.34.74-1.78,1.56-1.78H50.1V59.5H19.48c-4.71,0-7.2,2.88-7.2,7.15V78.4c0,4.44,2.64,7.1,7.27,7.1"/><polygon class="cls-1" points="60.67 65.78 71.15 85.5 77.2 85.5 87.66 65.78 87.66 85.5 94.24 85.5 94.24 59.5 84.14 59.5 74.17 78.17 64.2 59.5 54.12 59.5 54.12 85.5 60.67 85.5 60.67 65.78"/><path class="cls-1" d="M98,66.65V78.4c0,4.44,2.64,7.1,7.26,7.1h27.43V79H106.6c-1.53,0-2-.78-2-2V67.82c0-1.32.76-1.79,1.58-1.79h26.56V59.5H105.23c-4.71,0-7.2,2.88-7.2,7.15"/><rect class="cls-2" width="145" height="145"/></g></g></svg>