<svg xmlns="http://www.w3.org/2000/svg" viewBox="0 0 145 145"><defs><style>.cls-1{fill:#231f20;}.cls-2{fill:none;}</style></defs><g id="Layer_2" data-name="Layer 2"><g id="Layer_1-2" data-name="Layer 1"><path class="cls-1" d="M72.62,88.24c17.46-.11,32.15-10.9,32.15-24.4S90.53,39.5,72.62,39.5h-.09c-17.83,0-32.3,10.92-32.3,24.34s14.22,24.35,32.3,24.4Zm-.09-46a1.42,1.42,0,0,1,.29,0C84.7,42,101,50.33,100.37,64.58a48.5,48.5,0,0,0-18.79-6.07V51.18H63.79v7.28c-7.45,1-13.67,2.84-19,5.95C44.8,48.82,61,42.35,72.53,42.24M45.6,69.6c6.34-4.16,14.63-5.51,23.67-6V57.08h6.57v6.49a53.81,53.81,0,0,1,23.65,6.11A20.89,20.89,0,0,1,97.92,73C91,68.82,81.66,66.78,72.53,66.64c-9.88-.15-19.52,1.9-25.62,5.92a17.32,17.32,0,0,1-1.31-3m4.59,7.3c5.61-3,14-4.36,22.34-4.27,8.59.1,17.11,1.77,22.34,4.88a32.39,32.39,0,0,1-22.34,8.64A30.7,30.7,0,0,1,50.19,76.9"/><path class="cls-1" d="M5.36,99.7a5.06,5.06,0,0,0,1.42,4.11c2.59,2.37,7.91,1.52,11.28,1.42V99.57h-8a3.17,3.17,0,0,0,.89,1.59h3.63v3a8.77,8.77,0,0,1-3.65-.75c-3.29-1.1-3.65-5.42.17-6.66a12,12,0,0,1,6.92.35V94.79c-6.49-.09-12.48-.73-12.7,4.91"/><path class="cls-1" d="M30.8,94.7H20.71v10.8h3.67v-4.39h2.48l2.35,4.39H33l-2.69-4.56A4.06,4.06,0,0,0,33,97.52v-.23A2.89,2.89,0,0,0,30.8,94.7m-2.64,5H24.43V96.66H28.3a1.66,1.66,0,0,1-.14,3.09"/><path class="cls-1" d="M38.34,100.71l5.78.06c.68,0,.88-1.13,1-1.69H38.34V96.4h5.78c.71,0,1.08-1.14,1.25-1.7H34.68v9.79c0,.57.28,1,.88,1h10.3v-1.68H38.34Z"/><path class="cls-1" d="M54.82,94.7H52.18L47.5,105.5h3.84l.88-2h5.22l.94,2h3.84L57.39,94.7Zm0,6.74h-2l1.74-3.74h.79l1.51,3.74Z"/><path class="cls-1" d="M107.91,94.64h-2.64l-4.67,10.82h3.84l.87-2h5.22l.93,2h3.85l-4.8-10.82Zm0,6.74h-2l1.72-3.72h.8l1.5,3.72Z"/><path class="cls-1" d="M61.16,96.71H65.6v8.79h3.75V96.71H73c.82,0,1.43-1.13,1.68-2H61.16Z"/><polygon class="cls-1" points="97.99 94.7 96.36 102.43 95.35 102.43 92.68 94.7 91.23 94.7 88.39 102.43 87.42 102.43 85.83 94.7 82.57 94.7 85.7 105.5 89.91 105.5 91.89 100.37 94.1 105.5 98.19 105.5 101.17 94.7 97.99 94.7"/><path class="cls-1" d="M120.67,94.7H117v9.53c0,.65.27,1.27,1,1.27h9.77v-2h-7.1Z"/><path class="cls-1" d="M132.52,94.7h-3.69v9.5c0,.68.26,1.3,1,1.3h9.78v-2h-7.13Z"/><rect class="cls-2" width="145" height="145"/></g></g></svg>