<svg xmlns="http://www.w3.org/2000/svg" viewBox="0 0 145 145"><defs><style>.cls-1{fill:#231f20;}.cls-2{fill:none;}</style></defs><g id="Layer_2" data-name="Layer 2"><g id="Layer_1-2" data-name="Layer 1"><path class="cls-1" d="M103.51,101.2H94.94c-2.48,0-4.83,1.23-4.83,4.34V108c0,2.63,1.12,3.7,3.81,4.14a36.34,36.34,0,0,0,10.62,0c2.7-.44,3.82-1.51,3.82-4.14v-2.43c0-3.11-2.36-4.34-4.85-4.34m-.25,6.52a1.61,1.61,0,0,1-1.62,1.6h-4.9a1.64,1.64,0,0,1-1.14-.46,1.6,1.6,0,0,1-.47-1.14v-2.2a1.58,1.58,0,0,1,.47-1.14,1.6,1.6,0,0,1,1.14-.47h4.9a1.66,1.66,0,0,1,1.16.47,1.69,1.69,0,0,1,.46,1.14Z"/><path class="cls-1" d="M48.65,103.27a1.27,1.27,0,0,1-1.28,1.39H43.05a1.28,1.28,0,0,1-1.27-1.39v-1.66H37.13v10h4.65v-2a1.28,1.28,0,0,1,1.27-1.38h4.32a1.27,1.27,0,0,1,1.28,1.38v2h5.27v-10H48.65Z"/><path class="cls-1" d="M80.59,32.51c-5.24.2-4.41,2.77-1,3.9s19,6.11,20.16,15.62c.46,3.52-6.06,4-27.24,4s-27.7-.52-27.26-4C46.42,42.52,62,37.54,65.4,36.41s4.23-3.7-1-3.9c-6.32-.26-34.95,6.14-34.95,27.59S58.07,88,64.39,87.69c5.24-.2,4.43-2.78,1-3.91s-19-6.12-20.16-15.62c-.44-3.53,6.11-4.07,27.26-4s27.7.5,27.24,4C98.57,77.66,83,82.65,79.58,83.78s-4.23,3.71,1,3.91c6.32.26,35-6.24,35-27.59s-28.65-27.85-35-27.59m-8,24.72c27.43,0,25.8-.47,28.6-1.71.61-.27,1-.33,1.21-.18s.52.32,1,.62.76.65,0,.91C100.05,58.06,77.69,58,72.61,58s-27.45,0-30.87-1.16c-.74-.26-.47-.62,0-.91s.8-.47,1-.62.6-.09,1.2.18c2.81,1.24,1.18,1.71,28.61,1.71m41.3,3.51c-.06,1.66-.55.53-.6-.1A21.65,21.65,0,0,0,107.58,48c-.6-.61-1-.43-.52.34s4.31,5.85,4,12.7S105.41,80.8,81.93,85.73c-.67.14-2.33,0,0-.65S99.69,81,106.3,69.82c6.2-10.48-3.62-9.32-8.54-9.42-4.48-.1-18.06,0-24.28,0H71.75c-6.23,0-19.82-.09-24.28,0-4.93.1-14.74-1.06-8.54,9.42C45.52,81,61,84.41,63.31,85.08s.68.79,0,.65C39.82,80.8,34.5,67.9,34.17,61.06s3.56-11.94,4-12.7.07-1-.52-.34a21.82,21.82,0,0,0-5.75,12.62c0,.63-.51,1.76-.58.1-.1-2.3.82-11.24,10.22-18.15A45.64,45.64,0,0,1,62,34.2c2.11-.38,4.27-.19.28.86C46,39.33,40.8,46.25,37.78,52.51s2.93,6.26,6.87,6.4,17.83.17,28,.18,24.13-.05,28-.18,9.89-.14,6.87-6.4S99.18,39.33,83,35.06c-4-1.05-1.82-1.24.28-.86a45.61,45.61,0,0,1,20.45,8.39c9.4,6.91,10.32,15.85,10.22,18.15"/><rect x="58.79" y="101.61" width="4.7" height="10"/><path class="cls-1" d="M81,104.5c0,.51-.21.66-.61.66-.6,0-6.34-3.55-6.91-3.55H68.34v10h5.15v-4.16a.62.62,0,0,1,.65-.67c.68,0,2,.47,6,3.33.91.64.87,1.14.87,1.48v0h5.12v-10H81Z"/><rect class="cls-2" width="145" height="145"/></g></g></svg>