<svg xmlns="http://www.w3.org/2000/svg" viewBox="0 0 145 145"><defs><style>.cls-1{fill:#231f20;}.cls-2{fill:none;}</style></defs><g id="Layer_2" data-name="Layer 2"><g id="Layer_1-2" data-name="Layer 1"><path class="cls-1" d="M42.42,73.85a27.72,27.72,0,0,0,1.36,4.89,14.25,14.25,0,0,0,1.35,2.6,9.73,9.73,0,0,0,4.21,3.4,18.25,18.25,0,0,0,2.14.78,29.39,29.39,0,0,0,6.23,1.1c2,.17,4,.31,6.08.39,2.93.11,5.85.14,8.14.19l6-.08c2.53-.06,5.07-.16,7.61-.35a49.14,49.14,0,0,0,5.65-.66A20.55,20.55,0,0,0,95.7,84.8,9.86,9.86,0,0,0,101,79.73a20,20,0,0,0,1.15-3.08,48.3,48.3,0,0,0,1.23-6.16c.27-2.06.5-4.12.71-6.18s.33-4.12.38-6.18a91.37,91.37,0,0,0-.18-9.93,16,16,0,0,0-.72-3.74A10,10,0,0,0,100,39.34a12.74,12.74,0,0,0-3.7-1.86,29.56,29.56,0,0,0-5.43-1.11Q87.5,36,84.1,35.8c-2.35-.11-4.69-.2-7-.25-3.14-.08-6.28-.06-9.43,0-3.54.07-7.07.21-10.6.53-1.76.16-3.52.35-5.26.67A19.42,19.42,0,0,0,47.5,38a10,10,0,0,0-5.26,4.94,14,14,0,0,0-1.19,4.15,37,37,0,0,0-.31,4.58c0,2,0,3.93,0,5.9,0,3.52.39,7,.78,10.53.22,1.93.53,3.84.9,5.75m1.52-19.11c0-1.68.1-3.37.2-5.05a18.7,18.7,0,0,1,.7-4.39A8.36,8.36,0,0,1,48,40.8a10.89,10.89,0,0,1,2.92-1.44,18.7,18.7,0,0,1,3.53-.77q2.49-.31,5-.57c1.16-.11,2.34-.17,3.52-.23,2-.08,3.9-.2,5.85-.22,2.86,0,5.73,0,8.6,0,2.17,0,4.33.16,6.51.28s4.64.36,6.94.72a18,18,0,0,1,4.36,1.1A8.46,8.46,0,0,1,99.32,43a10.12,10.12,0,0,1,1.2,3,20,20,0,0,1,.47,3.18,93.36,93.36,0,0,1,.23,9.61c0,1.9-.17,3.79-.36,5.68-.15,1.56-.29,3.1-.48,4.64a38.72,38.72,0,0,1-1.51,7.43,14,14,0,0,1-1,2.41,8.63,8.63,0,0,1-4.53,4.13,17.15,17.15,0,0,1-3.84,1,64.6,64.6,0,0,1-6.81.67c-3.11.17-6.25.26-9.38.26h-.74v0c-2.7-.06-5.41-.1-8.12-.2-2-.08-3.93-.23-5.89-.39a31.46,31.46,0,0,1-4.84-.76,12.83,12.83,0,0,1-2.28-.8,8.56,8.56,0,0,1-4.31-4.26,19.16,19.16,0,0,1-1.39-4,44.12,44.12,0,0,1-1-5.7c-.23-2.15-.45-4.3-.62-6.45a71.89,71.89,0,0,1-.21-7.76"/><path class="cls-1" d="M27.39,97.58l.43.06c.42.06.86.1,1.3.15a.91.91,0,0,1,.88.85.58.58,0,0,1,0,.19c0,.72,0,1.44,0,2.15,0,0,0,0,0,.06-.39.06-7.9,0-8.15,0v-1.2c0-.38,0-.76,0-1.13a.9.9,0,0,1,.85-.88c.23,0,.48,0,.72-.09s.7-.08,1.06-.13c0-.33,0-.62,0-.92a4.94,4.94,0,0,0,0-.86H13.85v1.78l.44.06c.43.06.86.1,1.3.15a.94.94,0,0,1,.9.84,3.54,3.54,0,0,1,0,.46v6.65a2.58,2.58,0,0,1,0,.48.91.91,0,0,1-.88.82l-1.3.14-.44.07V109c.35.07,10.39.06,10.63,0v-1.74c-.55-.07-1.09-.14-1.64-.19s-1-.35-1-1,0-1.45,0-2.18c0,0,0,0,0,0,.44-.07,7.89,0,8.15,0v2.11a1.17,1.17,0,0,1,0,.26.88.88,0,0,1-.85.83c-.25,0-.48,0-.72.08l-1,.13V109H38v-1.78l-.51-.07c-.42,0-.84-.08-1.26-.14a.88.88,0,0,1-.84-.79,3.32,3.32,0,0,1,0-.55q0-3.28,0-6.55a3,3,0,0,1,0-.52.93.93,0,0,1,.91-.83l.74-.08,1-.13V95.8H27.39Z"/><path class="cls-1" d="M75.76,95.83v1.74l.18,0,1.53.18a.92.92,0,0,1,.91.91,1.18,1.18,0,0,1,0,.26v6.32c0,.07,0,.14,0,.25l-.27-.35q-3.33-4.37-6.64-8.73a1.46,1.46,0,0,0-1.23-.67h-9l-.29,0v1.78l.36.06,1.34.15a.94.94,0,0,1,.93.88,2.26,2.26,0,0,1,0,.45c0,2.2,0,4.39,0,6.59a2.11,2.11,0,0,1,0,.35.94.94,0,0,1-1,1l-.75.09c-.31,0-.61.08-.92.12V109c.35.07,8.23.06,8.47,0a9.12,9.12,0,0,0,0-1.75l-.48-.06c-.42-.05-.84-.09-1.24-.15a.9.9,0,0,1-.87-.9v-.36c0-2,0-4.06,0-6.09v-.32h.07l.21.28c2.21,2.91,4.43,5.82,6.63,8.74A1.56,1.56,0,0,0,75,109h6.28l.28,0V99.2c0-.16,0-.31,0-.46a1,1,0,0,1,.93-.95l.74-.08,1-.13V95.81c-.5-.06-8.24,0-8.48,0"/><path class="cls-1" d="M107.06,101.66a5.63,5.63,0,0,0-2.23-4.12,7.64,7.64,0,0,0-2-1.06,12.93,12.93,0,0,0-4.41-.7c-4.29,0-8.6,0-12.88,0l-.29,0v1.8l1.38.14c.84.08,1.1.37,1.1,1.21v6.79a3.4,3.4,0,0,1,0,.45.93.93,0,0,1-.92.85l-.75.08-1,.13V109h.44c4.14,0,8.28,0,12.43,0,.76,0,1.52,0,2.29-.1a9.66,9.66,0,0,0,3.37-.92,5.71,5.71,0,0,0,3.15-3.45,7.31,7.31,0,0,0,.28-2.9m-6.29,2.58a3.71,3.71,0,0,1-.39,1,2.41,2.41,0,0,1-1.78,1.15,6.09,6.09,0,0,1-1.13.1c-1.39,0-2.78,0-4.16,0H93V98.36a2,2,0,0,1,.24,0h4.33a5.22,5.22,0,0,1,1.46.22,2.41,2.41,0,0,1,1.55,1.45,6,6,0,0,1,.38,2.1,7,7,0,0,1-.2,2.14"/><path class="cls-1" d="M57.76,97.35a9.34,9.34,0,0,0-3.27-1.45,19.81,19.81,0,0,0-5-.57,21.76,21.76,0,0,0-4.58.44A10.4,10.4,0,0,0,41.65,97a6.29,6.29,0,0,0-.21,10.7,8.52,8.52,0,0,0,1.71.85,15,15,0,0,0,4.16.86,23.7,23.7,0,0,0,6.35-.28,10.9,10.9,0,0,0,3.43-1.22,6.29,6.29,0,0,0,.67-10.56M54,104.05a3.26,3.26,0,0,1-2.63,2.7,8.25,8.25,0,0,1-4,0A3.22,3.22,0,0,1,44.86,104c-.12-.51-.14-1.05-.21-1.58a9.37,9.37,0,0,1,.25-1.84,3.27,3.27,0,0,1,2.44-2.47,8.17,8.17,0,0,1,4,0A3.29,3.29,0,0,1,54,100.75a7.65,7.65,0,0,1,0,3.3"/><path class="cls-1" d="M128.23,106.21c-1-1.53-2-3-3-4.56q-1.65-2.5-3.29-5a1.66,1.66,0,0,0-1.5-.86c-3.23,0-6.45,0-9.68,0l-.29,0v1.78l.38.06,1.9.22a.68.68,0,0,1,.57,1,1.42,1.42,0,0,1-.14.23c-1.47,2.39-3,4.77-4.41,7.16a3.21,3.21,0,0,1-.21.3,1.1,1.1,0,0,1-.83.46l-.7.08-1,.13V109c.47.08,8.24.06,8.48,0v-1.74l-.61-.07a9.35,9.35,0,0,1-1-.13.6.6,0,0,1-.43-1c.15-.28.34-.53.49-.81a.46.46,0,0,1,.49-.27H121c.06,0,.13,0,.17,0a.46.46,0,0,1,.22.11c.21.33.44.64.62,1a.56.56,0,0,1-.32.87,3.47,3.47,0,0,1-.74.16l-1.23.13V109l.11,0H131l.16,0,0,0s0,0,0,0v-1.72c-.52-.07-1-.15-1.53-.18a1.75,1.75,0,0,1-1.39-.86m-13.65-3.63c.84-1.33,1.64-2.64,2.45-4,.19.16,2.4,3.47,2.63,3.95-.23.07-4.59.09-5.08,0"/><path class="cls-1" d="M53.67,43.2c.08,1.14.15,2.28.22,3.41.12,1.87.25,3.73.36,5.6.1,1.53.19,3.06.29,4.58.12,1.78.25,3.56.37,5.33.09,1.42.18,2.85.29,4.27.13,1.93.28,3.87.42,5.81.13,1.58.23,3.17.36,4.75l.45,5.48c0,.16,0,.32.06.47a52.18,52.18,0,0,0,6.35.44c0-.14.08-.28.13-.42.54-2,1.08-4,1.64-6a16.68,16.68,0,0,1,1.23-3.16,4,4,0,0,1,3.09-2.19,23.91,23.91,0,0,1,3.68-.28,23.1,23.1,0,0,1,3.71.29,3.92,3.92,0,0,1,3,2.11c.13.27.27.53.39.8a23.59,23.59,0,0,1,1.07,3.06c.5,1.79,1,3.58,1.46,5.38,0,.14.09.28.13.41a42.82,42.82,0,0,0,6.37-.47c1.18-14.19,2.07-28.41,3-42.66a36.53,36.53,0,0,0-4.41-.34,2.86,2.86,0,0,0-.08.31q-.89,4-1.78,8c-.88,3.93-1.83,7.82-2.87,11.7a21.23,21.23,0,0,1-1.33,3.68,6.61,6.61,0,0,1-5.4,3.88,20.14,20.14,0,0,1-2.8.17,21.41,21.41,0,0,1-4.08-.25A6.58,6.58,0,0,1,64.78,65a9.48,9.48,0,0,1-1.22-2.26,38.23,38.23,0,0,1-1.32-4.22c-1.47-5.67-2.75-11.37-4-17.09-.12-.5-.23-1-.35-1.51a38,38,0,0,0-4.4.33,2.39,2.39,0,0,0,0,.27c0,.91.12,1.82.16,2.73"/><rect class="cls-2" width="145" height="145"/></g></g></svg>