<svg xmlns="http://www.w3.org/2000/svg" viewBox="0 0 145 145"><defs><style>.cls-1{fill:#231f20;}.cls-2{fill:none;}</style></defs><g id="Layer_2" data-name="Layer 2"><g id="Layer_1-2" data-name="Layer 1"><polygon class="cls-1" points="45.68 103.45 46.89 103.45 46.89 100.51 48.99 100.51 48.99 99.56 46.89 99.56 46.89 97.92 49.13 97.92 49.13 96.97 45.68 96.97 45.68 103.45"/><rect x="99.41" y="97.01" width="0.98" height="6.49"/><polygon class="cls-1" points="115.09 97.93 116.52 97.93 116.52 103.47 117.73 103.47 117.73 97.93 119.15 97.93 119.15 96.98 115.09 96.98 115.09 97.93"/><rect x="10.48" y="97.01" width="0.99" height="6.49"/><polygon class="cls-1" points="83.15 101.85 83.17 101.9 83.15 101.9 83.15 101.85 81.51 96.96 80.08 96.96 80.08 103.44 81.1 103.44 81.1 98.56 82.79 103.44 84.2 103.44 84.2 96.96 83.16 96.96 83.15 101.85"/><rect x="133.53" y="97.01" width="0.99" height="6.49"/><rect x="63.81" y="97.01" width="0.99" height="6.49"/><polygon class="cls-1" points="29.62 101.85 29.64 101.9 29.62 101.9 29.62 101.85 27.98 96.96 26.55 96.96 26.55 103.44 27.56 103.44 27.56 98.56 29.26 103.44 30.68 103.44 30.68 96.96 29.63 96.96 29.62 101.85"/><path class="cls-1" d="M72.49,41.5C46.28,41.5,25,52.18,25,65.35,25,76,39,85,58.18,88.1L72.49,54,86.8,88.1C106,85,120,76,120,65.35,120,52.18,98.71,41.5,72.49,41.5M94.28,77.32,72.49,52.1,50.78,77.25C40.08,74.28,33,69.07,33,62.67,33,52.52,50.56,43,72.45,43s39.84,9.52,39.84,19.67c0,6.44-7.17,11.69-18,14.65"/><rect class="cls-2" width="145" height="145"/></g></g></svg>