<svg xmlns="http://www.w3.org/2000/svg" viewBox="0 0 145 145"><defs><style>.cls-1{fill:#231f20;}.cls-2{fill:none;}</style></defs><g id="Layer_2" data-name="Layer 2"><g id="Layer_1-2" data-name="Layer 1"><path class="cls-1" d="M31,44.26a4.37,4.37,0,0,0,1.78-.46,2.94,2.94,0,0,0,.52-.28l-1.38,0a2.17,2.17,0,0,0-1.7.68s.14.06.39.06a2.18,2.18,0,0,0,.39,0"/><path class="cls-1" d="M19,53.94a8.85,8.85,0,0,0,.69,1.21A2.52,2.52,0,0,0,22,56.23c.48-.08.49-.23.49-.23a2.27,2.27,0,0,0,1.46.53,10.83,10.83,0,0,1-.55-1.46,2.43,2.43,0,0,1,.07-.9,4.19,4.19,0,0,1,.82-1.52,1.43,1.43,0,0,1,1.7-.22,2.91,2.91,0,0,1,.6,3.14c0,.11-.58,1.28-1.15,1.45a.59.59,0,0,1-.17,0,3.38,3.38,0,0,1-1.12-.41,1.73,1.73,0,0,0,.08.53c.06.24.16.5.23.71,0,0-.16.25-.23.4s-.28.72,0,1a6.07,6.07,0,0,0,2.55.94A1.24,1.24,0,0,0,28,59.64a14.53,14.53,0,0,1,1.79-2.22,9.89,9.89,0,0,1,4.41-2.13c.17,0,3-.81,7.79,3a41.18,41.18,0,0,0-4.25.65c-3.55.64-5.82,3.95-6.47,5.31A3.23,3.23,0,0,0,33,69,6.49,6.49,0,0,0,38,65.23a1.73,1.73,0,0,1,2.15-1.07c1,.33,10,3.47,12.07,4,0,0,6,1.57,8.33-1.2,3.62,1.2,7,1.77,16,.62a16.82,16.82,0,0,1,2.77-.15,6.52,6.52,0,0,1,4.56,2.47c2.36,3.74,5.34,11.18,15.69,10.29l4.69-.43c2.85-.16,5.17-.29,7.54,1a10.68,10.68,0,0,1,3.33,2.38c2.38,2.27,4.58,4.71,7.5,3.38a7.64,7.64,0,0,0,2.2-2.32,3.35,3.35,0,0,0-1.42-2.34c2.65.62,8.62,1,10.94-3a2.55,2.55,0,0,0,.43-2.29c-.64-1.4-2.39-1-2.39-1-.83.19-1.76,1.13-3.17,1.55a8.78,8.78,0,0,1-5.43-.14c-4.65-2-19.59-10.53-27.19-14.26,0,0-8.82-4.08-21.63-9.13,0,0-25.17-10.69-42-9.82,0,0-8.95.24-11.77,4.17A1.19,1.19,0,0,0,21,49.09a.25.25,0,0,1-.05.27,16,16,0,0,0-2.28,2.56,1.32,1.32,0,0,0,0,1.66,2.37,2.37,0,0,1,.35.36m.83-1.34a3.83,3.83,0,0,1,2.82-2.36l1-.13a4.86,4.86,0,0,0,3.18-2.61,15.83,15.83,0,0,0-2.16.08c-1.43.25-1.92,1.94-1.92,1.92-1.2.29-1.18-.76-1-1.07s.9-1.54,5.56-2.61a24.09,24.09,0,0,1,7.21-.47l-.21.36a4.52,4.52,0,0,1-5,1.9s0,1.26,3.12,1.7c0,0,2.8.5,7.52,4.28,0,0-2.26-4.48-6.1-5.64,0,0-.48-.08-.25-.4A9.43,9.43,0,0,1,39,45.28s10.34-1,16.08,6.88a30.49,30.49,0,0,0-3-4.8s6,1.69,15.24,4.89c0,0,6.3,2.21,10.32,3.8,5.45,2.13,19,7.42,27.75,12.14,1.54.84,17.24,9,17.24,9C127,79.13,130,78,130,78c1-.38,2.74-1.75,3.53-1a1.33,1.33,0,0,1,.27,1.46,5.19,5.19,0,0,1-2.71,2.43,13.78,13.78,0,0,1-6.14.52A11.06,11.06,0,0,1,118.69,78c-.93-1-2.06-2-3.11-3.13A5.9,5.9,0,0,0,112.1,73c-1.95-.27-6.76-.39-8.55-1-1.21-.41-2.66-1.22-4.59-4.07a7.6,7.6,0,0,0-2.86-2.54,7.07,7.07,0,0,1,1.52,1.73c.79,1.42,1.21,2.45,1.64,3.19a6.56,6.56,0,0,0,1.65,2,4.34,4.34,0,0,0,2.48,1,68.58,68.58,0,0,0,6.91.09,6.43,6.43,0,0,1,4.8,1.57c.82.7,2.23,2.68,3.11,3.53a12.37,12.37,0,0,0,3.84,3.11c.7.36,1.86,1.23,1.8,2.09-.92.9-2.06,1.15-4.79.43a4,4,0,0,0,4.07,1,3.16,3.16,0,0,1-2.22.83c-2.57-.14-5.08-3.29-6.48-4.45a33.31,33.31,0,0,0-3-2.37c-2.76-1.89-9-1.36-9-1.36l-4.57.24c-8.86.66-12.58-7.16-13.56-8.8a15.84,15.84,0,0,0-.93-1.39c-.46-.6-2.89-3.72-5.33-4.76,0,0,2.41,2.08,2.27,3.43,0,0-1-.45-3.72-.06C65,68.16,61,65.26,61,65.26a6.84,6.84,0,0,0-1.1-4.73c.91.28,6.64,2.22,12.1,1.11,0,0-8.87.06-15.09-4.88,0,0,3.87,4.83,3,8,0,0-.64,3.36-7.39,2-.71-.14-1.56-.38-11.65-3.18-2.38-.7-3.19.43-3.62,1.11a4.05,4.05,0,0,1-1.8,2.52c-3.12-.56-1.87-3.45-1.87-3.45-2,2.8.07,4,.73,4.12a6.32,6.32,0,0,1-1.06.44s-2.57-1.51-1.13-4c2-3.47,4-4.58,7.74-4.91a18.84,18.84,0,0,1,4-.13c2.7.36,4.4,1.88,8.42,2.28-8.55-2.52-8.58-7.46-8.6-7.55s0,0,0,0a6.44,6.44,0,0,0,.21,4.17c-.13-.05-2-1.27-2.72-1.71a15.68,15.68,0,0,0-5.51-2.19c-1-.13-1.49-1.36-1.49-1.36a1.45,1.45,0,0,0-.1-.18c-1.41-2.43-2.84-2.46-2.84-2.46A5,5,0,0,1,32,52.86c.41,3-3,3.92-3,3.92-2.09,2.64-2,2.7-2.44,2.77a3.91,3.91,0,0,1-1.49-.45.44.44,0,0,1,.07-.5,8.4,8.4,0,0,0,.71-.62c2.22-2.26,2.48-3.35,2.2-4.8-.55-2.94-2.66-2.58-2.66-2.58a1.82,1.82,0,0,0-1.43.92c-.34.54-1.09,2.2-1.09,2.2-.45,1-.93,1.2-1.16,1.24a2.28,2.28,0,0,1-.36,0,1.91,1.91,0,0,1-1.25-.67s-.07-.06-.08-.09a1.5,1.5,0,0,1-.2-1.61m3.4-3.13s.08-.27.11-.34.29-.76.93-.83c0,0,.36,0,.93,0a1.73,1.73,0,0,1-1.38,1.08,3.69,3.69,0,0,1-.59.11"/><path class="cls-1" d="M21.12,99.21a4.58,4.58,0,0,0,1.19-3.5V90.5h-4v4.88a4,4,0,0,1-1,3.06c-.92.91-2.44,1.29-4.7,1.29H5.24v1.42h8c3.8,0,6.47-.51,7.88-1.94"/><path class="cls-1" d="M109.78,98.89l2,2.26h4.47L106.93,90.5H103l-9.28,10.65H96l2-2.26Zm-5.91-6.84,4.72,5.45H99.18Z"/><path class="cls-1" d="M42.14,101.15H46.6L37.32,90.5H33.39l-9.27,10.65h2.31l1.95-2.26H40.19ZM29.58,97.51l4.69-5.46L39,97.51Z"/><path class="cls-1" d="M137.25,96.59A2.89,2.89,0,0,0,138.73,94a2.82,2.82,0,0,0-1.79-2.84,12.15,12.15,0,0,0-4.86-.61H119.75v10.65h4V97.46h5.22l6,3.69h4.85l-6.25-3.77a8.48,8.48,0,0,0,3.74-.79m-13.53-.47V91.84h7.84a4.32,4.32,0,0,1,2.61.47,1.8,1.8,0,0,1,.58,1.59v.2a1.76,1.76,0,0,1-.68,1.61,4.38,4.38,0,0,1-2.46.41Z"/><path class="cls-1" d="M72.28,90.5v5.31a5.13,5.13,0,0,0,.84,3.35c1.13,1.49,3.21,2.34,9,2.34h.07c5.78,0,7.85-.85,9-2.34A5.2,5.2,0,0,0,92,95.8V90.5H88v5.16a4.72,4.72,0,0,1-.69,2.91c-.86,1.21-2.22,1.64-5,1.64H82c-2.66,0-4.15-.43-5-1.64a4.65,4.65,0,0,1-.68-2.91V90.5Z"/><path class="cls-1" d="M57.54,91.91h9.93V90.5H56.3c-2.71,0-4.33.31-5.77,1.11A4.65,4.65,0,0,0,48.1,95.8a4.55,4.55,0,0,0,3.13,4.58,13.89,13.89,0,0,0,5.13.77H67.89V96.26h-4v3.47H57.58c-2.07,0-3.26-.3-4.14-1a3.45,3.45,0,0,1-1.28-2.94A3.52,3.52,0,0,1,53.35,93c.9-.71,2.06-1,4.19-1"/><rect class="cls-2" width="145" height="145"/></g></g></svg>