<svg xmlns="http://www.w3.org/2000/svg" viewBox="0 0 145 145"><defs><style>.cls-1{fill:#231f20;}.cls-2{fill:none;}</style></defs><g id="Layer_2" data-name="Layer 2"><g id="Layer_1-2" data-name="Layer 1"><path class="cls-1" d="M63.34,62.32c-1.53,2.43-1.67,3.6-1.71,4.39A3.83,3.83,0,0,0,62.82,70c2.11,1.87,5.06,1.57,7.67,1.57H92a1.71,1.71,0,0,0,1.68-.93,14.75,14.75,0,0,0,2.5-8c0-5.45-3.56-12.31-12.54-15.41l-1,1.44c7.12,3.37,10.08,7.79,10.08,14a8.91,8.91,0,0,1-1.49,5.09H70.3c-1.25,0-1.42-1.41-1-2.2a84.56,84.56,0,0,1,6-9.17c2.12-2.82,4.21-5.45,6.39-8.2.59-.77.2-1.51-1-1.75a38.27,38.27,0,0,0-8.09-.87c-17.18,0-23.45,9.83-23.45,17.11,0,7.9,6.32,17.08,23.49,17.08,9.53,0,15.77-3.07,19.39-7H88.42c-3.16,2.9-8.58,5-15.74,5-14.54,0-19.9-8.14-19.9-15.15.11-6.26,5.86-14.9,20.27-15.19.54,0,1,.48.58,1-2.46,3-9.48,12.79-10.29,14"/><path class="cls-1" d="M128.07,90.53H114.29a3.42,3.42,0,0,1,3.09-3.07h13.94l0-2.91H116.49A8.63,8.63,0,0,0,108,92.93c0,.31.2.5.56.5l16.77-.06a1.69,1.69,0,0,1,1.52,1.6A1.74,1.74,0,0,1,125,96.6H106.54v-12h-5.43V96.63h-10c-2.72,0-3.28-1.64-3.28-3.15v-9h-9c-.9.61-1.76,1.27-2.67,1.82L70.81,89.6l-7-5.06h-21a10.13,10.13,0,0,0-6.46,2c-2.83,2.22-3.73,4.57-3.69,5.62h3.68a9,9,0,0,0-3.28,4.33H21a3.33,3.33,0,0,1-3.57-3v-9H12.1v9.34c0,3.35,3.19,5.67,8.33,5.67H60.94c.85-.57,1.65-1.17,2.53-1.7L69,94.42l7,5h8l-10.5-7.87L78.79,88c1.14-.75,2.35-1.38,3.53-2.08v7.93c0,3.33.85,5.65,7.61,5.65l38.14-.09A4.46,4.46,0,0,0,132.9,95a4.67,4.67,0,0,0-4.83-4.44m-68.2,5.89H40.11a3.51,3.51,0,0,1,3.19-3.09H55.74V90.24H40c-.18-.9,1.52-2.67,2.81-2.67H57V85.91l9.2,6.58Z"/><rect class="cls-2" width="145" height="145"/></g></g></svg>