<svg xmlns="http://www.w3.org/2000/svg" viewBox="0 0 145 145"><defs><style>.cls-1{fill:#231f20;}.cls-2{fill:none;}</style></defs><g id="Layer_2" data-name="Layer 2"><g id="Layer_1-2" data-name="Layer 1"><path class="cls-1" d="M99.65,41.36c-6.78-7.29-17.88-8.86-27.21-8.86s-20.85,1.57-27.51,9.28a4.35,4.35,0,0,0-.33.42c-3.27,3.9-5.29,9.49-5.29,17C39.31,82.28,58.15,86,72.44,86s33.25-3.69,33.25-26.79c0-7.49-2-13.08-5.3-17l-.74-.84m-48.8,4.53C55.3,39,63.78,37.35,72.44,37.35s17,1.59,21.5,8.33c.08.16.19.31.28.46-7.71,4.51-16.48,4.68-21.78,16-5.76-11-14.43-11.06-22-15.41.14-.28.3-.55.46-.83M72.44,81.12c-12.8.11-24.87-3.58-24.87-21.94a23,23,0,0,1,.21-3.9c.07-.26.13-.52.2-.77l12.94,4.36C66,61,69.38,63.93,72.44,70.57c3.08-6.64,6.36-10,11.55-12.13l13-4.65a3.37,3.37,0,0,1,.09.34,35.51,35.51,0,0,1,.32,5.06c0,18.35-12.17,22-25,21.93"/><polygon class="cls-1" points="74.58 99.16 81.42 93.49 67.04 93.49 67.04 99.16 74.58 99.16"/><path class="cls-1" d="M121,93.49h-12.7v5.14h10.07c2.93,0,2.47,1.91,2.47,1.91h-8.07c-1,0-4.16-.15-5.69,2.3v-.92c0-8.66-6.54-8.43-6.54-8.43H83.42L66,107.21V98.78c0-5.52-5.69-5.29-5.69-5.29H47.66v5.14H57.73c2.93,0,2.54,1.91,2.54,1.91H52.2c-1,0-4.07-.15-5.61,2.22v-2.14c0-7.58-6.86-7.13-6.86-7.13H18.36v19h6.47V99.16h4.53V112.5h6.16V99.16h2.07c3,0,2.61,2.45,2.61,2.45V112.5h6.39V110a5.76,5.76,0,0,0,4.61,2.53H68.89l17.45-14v13.94H100c2.62,0,5.07-1.3,6.23-4.82.69,4.82,5.53,4.9,5.53,4.9h14.85V98.78c0-5.52-5.69-5.29-5.69-5.29m-60.76,13.8H53.42A1.27,1.27,0,0,1,52.05,106c0-1.15,1.07-1.22,1.45-1.22h6.69Zm38.08-.39H92.5v-8h5.84s2.76.23,2.76,3.75-1.29,4.29-2.83,4.29m22.36.39h-6.76a1.28,1.28,0,0,1-1.38-1.31c0-1.15,1.15-1.22,1.53-1.22h6.61Z"/><polygon class="cls-1" points="70.89 112.5 85.27 112.5 85.27 106.91 77.72 106.91 70.89 112.5"/><rect class="cls-2" width="145" height="145"/></g></g></svg>