<svg xmlns="http://www.w3.org/2000/svg" viewBox="0 0 145 145"><defs><style>.cls-1{fill:#231f20;}.cls-2{fill:none;}</style></defs><g id="Layer_2" data-name="Layer 2"><g id="Layer_1-2" data-name="Layer 1"><path class="cls-1" d="M72.49,30.5a42,42,0,1,0,0,84c23.45,0,42.47-18.8,42.47-42s-19-42-42.47-42m0,82.4c-16,0-28.47-8.29-34.43-19.69l.91-.34a54,54,0,0,0,6.29,7.75c3.36,3.69,14,10.8,27.21,10.8A39.3,39.3,0,0,0,106,92.91c.54-.15.72-.39.53-.85a40.82,40.82,0,0,0,5.36-19.57,35.39,35.39,0,0,0-1.65-11,45.31,45.31,0,0,0-2.28-5.68,1,1,0,0,1-.15-.54,1.36,1.36,0,0,1,.38.46,51.64,51.64,0,0,1,2.64,5.67,28.34,28.34,0,0,1,2.44,11.12A40.6,40.6,0,0,1,72.49,112.9m-34-20.63L68.18,70.88l-2.54-1.45-26.5,22a40.66,40.66,0,0,1-5-18.91A37.72,37.72,0,0,1,71.73,34.68L66.31,68.42l2.53,1.47,3.41-35.21c.06-.44.36-.44.36,0l.2,37.13,6-3.55L73.07,34.67c20.67.56,37.8,17.22,37.8,37.82a40.3,40.3,0,0,1-5.06,19l-26.47-22L76.79,70.9l28.46,20.64c.69.49.47.71-.26.3L73,73.41v6.91l32,12.24a38,38,0,0,1-32.69,18,37.66,37.66,0,0,1-32.53-18L72,80.3V73.39L38.72,92.59c-.8.43-1,.19-.28-.32m-.77.37a45.35,45.35,0,0,1-3.5-10.26,1.45,1.45,0,0,1,0-.51,1.46,1.46,0,0,1,.24.5,49.31,49.31,0,0,0,4,9.68Zm75.48-27.26a1.74,1.74,0,0,1-.22-.49c-3.11-9.56-5.75-13.32-10.85-18.92A41,41,0,0,0,72.75,32.9,40.39,40.39,0,0,0,32.38,73.28,43.78,43.78,0,0,0,35,88.5c1.37,3.34,3.71,7.83,3.83,8a1.11,1.11,0,0,1,.13.53,1.39,1.39,0,0,1-.38-.44,70,70,0,0,1-4.31-8.15A41.92,41.92,0,0,1,31,73.13,41.58,41.58,0,0,1,72.57,31.52a40.76,40.76,0,0,1,40.58,33.36.94.94,0,0,1,0,.5"/><rect class="cls-2" width="145" height="145"/></g></g></svg>