<svg xmlns="http://www.w3.org/2000/svg" viewBox="0 0 145 145"><defs><style>.cls-1{fill:#231f20;}.cls-2{fill:none;}</style></defs><g id="Layer_2" data-name="Layer 2"><g id="Layer_1-2" data-name="Layer 1"><path class="cls-1" d="M72.58,95.65A23.16,23.16,0,1,0,49.42,72.5,23.16,23.16,0,0,0,72.58,95.65m0-44.6A21.44,21.44,0,1,1,51.15,72.5,21.44,21.44,0,0,1,72.58,51.05"/><path class="cls-1" d="M9.62,63.27C10.68,64.54,12,66,13.43,67.68h0c1.38,1.54,2.93,3.2,4.65,5h0c1.4,1.41,2.9,2.9,4.52,4.4h0c1.74,1.62,3.59,3.28,5.56,4.95h0c1.75,1.49,3.61,3,5.54,4.42h0c2.16,1.63,4.44,3.23,6.81,4.76H51.74a28,28,0,0,0,41.69,0h11A141.17,141.17,0,0,0,139,58.66H96.94a28,28,0,0,0-48.71,0H6s1.26,1.76,3.61,4.61ZM23.65,77q-2.31-2.15-4.56-4.4H44.58A27.79,27.79,0,0,0,45,77Zm97.71,0H100.21a27.79,27.79,0,0,0,.38-4.4h25.33q-2.25,2.25-4.56,4.4m13.09-13.77c-1.08,1.28-2.37,2.79-3.84,4.41H100.17A26.66,26.66,0,0,0,99,63.27ZM98.94,82h16.79c-1.86,1.54-3.74,3-5.63,4.42H96.89a28.59,28.59,0,0,0,2-4.42M72.58,48.25A24.24,24.24,0,1,1,48.34,72.5,24.25,24.25,0,0,1,72.58,48.25M48.27,86.41H34.91C33,85,31.15,83.53,29.28,82H46.23a28.54,28.54,0,0,0,2,4.42M46.14,63.27A25.72,25.72,0,0,0,45,67.68H14.4c-1.47-1.62-2.76-3.12-3.84-4.41Z"/><rect x="69.61" y="66.56" width="3.03" height="11.99"/><polygon class="cls-1" points="61.06 78.56 64.08 71.51 64.08 78.56 67.02 78.56 67.02 66.56 64.14 66.56 64.08 66.56 63.78 66.56 60.38 74.47 57.26 66.56 53.95 66.56 53.95 78.56 56.47 78.56 56.47 71.34 59.34 78.56 61.06 78.56"/><polygon class="cls-1" points="77.68 71.32 83.25 78.56 85.51 78.56 85.51 66.56 82.97 66.56 82.97 73.85 82.97 73.86 77.36 66.56 75.17 66.56 75.17 78.56 77.68 78.56 77.68 71.32"/><rect x="88.09" y="66.56" width="3.03" height="11.99"/><rect class="cls-2" width="145" height="145"/></g></g></svg>