<svg xmlns="http://www.w3.org/2000/svg" viewBox="0 0 145 145"><defs><style>.cls-1{fill:#231f20;fill-rule:evenodd;}.cls-2{fill:none;}</style></defs><g id="Layer_2" data-name="Layer 2"><g id="Layer_1-2" data-name="Layer 1"><path class="cls-1" d="M47.84,58.82c0,.31,0,.62,0,.94a23.25,23.25,0,0,0,45.62,6.32l-37.3.4,9-6.91Zm.84-5.34,37.53-.36-9.16,7,17.24.74c0-.35,0-.71,0-1.06a23.25,23.25,0,0,0-45.63-6.28ZM67,102.23a2.21,2.21,0,0,0,0-4.41H60.28a.2.2,0,0,0-.2.2v4a.2.2,0,0,0,.2.21ZM97.4,94.49a.34.34,0,0,1,.34-.34h5.53a.34.34,0,0,1,.34.34V107.3a.19.19,0,0,0,.2.2h11.74a.34.34,0,0,1,.34.34v3a.34.34,0,0,1-.34.34h-18a.2.2,0,0,1-.2-.2Zm-2-.34a.34.34,0,0,1,.34.34v3a.34.34,0,0,1-.34.34H82.66a.19.19,0,0,0-.2.2v2.6a.2.2,0,0,0,.2.21h9.89a.34.34,0,0,1,.34.34v3a.34.34,0,0,1-.34.34H82.66a.2.2,0,0,0-.2.21v2.6a.19.19,0,0,0,.2.2H95.37a.34.34,0,0,1,.34.34v3a.34.34,0,0,1-.34.34H76.46a.21.21,0,0,1-.21-.21V94.36a.21.21,0,0,1,.21-.21ZM44.1,107.23a2.63,2.63,0,0,0,2.2-2,29.46,29.46,0,0,0,0-5.23,2.44,2.44,0,0,0-2.2-1.85,30.25,30.25,0,0,0-6.86,0A2.43,2.43,0,0,0,35,100a29.46,29.46,0,0,0,0,5.23,2.65,2.65,0,0,0,2.21,2A30.84,30.84,0,0,0,44.1,107.23Zm2.8,3.89a51.47,51.47,0,0,1-12.53,0c-1.86-.28-4.26-1.36-4.84-3.71a27.76,27.76,0,0,1,0-9.58c.58-2.36,3-3.45,4.84-3.68a52.49,52.49,0,0,1,12.53,0c1.86.21,4.25,1.32,4.84,3.68a28,28,0,0,1,0,9.58C51.15,109.76,48.75,110.84,46.9,111.12Zm22.53-5.21H60.28a.2.2,0,0,0-.2.2v4.72a.34.34,0,0,1-.34.34H54.21a.34.34,0,0,1-.34-.34V94.36a.21.21,0,0,1,.21-.21H69.43c3.23,0,5.56,1.71,5.56,5.88S72.66,105.91,69.43,105.91ZM44.83,58.69l-8.16-.35V53.6l8.89-.09a26.26,26.26,0,0,1,51.76,6.25c0,.4,0,.8,0,1.19l8.1.35V66l-8.82.09a26.26,26.26,0,0,1-51.76-6.29C44.81,59.4,44.81,59.05,44.83,58.69Z"/><rect class="cls-2" width="145" height="145"/></g></g></svg>