<svg xmlns="http://www.w3.org/2000/svg" viewBox="0 0 145 145"><defs><style>.cls-1{fill:#231f20;}.cls-2{fill:none;}</style></defs><g id="Layer_2" data-name="Layer 2"><g id="Layer_1-2" data-name="Layer 1"><path class="cls-1" d="M83.79,52.32,85,53c.3-.85.83-2.36,1.31-3.82-.35-.79-.67-1.59-1-2.47-.23.74-.48,1.54-.73,2.3-.31,1-.62,2-.71,2.32a.82.82,0,0,1-.83.64,2.38,2.38,0,0,1-.82-.21c-.2.81-.38,1.4-.57,2-.15.48-.33,1-.53,1.76C82,56.87,83.5,59,84.39,60.33h0l-2.06-3c.63-2.29.92-2.84,1.42-5"/><path class="cls-1" d="M53.61,80.78a8.93,8.93,0,0,1,1.6.55,8.34,8.34,0,0,0-2.27-1.49c.3.4.67.94.67.94"/><path class="cls-1" d="M79.37,72.42l.27.18s-.15-.11-.27-.18"/><path class="cls-1" d="M60.09,57.85l5-.07-1-1.22-5,.09a3.8,3.8,0,0,1-3.47,2.19,1.73,1.73,0,0,1,.32,0c.23.31.82,1.19.82,1.19a3.19,3.19,0,0,0,3.39-2.21"/><path class="cls-1" d="M54.38,57.57a1.61,1.61,0,0,0-1.32.8l-.25.69h0a3.42,3.42,0,0,0,1.07.82,2.08,2.08,0,0,1,1.51-1l-.24,0h-.77l0-.77Z"/><path class="cls-1" d="M90.13,46.22a6.61,6.61,0,0,1-.45-1.06,6.76,6.76,0,0,1,.82-5h0a1,1,0,0,0-.48-.13,1.56,1.56,0,0,0-1.21.87c-.62,1.08-.59,1.94.13,4.38.47,1.6,1.61,4.41,2.28,6.1l.16.38A23.39,23.39,0,0,1,93,57a6.24,6.24,0,0,1-1.18,5,8.31,8.31,0,0,1-5,2.61,32.36,32.36,0,0,1,1.35,3.24,1.94,1.94,0,0,0,1,1.18c-.37-1-.84-2.12-1.22-3a8.94,8.94,0,0,0,5.23-2.73,6.44,6.44,0,0,0,1.49-4.1c0-3.94-3.16-9.73-3.94-11.72-.12-.32-.32-.78-.51-1.31"/><path class="cls-1" d="M57.29,48c-.32-.41-.66-.87-1-1.38a6.29,6.29,0,0,1-1.51.15,13.28,13.28,0,0,1-2.07-.18l.73,1a6.93,6.93,0,0,0,3.9.39"/><path class="cls-1" d="M69.1,39.29a3.77,3.77,0,0,0,.65.05,3.32,3.32,0,0,0,.87-.12,1.67,1.67,0,0,0-1.2-.49,1.79,1.79,0,0,0-1.26.5h0a7,7,0,0,1,.94.06"/><path class="cls-1" d="M93.61,84.54c.44.08.69-.61.54-1.16-.24-.95-.84-2.31-.88-2.91V72.54c-.52-.61-1.23-1.71-1.26-1.75v8.13a3.31,3.31,0,0,0,.46,1.77,1.74,1.74,0,0,1,.1,1.7,1,1,0,0,1-.85.56h-.16l-1.18-.2a16.67,16.67,0,0,0-2.94-.38,9.92,9.92,0,0,0-3.89,1l-.34.14-.32-.2-.08,0a9.37,9.37,0,0,0-3.64-1.47l1,1.34A9,9,0,0,1,85,84.78c3.63-1.53,5.06-.89,8.66-.24"/><path class="cls-1" d="M51.06,45.11l.17-.14.51-.4A1.67,1.67,0,0,0,50.51,44l-.23,0,0,.13s.4.54.72,1l.09,0"/><path class="cls-1" d="M67.49,44.75v0l.08.09.05-.12Z"/><path class="cls-1" d="M97.12,51.62c.61-.46-.9-2.95-.87-3.45a5.63,5.63,0,0,1,.21-1.36c.16-.54.42-1.34.58-2.16a6.47,6.47,0,0,0-1.58-5,6.38,6.38,0,0,1,.34,2.89,11.51,11.51,0,0,1-.49,1.93c0,.13-.09.25-.13.38a5,5,0,0,0-.28,1.18,5,5,0,0,0,.42,1.07c.51,1.13,1.05,2.3.2,2.94a1,1,0,0,1-.57.18,1.57,1.57,0,0,1-.53-.11,13.33,13.33,0,0,0,1.14.84s1.29.84,1.56.64"/><path class="cls-1" d="M85.06,39.69c-.26-.5-.55-1-.83-1.42L85,39.86l.06-.17"/><path class="cls-1" d="M76.43,70.33s2.16,1.58,3.23,2.29a38.05,38.05,0,0,0,4.19,2.49,2.93,2.93,0,0,1,.7-.2,1.34,1.34,0,0,0-.23-.82,1.09,1.09,0,0,0-1-.45,2.26,2.26,0,0,0-.56.07h-.11l-.53,0h-.24l-.19-.1a56.33,56.33,0,0,1-4.83-3.07l-1.38-1c-.26-.2-.52-.4-.74-.55-3.9,3.61-8.56,8.42-8.9,9.26a2.07,2.07,0,0,0,0,1.9A2,2,0,0,1,65.78,82a1,1,0,0,1-.84.47,1.19,1.19,0,0,1-.32,0,18.25,18.25,0,0,0-5.22-.92,5.15,5.15,0,0,0-2.65.56l-.15.11A6.42,6.42,0,0,1,58,83.52c2.09-1.37,6.81-.12,8.57.46.48.2.88-.16.85-.84s-.8-1.84-.38-3.09c.74-2.22,6.34-6.82,9.39-9.72"/><path class="cls-1" d="M49.51,43.36a4.26,4.26,0,0,1,.9-.14h.1a2.74,2.74,0,0,1,2.28,1.48l-.46.36-.63.5a3.58,3.58,0,0,0,1.31.36,12.09,12.09,0,0,0,1.72.14,4,4,0,0,0,1.78-.3l1.62,2.14a34.43,34.43,0,0,0,2.69,3.28,17.33,17.33,0,0,1-3.61.37l-4.65.08a2.59,2.59,0,0,0-2.27,1.65,7.8,7.8,0,0,0-.45,3l.65-.21c.13.25.24.44.34.61.5.83.68,1.11,1.54,1.43.48-1.21,2.05-1.33,2.59-1.33h.19l0,1.34c3.06,0,3.34-2.22,3.34-2.22l5.95-.09,1.62,2,2.13,2.6c-3.07,3.2-5.22,7.17-7.55,11.41a1.89,1.89,0,0,1-1.11,3.29h-.2c-1,0-2.14-.74-3.42-.74a3.59,3.59,0,0,0-.71.08c-2.06.45-1.64,2.1-3.26,4.26A8.9,8.9,0,0,1,53,79a9.46,9.46,0,0,1,3.37,2.39,5.84,5.84,0,0,1,3-.69,18.91,18.91,0,0,1,5.45,1l.09,0c.33,0,.44-.65.2-1.2a2.91,2.91,0,0,1,0-2.49c.47-1.12,5.77-6.51,9.54-9.93l.12.08L77.33,70c2,1.49,4.72,3,4.72,3l.69-.06a3,3,0,0,1,.76-.08,2.13,2.13,0,0,1,.39.06l.17,0,.31.14a1.66,1.66,0,0,1,.21.16s0,0,.06,0a2.16,2.16,0,0,1,.63,1.56,1.41,1.41,0,0,1-.07.49,1.65,1.65,0,0,1-.27.47.73.73,0,0,0-.09.08,1.86,1.86,0,0,1-.31.26l-.14.06a2.48,2.48,0,0,1-.41.15s0,0,0,0a2.46,2.46,0,0,1-.61,0c-1-.07-2.08-.55-3.39.23s-.78,3.25-1.58,4.29a7.81,7.81,0,0,1,1.54.18,11.23,11.23,0,0,1,3.37,1.51c3.63-1.53,4.73-1,8.41-.41.27,0,.45-.69.16-1.18a4.41,4.41,0,0,1-.59-2.18V70h0a5,5,0,0,1-1.86-.08,2.67,2.67,0,0,1-1.2-.6s0,0,0,0a2.58,2.58,0,0,1-.32-.34,0,0,0,0,0,0,0,3.14,3.14,0,0,1-.45-.87A41.75,41.75,0,0,0,85.66,64a9.3,9.3,0,0,0,4.4-1.38,5.45,5.45,0,0,0,1.19-1.07,4.1,4.1,0,0,0,.66-1.09,5.72,5.72,0,0,0,.41-3.23A22,22,0,0,0,90.76,52c-.64-1.71-2-4.66-2.49-6.41a14.19,14.19,0,0,1-.65-2.91,4.86,4.86,0,0,1,0-.54h0a3.67,3.67,0,0,1,.52-1.6,2.19,2.19,0,0,1,2-1.24,1.64,1.64,0,0,1,.68.18c.78.37.61.59.53.72a7,7,0,0,0-.64,1.29A5.54,5.54,0,0,0,90.4,45a7.13,7.13,0,0,0,1.87,2.88,8.59,8.59,0,0,0,1.22,1s1.33.86,1.59.66c.62-.47-1-2.74-.93-3.47a5.26,5.26,0,0,1,.32-1.36,12.52,12.52,0,0,0,.59-2.2,5.1,5.1,0,0,0-1.31-4.13,4.22,4.22,0,0,0-2.47-1.25,5.06,5.06,0,0,0-5.22,2.3,5.39,5.39,0,0,0-.55,1.17,5.28,5.28,0,0,0-.27,1.77A42,42,0,0,0,82,35.78c-.16-.19-.63-.77-1.1-1.27a3.88,3.88,0,0,0-.94-.82,47.64,47.64,0,0,0-5.42-1.19s0,0,0,0h0a39,39,0,0,0-5.87,2.09l-.59.61a30.4,30.4,0,0,0-3.84.91,1.18,1.18,0,0,0,0,1.51c.07.1.46,1.5,1.17,1.5H67.3A2.41,2.41,0,0,1,69.41,38a2.38,2.38,0,0,1,2.29,1.6l-.28.12a3.84,3.84,0,0,1-1.67.39,5.13,5.13,0,0,1-.65-.05H69a5.83,5.83,0,0,0-.84-.06,6.46,6.46,0,0,0-2.08.34c-.3.11-.47.22-.47.29,0,.38,2,.5,2.53.51s1.38.06,2.19.06c.38,0,.77,0,1.14,0a2.94,2.94,0,0,1-.33.36,3.4,3.4,0,0,1-2.14.76H66A4.75,4.75,0,0,0,66.72,44H68c.56,0,.62.18.55.43s-.09.27-.14.44-.17.44-.27.68A6.82,6.82,0,0,1,66.55,48c-3.09-2.7-7.24-6.07-10.16-8.21a8.47,8.47,0,0,0-3.82-.73,6.73,6.73,0,0,0-2.32.33,2,2,0,0,0-1,.94l.88.25c-1.61,1-.6,2.77-.6,2.77m23.13-7.9.12-.06-.12.06m11.57,25.6a2.61,2.61,0,0,1-.27-.06h0c-1-1.41-2.71-4-3.6-5.35.63-2.29.92-2.84,1.41-5a5.16,5.16,0,0,0,1.3.53h.1s0,0,0,0c.23-1,1.79-5.51,2.07-7,0,0,.24.65.55,1.59s.57,1.56.88,2.29c.46,1.13.94,2.19,1.37,3.27a25.14,25.14,0,0,1,1.63,5.15,4.31,4.31,0,0,1-.4,3.19,3.79,3.79,0,0,1-1.39,1.12l-.07,0a3.84,3.84,0,0,1-.51.19l-.13,0-.3.08-.18,0-.53.07h-.59l-.56,0h0l-.37,0-.44-.07M69.92,36.19a2.43,2.43,0,0,1,0-1.21,18.89,18.89,0,0,1,2.53-.26.36.36,0,0,1,.24.07.4.4,0,0,1-.07.7c-.59.26-1.7.64-2.58.94a2.25,2.25,0,0,1-.08-.24"/><path class="cls-1" d="M103.73,97c-4.74.12-7.87,3.37-7.77,8.09s3.12,7.55,7.92,7.44,7.83-3.29,7.83-8.28c0-4.43-3.23-7.37-8-7.25m.22,13.74c-2.49,0-4-2-4.08-5.61-.1-3.9,1.36-6.28,4-6.29s3.89,2.47,4,6c0,2.14-.63,5.92-3.91,5.93"/><path class="cls-1" d="M76.17,110.31a.5.5,0,0,1-.14.09,5.05,5.05,0,0,1-2.46.19c-2.53-.35-4.22-2.66-4.22-5.76a5.86,5.86,0,0,1,5.4-5.74,12.8,12.8,0,0,1,4.29.56l.56-1.73a12.76,12.76,0,0,0-5.16-1c-7,0-9.22,4.67-9.22,7.82,0,4.07,2.72,7.72,8.51,7.72A13,13,0,0,0,80,111.14v-6.26H76.17Z"/><path class="cls-1" d="M79,99.65h0"/><path class="cls-1" d="M78.91,99.61h0"/><polygon class="cls-1" points="112.11 99.51 116.79 99.51 116.79 111.84 120.69 111.84 120.69 99.51 125.5 99.51 125.5 97.51 112.11 97.51 112.11 99.51"/><path class="cls-1" d="M31.69,98.06c-1-.45-1.7-.55-4.59-.55H19.5v14.33h4.09v-5.28h3.85c3.56,0,6.53-.75,6.53-4.89a4.21,4.21,0,0,0-2.28-3.61m-5.21,6.88H23.57V99.3l3.09,0a3,3,0,0,1,3.18,2.83c0,1.57-1.37,2.83-3.36,2.83"/><path class="cls-1" d="M59.32,107.33a3,3,0,0,1-3,3.21h0a3,3,0,0,1-3.11-3.36V97.51h-3.8v8.65c0,2.43.59,3.54,1.42,4.37,1.37,1.38,2.89,2,5.49,2h0a6.94,6.94,0,0,0,5.5-2.08c.84-.82,1.36-1.83,1.36-4.17V97.51H59.32Z"/><polygon class="cls-1" points="35.67 111.84 46.69 111.84 46.69 109.54 39.54 109.54 39.54 104.88 45.32 104.88 45.32 103.14 39.54 103.14 39.54 99.55 46.69 99.55 46.69 97.51 35.67 97.51 35.67 111.84"/><polygon class="cls-1" points="83.29 111.84 94.32 111.84 94.32 109.59 87.17 109.59 87.17 104.93 92.95 104.93 92.95 103.19 87.17 103.19 87.17 99.6 94.32 99.6 94.32 97.51 83.29 97.51 83.29 111.84"/><rect class="cls-2" width="145" height="145"/></g></g></svg>