<svg xmlns="http://www.w3.org/2000/svg" viewBox="0 0 145 145"><defs><style>.cls-1{fill:#231f20;}.cls-2{fill:none;}</style></defs><g id="Layer_2" data-name="Layer 2"><g id="Layer_1-2" data-name="Layer 1"><path class="cls-1" d="M68.75,89.21a4.35,4.35,0,0,0,2.38-3.86c0-1-.44-4.32-5-4.32H50.77V97.47s9.49.07,15.35,0c5.09,0,5.33-3.17,5.33-4.63a4.14,4.14,0,0,0-2.7-3.63m-13-4.85c.12-.08,5.79,0,9,0A1.71,1.71,0,0,1,66.58,86a1.6,1.6,0,0,1-1.7,1.78c-3.55,0-9.06.07-9.18,0ZM65,94.15c-3.94,0-9.14.08-9.26,0V90.6c.12-.08,6.17,0,9.19-.08a1.86,1.86,0,0,1,2,1.85A1.76,1.76,0,0,1,65,94.15"/><path class="cls-1" d="M114.44,91.14a5.4,5.4,0,0,0,2.47-4.25c0-3.08-1.23-5.86-5.79-5.86H96.45V97.47h5v-5.1s5.93,0,8.87,0a2.53,2.53,0,0,1,2.32,2.47v2.63H117V94.93c0-2.4-2.53-3.79-2.56-3.79m-4-1.78c-3.56,0-9,0-9,0v-5c.11-.08,5.8,0,9,0,1.24,0,2,1.45,2,2.61a2.27,2.27,0,0,1-2,2.39"/><path class="cls-1" d="M80.17,81,71.3,97.47h4.93l1.86-3.32H88.43l1.78,3.32h4.86L86.19,81Zm-.3,9.58,3.23-5.95,3.4,5.95Z"/><path class="cls-1" d="M134.89,81c.09.13,0,7.19-.07,11.74,0,.62-.23,1.39-1.16,1.39h-8.57a1.22,1.22,0,0,1-1.38-1.31c0-5.1-.2-11.74-.08-11.9h-4.87c-.07.12-.07,8,0,13.13,0,2.54,2.71,3.4,5.71,3.4,4.26,0,6.57.07,11.29,0,2.47,0,4.12-1.35,4.08-3.4,0-4.54-.08-13-.08-13Z"/><path class="cls-1" d="M22.75,87.28C18.8,87.09,14,87.13,11.08,87c-1.62-.08-1.62-3.16.17-3.16h9c1.23,0,1.23,1.34,1.23,1.39H26c-.08-.2.47-4.79-3.86-4.79h-13c-2.16,0-3.71,1.31-3.71,2.92v3.48c0,2.25,2,3.32,4.79,3.41,4.08.1,6.56.22,9.8.38a1.78,1.78,0,1,1,0,3.55c-3.08.08-5,0-8.4,0A1.82,1.82,0,0,1,9.7,92.21H5.22a5,5,0,0,0,0,1.55,4.3,4.3,0,0,0,4.24,3.71h12.9c2,0,4-1.09,3.93-3.4,0,0-.07-3.39-.07-3.47a3.41,3.41,0,0,0-3.47-3.32"/><path class="cls-1" d="M44,81c.07.13.07,7.19,0,11.74,0,.62-.24,1.39-1.16,1.39H34.17a1.27,1.27,0,0,1-1.39-1.31c0-5.1-.09-11.77,0-11.9H27.84c-.09.12,0,8,.07,13.13.05,2.51,2.63,3.4,5.64,3.4,4.32,0,6.64.07,11.27,0,2.47,0,4.2-1.35,4.17-3.4,0-4.54-.08-13-.08-13Z"/><path class="cls-1" d="M57.2,51.73c-4.53,2.68-7.37,6.32-7.37,10s2.84,7.29,7.33,9.94a34.74,34.74,0,0,0,33.06,0c4.52-2.65,7.38-6.25,7.38-10s-2.87-7.35-7.41-10a34.31,34.31,0,0,0-33,0m39.7,10c0,3.43-2.72,6.82-7,9.35a34.08,34.08,0,0,1-32.34,0c-4.3-2.53-7-5.92-7-9.35s2.73-6.87,7-9.42a33.57,33.57,0,0,1,32.28,0c4.34,2.56,7.07,6,7.07,9.43"/><polygon class="cls-1" points="64.89 51.24 62.68 56.84 52.87 58.95 62.68 61.04 65 67 67.34 61.16 77.97 58.95 67.22 56.62 64.89 51.24"/><polygon class="cls-1" points="77.04 62.1 72.83 63.03 77.04 63.97 78.09 66.53 79.02 64.09 83.58 63.03 79.02 62.1 77.97 59.77 77.04 62.1"/><polygon class="cls-1" points="89.19 59.77 88.13 62.1 84.04 63.03 88.13 63.97 89.19 66.53 90.12 64.09 94.67 63.03 90.12 62.1 89.19 59.77"/><polygon class="cls-1" points="86.27 59.66 87.2 57.07 91.75 56.14 87.2 55.2 86.14 52.86 85.21 55.2 81.02 56.14 85.21 57.07 86.27 59.66"/><polygon class="cls-1" points="81.94 65.37 80.89 67.7 76.81 68.64 80.89 69.57 81.94 72.02 82.99 69.57 87.56 68.64 82.87 67.58 81.94 65.37"/><polygon class="cls-1" points="69.8 66.06 68.86 68.53 64.65 69.46 68.86 70.27 69.92 72.84 70.85 70.39 75.4 69.46 70.85 68.4 69.8 66.06"/><rect class="cls-2" width="145" height="145"/></g></g></svg>