<svg xmlns="http://www.w3.org/2000/svg" viewBox="0 0 145 145"><defs><style>.cls-1{fill:#231f20;}.cls-2{fill:none;}</style></defs><g id="Layer_2" data-name="Layer 2"><g id="Layer_1-2" data-name="Layer 1"><path class="cls-1" d="M90.3,103.08a8.52,8.52,0,0,0-8.42-8.41,8.37,8.37,0,0,0-8.42,8.41,8.45,8.45,0,0,0,8.42,8.42,8.61,8.61,0,0,0,8.42-8.42m-13.07,0a4.9,4.9,0,0,1,4.65-5.32c2.52,0,4.61,2.37,4.64,5.32s-2.12,5.29-4.64,5.32a5,5,0,0,1-4.65-5.32"/><polygon class="cls-1" points="99.82 98.21 104.68 98.21 104.68 95.34 91.18 95.34 91.18 98.21 96.27 98.21 96.27 111.05 99.82 111.05 99.82 98.21"/><path class="cls-1" d="M108.89,107.51h6.44l1.32,3.55h4.21l-6.43-15.73H110l-6.65,15.73h4.21Zm3.33-8.41,2.21,5.76H110Z"/><polygon class="cls-1" points="31.14 111.05 34.69 111.05 34.69 98.21 39.56 98.21 39.56 95.34 26.26 95.34 26.26 98.21 31.14 98.21 31.14 111.05"/><path class="cls-1" d="M57.28,103.08a8.42,8.42,0,1,0-8.42,8.42,8.57,8.57,0,0,0,8.42-8.42m-13.06,0c-.06-3,2-5.33,4.65-5.32s4.64,2.37,4.64,5.32-2.09,5.29-4.64,5.32a5,5,0,0,1-4.65-5.32"/><polygon class="cls-1" points="65.25 111.05 67.03 111.05 67.03 105.07 73.23 95.34 69.25 95.34 65.25 101.98 61.49 95.34 57.28 95.34 63.49 105.07 63.49 111.05 65.25 111.05"/><path class="cls-1" d="M72.62,87.92c24,0,43.49-12.2,43.49-27.2S96.6,33.5,72.62,33.5,29.13,45.71,29.13,60.72s19.51,27.2,43.49,27.2m0-53.08c23.24,0,42.16,11.61,42.16,25.88S95.86,86.59,72.62,86.59,30.46,75,30.46,60.72,49.37,34.84,72.62,34.84"/><path class="cls-1" d="M62,53.66l.65.12.12-.66c1-6.25,3.27-11.17,6.16-13.48l1.65-1.32-2.1.13c-10.18.62-17.57,3.32-18.84,6.87a3.67,3.67,0,0,0-.2,1.12A3.36,3.36,0,0,0,50,48.21c1.41,2.41,5.79,4.39,12,5.45M50.94,45.77c1-2.72,7.49-5.09,15.84-5.86-2.38,2.7-4.21,7-5.16,12.32-5.43-1-9.33-2.74-10.48-4.69a2.26,2.26,0,0,1-.32-1.1,1.76,1.76,0,0,1,.12-.67"/><path class="cls-1" d="M66.65,53.52l-.13.73.73,0c1.75.14,3.56.21,5.37.21s3.62-.07,5.37-.21l.73,0-.13-.73c-1-5.65-3.23-9-6-9s-5,3.37-6,9m6-7.68c1.87,0,3.59,2.8,4.51,7.17-1.49.09-3,.15-4.51.15s-3-.06-4.5-.15c.9-4.37,2.63-7.17,4.5-7.17"/><path class="cls-1" d="M82.44,53.12l.11.66.66-.12c6.25-1.06,10.64-3,12.05-5.45a3.41,3.41,0,0,0,.31-2.89c-1.26-3.55-8.66-6.26-18.84-6.87l-2.1-.13,1.65,1.32c2.88,2.31,5.15,7.23,6.16,13.48m11.87-7.35a2,2,0,0,1,.12.67,2.26,2.26,0,0,1-.32,1.1c-1.16,2-5.06,3.68-10.49,4.69-1-5.28-2.78-9.62-5.16-12.32,8.35.77,14.88,3.15,15.85,5.86"/><path class="cls-1" d="M68.16,83.23l2,.15-1.54-1.33c-4-3.4-6.46-11.49-6.46-21.11l0-2.26-.56-.11c-9.57-1.73-16.37-5.75-17.34-10.26l-.23-1.08-.86.71c-4.58,3.84-7,8.39-7,13.17,0,11.26,13.72,20.75,31.92,22.12M43.34,49.65c1.75,4.56,8.28,8.34,17.52,10.11,0,.52,0,1.18,0,1.18,0,8.92,2.11,16.62,5.61,20.77-16.58-1.77-28.89-10.43-28.89-20.6,0-4.1,2-8,5.77-11.46"/><path class="cls-1" d="M79.14,60.15v-1l-.72.07c-1.89.16-3.84.25-5.79.25s-3.91-.09-5.78-.25l-.73-.07v1c0,8.94,2.81,15.68,6.52,15.68s6.52-6.74,6.52-15.68M72.62,74.5c-2.45,0-5.07-5.56-5.18-13.87,1.7.12,3.44.2,5.18.2s3.47-.08,5.17-.2c-.09,8.31-2.71,13.87-5.17,13.87"/><path class="cls-1" d="M83,58.66l0,2.28c0,9.62-2.48,17.71-6.46,21.11l-1.55,1.33,2-.15C95.28,81.86,109,72.37,109,61.11c0-4.78-2.41-9.34-7-13.17l-.84-.71-.24,1.08c-1,4.51-7.78,8.53-17.34,10.26Zm18.88-9c3.76,3.42,5.76,7.36,5.76,11.46,0,10.17-12.29,18.83-28.87,20.6,3.49-4.15,5.6-11.85,5.6-20.77,0,0,0-.66,0-1.18,9.25-1.77,15.78-5.55,17.53-10.11"/><rect class="cls-2" width="145" height="145"/></g></g></svg>