<svg xmlns="http://www.w3.org/2000/svg" viewBox="0 0 145 145"><defs><style>.cls-1{fill:#231f20;}.cls-2{fill:none;}</style></defs><g id="Layer_2" data-name="Layer 2"><g id="Layer_1-2" data-name="Layer 1"><path class="cls-1" d="M80.57,42.07a31.61,31.61,0,0,0-15.93,0l8,22Z"/><path class="cls-1" d="M104,72.52a31.45,31.45,0,0,0-2-11.15L87,100.42a31.54,31.54,0,0,0,17-27.9"/><path class="cls-1" d="M88.35,45.3,79.12,70.69h-13l-9.26-25.5A32,32,0,0,0,48,52.8L61.13,86.9,66,74.44H78.58L83.4,86.9,96.68,52.39a31.64,31.64,0,0,0-8.33-7.09"/><path class="cls-1" d="M72.52,30.5a42,42,0,1,0,42,42,42.11,42.11,0,0,0-42-42m0,78.63a36.65,36.65,0,1,1,36.65-36.61,36.71,36.71,0,0,1-36.65,36.61"/><path class="cls-1" d="M72.24,81.12l-8.11,21.06,0,.66a32,32,0,0,0,16.37.13l-.09-.79Z"/><path class="cls-1" d="M41,72.52a31.41,31.41,0,0,0,16.37,27.56l-14.58-38A30.93,30.93,0,0,0,41,72.52"/><rect class="cls-2" width="145" height="145"/></g></g></svg>