<svg xmlns="http://www.w3.org/2000/svg" viewBox="0 0 195.78 108.42"><defs><style>.cls-1{fill:#181ca9;}.cls-2{fill:none;}</style></defs><g id="Layer_2" data-name="Layer 2"><g id="Layer_1-2" data-name="Layer 1"><path class="cls-1" d="M50.87,63.5a8.71,8.71,0,1,0,8.71,8.71A8.71,8.71,0,0,0,50.87,63.5Zm4.67,14-2.73-4a.81.81,0,0,0-1.11-.2.8.8,0,0,0-.21,1.11l2.74,4a6.93,6.93,0,0,1-3.36.89,7.08,7.08,0,0,1-3.35-.88l2.79-4a.79.79,0,1,0-1.3-.91l-2.8,4a7.06,7.06,0,0,1-2.44-5.31,7.17,7.17,0,0,1,.14-1.41l4.81,1.49a.85.85,0,0,0,.23,0,.8.8,0,0,0,.24-1.56l-4.77-1.49a7.08,7.08,0,0,1,5.66-4.09V69.6a.8.8,0,0,0,1.59,0V65.19a7.06,7.06,0,0,1,5.66,4.09l-4.72,1.49a.8.8,0,0,0,.24,1.56,1,1,0,0,0,.24,0l4.75-1.49A7.17,7.17,0,0,1,58,72.21,7.08,7.08,0,0,1,55.54,77.52Z"/><path class="cls-1" d="M139.38,63.5a8.71,8.71,0,1,0,8.71,8.71A8.71,8.71,0,0,0,139.38,63.5Zm4.67,14-2.77-4.07a.8.8,0,0,0-1.32.9l2.78,4.08a6.84,6.84,0,0,1-6.71,0l2.88-4.18a.8.8,0,1,0-1.32-.9l-2.87,4.17a7.08,7.08,0,0,1-2.44-5.31,7.17,7.17,0,0,1,.14-1.41l4.85,1.48a.67.67,0,0,0,.24,0,.8.8,0,0,0,.23-1.56l-4.81-1.48a7.06,7.06,0,0,1,5.65-4.09l0,4.55a.79.79,0,0,0,.79.8.8.8,0,0,0,.8-.8V65.19a7.06,7.06,0,0,1,5.66,4.09l-4.7,1.46a.8.8,0,0,0,.23,1.56,2,2,0,0,0,.24,0l4.74-1.47a7.17,7.17,0,0,1,.14,1.41A7.08,7.08,0,0,1,144.05,77.52Z"/><path class="cls-1" d="M170.69,59.81a4.25,4.25,0,0,0-2.38-1V55.7c0-4.54-2.94-5-3.09-5l-1.53-.17c-20-2.25-30.19-3.41-76,.09l13.48-8.8a.77.77,0,0,0,.36-.55.83.83,0,0,0-.19-.64l-1.19-1.36a.79.79,0,0,0-.95-.18L73.89,51.68c-4.9.4-41.26,3.36-45.82,6.41-5,3.3-4.11,8.06-4.09,8.12V72.4a5.41,5.41,0,0,0,1.19,3.52,4.78,4.78,0,0,0,3.27,1.25H39.85a12.07,12.07,0,0,0,22,0h66.28c.06,0,.09,0,.14,0A12.06,12.06,0,0,0,150.85,76l14.53-2c6.49-2.11,6.49-8,6.49-11.1A3.88,3.88,0,0,0,170.69,59.81Zm-4-1h-3.48a1.62,1.62,0,0,1-1.47-.91,1.51,1.51,0,0,1,.43-1.61,33.7,33.7,0,0,1,3.56-3.56,3.84,3.84,0,0,1,1,3Zm-45.5-8.62V75.58H80.77V63.08c0-.44,0-.86,0-1.25a9.13,9.13,0,0,1,.94-5,14.32,14.32,0,0,1,3.42-4.4l1.38-.12h0C101.2,51.15,112.31,50.48,121.21,50.17ZM99.34,40.75l.17.2L84.32,50.87l-6.19.48ZM29,59.41c.95-.63,3.76-1.3,7.56-1.94-2.64,5.37-8.87,6.7-10.92,7A7.14,7.14,0,0,1,29,59.41ZM50.87,82.73A10.52,10.52,0,1,1,61.4,72.21,10.53,10.53,0,0,1,50.87,82.73Zm0-22.64A11.94,11.94,0,0,0,39.29,75.58H28.55a3.35,3.35,0,0,1-2.25-.78,4,4,0,0,1-.72-2.39V66.08c2.25-.26,10.17-1.71,12.87-8.93,10.86-1.71,27.85-3.27,35.73-3.89h0l8.48-.66a14.18,14.18,0,0,0-2.43,3.54,10.62,10.62,0,0,0-1.08,5.75c0,.38,0,.77,0,1.19v12.5H62.46A12,12,0,0,0,50.87,60.09Zm88.51,22.64A10.52,10.52,0,1,1,149.9,72.21,10.53,10.53,0,0,1,139.38,82.73ZM165,72.37l-13.74,1.91a11.91,11.91,0,0,0,.21-2.07,12.12,12.12,0,0,0-24.24,0,11.88,11.88,0,0,0,.54,3.37h-5V50.12c18.31-.56,27.35.44,40.7,2l.48.05c-.61.58-1.57,1.52-3,3.07a3,3,0,0,0-.71,3.33,3.21,3.21,0,0,0,2.93,1.86h4.32s0,0,0,0a3.07,3.07,0,0,1,2,.6,2.35,2.35,0,0,1,.66,1.83C170.27,66.78,169.85,70.79,165,72.37Z"/><rect class="cls-2" width="195.78" height="108.42"/></g></g></svg>