<svg xmlns="http://www.w3.org/2000/svg" viewBox="0 0 195.78 108.42"><defs><style>.cls-1{fill:#181ca9;}.cls-2{fill:none;}</style></defs><g id="Layer_2" data-name="Layer 2"><g id="Layer_1-2" data-name="Layer 1"><path class="cls-1" d="M141.4,65.52A7.56,7.56,0,1,0,149,73.08,7.57,7.57,0,0,0,141.4,65.52Zm0,13.52a6,6,0,1,1,6-6A6,6,0,0,1,141.4,79Z"/><path class="cls-1" d="M57.64,65.52a7.56,7.56,0,1,0,7.56,7.56A7.57,7.57,0,0,0,57.64,65.52Zm0,13.52a6,6,0,1,1,6-6A6,6,0,0,1,57.64,79Z"/><path class="cls-1" d="M154,56.48c-.46-4.44-2.44-16.39-10.86-25.72a.91.91,0,0,0-.45-.25c-1.3-.24-32.21-6-48.14-.83C79.48,34.52,64,44.79,62.35,45.89,36,50.86,38,71.44,38,71.56a4,4,0,0,0,4,4h4.68a11.23,11.23,0,0,0,21.9,0h61.86a11.23,11.23,0,0,0,21.9,0h1.46a4,4,0,0,0,4-4V60.5A4,4,0,0,0,154,56.48ZM143.52,33.83a44.05,44.05,0,0,1,7.91,17.1h-7.91ZM60.88,47.88A17.29,17.29,0,0,1,45,56.3C48.1,52.82,53.1,49.65,60.88,47.88ZM57.64,82.73a9.65,9.65,0,1,1,9.65-9.65A9.66,9.66,0,0,1,57.64,82.73Zm0-20.9A11.27,11.27,0,0,0,46.39,73.08a9,9,0,0,0,.09.91H42a2.46,2.46,0,0,1-2.43-2.52,20.82,20.82,0,0,1,4.1-13.62c.74.07,1.45.1,2.13.1A18.69,18.69,0,0,0,63,47.36a.44.44,0,0,0,.16-.06C63.27,47.19,79.4,36.23,95,31.2c14.57-4.68,43.1.13,46.89.8V51.73a.8.8,0,0,0,.8.8h9.05c.31,1.63.5,2.95.6,3.95h-11a16.67,16.67,0,0,0-16.65,16.65V74H73.5v-.86A16.67,16.67,0,0,0,56.85,56.48a.8.8,0,1,0,0,1.6,15.07,15.07,0,0,1,15.06,15V74H68.8a9,9,0,0,0,.09-.91A11.27,11.27,0,0,0,57.64,61.83Zm83.76,20.9a9.65,9.65,0,1,1,9.65-9.65A9.66,9.66,0,0,1,141.4,82.73Zm14.84-11.17A2.43,2.43,0,0,1,153.81,74h-1.25a9,9,0,0,0,.09-.91,11.25,11.25,0,0,0-22.5,0,9,9,0,0,0,.09.91h-3.89v-.86a15.07,15.07,0,0,1,15.05-15h12.41a2.42,2.42,0,0,1,2.43,2.42Z"/><path class="cls-1" d="M67,51.33h.06l63-4.36c5.62-.94,5.91-5.8,5.4-10.91a.81.81,0,0,0-.67-.71l-1.32-.22a116.85,116.85,0,0,0-21.37-1.91c-6.71,0-12,.62-15.85,1.84-12.65,4.07-25.92,12.36-29.68,14.8a.8.8,0,0,0-.32.93A.78.78,0,0,0,67,51.33Zm66.2-14.63.72.12c.48,5.64-.66,8-4.05,8.56l-19.23,1.33V34.84c.5,0,.95,0,1.46,0A114.48,114.48,0,0,1,133.21,36.7Zm-36.46-.13a47.13,47.13,0,0,1,12.3-1.68V46.82L70.11,49.51C75.61,46.11,86.41,39.9,96.75,36.57Z"/><path class="cls-1" d="M123.68,60.91H74a.8.8,0,0,0,0,1.6h49.65a.8.8,0,0,0,0-1.6Z"/><rect class="cls-2" width="195.78" height="108.42"/></g></g></svg>