<svg xmlns="http://www.w3.org/2000/svg" viewBox="0 0 195.78 108.42"><defs><style>.cls-1{fill:#181ca9;}.cls-2{fill:none;}</style></defs><g id="Layer_2" data-name="Layer 2"><g id="Layer_1-2" data-name="Layer 1"><path class="cls-1" d="M75.2,68a6.06,6.06,0,1,0,6,6A6.06,6.06,0,0,0,75.2,68Zm0,10.51a4.46,4.46,0,1,1,4.45-4.46A4.46,4.46,0,0,1,75.2,78.53Z"/><path class="cls-1" d="M130,68a6.06,6.06,0,1,0,6.06,6A6.05,6.05,0,0,0,130,68Zm0,10.51a4.46,4.46,0,1,1,4.46-4.46A4.46,4.46,0,0,1,130,78.53Z"/><path class="cls-1" d="M139.86,59.91l3.41-5.24a.84.84,0,0,0,.13-.49,73.69,73.69,0,0,0-6.48-25.26.76.76,0,0,0-.48-.4c-1-.31-24.55-7.41-41.43-1.84C78.8,32,63.57,50.43,61.85,52.56,60.3,53.15,51.37,56.83,51.37,63v8c0,.15-.26,3.64,1.71,5.77A5.07,5.07,0,0,0,57,78.31h8.88a10.22,10.22,0,0,0,18.63,0h36.13A10.23,10.23,0,0,0,139.41,78,5.28,5.28,0,0,0,143,76.37a5.71,5.71,0,0,0,1.28-2.85.8.8,0,0,0,.1-.38v-.5c0-.25,0-.43,0-.5v-3A10.54,10.54,0,0,0,139.86,59.91ZM61.28,54.54C60.69,57.05,58.72,62.25,53,64V63C53,58.73,58.66,55.71,61.28,54.54ZM75.2,82.73a8.66,8.66,0,1,1,8.66-8.66A8.67,8.67,0,0,1,75.2,82.73Zm54.75,0a8.66,8.66,0,1,1,8.66-8.66A8.67,8.67,0,0,1,130,82.73Zm12.87-10.14a4.56,4.56,0,0,1-1,2.74,3.51,3.51,0,0,1-1.88,1,10.25,10.25,0,1,0-20.26-2.24,10,10,0,0,0,.39,2.64h-35a10,10,0,0,0,.39-2.64,10.26,10.26,0,1,0-20.52,0,10,10,0,0,0,.39,2.64H57a3.5,3.5,0,0,1-2.74-1.06C52.76,74,53,71.1,53,71V65.62c8.43-2.16,10-10.77,10.12-12.05C64.42,52,79.75,33.39,95.51,28.19c15.33-5,37.18.9,40.13,1.75A72.47,72.47,0,0,1,141.79,54l-3.32,5.11a17.09,17.09,0,0,0-8.52-2.3,16.78,16.78,0,0,0-17.14,14.75H92.33a17.25,17.25,0,0,0-6.67-11.43l49.45-11.69a.79.79,0,0,0,.59-1,.82.82,0,0,0-1-.59L84.24,58.84c-.11,0-.16.12-.25.18a17.84,17.84,0,0,0-8.79-2.19A17.26,17.26,0,0,0,58,74.07a.8.8,0,1,0,1.6,0A15.67,15.67,0,0,1,75.2,58.42c8.55,0,14.54,5.39,15.64,14.06a.8.8,0,0,0,.8.7h21.87a.81.81,0,0,0,.79-.71c1-8.4,7.28-14,15.65-14a15.57,15.57,0,0,1,8.36,2.43h.05s0,0,0,0,4.42,2.09,4.42,8.2Z"/><path class="cls-1" d="M75.77,53.27a.55.55,0,0,0,.18,0l57.14-13a.81.81,0,0,0,.62-.87c0-.21-.61-5.16-1.82-7.37a.77.77,0,0,0-.48-.38,83.13,83.13,0,0,0-20-2.54,57.33,57.33,0,0,0-12,1.18c-15.3,3.3-24.07,21.09-24.44,21.85a.8.8,0,0,0,.09.84A.83.83,0,0,0,75.77,53.27ZM132,38.86l-19,4.31V30.74a84,84,0,0,1,17.57,2.35A24.53,24.53,0,0,1,132,38.86Zm-32.19-7a56,56,0,0,1,11.62-1.14h0V43.54L77.3,51.31C79.78,46.93,87.81,34.43,99.83,31.84Z"/><rect class="cls-2" width="195.78" height="108.42"/></g></g></svg>