<svg xmlns="http://www.w3.org/2000/svg" viewBox="0 0 195.78 108.42"><defs><style>.cls-1{fill:#181ca9;}.cls-2{fill:none;}</style></defs><g id="Layer_2" data-name="Layer 2"><g id="Layer_1-2" data-name="Layer 1"><path class="cls-1" d="M164.14,55.39c-.12-4.24-1.64-13.67-11.59-22.14a.68.68,0,0,0-.33-.16c-.24-.07-24.6-5.79-50.73-3.87-15.26,1.11-21,5.61-26,9.58-3.36,2.64-6.54,5.14-12.13,6.44C54,46.1,40,48.45,33.12,54.75a2,2,0,0,0-.18.13s0,0,0,.06a11.48,11.48,0,0,0-4,8.56v5.67a3.92,3.92,0,0,0,3.92,3.91H48.14a12,12,0,0,0,23.94,0h59.75a12,12,0,0,0,23.94,0h7.15a3.91,3.91,0,0,0,3.9-3.91V59.11A3.93,3.93,0,0,0,164.14,55.39Zm-130.23.73.06,0a10.84,10.84,0,0,1,8.25-2.33l-3.73,4.81H32A11.49,11.49,0,0,1,33.91,56.12ZM30.59,69.36c0-.07,0-.12,0-.19V65.75h5.82C36,67,34.84,69.25,30.59,69.36ZM60.11,82.73A10.46,10.46,0,1,1,70.57,72.28,10.46,10.46,0,0,1,60.11,82.73Zm83.69,0a10.46,10.46,0,1,1,10.45-10.45A10.46,10.46,0,0,1,143.8,82.73Zm21.43-13.56a2.32,2.32,0,0,1-2.31,2.31h-7.15a12,12,0,0,0-23.94,0H72.08a12,12,0,0,0-23.94,0H32.87a2.26,2.26,0,0,1-1.53-.61c6.52-.56,6.75-5.86,6.75-5.91a.79.79,0,0,0-.23-.57.76.76,0,0,0-.57-.24H30.55V63.5a9.36,9.36,0,0,1,.65-3.33h7.68a.78.78,0,0,0,.63-.31l4.78-6.16a.8.8,0,0,0-.41-1.26,12.83,12.83,0,0,0-3.76-.34c7-3.21,16.53-4.64,23.46-5.28,6-1.4,9.36-4,12.87-6.77,5.1-4,10.38-8.16,25.15-9.24,24.73-1.79,47.77,3.27,50.06,3.78,9.84,8.46,10.9,17.8,10.89,21.44a.79.79,0,0,0,.69.79,2.32,2.32,0,0,1,2,2.29Z"/><path class="cls-1" d="M78.65,45.53h68.87a.8.8,0,0,0,.7-1.19,23,23,0,0,0-6.69-7.22.81.81,0,0,0-.33-.14,202.1,202.1,0,0,0-28.84-2.61s-.07,0-.12,0-.07,0-.11,0c-3.07,0-6.24,0-9.46.09-13,.53-17.77,4.29-22.77,8.27L78.16,44.1a.8.8,0,0,0,.49,1.43Zm67.43-1.6H113V36a200,200,0,0,1,27.7,2.54A22.57,22.57,0,0,1,146.08,43.93Zm-43.35-7.87c3-.12,5.88-.14,8.71-.11v8H81C85.72,40.14,90.26,36.56,102.73,36.06Z"/><path class="cls-1" d="M143.8,54.46c-6.31,0-10.55,1.91-14.55,6.57L76.31,64.86a17.82,17.82,0,0,0-33.56,3.4.8.8,0,0,0,.6.95.58.58,0,0,0,.18,0,.8.8,0,0,0,.78-.62A16.22,16.22,0,0,1,75.07,66c.14.31.49.59.79.48l53.83-3.89a.81.81,0,0,0,.56-.29c3.73-4.44,7.65-6.25,13.55-6.25a16.11,16.11,0,0,1,15.79,12.55.8.8,0,0,0,1.56-.35A17.72,17.72,0,0,0,143.8,54.46Z"/><path class="cls-1" d="M60.11,64.89a7.39,7.39,0,1,0,7.39,7.39A7.4,7.4,0,0,0,60.11,64.89Zm0,13.18a5.79,5.79,0,1,1,5.79-5.79A5.8,5.8,0,0,1,60.11,78.07Z"/><path class="cls-1" d="M143.8,64.89a7.39,7.39,0,1,0,7.39,7.39A7.4,7.4,0,0,0,143.8,64.89Zm0,13.18a5.79,5.79,0,1,1,5.79-5.79A5.8,5.8,0,0,1,143.8,78.07Z"/><path class="cls-1" d="M68.43,54.22a.79.79,0,0,0,.5-.18l7.31-5.79a.8.8,0,0,0,.14-1.12A.79.79,0,0,0,75.26,47l-7.32,5.79a.8.8,0,0,0,.49,1.43Z"/><path class="cls-1" d="M111.26,48.23V59.29a.8.8,0,0,0,1.6,0V48.23a.8.8,0,0,0-1.6,0Z"/><path class="cls-1" d="M136.06,48v4.45a.8.8,0,0,0,1.6,0V48a.8.8,0,0,0-1.6,0Z"/><path class="cls-1" d="M136.06,37.44V45c0,.31.36.55.8.55s.8-.24.8-.55V37.44c0-.31-.35-.55-.8-.55S136.06,37.13,136.06,37.44Z"/><rect class="cls-2" width="195.78" height="108.42"/></g></g></svg>